<svg xmlns="http://www.w3.org/2000/svg" width="1194.744" height="445.346">
  <g fill="#00b8b5">
    <path d="M1083.115 314.23c-3.3-10.163-2.002-18.672-1.988-18.758l.02-.157.163.03c27.635 5.042 38.19 20.753 42.186 33.05 3.39 10.447 2.37 19.363 2.36 19.452l-.024.19-.186-.06c-.047-.016-4.49-1.515-5.197-1.715-24.49-6.87-33.817-21.207-37.335-32.033zm-1.7-18.546c-.16 1.215-1.026 9.13 2 18.448 3.49 10.748 12.763 24.994 37.12 31.83.64.177 4.154 1.358 5.027 1.655.123-1.36.73-9.597-2.367-19.127-3.96-12.192-14.424-27.76-41.78-32.806z"/>
    <path d="M1082.87 308.048c-2.382-7.334-1.915-12.462-1.91-12.527l.317.03c-.012.08-.736 8.07 4.32 18.378 4.664 9.518 15.357 23.012 39.78 33.267l-.12.29c-24.527-10.3-35.264-23.867-39.957-33.438-1.03-2.113-1.824-4.127-2.43-6z"/>
    <path d="M1081.09 295.69l.06-.31c.11.025 11.058 2.266 21.935 9.754 10.043 6.917 22.082 19.855 22.39 42.202l-.315.006c-.31-22.22-12.27-35.07-22.256-41.948-10.822-7.455-21.71-9.68-21.814-9.704z"/>
    <path d="M1082.566 301.736v-.004c-1.213-3.74-1.604-6.124-1.605-6.146l-.038-.244.236.066c11.81 3.234 21.832 10.094 29.8 20.383 6.685 8.64 10.51 17.907 12.54 24.165 1.432 4.405 1.973 7.328 1.98 7.354l.052.288-.27-.113c-12.514-5.422-22.867-13.32-30.785-23.475-6.623-8.504-10.13-16.807-11.907-22.274zm-1.252-5.954c.13.688.566 2.822 1.553 5.854 3.818 11.756 14.375 33.257 42.236 45.438-.172-.843-.743-3.438-1.906-7.02-4.35-13.4-15.576-36.936-41.883-44.272z"/>
    <path d="M1081.855 298.686c-.332-1.024-.635-2.068-.895-3.088l-.082-.32.3.14c.083.038 8.214 3.813 17.548 11.57 8.613 7.16 20.043 19.274 25.58 36.32.428 1.31.818 2.653 1.164 3.988l.094.37-.328-.194c-.34-.2-34.244-20.65-43.38-48.786zm-.502-2.836c.238.91.506 1.83.803 2.74 8.613 26.524 39.354 46.21 42.91 48.408-.32-1.2-.678-2.414-1.062-3.595-5.512-16.976-16.896-29.04-25.48-36.175-8.284-6.884-15.614-10.62-17.17-11.378z"/>
    <path d="M1080.717 295.167l.47.254c28.27 15.198 44.12 51.492 44.276 51.856l.193.453-.422-.257c-23.14-14.057-44.05-51.463-44.26-51.838l-.257-.468zm44.248 51.773c-1.934-4.262-17.307-36.63-43.44-50.98 2.502 4.386 21.967 37.648 43.44 50.98z"/>
    <path d="M1080.69 295.253l.472.158c14.012 4.68 42.705 49.933 42.992 50.387l.564.894-.8-.69c-15.58-13.42-42.66-49.977-42.933-50.346l-.296-.4zm42.6 49.78c-4.157-6.452-28.81-44.087-41.735-49.147 3.015 4.05 26.998 36.023 41.734 49.146z"/>
    <path d="M1081.68 296.074l.234-.212c1.742 1.918 42.75 47.097 43.314 51.07l-.316.043c-.55-3.87-42.807-50.433-43.232-50.9z"/>
    <g>
      <path d="M1019.297 326.13l.055-.186c.033-.102 3.23-10.59 12.406-19.542 5.396-5.254 11.77-8.97 18.943-11.03 8.964-2.574 19.21-2.56 30.45.038l.158.034-.04.154c-.022.095-2.497 9.434-10.644 17.882-7.52 7.794-21.55 16.4-45.682 13.148-.725-.094-5.408-.48-5.453-.482l-.193-.015zm61.623-30.454c-25.23-5.775-40.53 2.76-48.932 10.945-8.453 8.237-11.8 17.785-12.275 19.23.916.074 4.615.38 5.273.47 24.002 3.235 37.94-5.317 45.41-13.058 7.512-7.79 10.163-16.334 10.524-17.586z"/>
      <path d="M1019.918 325.72v-.315c26.512.27 41.703-7.887 49.775-14.777 8.738-7.457 11.246-15.06 11.27-15.136l.302.093c-.025.077-2.56 7.768-11.37 15.278-8.11 6.933-23.368 15.13-49.98 14.857z"/>
      <path d="M1019.775 325.5c9.188-20.383 25.393-27.486 37.36-29.86 12.968-2.562 23.905-.28 24.015-.258l-.066.31c-.107-.02-10.994-2.294-23.896.262-11.896 2.36-27.994 9.42-37.125 29.676l-.288-.13z"/>
      <path d="M1019.623 325.725l.166-.245c.058-.093 6.036-8.944 16.532-17.024 9.695-7.47 25.342-15.793 44.814-13.057l.24.036-.13.21c-.048.077-4.903 7.597-14.845 15.022-9.175 6.852-24.685 15.025-46.48 15.057h-.297zm61.22-30.043c-19.25-2.62-34.718 5.626-44.325 13.02-9.48 7.302-15.257 15.22-16.297 16.707 21.544-.105 36.888-8.198 45.98-14.985 8.982-6.706 13.794-13.488 14.644-14.743z"/>
      <path d="M1019.56 325.772l.235-.304c11.76-15.07 27.807-22.44 39.195-25.975 12.338-3.823 22.023-4.09 22.12-4.093l.333-.004-.205.263c-9.82 12.687-25.965 20.187-37.78 24.242-12.798 4.393-23.41 5.81-23.517 5.818l-.38.052zm61.223-30.037c-1.814.078-10.7.654-21.71 4.06-11.263 3.498-27.1 10.765-38.786 25.562 2.02-.298 11.678-1.842 23.076-5.75 11.688-4.013 27.627-11.407 37.42-23.872z"/>
      <path d="M1020.217 325.327l.355-.338c.285-.27 28.533-26.84 60.527-29.587l.532-.05-.422.33c-.334.258-33.668 25.85-60.506 29.577l-.487.067zm60.365-29.56c-29.68 2.804-56.014 25.997-59.42 29.108 24.996-3.712 55.432-26.105 59.42-29.108z"/>
      <path d="M1020.26 325.46l.873-.603c.45-.305 45.275-30.71 59.994-29.454l.502.044-.437.25c-.4.23-40.28 23.3-59.92 29.444l-1.013.32zm60.32-29.776c-13.89-.47-51.908 24.514-58.342 28.812 18.774-6.21 53.926-26.272 58.342-28.812z"/>
      <path d="M1020.166 325.23c2.102-3.425 57.73-28.638 60.094-29.71l.13.285c-.577.265-57.9 26.248-59.956 29.59l-.268-.165z"/>
    </g>
    <g>
      <path d="M1034.12 357.63l-.05-.187c-.04-.152-3.857-15.088 2.928-30.336l.29.126c-6.327 14.218-3.376 28.162-2.958 29.94.82-.413 4.143-2.064 4.75-2.334 26.586-11.583 32.66-29.878 33.068-43.19l.318.016c-.246 7.968-2.445 15.35-6.53 21.94-5.576 8.986-14.57 16.23-26.73 21.524-.673.296-4.868 2.39-4.912 2.413l-.173.088z"/>
      <path d="M1034.275 356.688c25.607-15.167 33.81-32.01 36.19-43.457l.308.066c-2.387 11.515-10.63 28.433-36.336 43.664l-.162-.272z"/>
      <path d="M1034.2 356.84c-1.36-10.89.24-20.918 4.755-29.802l.283.14c-4.484 8.83-6.074 18.802-4.725 29.625l-.314.037z"/>
      <path d="M1034.185 357.114l.014-.296c.01-.147.718-15.064 8.392-30.142l.28.14c-7.044 13.84-8.198 27.54-8.34 29.716 20.106-12.317 29.05-28.938 33.005-40.736l.303.1c-3.994 11.902-13.03 28.684-33.402 41.065l-.253.154z"/>
      <path d="M1034.156 357.188l.043-.385c1.224-10.568 4.92-20.842 10.98-30.526l.27.17c-5.962 9.524-9.624 19.616-10.89 30.003 2.625-2.175 21.623-18.37 31.113-39.094l.29.13c-10.194 22.25-31.296 39.294-31.505 39.463l-.302.238z"/>
      <path d="M1034.72 356.19l.114-.463c.033-.137 3.62-14.208 13.072-29.983l.27.16c-8.456 14.118-12.202 26.85-12.913 29.425 8.865-7.34 17.287-18.687 25.738-34.667l.28.146c-8.59 16.246-17.158 27.722-26.193 35.074l-.368.306z"/>
      <path d="M1034.79 356.202l.41-.934c7.165-16.297 9.017-19.326 12.378-24.83.902-1.477 1.926-3.153 3.188-5.31l.27.158c-1.26 2.162-2.285 3.84-3.186 5.316-3.287 5.382-5.13 8.396-11.94 23.838 7.19-8.396 15.263-21.356 21.55-31.81l.273.165c-6.496 10.797-14.896 24.268-22.27 32.643l-.672.764z"/>
      <path d="M1034.39 356.41c.01-1.782 6.65-12.724 19.75-32.52l.265.18c-16.27 24.59-19.693 31.16-19.697 32.337l-.317.002z"/>
    </g>
    <g>
      <path d="M1081.428 343.872c-.8-2.457-1.383-4.932-1.748-7.424-1.127-7.67-.2-15.314 2.75-22.724l.29.112c-4.923 12.38-6.642 31.58 13.14 52.738.455.484 2.844 3.312 3.435 4.015 1.09-1.465 9.358-13.09 9.214-28.643l.315-.006c.154 16.686-9.307 28.878-9.4 29l-.12.153-.124-.146c-.032-.042-3.048-3.625-3.55-4.16-6.896-7.368-11.65-15.054-14.202-22.915z"/>
      <path d="M1085.44 344.17c-3.83-11.786-3.55-21.35-2.106-28.282l.31.063c-2.386 11.452-1.566 30.152 15.89 54.216l-.254.188c-6.977-9.62-11.307-18.39-13.84-26.185z"/>
      <path d="M1099.273 370.182c5.555-9.4 8.066-19.176 7.47-29.057l.313-.023c.602 9.947-1.926 19.783-7.512 29.238l-.27-.158z"/>
      <path d="M1088.365 348.817c-3.68-11.332-4.043-21.606-3.377-29.376l.316.027c-1.07 12.395.508 31.183 14.06 50.457.737-2.055 5.136-15.08 4.185-30.572l.317-.02c1.033 16.88-4.26 30.847-4.312 30.987l-.105.274-.172-.245c-5.206-7.348-8.673-14.638-10.913-21.533z"/>
      <path d="M1091.594 351.493c-2.783-8.567-5.305-19.163-5.52-29.852l.318-.007c.455 22.783 11.432 45.17 12.975 48.207 2.98-10.03 3.64-20.747 1.965-31.85l.312-.05c1.703 11.29 1 22.183-2.086 32.368l-.11.37-.18-.345c-.07-.135-4.09-7.797-7.674-18.84z"/>
      <path d="M1094.746 358.733c-2.834-8.72-4.71-19.36-5.7-32.186l.317-.024c1.4 18.144 4.578 31.896 9.72 42.016.388-2.637 2.1-15.813-.04-32.126l.314-.043c2.39 18.23-.012 32.557-.037 32.697l-.08.465-.217-.42c-1.61-3.106-3.037-6.56-4.277-10.38z"/>
      <path d="M1099.355 369.973l-.318-.993c-3.25-10.037-5.566-25.57-7.41-39.442l.314-.043c1.778 13.383 4 28.31 7.067 38.336-.094-4.02-.53-18.432-2.326-33.382l.313-.037c2.105 17.543 2.348 34.35 2.352 34.517l.01 1.046z"/>
      <path d="M1099.252 369.745c.465-1.088-.053-8.473-5.19-37.49l.31-.05c4.134 23.356 5.874 36.025 5.17 37.663l-.29-.123z"/>
    </g>
    <g>
      <path d="M1063.738 351.55c-1.32-4.067-2.207-8.052-2.643-11.907l.312-.037c.72 6.332 2.646 13.006 5.74 19.84.273.6 1.795 4.006 2.156 4.82 1.158-.803 8.602-6.17 14.02-15.63l.278.158c-5.905 10.302-14.198 15.78-14.278 15.84l-.156.1-.078-.17s-1.922-4.31-2.227-4.985c-1.22-2.702-2.264-5.388-3.122-8.03z"/>
      <path d="M1069.172 364.12c-3.182-10.258-4.762-19.955-4.697-28.816l.318.002c-.068 8.83 1.51 18.496 4.682 28.723l-.303.09z"/>
      <path d="M1069.22 363.956c5.843-5.026 10.34-10.753 13.372-17.016l.287.136c-3.054 6.306-7.58 12.065-13.452 17.118l-.207-.238z"/>
      <path d="M1069.258 364.403l-.086-.283c-3.182-10.696-4.152-21.42-2.887-31.877l.314.04c-1.25 10.32-.312 20.897 2.79 31.456 1.154-1.45 7.36-9.554 11.686-21.106l.295.107c-4.78 12.772-11.853 21.35-11.925 21.44l-.187.223z"/>
      <path d="M1069.23 364.48l-.062-.38c-.03-.187-2.986-18.9.35-38.57l.31.052c-3.062 18.06-.804 35.31-.403 38.083 4.992-7.063 8.656-15.11 10.883-23.93l.31.08c-2.274 8.986-6.03 17.174-11.165 24.352l-.223.314z"/>
      <path d="M1069.29 363.854l-.07-.478c-4.08-26.71 11.15-66.013 11.306-66.405l.293.115c-.153.388-15.17 39.134-11.364 65.743 1.172-2.38 6.65-14 9.938-28.88l.31.064c-3.685 16.688-10.122 29.282-10.187 29.408l-.226.434z"/>
      <path d="M1069.353 364.162l.018-1.068c.294-20.528 11.04-65.647 11.147-66.105l.307.072c-.107.45-10.463 43.94-11.11 64.91 1.835-5.963 10.645-35.307 11.778-53.414l.316.016c-1.264 20.173-12.02 54.23-12.127 54.567l-.327 1.022z"/>
      <path d="M1069.34 363.533c2.63-2.915 11.22-65.116 11.303-65.747l.312.04c-.352 2.57-8.69 62.927-11.38 65.92l-.235-.213z"/>
    </g>
  </g>
  <path stroke-miterlimit="10" fill="none" stroke="#fff" d="M314.933 316.708L28.535 150.785"/>
  <path d="M26.016 135.49c5.463 3.154 7.336 10.14 4.184 15.602-3.152 5.463-10.14 7.336-15.602 4.183-1.11-.64-3.14-2.87-3.59-3.732C8.875 147.46 2.545 135.493 0 132.546c0 0 15.656 1.58 20.99 1.7.792.016 3.934.615 5.026 1.245z" fill="#fddccb"/>
  <g fill="#00b8b5">
    <path d="M125.04 213.94c13.526.272 23.173 5.35 23.27 5.4l.18.094-.102.18c-17.46 30.89-40.625 36.974-56.994 36.643-13.906-.28-24.154-5.2-24.258-5.248l-.217-.108.145-.196c.04-.05 3.67-4.73 4.202-5.49 18.345-26.38 39.362-31.568 53.772-31.277zm22.898 5.66c-1.39-.695-10.5-5.012-22.904-5.265-14.31-.29-35.19 4.873-53.44 31.106-.476.69-3.343 4.398-4.06 5.314 1.574.71 11.184 4.847 23.87 5.104 16.23.328 39.188-5.703 56.534-36.26z"/>
    <path d="M132.54 216.208c9.76.198 15.704 2.88 15.78 2.915l-.166.365c-.092-.046-9.355-4.223-23.78-2.46-13.32 1.62-33.892 8.788-56.26 33.682l-.296-.264c22.463-25 43.14-32.19 56.535-33.822 2.956-.357 5.696-.468 8.186-.416z"/>
    <path d="M148.067 219.206l.343.2c-.074.122-7.282 12.26-20.738 22.134-12.43 9.118-32.892 18.123-59.765 9.23l.123-.38c26.72 8.838 47.048-.107 59.404-9.172 13.397-9.826 20.56-21.893 20.633-22.012z"/>
    <path d="M140.22 218.464h.01c4.978.102 7.99.624 8.02.63l.306.056-.176.254c-8.753 12.75-21.105 21.87-36.713 27.113-13.104 4.398-25.777 5.12-34.104 4.95-5.865-.118-9.586-.686-9.62-.688l-.366-.06.246-.273c11.662-12.686 25.395-21.768 40.82-27.008 12.916-4.38 24.303-5.124 31.58-4.976zm7.645.974c-.878-.133-3.614-.495-7.65-.576-15.645-.317-45.743 3.37-71.84 31.572 1.08.144 4.423.537 9.192.635 17.836.36 50.642-3.278 70.298-31.632z"/>
    <path d="M144.164 218.88c1.363.026 2.736.1 4.064.21l.417.035-.292.3c-.08.084-7.958 8.224-21.102 16.146-12.128 7.313-31.35 15.933-54.038 15.474-1.748-.035-3.518-.125-5.258-.266l-.482-.04.37-.312c.38-.324 38.87-32.306 76.322-31.547zm3.602.576c-1.188-.094-2.4-.154-3.61-.18-35.308-.714-71.573 27.813-75.677 31.145 1.57.114 3.17.19 4.74.223 22.595.458 41.74-8.128 53.83-15.414 11.663-7.034 19.165-14.232 20.716-15.774z"/>
    <path d="M148.846 218.98l-.498.457c-29.875 27.434-79.863 31.306-80.365 31.34l-.622.044.482-.395c26.39-21.79 79.802-31.238 80.337-31.333l.666-.113zm-80.254 31.343c5.898-.54 50.994-5.468 78.972-30.71-6.286 1.17-54.14 10.61-78.972 30.71z"/>
    <path d="M148.754 218.91l-.384.5c-11.39 14.78-77.41 30.265-78.075 30.42l-1.303.303 1.156-.67c22.506-13.028 77.45-30.19 78.004-30.363l.602-.19zM71.57 249.115c9.437-2.284 64.67-16.104 76.07-29.433-6.093 1.92-54.276 17.288-76.07 29.434z"/>
    <path d="M147.363 219.752l.157.367c-3.017 1.284-74.04 31.496-79.03 30.52l.08-.394c4.86.948 78.055-30.18 78.793-30.494z"/>
    <g>
      <path d="M137.175 132.844l.2.142c.107.08 11.342 8.244 18.258 22.908 4.06 8.616 5.87 17.764 5.373 27.18-.623 11.762-4.873 23.984-12.63 36.322l-.108.175-.168-.11c-.104-.068-10.258-6.892-17-20.117-6.22-12.205-10.725-32.515 3.145-59.966.41-.828 2.81-6.255 2.832-6.31l.098-.223zm10.978 86.165c17.338-27.714 13.452-49.513 7.125-62.93-6.362-13.505-16.406-21.46-17.94-22.624-.466 1.063-2.36 5.353-2.74 6.098-13.793 27.305-9.32 47.484-3.143 59.607 6.22 12.197 15.348 18.9 16.698 19.85z"/>
      <path d="M137.41 133.756l.376.133c-11.285 31.527-7.8 53.038-2.89 65.528 5.314 13.52 13.378 19.664 13.458 19.726l-.238.32c-.08-.062-8.236-6.276-13.584-19.9-4.944-12.553-8.448-34.162 2.877-65.808z"/>
      <path d="M137.735 133.677c20.596 19.412 22.398 41.696 20.29 56.966-2.292 16.537-9.542 28.645-9.615 28.762l-.343-.206c.068-.12 7.29-12.17 9.564-28.628 2.097-15.175.3-37.312-20.17-56.607l.275-.288z"/>
      <path d="M137.526 133.403l.225.298c.087.108 8.21 10.912 13.542 26.79 4.932 14.667 8.426 36.79-2.898 58.893l-.143.272-.198-.24c-.07-.09-7.064-9.002-11.842-23.945-4.406-13.792-7.78-35.69 1.195-61.715l.12-.352zm10.65 85.513c11.096-21.885 7.618-43.766 2.738-58.295-4.818-14.338-11.908-24.517-13.257-26.375-8.78 25.753-5.437 47.42-1.07 61.085 4.31 13.497 10.44 22.05 11.59 23.586z"/>
      <path d="M137.497 133.304l.266.41c13.176 20.28 15.365 42.485 14.885 57.54-.523 16.31-4.207 27.98-4.242 28.095l-.135.4-.228-.353c-11.127-16.98-13.43-39.356-13.4-55.14.033-17.09 2.727-30.342 2.757-30.475l.097-.478zm10.644 85.518c.655-2.198 3.642-13.04 4.112-27.59.47-14.893-1.682-36.805-14.56-56.885-.48 2.533-2.622 14.7-2.655 29.92-.03 15.614 2.233 37.7 13.104 54.555z"/>
      <path d="M137.756 134.277l.258.564c.203.45 20.326 45.177 10.39 84.5l-.16.656-.218-.642c-.172-.504-17.02-50.895-10.393-84.47l.123-.607zm10.428 84.293c8.912-36.583-7.96-77.625-10.278-82.98-5.888 31.372 8.333 76.974 10.278 82.98z"/>
      <path d="M137.58 134.27l.36 1.295c.177.663 18.04 66.762 10.452 83.807l-.26.578-.117-.62c-.11-.575-11.236-57.728-10.473-83.718l.038-1.34zm10.704 84.33c6.303-16.38-7.883-72.11-10.37-81.568-.324 24.978 9.155 75.247 10.37 81.567z"/>
      <path d="M137.895 134.255c3.23 3.928 10.41 80.765 10.72 84.032l-.397.036c-.078-.798-7.48-79.98-10.63-83.816l.307-.252z"/>
    </g>
    <g>
      <path d="M93.344 137.476l.248.02c.197.014 19.65 1.648 35.096 16.068l-.27.29c-14.402-13.44-32.31-15.7-34.61-15.937.153 1.15.758 5.798.83 6.635 2.87 36.53 22.255 51.362 38.02 57.368l-.15.374c-9.436-3.597-17.36-9.28-23.562-16.887-8.45-10.38-13.4-24.114-14.712-40.823-.074-.926-.846-6.803-.857-6.863l-.033-.244z"/>
      <path d="M94.41 138.053c7.57 36.846 24.335 53.618 37.054 61.203l-.204.342c-12.796-7.622-29.637-24.475-37.24-61.465l.39-.08z"/>
      <path d="M94.26 137.9c13.594 2.89 24.936 8.96 33.703 18.028l-.285.28c-8.715-9.013-19.99-15.043-33.503-17.918l.085-.39z"/>
      <path d="M93.938 137.768l.35.14c.174.07 17.732 7.1 32.607 22.51l-.285.276c-13.654-14.144-29.572-21.2-32.12-22.27 6.435 29.1 22.63 46.662 35.114 56.274l-.243.318c-12.592-9.698-28.943-27.438-35.342-56.884l-.08-.364z"/>
      <path d="M93.863 137.7l.44.213c12.145 5.843 22.91 14.513 31.998 25.76l-.313.25c-8.936-11.062-19.5-19.616-31.408-25.433 1.517 4.034 13.046 33.42 33.93 53.336l-.276.292c-22.42-21.388-34.094-53.636-34.21-53.957l-.16-.46z"/>
      <path d="M94.825 138.788l.506.33c.152.096 15.51 10.21 30.483 28.03l-.303.258c-13.4-15.945-27.094-25.696-29.88-27.612 5.116 13.625 15.216 28.38 30.85 45.088l-.29.274c-15.893-16.988-26.088-31.97-31.15-45.802l-.215-.566z"/>
      <path d="M94.78 138.87l.95.873c16.543 15.308 19.403 18.773 24.6 25.066 1.394 1.688 2.978 3.604 5.04 6.004l-.3.257c-2.07-2.4-3.653-4.317-5.05-6.006-5.08-6.154-7.926-9.6-23.594-24.13 7.078 12.06 19.252 27.067 29.162 38.902l-.31.26c-10.236-12.23-22.886-27.837-29.862-40.108l-.636-1.12z"/>
      <path d="M94.698 138.306c2.13.746 12.478 13.21 30.756 37.046l-.324.244c-22.703-29.61-29.152-36.42-30.56-36.914l.128-.376z"/>
    </g>
    <g>
      <path d="M90.26 199.636c3.27.066 6.475.394 9.607.992 9.646 1.836 18.412 6.108 26.06 12.7l-.253.303c-12.78-11.007-35.053-21.018-68.553-6.182-.765.342-5.138 2.02-6.224 2.435 1.303 1.91 11.8 16.594 30.47 22.87l-.12.38c-20.033-6.733-30.716-23.08-30.823-23.24l-.132-.207.228-.088c.06-.02 5.597-2.136 6.445-2.512 11.67-5.172 22.832-7.662 33.297-7.45z"/>
      <path d="M88.247 204.3c15.687.32 27.02 4.618 34.72 9.21l-.206.344c-12.718-7.593-35.438-14.367-71.454-3.51l-.12-.382c14.396-4.336 26.685-5.87 37.06-5.66z"/>
      <path d="M51.395 210.028c8.953 10.524 19.615 17.574 31.688 20.958l-.102.383c-12.153-3.405-22.88-10.5-31.888-21.085l.303-.257z"/>
      <path d="M81.473 205.867c15.084.305 27.53 4.13 36.556 8.147l-.163.366c-14.392-6.416-37.53-12.32-66.202-4.137 2.154 1.73 15.927 12.38 34.86 17.668l-.104.39c-20.63-5.765-35.16-17.87-35.306-17.992l-.285-.243.362-.103c10.947-3.164 21.103-4.28 30.28-4.095z"/>
      <path d="M76.937 208.61c11.405.23 25.13 1.614 38.01 5.79l-.122.38c-27.457-8.9-58.79-5.08-63.06-4.497 10.773 7.713 23.325 12.943 37.306 15.546l-.067.394c-14.217-2.65-26.964-8.002-37.88-15.907l-.394-.287.485-.072c.192-.03 11.026-1.646 25.722-1.348z"/>
      <path d="M66.97 209.37c11.608.234 25.118 2.406 40.876 6.542l-.102.388c-22.295-5.85-40.066-7.76-54.303-5.818 2.993 1.556 18.056 9.06 38.465 13.27l-.08.393c-22.802-4.704-38.96-13.508-39.116-13.598l-.524-.288.592-.088c4.383-.635 9.107-.905 14.19-.802z"/>
      <path d="M51.61 210.214l1.32.03c13.355.283 32.906 3.957 50.27 7.508l-.08.393c-16.75-3.427-35.533-6.964-48.803-7.46 4.852 1.558 22.283 7.008 40.918 11.064l-.086.388c-21.866-4.76-42.08-11.437-42.283-11.5l-1.257-.424z"/>
      <path d="M51.924 210.182c1.113 1.01 10.164 3.45 47.018 9.348l-.068.392c-29.664-4.75-45.545-7.924-47.213-9.443l.264-.298z"/>
    </g>
    <g>
      <path d="M88.38 175.343c5.415.11 10.55.703 15.345 1.782l-.084.39c-7.876-1.77-16.66-2.233-26.118-1.374-.83.077-5.535.48-6.658.575.482 1.714 3.825 12.823 12.908 23.213l-.303.263c-9.89-11.317-13.02-23.484-13.055-23.605l-.056-.227.235-.023s5.95-.506 6.885-.59c3.743-.343 7.385-.473 10.9-.402z"/>
      <path d="M71.09 176.616c13.596.456 25.852 2.59 36.434 6.34l-.135.38c-10.542-3.74-22.763-5.865-36.313-6.318l.014-.402z"/>
      <path d="M71.27 176.743c3.6 9.056 8.596 16.797 14.836 23.013l-.28.286c-6.284-6.258-11.308-14.047-14.927-23.15l.37-.15z"/>
      <path d="M70.717 176.602l.374.014c14.12.638 27.354 3.924 39.348 9.77l-.176.36c-11.838-5.77-24.887-9.035-38.807-9.71 1.26 1.978 8.393 12.746 20.432 22.694l-.25.308c-13.31-11-20.654-22.996-20.73-23.12l-.19-.316z"/>
      <path d="M70.636 176.538l.482.084c.235.04 23.854 4.27 46.015 16.405l-.188.348c-20.35-11.14-41.93-15.597-45.414-16.27 6.392 8.89 14.512 16.595 24.144 22.91l-.22.336c-9.817-6.438-18.065-14.317-24.534-23.42l-.284-.392z"/>
      <path d="M71.36 176.87l.604.112c33.652 6.2 74.397 40.672 74.803 41.02l-.26.304c-.4-.344-40.566-34.325-73.988-40.814 2.366 2.385 14.007 13.74 30.458 23.833l-.205.342c-18.45-11.316-30.862-24.22-30.986-24.35l-.426-.448z"/>
      <path d="M70.965 176.817l1.272.463c24.448 8.862 74.007 40.388 74.513 40.706l-.216.337c-.495-.313-48.267-30.703-73.094-40.168 6.378 4.663 37.854 27.342 59.06 36.2l-.15.372c-23.62-9.87-59.932-36.827-60.295-37.095l-1.09-.815z"/>
      <path d="M71.725 177.062c2.402 4.344 73.3 40.38 74.018 40.743l-.178.354c-2.93-1.484-71.723-36.456-74.19-40.906l.35-.192z"/>
    </g>
  </g>
  <path d="M134.793 212.667L73.39 316.707h120.782v-69.745l-59.38-34.295zM194.172 246.962v69.746h120.76l-120.76-69.746z" fill="#ba4248"/>
  <path fill="#fab8a3" d="M194.172 112.053l-59.38 100.614 180.14 104.04"/>
  <path fill="none" stroke="#fff" stroke-miterlimit="10" d="M139.113 211.532l55.06-93.295 111.975 189.768z"/>
  <path fill="none" stroke="#fff" stroke-miterlimit="10" d="M143.432 210.397l50.74-85.975L297.364 299.3z"/>
  <path fill="none" stroke="#fff" stroke-miterlimit="10" d="M147.75 209.26l46.422-78.654 94.407 159.99z"/>
  <path fill="none" stroke="#fff" stroke-miterlimit="10" d="M152.07 208.127l42.102-71.337 85.62 145.103z"/>
  <path fill="none" stroke="#fff" stroke-miterlimit="10" d="M156.39 206.99l37.78-64.015L271.01 273.19z"/>
  <path fill="none" stroke="#fff" stroke-miterlimit="10" d="M160.71 205.857l33.46-56.698 68.053 115.327z"/>
  <path fill="none" stroke="#fff" stroke-miterlimit="10" d="M165.03 204.72l29.14-49.377 59.268 100.44z"/>
  <path fill="none" stroke="#fff" stroke-miterlimit="10" d="M169.35 203.587l24.82-42.06 50.483 85.553z"/>
  <path fill="none" stroke="#fff" stroke-miterlimit="10" d="M173.668 202.45l20.502-34.738 41.698 70.664z"/>
  <path fill="none" stroke="#fff" stroke-miterlimit="10" d="M177.987 201.317l16.183-27.42 32.912 55.776z"/>
  <path fill="none" stroke="#fff" stroke-miterlimit="10" d="M182.307 200.18l11.863-20.1 24.127 40.89z"/>
  <path fill="none" stroke="#fff" stroke-miterlimit="10" d="M186.625 199.047l7.545-12.783 15.342 26z"/>
  <path fill="none" stroke="#fff" stroke-miterlimit="10" d="M190.946 197.91l3.222-5.462 6.56 11.113z"/>
  <path d="M507.835 207.085L347.328 316.708h103.207c72.5 0 104.077-75.13 57.3-109.623z" fill="#ba4248"/>
  <path stroke-miterlimit="10" fill="none" stroke="#fff" stroke-linecap="square" stroke-linejoin="bevel" d="M348.284 314.488l152.87-282.682"/>
  <path d="M496.883 17.18c-3.533 5.227-2.158 12.327 3.068 15.858 5.228 3.53 12.326 2.158 15.858-3.07.72-1.062 1.566-3.953 1.594-4.927.13-4.604.582-18.135 1.58-21.897 0 0-13.385 8.274-18.13 10.717-.7.362-3.264 2.276-3.97 3.32z" fill="#fddccb"/>
  <g fill="#00b8b5">
    <path d="M454.29 107.777c-.216 10.71-4.235 18.348-4.274 18.426l-.074.142-.143-.08c-24.46-13.824-29.276-32.168-29.015-45.128.223-11.01 4.117-19.124 4.154-19.206l.085-.17.156.115c.04.03 3.746 2.906 4.348 3.327 20.886 14.524 24.994 31.164 24.763 42.575zm-4.48 18.13c.55-1.1 3.968-8.315 4.17-18.137.228-11.328-3.86-27.863-24.63-42.312-.547-.376-3.482-2.648-4.207-3.215-.564 1.248-3.84 8.856-4.04 18.9-.263 12.852 4.515 31.03 28.708 44.763z"/>
    <path d="M452.497 113.714c-.158 7.73-2.28 12.436-2.31 12.497l-.288-.13c.036-.074 3.343-7.41 1.948-18.83-1.285-10.546-6.96-26.834-26.67-44.544l.21-.236c19.794 17.786 25.486 34.16 26.778 44.764.283 2.34.37 4.51.33 6.48z"/>
    <path d="M450.122 126.008l-.158.27c-.096-.058-9.707-5.764-17.525-16.42-7.22-9.84-14.35-26.042-7.308-47.32l.3.098c-6.998 21.156.086 37.25 7.263 47.036 7.778 10.607 17.333 16.278 17.427 16.336z"/>
    <path d="M450.71 119.795c-.08 3.942-.495 6.328-.5 6.35l-.044.244-.2-.14c-10.097-6.93-17.317-16.712-21.468-29.07-3.482-10.374-4.055-20.41-3.92-27.002.094-4.644.543-7.59.545-7.617l.045-.29.22.196c10.044 9.234 17.233 20.106 21.384 32.32 3.467 10.227 4.055 19.243 3.937 25.005zm-.772 6.053c.105-.694.39-2.86.455-6.055.252-12.39-2.668-36.22-24.998-56.882-.112.856-.426 3.502-.502 7.28-.287 14.12 2.596 40.096 25.045 55.658z"/>
    <path d="M450.38 122.918c-.022 1.08-.08 2.167-.167 3.22l-.027.33-.238-.23c-.066-.063-6.512-6.302-12.783-16.71-5.79-9.603-12.615-24.823-12.252-42.787.03-1.383.1-2.783.21-4.16l.032-.384.248.292c.256.302 25.58 30.776 24.978 60.43zm-.456 2.852c.074-.94.12-1.9.14-2.858.567-27.957-22.02-56.67-24.657-59.918-.09 1.243-.15 2.51-.176 3.753-.362 17.89 6.437 33.05 12.206 42.622 5.567 9.233 11.266 15.174 12.488 16.4z"/>
    <path d="M450.3 126.626l-.362-.395c-21.72-23.653-24.787-63.233-24.814-63.63l-.033-.493.313.38c17.254 20.896 24.734 63.187 24.81 63.61l.088.53zm-24.817-63.544c.428 4.67 4.33 40.377 24.316 62.53-.927-4.98-8.4-42.87-24.317-62.53z"/>
    <path d="M450.354 126.553l-.393-.304c-11.704-9.02-23.964-61.294-24.087-61.82l-.24-1.032.53.916c10.317 17.82 23.905 61.322 24.042 61.76l.15.48zM426.44 65.44c1.81 7.472 12.753 51.204 23.305 60.23-1.52-4.824-13.688-42.973-23.304-60.23z"/>
    <path d="M449.69 125.45l-.29.126c-1.02-2.39-24.94-58.624-24.167-62.574l.31.063c-.75 3.848 23.897 61.802 24.147 62.386z"/>
    <g>
      <path d="M518.5 117.385l-.11.158c-.064.086-6.528 8.98-18.14 14.458-6.822 3.215-14.064 4.648-21.52 4.254-9.312-.494-18.99-3.86-28.76-10l-.14-.085.09-.134c.054-.08 5.457-8.122 15.93-13.46 9.663-4.925 25.743-8.49 47.478 2.49.656.325 4.953 2.224 4.996 2.243l.176.075zm-68.222 8.692c21.942 13.728 39.203 10.65 49.827 5.642 10.692-5.04 16.99-12.993 17.91-14.206-.84-.37-4.237-1.87-4.827-2.17-21.62-10.922-37.596-7.38-47.195-2.488-9.657 4.923-14.965 12.152-15.715 13.22z"/>
      <path d="M517.78 117.57l-.105.298c-24.964-8.934-41.995-6.175-51.885-2.287-10.705 4.208-15.57 10.592-15.62 10.656l-.253-.188c.05-.064 4.97-6.522 15.756-10.757 9.94-3.912 27.05-6.686 52.107 2.28z"/>
      <path d="M517.842 117.828c-15.37 16.307-33.016 17.734-45.105 16.066-13.093-1.815-22.68-7.556-22.773-7.614l.164-.27c.094.054 9.635 5.77 22.664 7.572 12.018 1.66 29.545.237 44.822-15.972l.228.218z"/>
      <path d="M518.06 117.663l-.237.178c-.084.07-8.64 6.5-21.21 10.72-11.614 3.906-29.13 6.673-46.632-2.293l-.214-.113.19-.157c.07-.056 7.128-5.594 18.96-9.377 10.92-3.488 28.258-6.16 48.863.946l.28.097zm-67.71 8.433c17.33 8.784 34.654 6.032 46.158 2.167 11.354-3.814 19.412-9.43 20.885-10.497-20.39-6.952-37.547-4.304-48.367-.85-10.687 3.417-17.46 8.27-18.676 9.18z"/>
      <path d="M518.137 117.638l-.324.21c-16.06 10.434-33.64 12.168-45.56 11.787-12.915-.414-22.155-3.33-22.245-3.36l-.316-.106.277-.182c13.444-8.81 31.162-10.632 43.657-10.61 13.535.026 24.027 2.16 24.13 2.184l.38.076zm-67.71 8.43c1.74.517 10.324 2.88 21.845 3.254 11.79.374 29.14-1.33 45.04-11.527-2.007-.38-11.64-2.077-23.692-2.103-12.362-.024-29.85 1.768-43.194 10.375z"/>
      <path d="M517.368 117.845l-.447.204c-.354.16-35.77 16.093-66.903 8.227l-.52-.128.508-.174c.398-.136 40.297-13.477 66.88-8.228l.483.097zm-66.743 8.257c28.967 7.057 61.463-6.305 65.7-8.138-24.838-4.662-60.945 6.597-65.7 8.138z"/>
      <path d="M517.372 117.706l-1.023.285c-.526.142-52.862 14.286-66.358 8.278l-.457-.206.49-.094c.455-.087 45.71-8.896 66.287-8.292l1.06.03zm-66.77 8.474c12.97 4.99 57.095-6.24 64.584-8.21-19.777-.256-59.58 7.248-64.584 8.21z"/>
      <path d="M517.385 117.955c-3.11 2.558-63.95 8.243-66.535 8.487l-.03-.314c.634-.062 63.328-5.923 66.366-8.417l.2.245z"/>
    </g>
    <g>
      <path d="M514.834 82.68l-.016.197c-.012.156-1.305 15.56-12.723 27.79l-.23-.214c10.643-11.404 12.432-25.583 12.62-27.404-.91.12-4.59.6-5.253.655-28.926 2.274-40.668 17.623-45.424 30.104l-.296-.12c2.85-7.47 7.35-13.744 13.372-18.655 8.217-6.69 19.092-10.61 32.322-11.648.732-.06 5.385-.67 5.434-.68l.194-.026z"/>
      <path d="M514.377 83.525c-29.174 5.992-42.454 19.267-48.46 29.338l-.27-.163c6.035-10.13 19.38-23.466 48.668-29.486l.062.31z"/>
      <path d="M514.498 83.405c-2.287 10.764-7.094 19.744-14.273 26.686l-.223-.225c7.137-6.9 11.91-15.83 14.188-26.527l.308.067z"/>
      <path d="M514.602 83.15l-.11.277c-.054.138-5.622 14.04-17.823 25.817l-.22-.226c11.2-10.81 16.787-23.414 17.635-25.43-23.043 5.092-36.947 17.916-44.56 27.8l-.25-.19c7.677-9.973 21.724-22.918 45.04-27.984l.287-.063z"/>
      <path d="M514.655 83.09l-.168.35c-4.626 9.615-11.49 18.14-20.395 25.335l-.2-.248c8.76-7.076 15.532-15.44 20.14-24.87-3.195 1.203-26.463 10.33-42.232 26.866l-.23-.22c16.935-17.75 42.47-26.994 42.723-27.085l.362-.128z"/>
      <path d="M513.795 83.853l-.26.4c-.077.12-8.086 12.28-22.195 24.136l-.203-.24c12.625-10.612 20.346-21.453 21.86-23.66-10.786 4.053-22.468 12.05-35.698 24.43l-.218-.23c13.45-12.585 25.313-20.656 36.266-24.667l.447-.17z"/>
      <path d="M513.73 83.817l-.69.752c-12.12 13.098-14.865 15.363-19.847 19.477-1.34 1.104-2.854 2.358-4.755 3.99l-.204-.238c1.9-1.64 3.42-2.892 4.757-3.997 4.872-4.024 7.6-6.277 19.105-18.682-9.548 5.606-21.43 15.244-30.802 23.092l-.205-.244c9.684-8.106 22.04-18.122 31.758-23.646l.885-.505z"/>
      <path d="M514.176 83.752c-.59 1.685-10.46 9.88-29.332 24.352l-.193-.256c23.446-17.976 28.84-23.083 29.23-24.198l.296.102z"/>
    </g>
    <g>
      <path d="M465.618 80.24c-.053 2.588-.312 5.125-.787 7.606-1.452 7.637-4.835 14.58-10.056 20.633l-.238-.202c8.716-10.12 16.64-27.753 4.895-54.28-.27-.605-1.597-4.066-1.926-4.927-1.51 1.033-13.14 9.343-18.106 24.128l-.302-.097c5.33-15.86 18.272-24.32 18.4-24.404l.163-.104.07.18c.016.048 1.69 4.43 1.987 5.103 4.096 9.24 6.067 18.077 5.9 26.364z"/>
      <path d="M461.922 78.644c-.252 12.42-3.654 21.395-7.293 27.49l-.272-.162c6.014-10.07 11.377-28.06 2.78-56.577l.302-.094c3.434 11.4 4.648 21.128 4.482 29.344z"/>
      <path d="M457.39 49.465c-8.335 7.09-13.917 15.53-16.597 25.09l-.303-.08c2.695-9.625 8.312-18.12 16.693-25.25l.206.24z"/>
      <path d="M460.684 73.28c-.242 11.943-3.27 21.8-6.45 28.944l-.292-.128c5.08-11.395 9.755-29.716 3.277-52.418-1.372 1.706-9.804 12.61-13.99 27.603l-.31-.084c4.565-16.334 14.15-27.838 14.247-27.954l.192-.227.08.29c2.506 8.667 3.39 16.708 3.244 23.976z"/>
      <path d="M458.512 69.69c-.184 9.03-1.278 19.895-4.584 30.095l-.303-.097c7.05-21.74 4.024-46.547 3.56-49.93-6.104 8.53-10.247 18.47-12.308 29.54l-.312-.055c2.098-11.255 6.336-21.35 12.596-29.99l.228-.313.058.384c.02.15 1.302 8.728 1.066 20.365z"/>
      <path d="M457.91 61.797c-.185 9.19-1.905 19.888-5.18 32.365l-.308-.08c4.633-17.653 6.145-31.724 4.607-42.997-1.233 2.37-7.174 14.296-10.51 30.456l-.308-.062c3.725-18.054 10.695-30.848 10.766-30.972l.228-.414.07.467c.502 3.47.715 7.212.635 11.237z"/>
      <path d="M457.242 49.636l-.024 1.044c-.225 10.575-3.133 26.054-5.944 39.803l-.31-.062c2.713-13.263 5.513-28.134 5.906-38.642-1.233 3.842-5.55 17.643-8.76 32.398l-.31-.068c3.77-17.312 9.058-33.318 9.108-33.478l.334-.994z"/>
      <path d="M457.266 49.885c-.797.88-2.73 8.047-7.4 37.227l-.31-.055c3.76-23.486 6.272-36.06 7.476-37.382l.234.21z"/>
    </g>
    <g>
      <path d="M484.852 78.752c-.088 4.286-.557 8.352-1.412 12.15l-.308-.068c1.4-6.237 1.767-13.19 1.087-20.68-.062-.66-.38-4.383-.456-5.273-1.357.383-10.152 3.03-18.38 10.222l-.208-.24c8.963-7.83 18.596-10.306 18.69-10.335l.18-.043.02.187s.4 4.71.466 5.453c.273 2.96.377 5.843.32 8.63z"/>
      <path d="M483.844 65.06c-.36 10.765-2.053 20.47-5.02 28.847l-.302-.106c2.963-8.346 4.646-18.02 5.004-28.75l.318.01z"/>
      <path d="M483.743 65.2c-7.17 2.852-13.3 6.807-18.22 11.75l-.228-.223c4.955-4.976 11.123-8.953 18.33-11.82l.118.294z"/>
      <path d="M483.854 64.764l-.01.296c-.506 11.18-3.107 21.658-7.738 31.155l-.283-.14c4.57-9.373 7.154-19.704 7.688-30.726-1.564.995-10.09 6.642-17.968 16.175l-.244-.197c8.71-10.538 18.208-16.353 18.306-16.413l.25-.15z"/>
      <path d="M483.906 64.7l-.067.382c-.032.186-3.382 18.888-12.99 36.435l-.274-.15c8.82-16.112 12.35-33.2 12.88-35.957-7.036 5.06-13.138 11.49-18.138 19.115l-.268-.175c5.1-7.772 11.338-14.303 18.545-19.424l.31-.226z"/>
      <path d="M483.644 65.274l-.09.477c-4.91 26.647-32.204 58.908-32.48 59.23l-.24-.206c.272-.317 27.18-32.12 32.317-58.582-1.888 1.873-10.878 11.09-18.87 24.116l-.27-.162c8.96-14.608 19.176-24.437 19.28-24.535l.354-.336z"/>
      <path d="M483.685 64.962l-.366 1.007c-7.02 19.357-31.98 58.596-32.23 58.996l-.268-.17c.247-.392 24.31-38.217 31.805-57.875-3.692 5.05-21.65 29.973-28.663 46.762l-.293-.12c7.815-18.702 29.16-47.453 29.37-47.74l.645-.86z"/>
      <path d="M483.49 65.563c-3.438 1.902-31.972 58.036-32.26 58.606l-.28-.142c1.174-2.32 28.865-56.79 32.39-58.742l.15.277z"/>
    </g>
  </g>
  <path d="M457.758 112.053L347.708 316.52l160.127-109.435c33.097-36.523 3.25-92.266-50.11-94.923" fill="#ba4248"/>
  <path d="M453.75 112.053H347.328l.38 204.467 110.017-204.358c-1.312-.065-2.633-.11-3.975-.11z" fill="#fab8a3"/>
  <path fill="none" stroke="#fff" stroke-miterlimit="10" d="M350.477 115.196h102.045L350.83 304.094z"/>
  <path fill="none" stroke="#fff" stroke-miterlimit="10" d="M353.627 118.34h93.635L353.95 291.67z"/>
  <path fill="none" stroke="#fff" stroke-miterlimit="10" d="M356.776 121.482H442l-84.93 157.76z"/>
  <path fill="none" stroke="#fff" stroke-miterlimit="10" d="M359.924 124.625h76.815l-76.55 142.192z"/>
  <path fill="none" stroke="#fff" stroke-miterlimit="10" d="M363.073 127.768h68.404L363.31 254.39z"/>
  <path fill="none" stroke="#fff" stroke-miterlimit="10" d="M366.22 130.91h59.995l-59.787 111.056z"/>
  <path fill="none" stroke="#fff" stroke-miterlimit="10" d="M369.372 134.054h51.582L369.55 229.54z"/>
  <path fill="none" stroke="#fff" stroke-miterlimit="10" d="M372.52 137.196h43.172l-43.024 79.918z"/>
  <path fill="none" stroke="#fff" stroke-miterlimit="10" d="M375.668 140.34h34.762l-34.64 64.348z"/>
  <path fill="none" stroke="#fff" stroke-miterlimit="10" d="M378.818 143.483h26.35l-26.26 48.78z"/>
  <path fill="none" stroke="#fff" stroke-miterlimit="10" d="M381.967 146.625h17.94l-17.877 33.21z"/>
  <path fill="none" stroke="#fff" stroke-miterlimit="10" d="M385.116 149.768h9.53l-9.497 17.642zM589.47 144.242l189.503 243.095M668.67 111.076l73.025 297.94"/>
  <g fill="#00b8b5">
    <path d="M717.994 307.106c-9.188-5.443-13.82-12.64-13.867-12.712l-.088-.133.142-.08c24.143-14.195 42.457-9.325 53.576-2.74 9.445 5.596 14.555 12.918 14.607 12.99l.107.157-.178.077c-.047.018-4.383 1.787-5.05 2.096-22.976 10.786-39.46 6.143-49.25.346zm-13.51-12.742c.682 1.01 5.246 7.483 13.672 12.477 9.72 5.757 26.1 10.365 48.957-.36.598-.282 4.027-1.685 4.88-2.03-.804-1.095-5.78-7.637-14.397-12.74-11.026-6.533-29.176-11.356-53.112 2.654z"/>
    <path d="M713.734 302.65c-6.63-3.927-9.662-8.06-9.7-8.11l.257-.185c.046.067 4.77 6.503 15.378 10.913 9.79 4.074 26.746 7.2 51.906-1.014l.102.293c-25.27 8.25-42.307 5.098-52.154 1-2.17-.905-4.098-1.894-5.788-2.896z"/>
    <path d="M704.242 294.58l-.158-.27c.1-.052 9.824-5.494 22.955-6.972 12.128-1.362 29.73.475 44.702 16.957l-.234.21c-14.89-16.386-32.375-18.208-44.434-16.856-13.068 1.466-22.734 6.88-22.832 6.93z"/>
    <path d="M709.344 298.134h-.01c-3.38-2.006-5.246-3.532-5.264-3.547l-.19-.157.224-.103c11.03-5.26 23.104-6.65 35.893-4.147 10.734 2.105 19.727 6.538 25.383 9.89 3.984 2.36 6.318 4.19 6.34 4.206l.23.182-.277.09c-13.004 4.084-26.012 4.916-38.674 2.48-10.6-2.046-18.72-5.967-23.66-8.894zm-4.87-3.63c.548.43 2.286 1.74 5.028 3.36 10.63 6.297 32.764 15.488 61.787 6.476-.69-.517-2.83-2.083-6.07-4.002-12.115-7.177-36.09-17.455-60.747-5.835z"/>
    <path d="M706.797 296.32c-.928-.55-1.844-1.132-2.713-1.724l-.27-.186.317-.09c.087-.027 8.702-2.493 20.85-2.766 11.212-.254 27.812 1.363 43.224 10.49 1.188.703 2.367 1.452 3.508 2.224l.316.216-.377.067c-.388.074-39.416 6.84-64.853-8.23zm-2.25-1.79c.78.523 1.59 1.036 2.41 1.522 23.984 14.206 60.123 8.925 64.254 8.256-1.034-.688-2.103-1.36-3.17-1.993-15.35-9.09-31.882-10.7-43.054-10.448-10.78.243-18.767 2.216-20.44 2.662z"/>
    <path d="M703.617 294.432l.52-.117c31.32-7.023 67.196 9.772 67.556 9.943l.443.213-.486.083c-26.703 4.544-67.125-9.795-67.53-9.94l-.503-.18zm67.48 9.9c-4.27-1.927-37.196-16.103-66.35-9.833 4.78 1.65 41.38 13.832 66.35 9.83z"/>
    <path d="M703.652 294.513l.46-.188c13.642-5.61 65.1 9.527 65.62 9.68l1.014.3-1.06.004c-20.59.103-65.095-9.592-65.546-9.69l-.488-.107zm64.922 9.484c-7.385-2.117-50.777-14.194-63.852-9.573 4.942 1.065 44.096 9.35 63.852 9.573z"/>
    <path d="M704.94 294.483l.036-.31c2.578.3 63.268 7.38 66.312 9.98l-.21.237c-2.965-2.53-65.508-9.834-66.137-9.907z"/>
    <g>
      <path d="M677.766 357.463l-.08-.174c-.043-.098-4.553-10.006-3.54-22.652.597-7.43 2.95-14.346 6.995-20.545 5.054-7.747 12.782-14.396 22.964-19.76l.143-.078.072.14c.044.087 4.34 8.67 3.772 20.27-.525 10.706-5.416 26.25-25.742 39.5-.607.403-4.39 3.158-4.428 3.186l-.156.113zm26.34-62.783c-22.815 12.084-28.716 28.398-29.644 39.97-.938 11.643 2.838 20.946 3.432 22.334.738-.542 3.73-2.716 4.28-3.077 20.218-13.183 25.08-28.625 25.603-39.26.522-10.696-3.117-18.798-3.672-19.967z"/>
      <path d="M677.965 356.753l-.207-.236c20.152-17.027 26.217-32.99 27.754-43.38 1.664-11.245-1.46-18.552-1.49-18.626l.287-.124c.03.074 3.192 7.463 1.51 18.795-1.54 10.446-7.63 26.48-27.855 43.573z"/>
      <path d="M677.71 356.68c-6.52-21.187 1.003-37.022 8.456-46.572 8.076-10.34 17.82-15.744 17.918-15.797l.154.275c-.094.054-9.795 5.43-17.828 15.724-7.408 9.49-14.88 25.224-8.398 46.28l-.303.09z"/>
      <path d="M677.746 356.947l-.04-.29c-.017-.105-1.35-10.6 1.23-23.454 2.38-11.876 8.677-28.26 25.15-38.87l.204-.128.043.24c.014.09 1.314 8.858-1.277 20.863-2.395 11.078-8.688 27.26-25.088 41.446l-.222.193zm26.307-62.213c-16.23 10.553-22.447 26.763-24.805 38.526-2.328 11.61-1.457 21.277-1.262 23.063 16.16-14.077 22.383-30.09 24.756-41.066 2.346-10.842 1.496-19.033 1.31-20.523z"/>
      <path d="M677.728 357.026l-.023-.38c-1.08-18.896 6.146-34.825 12.396-44.864 6.774-10.87 13.896-17.367 13.966-17.43l.25-.22.018.328c.97 15.854-6.246 31.946-12.473 42.653-6.743 11.594-13.804 19.547-13.878 19.625l-.254.288zm26.31-62.213c-1.31 1.238-7.628 7.44-13.673 17.14-6.18 9.93-13.318 25.646-12.363 44.288 1.326-1.533 7.582-8.963 13.592-19.287 6.16-10.59 13.29-26.47 12.445-42.14z"/>
      <path d="M677.93 356.264l.045-.482c.037-.385 3.795-38.58 26.086-61.422l.37-.385-.102.52c-.08.41-8.316 41.18-26.074 61.403l-.324.366zm25.98-61.297c-20.51 21.38-25.053 55.81-25.566 60.346 16.382-19.015 24.543-55.51 25.566-60.346z"/>
      <path d="M678.05 356.337l.26-1.018c.14-.522 13.856-52.35 25.77-60.98l.41-.29-.165.468c-.148.432-14.977 43.57-25.723 60.922l-.553.897zm25.803-61.428c-10.77 8.673-22.938 52.032-24.95 59.422 10.048-16.837 23.3-54.66 24.95-59.423z"/>
      <path d="M677.828 356.225c-.676-3.923 24.604-58.895 25.676-61.232l.287.13c-.26.57-26.31 57.222-25.65 61.052l-.312.05z"/>
    </g>
    <g>
      <path d="M709.71 371.348l-.163-.11c-.13-.085-12.857-8.754-17.8-24.55l.3-.092c4.61 14.727 16.03 23.22 17.518 24.273.348-.843 1.76-4.233 2.04-4.83 12.39-25.924 4.9-43.528-3.57-53.732l.25-.196c5.07 6.11 8.28 13.05 9.552 20.625 1.725 10.332-.273 21.584-5.943 33.44-.312.657-2.092 4.948-2.11 4.993l-.073.178z"/>
      <path d="M709.203 370.543c9.29-27.964 4.36-45.868-1.396-55.962l.275-.15c5.797 10.147 10.744 28.136 1.422 56.212l-.3-.1z"/>
      <path d="M709.248 370.706c-8.207-7.246-13.615-15.774-16.072-25.34l.305-.08c2.446 9.508 7.825 17.985 15.98 25.188l-.212.232z"/>
      <path d="M709.418 370.92l-.188-.23c-.092-.114-9.393-11.713-13.555-27.957l.305-.077c3.82 14.91 11.984 25.89 13.314 27.604 7.023-22.262 2.797-40.48-2.002-51.86l.293-.122c4.842 11.48 9.102 29.882 1.918 52.365l-.085.277z"/>
      <path d="M709.443 370.995l-.22-.316c-6.048-8.688-10.038-18.76-11.86-29.928l.312-.048c1.793 10.984 5.69 20.898 11.586 29.477.544-3.33 4.177-27.766-2.345-49.405l.305-.092c6.996 23.238 2.34 49.674 2.293 49.938l-.07.375z"/>
      <path d="M709.21 369.883l-.22-.42c-.066-.125-6.64-12.962-9.926-30.882l.31-.055c2.94 16.035 8.515 27.977 9.677 30.36 1.84-11.24.702-25.185-3.472-42.607l.31-.073c4.24 17.713 5.354 31.85 3.395 43.21l-.074.468z"/>
      <path d="M709.27 369.845l-.308-.962c-5.35-16.824-5.953-20.29-7.05-26.582-.294-1.688-.63-3.604-1.103-6.036l.308-.058c.48 2.434.812 4.35 1.105 6.04 1.074 6.154 1.674 9.6 6.73 25.556-.124-10.94-2.59-25.862-4.747-37.75l.314-.057c2.23 12.282 4.783 27.798 4.752 38.843v1.007z"/>
      <path d="M709.107 370.258c-1.17-1.334-3.38-13.818-6.568-37.11l.315-.04c3.96 28.933 5.713 36.063 6.488 36.945l-.236.205z"/>
    </g>
    <g>
      <path d="M736.273 330.333c-2.223-1.314-4.295-2.783-6.213-4.406-5.906-4.994-10.252-11.303-12.916-18.752l.295-.106c4.454 12.44 15.823 27.895 44.68 30.836.66.065 4.325.625 5.233.765-.145-1.8-1.584-15.853-11.947-27.37l.234-.21c11.12 12.356 12.03 27.607 12.043 27.76l.01.19-.19-.026c-.052-.01-4.687-.726-5.42-.8-10.052-1.023-18.7-3.67-25.81-7.88z"/>
      <path d="M739.492 327.948c-10.656-6.312-16.754-13.635-20.24-19.746l.277-.153c5.753 10.098 18.704 23.527 47.726 30.148l-.07.307c-11.598-2.65-20.647-6.383-27.694-10.557z"/>
      <path d="M767.07 338.378c-2.016-10.626-6.57-19.556-13.535-26.545l.22-.22c7.015 7.034 11.597 16.02 13.624 26.708l-.31.058z"/>
      <path d="M744.762 329.516c-10.246-6.067-17.297-13.502-21.918-19.736l.256-.187c7.367 9.95 20.947 22.95 43.87 28.535-.802-2.014-6.08-14.597-17.013-25.545l.227-.224c11.912 11.93 17.135 25.798 17.19 25.937l.1.275-.292-.07c-8.766-2.105-16.186-5.293-22.42-8.986z"/>
      <path d="M748.957 329.417c-7.746-4.59-16.635-10.86-23.844-18.7l.234-.213c15.37 16.714 38.402 26.296 41.568 27.56-4.373-9.426-10.94-17.855-19.525-25.056l.203-.24c8.727 7.322 15.383 15.91 19.773 25.52l.16.35-.36-.14c-.145-.058-8.225-3.167-18.21-9.08z"/>
      <path d="M756.107 332.774c-7.887-4.67-16.316-11.395-25.52-20.326l.22-.225c13.024 12.637 24.485 20.838 35.032 25.053-1.444-2.22-8.847-13.17-21.216-23.96l.207-.233c13.823 12.055 21.464 24.312 21.538 24.433l.246.4-.44-.172c-3.262-1.273-6.614-2.925-10.067-4.97z"/>
      <path d="M766.994 338.17l-.895-.534c-9.07-5.383-21.06-15.474-31.597-24.633l.21-.235c10.163 8.836 21.68 18.537 30.604 24.03-2.723-2.942-12.557-13.418-23.77-23.414l.213-.23c13.154 11.73 24.422 24.12 24.533 24.24l.7.775z"/>
      <path d="M766.766 338.067c-.367-1.115-5.63-6.29-28.637-24.617l.202-.238c18.518 14.75 28.184 23.078 28.73 24.76l-.296.095z"/>
    </g>
    <g>
      <path d="M728.012 347.56c-3.678-2.177-6.975-4.576-9.846-7.17l.213-.233c4.716 4.26 10.57 7.99 17.407 11.082.602.27 3.992 1.824 4.803 2.196.344-1.352 2.414-10.194.258-20.78l.31-.06c2.347 11.528-.288 21.007-.31 21.103l-.053.174-.172-.076s-4.287-1.967-4.963-2.273c-2.705-1.222-5.26-2.55-7.648-3.964z"/>
      <path d="M740.394 353.415c-9.162-5.592-16.748-11.805-22.545-18.463l.24-.205c5.774 6.64 13.337 12.83 22.472 18.402l-.168.265z"/>
      <path d="M740.322 353.26c1.086-7.55.697-14.747-1.148-21.395l.307-.084c1.858 6.693 2.247 13.935 1.157 21.522l-.315-.042z"/>
      <path d="M740.646 353.57l-.252-.155c-9.45-5.92-17.254-13.293-23.2-21.924l.265-.175c5.864 8.52 13.548 15.806 22.85 21.673-.09-1.83-.757-11.915-5.116-23.35l.29-.112c4.823 12.642 5.153 23.64 5.155 23.755l.01.29z"/>
      <path d="M740.676 353.645l-.297-.244c-.147-.117-14.716-12.17-25.175-29.02l.266-.163c9.606 15.473 22.685 26.885 24.813 28.695-.895-8.52-3.445-16.908-7.582-24.938l.286-.144c4.213 8.188 6.783 16.743 7.65 25.438l.04.377z"/>
      <path d="M740.31 353.14l-.37-.312c-20.69-17.29-35.135-56.53-35.277-56.925l.297-.105c.14.39 14.38 39.074 34.797 56.468-.686-2.54-4.223-14.773-11.56-28.02l.276-.152c8.23 14.854 11.686 28.44 11.72 28.575l.116.47z"/>
      <path d="M740.56 353.328l-.692-.81c-13.318-15.518-34.98-56.186-35.2-56.597l.28-.144c.217.405 21.098 39.605 34.438 55.68-2.55-5.643-15.264-33.276-26.354-47.53l.25-.195c12.352 15.884 26.707 48.3 26.852 48.622l.425.976z"/>
      <path d="M740.133 352.867c.06-3.884-34.492-55.905-34.846-56.432l.262-.172c1.43 2.146 34.956 52.626 34.9 56.608l-.317-.003z"/>
    </g>
  </g>
  <path d="M755.008 415.856c-1.38-6.082-7.49-9.907-13.643-8.543-6.156 1.363-10.025 7.4-8.646 13.482.28 1.237 1.802 3.807 2.49 4.486 3.263 3.215 12.798 12.713 14.85 15.98 0 0 3.16-15.232 4.64-20.3.218-.75.583-3.888.308-5.104zM792.305 386.575c-4.238-4.618-11.463-4.965-16.133-.78-4.672 4.19-5.025 11.327-.787 15.944.86.937 3.47 2.432 4.408 2.686 4.44 1.206 17.477 4.817 20.895 6.658 0 0-4.857-14.79-6.102-19.918-.186-.76-1.436-3.67-2.28-4.59z" fill="#fddccb"/>
  <path d="M763.43 174.426c-11.47-26.76-34.07-48.318-63.137-57.993-4.953-1.648-10.086-2.957-15.385-3.882-10.162-1.775-16.502-1.542-16.502-1.542l47.598 195.4c0 .005-.01.006-.01.01L590.118 145.615l-.582-1.443c-13.308 14.145-22.78 32.115-26.44 52.55-5.837 32.625 4.444 64.37 25.16 87.313 0 .004.01.006.01.01 15.157 16.78 35.887 28.855 60.036 33.074 57.164 9.99 111.71-27.728 121.816-84.22 3.67-20.496.956-40.637-6.686-58.474z" fill="#ba4248"/>
  <path d="M589.498 144.08c20.06-21.25 48.77-33.84 79.433-33.077l-.284.572 47.357 194.834c0 .003-.01.004-.01.007l-125.876-160.8-.62-1.536z" fill="#fab8a3"/>
  <path d="M593.315 144.624c19.167-19.45 45.414-30.47 72.708-30.548l43.512 179.012-116.22-148.464z" fill="none" stroke="#fff" stroke-miterlimit="10"/>
  <path d="M597.497 144.888c17.708-16.996 41.52-26.97 66.058-27.667l39.502 162.518-105.56-134.85z" fill="none" stroke="#fff" stroke-miterlimit="10"/>
  <path d="M601.725 145.216c16.21-14.642 37.576-23.564 59.38-24.784l35.476 145.955-94.855-121.17z" fill="none" stroke="#fff" stroke-miterlimit="10"/>
  <path d="M606.012 145.615c14.648-12.39 33.56-20.257 52.658-21.896l31.432 129.315-84.09-107.42z" fill="none" stroke="#fff" stroke-miterlimit="10"/>
  <path d="M610.36 146.092c13.16-10.393 29.263-17.063 45.895-19.007l27.367 112.6-73.263-93.593z" fill="none" stroke="#fff" stroke-miterlimit="10"/>
  <path d="M614.773 146.654c11.428-8.367 25.11-14.01 39.088-16.115l23.286 95.793-62.373-79.68z" fill="none" stroke="#fff" stroke-miterlimit="10"/>
  <path d="M619.26 147.31c9.707-6.558 20.74-11.084 32.232-13.222l19.176 78.895-51.408-65.673z" fill="none" stroke="#fff" stroke-miterlimit="10"/>
  <path d="M623.828 148.07c7.777-4.8 16.424-8.33 25.32-10.33l15.043 61.892-40.362-51.563z" fill="none" stroke="#fff" stroke-miterlimit="10"/>
  <path d="M628.488 148.947c5.754-3.206 11.998-5.736 18.344-7.435l10.88 44.77-29.224-37.335z" fill="none" stroke="#fff" stroke-miterlimit="10"/>
  <path d="M633.252 149.956c3.643-1.81 7.422-3.33 11.295-4.545l6.69 27.52-17.985-22.974z" fill="none" stroke="#fff" stroke-miterlimit="10"/>
  <path d="M638.135 151.117c1.37-.595 2.76-1.15 4.164-1.66l2.458 10.123-6.623-8.463zM849.94 32.525L893.67 316.93M967.9 32.525L911.48 316.93" fill="none" stroke="#fff" stroke-miterlimit="10"/>
  <path d="M837.51 24.748c.494 6.29 5.992 10.986 12.28 10.493 6.288-.493 10.985-5.99 10.49-12.28-.1-1.28-1.237-4.068-1.82-4.847C855.69 14.43 847.614 3.563 846.052 0c0 0-5.314 14.81-7.504 19.677-.325.72-1.14 3.814-1.04 5.07zM959.004 21.133c-1.607 6.1 2.037 12.347 8.135 13.953 6.1 1.605 12.347-2.038 13.952-8.138.328-1.24.172-4.25-.125-5.177-1.4-4.39-5.445-17.31-5.746-21.19 0 0-9.895 12.235-13.565 16.108-.546.573-2.33 3.227-2.65 4.445z" fill="#fddccb"/>
  <g fill="#00b8b5">
    <path d="M900.96 119.293c6.733 11.736 7.347 22.62 7.355 22.73l.014.2-.21.01c-35.47.942-52.615-15.784-60.76-29.986-6.918-12.065-7.98-23.382-7.992-23.496l-.02-.242.244.025c.062.01 5.945.71 6.87.775 32.06 2.142 47.327 17.486 54.5 29.99zm6.94 22.542c-.12-1.547-1.11-11.582-7.28-22.345-7.122-12.414-22.302-27.657-54.187-29.792-.834-.053-5.49-.602-6.645-.745.2 1.717 1.604 12.084 7.918 23.09 8.077 14.084 25.07 30.658 60.194 29.792z"/>
    <path d="M902.88 126.888c4.854 8.47 5.616 14.947 5.626 15.03l-.398.045c-.01-.103-1.197-10.194-10.135-21.653-8.248-10.58-24.986-24.525-57.846-30.88l.074-.39c33 6.382 49.81 20.404 58.106 31.047 1.827 2.35 3.333 4.64 4.573 6.8z"/>
    <path d="M908.305 141.743v.396c-.143 0-14.258.07-29.652-6.38-14.217-5.96-32.473-18.863-38.688-46.48l.39-.088c6.183 27.457 24.32 40.275 38.454 46.2 15.32 6.424 29.35 6.35 29.49 6.35z"/>
    <path d="M904.898 134.633c2.477 4.322 3.58 7.174 3.59 7.2l.11.293-.31-.02c-15.437-.938-29.615-6.83-42.146-17.51-10.518-8.97-17.664-19.46-21.805-26.685-2.918-5.087-4.35-8.57-4.363-8.6l-.14-.344.362.07c16.88 3.464 31.736 10.56 44.172 21.083 10.405 8.817 16.905 18.195 20.526 24.51zM908 141.69c-.336-.82-1.436-3.353-3.445-6.853-7.785-13.577-26.445-37.478-64.06-45.325.437 1 1.82 4.067 4.19 8.206 8.875 15.474 28.89 41.723 63.315 43.97z"/>
    <path d="M906.574 138.23c.678 1.182 1.324 2.396 1.912 3.592l.184.376-.408-.096c-.11-.025-11.146-2.587-24.705-9.774-12.514-6.633-29.8-18.67-41.09-38.357-.87-1.516-1.703-3.078-2.48-4.642l-.215-.435.46.156c.47.16 47.707 16.684 66.342 49.18zm1.36 3.382c-.53-1.064-1.104-2.136-1.705-3.186-17.57-30.635-60.698-47.03-65.667-48.833.71 1.405 1.47 2.814 2.252 4.178 11.242 19.606 28.46 31.596 40.934 38.208 12.03 6.377 22.064 9.102 24.184 9.634z"/>
    <path d="M908.9 142.295l-.65-.19c-38.9-11.482-67.96-52.34-68.25-52.752l-.357-.51.588.207c32.27 11.4 67.872 52.322 68.23 52.732l.44.513zM840.703 89.64c3.502 4.78 30.947 40.897 66.992 51.882-4.24-4.787-36.974-40.947-66.992-51.882z"/>
    <path d="M908.91 142.18l-.625-.072c-18.535-2.153-65.807-50.774-66.28-51.263l-.933-.96 1.17.646c22.758 12.584 65.762 50.845 66.195 51.23l.473.42zm-65.637-50.61c6.818 6.914 47.107 47.143 64.402 50.052-4.782-4.235-42.767-37.624-64.402-50.053z"/>
    <path d="M907.475 141.42l-.236.326c-2.655-1.925-65.126-47.25-66.858-52.028l.38-.135c1.687 4.652 66.062 51.368 66.713 51.838z"/>
    <g>
      <path d="M976.726 87.935l-.018.244c-.014.133-1.227 13.966-10.236 27.448-5.295 7.917-12.203 14.18-20.53 18.6-10.405 5.523-23.07 8.174-37.642 7.88h-.205l.01-.202c.01-.123.625-12.342 8.49-24.932 7.26-11.617 22.352-25.936 53.023-28.184.922-.073 6.81-.812 6.867-.82l.243-.032zm-68.208 53.78c32.684.593 49.37-13.964 57.613-26.297 8.302-12.41 9.946-25.114 10.157-27.028-1.154.147-5.807.73-6.64.79-30.51 2.237-45.505 16.463-52.716 28-7.25 11.612-8.295 22.89-8.412 24.536z"/>
      <path d="M976.066 88.605l.08.392c-32.838 6.562-49.484 20.626-57.662 31.268-8.852 11.516-9.97 21.592-9.98 21.693l-.396-.038c.012-.102 1.14-10.293 10.064-21.893 8.215-10.703 24.933-24.834 57.894-31.422z"/>
      <path d="M976.3 88.843c-6.034 27.65-24.208 40.672-38.384 46.73-15.355 6.55-29.47 6.57-29.607 6.566v-.4c.138 0 14.185-.017 29.464-6.542 14.088-6.02 32.14-18.958 38.14-46.44l.387.085z"/>
      <path d="M976.428 88.524l-.14.346c-.046.13-5.126 12.656-15.99 25.402-10.034 11.78-27.198 26.167-51.978 27.842l-.307.018.104-.294c.04-.106 4.078-10.692 14.428-22.482 9.555-10.88 26.588-25.046 53.518-30.755l.365-.076zm-67.82 53.164c24.474-1.76 41.44-16.007 51.382-27.673 9.81-11.513 14.887-22.833 15.785-24.946-26.598 5.734-43.45 19.758-52.916 30.536-9.35 10.648-13.528 20.306-14.25 22.082z"/>
      <path d="M976.496 88.446l-.213.438c-10.6 21.74-28.506 35.05-41.662 42.392-14.247 7.95-26.15 10.802-26.267 10.83l-.41.09.184-.377c8.824-18.282 26.822-31.778 40.365-39.882 14.67-8.773 27.416-13.29 27.545-13.33l.46-.162zM908.67 141.61c2.223-.572 13.055-3.596 25.77-10.685 13.008-7.265 30.684-20.392 41.266-41.772-2.418.893-13.95 5.32-27.018 13.13-13.4 8.015-31.167 21.328-40.018 39.326z"/>
      <path d="M975.797 89.17l-.35.512c-.28.407-28.258 40.688-67.084 52.42l-.646.2.44-.52c.343-.406 34.862-40.798 67.056-52.404l.584-.207zm-66.887 52.347c35.95-11.2 62.44-46.8 65.838-51.54-29.922 11.106-61.693 46.78-65.838 51.54z"/>
      <path d="M975.713 89.017l-.926.974c-.477.496-47.938 49.845-66.457 52.12l-.63.074.472-.42c.436-.39 43.7-39.36 66.37-52.088l1.17-.66zm-66.778 52.6c17.285-3.033 57.754-43.89 64.582-50.892-21.58 12.584-59.79 46.596-64.582 50.89z"/>
      <path d="M975.887 89.278c-1.703 4.792-63.873 50.514-66.514 52.46l-.236-.32c.646-.48 64.71-47.6 66.377-52.275l.373.135z"/>
    </g>
    <g>
      <path d="M950.185 52.748l.11.222c.09.177 8.708 17.694 4.3 38.36l-.39-.082c4.106-19.27-3.18-35.783-4.16-37.876-.907.724-4.58 3.635-5.26 4.126-29.835 21.274-32.57 45.53-29.6 62.135l-.395.063c-1.775-9.94-.984-19.66 2.342-28.893 4.547-12.588 13.77-23.905 27.418-33.633.756-.542 5.396-4.23 5.443-4.27l.192-.152z"/>
      <path d="M950.24 53.96c-27.688 25.46-33.432 48.47-33.383 63.278h-.4c-.055-14.893 5.72-38.008 33.514-63.574l.27.295z"/>
      <path d="M950.294 53.75c4.524 13.142 5.16 25.99 1.9 38.177l-.386-.102c3.238-12.112 2.602-24.883-1.893-37.947l.38-.127z"/>
      <path d="M950.24 53.407l.06.37c.03.186 3.046 18.858-2.503 39.544l-.385-.102c5.094-18.987 2.945-36.265 2.553-39-21.635 20.5-28.35 43.426-30.16 59.078l-.398-.044c1.828-15.79 8.617-38.94 30.564-59.59l.27-.255z"/>
      <path d="M950.26 53.308l.045.488c1.244 13.418-.645 27.112-5.605 40.693l-.375-.14c4.88-13.358 6.77-26.82 5.627-40.022-2.676 3.38-21.93 28.394-28.25 56.55l-.39-.085c6.788-30.232 28.42-56.847 28.636-57.11l.312-.375z"/>
      <path d="M949.824 54.692l-.023.602c0 .18-.767 18.553-8.33 40.566l-.376-.127c6.767-19.7 8.074-36.458 8.283-39.833-9.045 11.403-16.492 27.66-22.766 49.666l-.382-.11c6.377-22.37 13.97-38.824 23.22-50.29l.376-.474z"/>
      <path d="M949.73 54.695l-.26 1.264c-4.604 22.063-6.102 26.3-8.82 33.994-.73 2.066-1.557 4.41-2.55 7.414l-.378-.126c.992-3.01 1.82-5.354 2.55-7.42 2.66-7.525 4.147-11.738 8.534-32.65-6.69 12.277-13.287 30.44-18.33 45.03l-.38-.132c5.21-15.072 12.077-33.953 19.003-46.253l.63-1.122z"/>
      <path d="M950.17 54.335c.457 2.21-4.898 17.5-15.918 45.442l-.377-.152c13.69-34.71 16.21-43.745 15.906-45.206l.39-.085z"/>
    </g>
    <g>
      <path d="M895.312 82.113c1.627 2.838 2.996 5.753 4.098 8.747 3.39 9.214 4.244 18.93 2.53 28.88l-.39-.063c2.855-16.625-.03-40.87-30-61.948-.69-.48-4.377-3.366-5.293-4.084-.965 2.1-8.148 18.66-3.912 37.897l-.39.09c-4.544-20.64 3.966-38.213 4.05-38.388l.11-.22.19.148c.05.042 4.715 3.698 5.473 4.232 10.445 7.34 18.325 15.628 23.534 24.708z"/>
      <path d="M890.275 82.79c7.805 13.61 9.957 25.54 9.984 34.503h-.4c-.042-14.812-5.935-37.776-33.788-63.06l.268-.3c11.13 10.11 18.77 19.852 23.935 28.856z"/>
      <path d="M866.39 54.148c-4.41 13.094-4.964 25.865-1.65 37.957l-.378.11c-3.34-12.172-2.784-25.02 1.652-38.193l.377.126z"/>
      <path d="M885.447 77.79c7.504 13.084 10.637 25.725 11.84 35.53l-.396.05c-1.91-15.64-8.767-38.516-30.544-58.88-.377 2.737-2.412 20.027 2.805 38.98l-.386.11c-5.684-20.653-2.787-39.342-2.758-39.53l.06-.37.276.26c8.35 7.754 14.537 15.885 19.105 23.85z"/>
      <path d="M880.76 75.313c5.674 9.896 11.555 22.373 14.61 35.564l-.39.09c-6.508-28.118-25.918-53.01-28.62-56.37-1.06 13.207.92 26.66 5.886 39.984l-.373.145c-5.05-13.55-7.025-27.233-5.87-40.66l.042-.487.312.38c.125.15 7.09 8.603 14.403 21.355z"/>
      <path d="M874.975 67.16c5.777 10.07 10.873 22.77 15.44 38.408l-.384.113c-6.464-22.124-13.98-38.34-22.974-49.544.207 3.367 1.53 20.143 8.43 39.805l-.375.135c-7.708-21.968-8.483-40.353-8.487-40.533l-.02-.597.378.46c2.8 3.433 5.465 7.343 7.995 11.755z"/>
      <path d="M866.342 54.428l.654 1.146c6.635 11.595 13.553 30.246 19.45 46.958l-.376.135c-5.69-16.125-12.33-34.046-18.736-45.677 1.162 4.96 5.465 22.71 11.586 40.773l-.377.127c-7.18-21.194-11.867-41.962-11.916-42.168l-.285-1.294z"/>
      <path d="M866.53 54.68c-.292 1.474 2.276 10.49 16.198 45.118l-.37.143c-11.204-27.872-16.66-43.12-16.218-45.333l.39.074z"/>
    </g>
    <g>
      <path d="M915.168 67.993c2.695 4.698 4.83 9.405 6.375 14.07l-.377.128c-2.54-7.662-6.666-15.43-12.273-23.096-.492-.674-3.26-4.5-3.922-5.413-1.22 1.297-9.02 9.884-13.25 23.02l-.38-.124c4.61-14.305 13.426-23.252 13.512-23.346l.166-.165.143.19s3.497 4.84 4.052 5.6c2.22 3.03 4.208 6.087 5.956 9.138z"/>
      <path d="M905.174 53.827c6.61 11.888 11.092 23.495 13.326 34.495l-.395.08c-2.22-10.962-6.693-22.53-13.283-34.38l.352-.195z"/>
      <path d="M905.156 54.045c-5.908 7.75-9.97 16.018-12.086 24.57l-.39-.095c2.128-8.61 6.22-16.926 12.157-24.716l.32.24z"/>
      <path d="M904.994 53.5l.18.327c6.725 12.43 10.723 25.468 11.887 38.76l-.397.034c-1.148-13.118-5.07-25.984-11.66-38.263-1.047 2.096-6.604 13.755-8.932 29.198l-.394-.055c2.576-17.073 9.078-29.545 9.145-29.673l.174-.328z"/>
      <path d="M905.008 53.396l.176.457c.086.222 8.623 22.648 9.633 47.894l-.395.018c-.932-23.18-8.223-43.975-9.44-47.308-4.33 10.055-6.753 20.983-7.206 32.493l-.402-.017c.465-11.732 2.97-22.86 7.443-33.09l.19-.447z"/>
      <path d="M905.096 54.188l.215.575c12.015 32.04 3.446 84.72 3.355 85.246l-.39-.066c.086-.52 8.532-52.45-3.114-84.44-.825 3.254-4.565 19.08-4.745 38.38h-.398c.2-21.643 4.87-38.928 4.916-39.1l.163-.596z"/>
      <path d="M904.937 53.822l.258 1.33c4.994 25.52 3.488 84.237 3.477 84.834l-.4-.012c.016-.585 1.465-57.185-3.205-83.34-.713 7.866-3.945 46.527-.62 69.266l-.394.063c-3.703-25.33.705-70.338.748-70.788l.137-1.353z"/>
      <path d="M905.12 54.6c-2.487 4.296 3.128 83.625 3.187 84.43l-.395.03c-.236-3.275-5.684-80.255-3.14-84.662l.347.2z"/>
    </g>
  </g>
  <path d="M803.535 112.772V217.39c0 51.808 39.586 94.536 90.137 99.54L862.95 112.773h-59.415zM951.492 112.772L911.48 317.087c51.494-4.027 92.166-47.184 92.166-99.698V112.77h-52.154z" fill="#ba4248"/>
  <g>
    <path d="M903.832 112.772H862.95l30.722 204.16c3.27.32 6.588.494 9.943.494 2.648 0 5.268-.134 7.865-.34l40.012-204.314h-47.66z" fill="#fab8a3"/>
    <path d="M903.615 314.283c-2.37 0-4.785-.09-7.205-.27l-29.81-198.1h81.073l-38.816 198.204c-1.87.11-3.6.166-5.242.166z" fill="none" stroke="#fff" stroke-miterlimit="10"/>
    <path d="M903.615 311.14c-1.475 0-2.97-.037-4.475-.11L870.25 119.06h73.603l-37.605 192.037c-.908.03-1.78.044-2.633.044z" fill="none" stroke="#fff" stroke-miterlimit="10"/>
    <path d="M903.615 307.997c-.58 0-1.164-.006-1.756-.018L873.903 122.2h66.133l-36.385 185.796h-.037z" fill="none" stroke="#fff" stroke-miterlimit="10"/>
    <path fill="none" stroke="#fff" stroke-miterlimit="10" d="M877.555 125.343h58.664l-33.175 169.394z"/>
    <path fill="none" stroke="#fff" stroke-miterlimit="10" d="M881.207 128.486h51.19L903.452 276.31z"/>
    <path fill="none" stroke="#fff" stroke-miterlimit="10" d="M884.857 131.63h43.725l-24.725 126.255z"/>
    <path fill="none" stroke="#fff" stroke-miterlimit="10" d="M888.508 134.772h36.256l-20.5 104.687z"/>
    <path fill="none" stroke="#fff" stroke-miterlimit="10" d="M892.16 137.915h28.785l-16.277 83.117z"/>
    <path fill="none" stroke="#fff" stroke-miterlimit="10" d="M895.81 141.058h21.317l-12.053 61.548z"/>
    <path fill="none" stroke="#fff" stroke-miterlimit="10" d="M899.463 144.2h13.846l-7.832 39.98z"/>
    <path fill="none" stroke="#fff" stroke-miterlimit="10" d="M903.113 147.343h6.377l-3.605 18.41z"/>
  </g>
  <path fill="#ba4248" d="M1159.05 316.82V181.3h35.694v-68.437h-67.017"/>
  <path stroke-miterlimit="10" fill="none" stroke="#fff" d="M1114.514 112.863l-54.78 298.88"/>
  <path d="M1068.766 425.173c1.727-6.05-1.795-12.35-7.86-14.068-6.067-1.722-12.384 1.79-14.11 7.84-.35 1.23-.254 4.233.023 5.165 1.313 4.4 5.104 17.36 5.33 21.236 0 0 10.134-12.002 13.88-15.792.554-.56 2.392-3.172 2.736-4.38z" fill="#fddccb"/>
  <g>
    <path fill="#fab8a3" d="M1098.02 203.36l-20.68 113.46h81.71l-21.243-138.327-10.08-65.63h-13.213"/>
  </g>
  <g>
    <path fill="none" stroke="#fff" stroke-miterlimit="10" d="M1117.14 115.997h7.89l30.357 197.69h-74.282z"/>
    <path fill="none" stroke="#fff" stroke-miterlimit="10" d="M1119.762 119.13h2.568l29.396 191.423h-66.855z"/>
    <path fill="none" stroke="#fff" stroke-miterlimit="10" d="M1088.637 307.42l32.254-176.96 27.176 176.96z"/>
    <path fill="none" stroke="#fff" stroke-miterlimit="10" d="M1092.404 304.286l28.223-154.845 23.777 154.846z"/>
    <path fill="none" stroke="#fff" stroke-miterlimit="10" d="M1096.168 301.15l24.193-132.728 20.384 132.73z"/>
    <path fill="none" stroke="#fff" stroke-miterlimit="10" d="M1099.935 298.018l20.16-110.616 16.987 110.616z"/>
    <path fill="none" stroke="#fff" stroke-miterlimit="10" d="M1103.7 294.883l16.132-88.5 13.59 88.5z"/>
    <path fill="none" stroke="#fff" stroke-miterlimit="10" d="M1107.467 291.75l12.1-66.386 10.195 66.387z"/>
    <path fill="none" stroke="#fff" stroke-miterlimit="10" d="M1111.232 288.616l8.07-44.272 6.798 44.272z"/>
    <path fill="none" stroke="#fff" stroke-miterlimit="10" d="M1114.998 285.483l4.04-22.158 3.4 22.158z"/>
  </g>
  <path fill="#ba4248" d="M1114.514 112.863h-72.18V181.3h35.006v135.52"/>
</svg>
