<svg xmlns:i="&amp;ns_ai;" xmlns="http://www.w3.org/2000/svg" xmlns:xlink="http://www.w3.org/1999/xlink" viewBox="0 0 1648.929 435.64099">
  <switch transform="translate(-615.536 -371.432)">
    <g>
      <path d="M871.026 664.79l-79.572-81.274v115c28.795-.03 57.578-11.272 79.572-33.727z" fill="#f9c0c5"/>
      <g fill="#eeefa0">
        <path d="M726.896 658.635c3.266-14.465 10.838-23.705 10.912-23.8l.14-.17.17.147c29.33 25.53 30.774 51.736 26.82 69.238-3.354 14.867-10.884 24.787-10.958 24.89l-.166.21-.176-.203c-.047-.05-4.273-4.977-4.975-5.715-24.287-25.488-25.242-49.193-21.767-64.597zm11.107-23.342c-1.05 1.338-7.684 10.172-10.682 23.434-3.454 15.297-2.497 38.852 21.66 64.207.634.66 3.983 4.555 4.812 5.525 1.11-1.536 7.66-10.942 10.72-24.507 3.92-17.353 2.487-43.326-26.51-68.66z"/>
        <path d="M730.98 651.082c2.354-10.44 6.54-16.23 6.595-16.303l.355.255c-.07.092-6.588 9.12-7.867 24.992-1.182 14.654 1.996 38.314 23.81 67.797l-.35.26c-21.907-29.61-25.085-53.385-23.894-68.125.266-3.25.748-6.218 1.35-8.878z"/>
        <path d="M737.608 635.068l.29-.324c.114.107 11.563 10.51 19.208 27.127 7.06 15.35 12.232 39.294-3.217 66.19l-.382-.217c15.36-26.746 10.217-50.533 3.2-65.793-7.604-16.536-18.988-26.876-19.1-26.982z"/>
        <path d="M735.09 643.33v-.006c1.202-5.324 2.425-8.443 2.44-8.47l.125-.32.234.245c11.765 12.198 18.843 27.464 21.042 45.37 1.846 15.033-.162 28.8-2.172 37.7-1.418 6.272-2.844 10.142-2.855 10.177l-.14.38-.24-.323c-11.06-15.307-17.794-32.045-20.03-49.752-1.867-14.832-.164-27.223 1.594-35.002zm2.723-7.994c-.334.914-1.324 3.773-2.297 8.088-3.777 16.73-6.43 49.852 18.117 84.062.393-1.13 1.547-4.63 2.7-9.73 4.305-19.07 7.604-55.09-18.52-82.42z"/>
        <path d="M736.4 639.186c.33-1.457.708-2.912 1.12-4.316l.13-.44.26.38c.07.104 7.08 10.352 12.698 26.2 5.184 14.628 10.217 37.16 4.742 61.415-.424 1.87-.906 3.746-1.44 5.588l-.147.51-.256-.465c-.264-.484-26.147-48.83-17.108-88.872zm1.412-3.74c-.363 1.255-.693 2.544-.984 3.837-8.523 37.752 14.137 82.95 16.812 88.086.47-1.66.902-3.36 1.283-5.042 5.453-24.156.44-46.6-4.73-61.178-4.987-14.064-11.067-23.7-12.38-25.703z"/>
        <path d="M737.538 634.184l.38.635c22.892 38.1 16.07 92.614 16 93.16l-.09.68-.323-.603c-17.598-33.117-16.01-92.537-15.992-93.133l.025-.74zm16.024 93.045c.715-6.454 5.33-55.952-15.625-91.532-.125 7.005-.5 60.456 15.625 91.53z"/>
        <path d="M737.444 634.268l.447.518c13.37 15.477 15.495 89.76 15.517 90.506l.037 1.467-.463-1.392c-9.046-27.023-15.4-89.78-15.466-90.414l-.07-.686zm15.473 89.498c-.38-10.633-3.086-72.97-14.89-88.135.72 6.964 6.638 62.07 14.89 88.136z"/>
        <path d="M738.04 635.943l.43-.088c.717 3.52 17.553 86.408 15.412 91.55l-.404-.17c2.08-5.008-15.26-90.428-15.438-91.292z"/>
        <g>
          <path d="M642.5 627.795l.194-.186c.11-.1 11.342-10.366 28.602-14.57 10.145-2.468 20.36-2.405 30.36.2 12.493 3.254 24.68 10.502 36.226 21.54l.162.15-.156.16c-.096.095-9.65 9.495-25.332 13.83-14.47 3.997-37.262 4.374-63.688-16.546-.8-.623-6.098-4.39-6.152-4.426l-.217-.153zm94.917 7.137c-25.945-24.7-50.203-25.314-65.996-21.47-15.895 3.866-26.642 12.9-28.228 14.29 1.037.736 5.227 3.715 5.945 4.28 26.283 20.81 48.93 20.437 63.303 16.47 14.46-4 23.663-12.33 24.977-13.57z"/>
          <path d="M643.528 627.742l.225-.375c31.373 19.04 55.23 20.02 69.72 17.494 15.683-2.733 24.048-10.04 24.132-10.112l.295.322c-.084.074-8.55 7.465-24.35 10.217-14.563 2.55-38.535 1.565-70.022-17.545z"/>
          <path d="M643.515 627.373c25.365-17.844 49.686-14.885 65.617-9.27 17.25 6.094 28.656 16.537 28.766 16.64l-.297.323c-.11-.1-11.46-10.498-28.632-16.555-15.83-5.58-39.992-8.517-65.2 9.224l-.253-.36z"/>
          <path d="M643.177 627.537l.37-.172c.132-.07 13.513-6.418 31.733-8.654 16.828-2.073 41.348-.964 62.59 16.048l.26.213-.3.16c-.112.056-11.216 5.606-28.31 7.458-15.773 1.697-40.025.51-65.994-14.84l-.35-.21zm94.142 7.352c-21.056-16.722-45.313-17.794-61.983-15.745-16.453 2.023-28.938 7.398-31.23 8.44 25.722 15.08 49.718 16.25 65.347 14.565 15.44-1.666 25.967-6.365 27.865-7.26z"/>
          <path d="M643.063 627.55l.496-.194c24.667-9.693 48.987-7.164 65.048-3.342 17.395 4.14 29.113 10.66 29.23 10.723l.397.23-.428.172c-20.672 8.216-45.2 5.77-62.14 2.274-18.343-3.79-31.978-9.592-32.112-9.654l-.492-.21zm94.15 7.354c-2.214-1.184-13.202-6.77-28.718-10.473-15.885-3.776-39.88-6.278-64.268 3.136 2.613 1.074 15.203 6.047 31.54 9.424 16.755 3.46 40.962 5.885 61.447-2.086z"/>
          <path d="M644.165 627.484l.66-.154c.53-.12 52.967-11.898 93.002 7.404l.668.314-.736.094c-.58.078-58.382 7.1-92.97-7.393l-.625-.266zm92.787 7.317c-37.32-17.6-85.09-8.497-91.344-7.188 32.387 13.212 84.47 7.96 91.344 7.19z"/>
          <path d="M644.118 627.674l1.467-.104c.752-.045 75.64-4.707 92.275 7.186l.56.402-.688-.008c-.643-.008-64.447-.615-92.182-7.14l-1.432-.336zm92.89 7.03c-16.202-10.364-79.15-7.376-89.85-6.784 26.745 5.836 82.796 6.7 89.85 6.783z"/>
          <path d="M644.17 627.332c4.927-2.605 88.997 6.56 92.573 6.95l-.047.43c-.875-.09-87.512-9.534-92.322-6.995l-.203-.385z"/>
        </g>
        <g>
          <path d="M637.845 675.867l.076-.262c.058-.207 6.087-20.734 24.96-34.148l.254.352c-17.596 12.513-23.955 31.24-24.713 33.655 1.27.09 6.392.46 7.304.568 39.852 4.94 60.03-12.613 69.94-28.22l.37.243c-5.936 9.342-13.777 16.6-23.307 21.588-12.998 6.793-28.832 9.092-47.06 6.83-1.01-.123-7.487-.588-7.556-.592l-.265-.015z"/>
          <path d="M638.696 674.852c41.22-.035 62.91-14.352 73.848-26.342l.322.297c-10.992 12.062-32.787 26.44-74.168 26.48l-.002-.435z"/>
          <path d="M638.5 674.977c6.09-13.957 15.097-24.803 26.76-32.225l.235.367c-11.59 7.378-20.54 18.16-26.596 32.034l-.4-.177z"/>
          <path d="M638.288 675.295l.23-.346c.112-.173 11.517-17.48 31.327-30.063l.232.367c-18.182 11.55-29.256 27.094-30.96 29.592 32.653-.516 55.065-14.045 68.126-25.338l.29.332c-13.18 11.39-35.817 25.05-68.835 25.447l-.41.008z"/>
          <path d="M638.2 675.36l.326-.425c8.94-11.756 20.61-21.41 34.682-28.695l.2.39c-13.84 7.167-25.343 16.632-34.206 28.136 4.668-.744 38.75-6.664 64.717-24.71l.253.358c-27.885 19.37-65.074 24.82-65.443 24.873l-.53.074z"/>
          <path d="M639.577 674.568l.465-.47c.137-.142 14.37-14.407 36.79-26.573l.21.383c-20.064 10.887-33.54 23.443-36.207 26.016 15.75-2.504 33.81-10.102 55.184-23.22l.228.37c-21.73 13.334-40.053 20.988-56.016 23.387l-.655.108z"/>
          <path d="M639.655 674.63l1.145-.825c20.07-14.4 24.42-16.71 32.316-20.902 2.12-1.13 4.525-2.408 7.557-4.096l.207.38c-3.03 1.696-5.438 2.972-7.56 4.1-7.724 4.105-12.044 6.403-31.087 20.032 14.502-4.95 33.29-14.724 48.17-22.765l.21.387c-15.376 8.307-34.91 18.46-49.618 23.254l-1.34.435z"/>
          <path d="M639.032 674.6c1.27-2.12 16.926-10.496 46.53-24.887l.188.402c-36.775 17.87-45.502 23.3-46.342 24.703l-.376-.218z"/>
        </g>
        <g>
          <path d="M703.903 692.832c.79-3.496 1.846-6.865 3.174-10.098 4.092-9.95 10.602-18.428 19.36-25.19l.27.343c-14.624 11.303-30.265 33.014-21.694 72.24.197.898 1.037 5.96 1.246 7.217 2.333-.98 20.407-9.023 31.243-27.69l.383.214c-11.63 20.027-31.523 27.906-31.723 27.986l-.25.098-.045-.266c-.008-.068-1.062-6.477-1.28-7.47-2.99-13.663-3.214-26.193-.685-37.384z"/>
          <path d="M708.47 696.018c3.787-16.77 10.89-27.994 17.514-35.252l.322.295c-10.947 11.99-23.207 34.896-19.46 75.946l-.44.045c-1.493-16.407-.44-29.94 2.064-41.032z"/>
          <path d="M706.522 736.84c13.268-7.3 23.178-17.2 29.465-29.414l.387.19c-6.326 12.302-16.3 22.26-29.64 29.605l-.212-.38z"/>
          <path d="M708.663 703.633c3.64-16.127 10.48-28.65 16.775-37.457l.355.256c-10.047 14.04-21.47 37.586-18.98 70.166 2.332-1.932 16.79-14.38 26.625-33.545l.395.2c-10.72 20.882-26.908 33.82-27.072 33.95l-.32.254-.03-.416c-.995-12.444.036-23.593 2.253-33.407z"/>
          <path d="M710.608 709.107c2.756-12.195 7.254-26.625 14.566-39.537l.38.217c-15.587 27.52-18.366 61.998-18.677 66.713 10.646-9.873 19.018-22.2 24.885-36.637l.408.158c-5.967 14.68-14.514 27.19-25.396 37.173l-.395.36.024-.532c.017-.213.658-12.2 4.204-27.913z"/>
          <path d="M709.237 719.975c2.8-12.41 8.1-26.44 16-42.447l.395.19c-11.176 22.65-17.13 41.315-18.172 57.026 2.328-2.873 13.69-17.396 22.697-38.38l.4.17c-10.06 23.446-23.06 38.86-23.19 39.01l-.423.495.037-.65c.283-4.847 1.03-9.978 2.257-15.415z"/>
          <path d="M706.77 736.652l.323-1.412c3.238-14.277 11.477-34.457 19.1-52.32l.404.17c-7.355 17.23-15.28 36.62-18.73 50.756 2.74-4.865 12.42-22.38 20.868-41.5l.398.178c-9.912 22.432-21.52 42.668-21.637 42.87l-.725 1.258z"/>
          <path d="M706.806 736.303c1.326-.97 5.936-10.152 20.36-48.422l.407.16c-11.613 30.804-18.512 47.16-20.508 48.614l-.26-.35z"/>
        </g>
        <g>
          <path d="M677.41 689.514c1.308-5.79 3.07-11.17 5.282-16.086l.398.182c-3.627 8.066-6.055 17.395-7.21 27.738-.103.91-.702 6.045-.845 7.273 1.943-.14 14.605-1.288 27.756-8.76l.216.384c-14.324 8.133-28.072 8.816-28.21 8.832l-.255.006.026-.256s.764-6.5.88-7.52c.455-4.095 1.114-8.035 1.963-11.792z"/>
          <path d="M674.978 708.355c3.477-14.496 8.46-27.184 14.81-37.72l.378.226c-6.332 10.5-11.295 23.15-14.76 37.6l-.428-.105z"/>
          <path d="M675.153 708.195c10.512-1.88 19.922-5.543 27.965-10.88l.244.366c-8.098 5.376-17.562 9.056-28.13 10.94l-.08-.425z"/>
          <path d="M674.88 708.756l.098-.4c3.787-15.016 10.22-28.504 19.133-40.098l.35.27c-8.798 11.44-15.167 24.732-18.95 39.53 2.4-.917 15.525-6.212 28.852-16.952l.277.334c-14.735 11.875-29.228 17.127-29.374 17.178l-.386.138z"/>
          <path d="M674.796 708.826l.195-.498c.095-.24 9.823-24.674 27.72-45.8l.33.28c-16.428 19.398-25.953 41.59-27.44 45.18 10.946-4.906 21.003-11.934 29.897-20.887l.314.315c-9.07 9.125-19.34 16.248-30.532 21.19l-.482.22z"/>
          <path d="M675.308 708.123l.254-.623c14.05-34.768 60.008-70.94 60.47-71.3l.27.347c-.458.352-45.76 36.014-60.07 70.467 3.08-2.014 17.83-12.02 32.276-27.463l.324.296c-16.2 17.322-32.783 27.814-32.947 27.92l-.577.357z"/>
          <path d="M675.165 708.533l.777-1.264c14.885-24.302 59.615-70.587 60.068-71.056l.312.303c-.443.463-43.562 45.076-59.18 69.652 6.406-5.825 37.67-34.634 51.838-55.456l.365.244c-15.783 23.19-52.7 56.254-53.068 56.586l-1.112.99z"/>
          <path d="M675.597 707.77c5.19-1.622 59.45-69.82 59.998-70.515l.34.27c-2.234 2.816-54.89 68.996-60.21 70.666l-.128-.42z"/>
        </g>
      </g>
      <path stroke-miterlimit="10" fill="none" stroke="#fff" d="M637.097 742.975l154.006-159.5"/>
      <path d="M626.32 737.44c4.94-4.835 12.866-4.75 17.7.187 4.834 4.94 4.75 12.863-.19 17.7-1.005.985-3.952 2.468-5 2.69-4.937 1.044-19.435 4.192-23.294 6.01 0 0 6.29-16.056 7.986-21.65.252-.832 1.813-3.97 2.8-4.936z" fill="#eeefa0"/>
      <path d="M871.026 502.01c-44.055-44.97-115.332-44.97-159.387 0-44.054 44.998-44.054 117.78 0 162.78.08.077.163.15.237.23l79.576-81.505-.275-.283 79.848-81.222z" fill="#f9c0c5"/>
      <path d="M711.878 665.02c22.03 22.36 50.81 33.522 79.576 33.495v-115l-79.576 81.506z" fill="#444861"/>
      <g fill="none" stroke="#eeefa0" stroke-miterlimit="10">
        <path d="M788.01 695.02c-26.68-.815-51.76-11.388-71.27-30.046l71.27-73.002v103.05z"/>
        <path d="M784.567 691.408c-23.254-1.512-45.348-10.84-62.893-26.557l62.893-64.42v90.978z"/>
        <path d="M781.124 687.662c-19.857-2.04-38.94-10.113-54.43-23.023l54.43-55.75v78.772z"/>
        <path d="M777.68 683.768c-16.497-2.383-32.54-9.184-45.864-19.44l45.863-46.98v66.42z"/>
        <path d="M774.235 679.703c-13.314-2.51-26.04-7.914-37.195-15.8l37.195-38.097v53.897z"/>
        <path d="M770.79 675.45c-10.002-2.378-19.69-6.503-28.4-12.093l28.4-29.094v41.186z"/>
        <path d="M767.345 670.975c-6.738-1.975-13.35-4.797-19.465-8.312l19.465-19.94v28.252z"/>
        <path d="M763.9 666.246c-3.54-1.25-7.01-2.734-10.368-4.443l10.37-10.623v15.066z"/>
      </g>
      <g>
        <path d="M2079.428 664.79l-79.572-81.274v115c28.794-.03 57.578-11.272 79.572-33.727z" fill="#f9c0c5"/>
        <g fill="#eeefa0">
          <path d="M1935.297 658.635c3.266-14.465 10.838-23.705 10.912-23.8l.138-.17.172.147c29.33 25.53 30.773 51.736 26.82 69.238-3.355 14.867-10.885 24.787-10.96 24.89l-.165.21-.176-.203c-.048-.05-4.274-4.977-4.976-5.715-24.287-25.488-25.242-49.193-21.767-64.597zm11.107-23.342c-1.05 1.338-7.684 10.172-10.682 23.434-3.455 15.297-2.498 38.852 21.66 64.207.633.66 3.982 4.555 4.81 5.525 1.112-1.536 7.66-10.942 10.722-24.507 3.918-17.353 2.486-43.326-26.51-68.66z"/>
          <path d="M1939.38 651.082c2.356-10.44 6.542-16.23 6.597-16.303l.355.255c-.07.092-6.588 9.12-7.867 24.992-1.182 14.654 1.996 38.314 23.81 67.797l-.35.26c-21.907-29.61-25.085-53.385-23.894-68.125.267-3.25.75-6.218 1.35-8.878z"/>
          <path d="M1946.01 635.068l.29-.324c.114.107 11.563 10.51 19.208 27.127 7.06 15.35 12.232 39.294-3.217 66.19l-.38-.217c15.36-26.746 10.217-50.533 3.2-65.793-7.604-16.536-18.99-26.876-19.1-26.982z"/>
          <path d="M1943.49 643.33v-.006c1.203-5.324 2.426-8.443 2.44-8.47l.126-.32.234.245c11.766 12.198 18.844 27.464 21.043 45.37 1.846 15.033-.162 28.8-2.172 37.7-1.417 6.272-2.843 10.142-2.854 10.177l-.14.38-.24-.323c-11.06-15.307-17.794-32.045-20.03-49.752-1.867-14.832-.164-27.223 1.594-35.002zm2.725-7.994c-.334.914-1.324 3.773-2.297 8.088-3.777 16.73-6.43 49.852 18.117 84.062.393-1.13 1.547-4.63 2.7-9.73 4.304-19.07 7.603-55.09-18.52-82.42z"/>
          <path d="M1944.8 639.186c.333-1.457.71-2.912 1.122-4.316l.13-.44.26.38c.07.104 7.08 10.352 12.698 26.2 5.184 14.628 10.217 37.16 4.742 61.415-.424 1.87-.906 3.746-1.44 5.588l-.147.51-.256-.465c-.265-.484-26.148-48.83-17.11-88.872zm1.413-3.74c-.363 1.255-.693 2.544-.984 3.837-8.524 37.752 14.136 82.95 16.81 88.086.47-1.66.903-3.36 1.284-5.042 5.453-24.156.44-46.6-4.73-61.178-4.987-14.064-11.067-23.7-12.38-25.703z"/>
          <path d="M1945.94 634.184l.38.635c22.89 38.1 16.07 92.614 15.998 93.16l-.09.68-.322-.603c-17.598-33.117-16.01-92.537-15.992-93.133l.025-.74zm16.023 93.045c.715-6.454 5.33-55.952-15.625-91.532-.125 7.005-.5 60.456 15.625 91.53z"/>
          <path d="M1945.846 634.268l.447.518c13.37 15.477 15.494 89.76 15.516 90.506l.036 1.467-.463-1.392c-9.047-27.023-15.402-89.78-15.467-90.414l-.07-.686zm15.472 89.498c-.38-10.633-3.086-72.97-14.89-88.135.72 6.964 6.638 62.07 14.89 88.136z"/>
          <path d="M1946.44 635.943l.43-.088c.718 3.52 17.554 86.408 15.413 91.55l-.404-.17c2.08-5.008-15.26-90.428-15.44-91.292z"/>
          <g>
            <path d="M1850.9 627.795l.195-.186c.11-.1 11.342-10.366 28.602-14.57 10.145-2.468 20.36-2.405 30.36.2 12.493 3.254 24.68 10.502 36.226 21.54l.162.15-.156.16c-.097.095-9.65 9.495-25.333 13.83-14.47 3.997-37.262 4.374-63.688-16.546-.8-.623-6.1-4.39-6.153-4.426l-.217-.153zm94.918 7.137c-25.945-24.7-50.203-25.314-65.996-21.47-15.896 3.866-26.643 12.9-28.23 14.29 1.038.736 5.228 3.715 5.946 4.28 26.283 20.81 48.93 20.437 63.303 16.47 14.46-4 23.664-12.33 24.978-13.57z"/>
            <path d="M1851.93 627.742l.225-.375c31.373 19.04 55.23 20.02 69.72 17.494 15.683-2.733 24.048-10.04 24.132-10.112l.295.322c-.084.074-8.55 7.465-24.35 10.217-14.563 2.55-38.536 1.565-70.022-17.545z"/>
            <path d="M1851.916 627.373c25.365-17.844 49.686-14.885 65.617-9.27 17.25 6.094 28.656 16.537 28.766 16.64l-.298.323c-.11-.1-11.46-10.498-28.633-16.555-15.83-5.58-39.993-8.517-65.202 9.224l-.252-.36z"/>
            <path d="M1851.578 627.537l.37-.172c.132-.07 13.513-6.418 31.733-8.654 16.83-2.073 41.35-.964 62.59 16.048l.26.213-.3.16c-.11.056-11.215 5.606-28.31 7.458-15.772 1.697-40.024.51-65.993-14.84l-.35-.21zm94.143 7.352c-21.054-16.722-45.31-17.794-61.98-15.745-16.454 2.023-28.94 7.398-31.23 8.44 25.72 15.08 49.717 16.25 65.346 14.565 15.44-1.666 25.966-6.365 27.865-7.26z"/>
            <path d="M1851.465 627.55l.496-.194c24.67-9.693 48.99-7.164 65.05-3.342 17.395 4.14 29.113 10.66 29.23 10.723l.397.23-.428.172c-20.673 8.216-45.202 5.77-62.142 2.274-18.342-3.79-31.977-9.592-32.11-9.654l-.493-.21zm94.15 7.354c-2.215-1.184-13.203-6.77-28.72-10.473-15.884-3.776-39.878-6.278-64.267 3.136 2.613 1.074 15.203 6.047 31.54 9.424 16.756 3.46 40.963 5.885 61.447-2.086z"/>
            <path d="M1852.566 627.484l.66-.154c.53-.12 52.967-11.898 93.002 7.404l.668.314-.736.094c-.578.078-58.38 7.1-92.97-7.393l-.624-.266zm92.788 7.317c-37.32-17.6-85.09-8.497-91.344-7.188 32.386 13.212 84.47 7.96 91.344 7.19z"/>
            <path d="M1852.52 627.674l1.467-.104c.752-.045 75.64-4.707 92.275 7.186l.56.402-.688-.008c-.643-.008-64.447-.615-92.182-7.14l-1.432-.336zm92.888 7.03c-16.2-10.364-79.15-7.376-89.85-6.784 26.747 5.836 82.797 6.7 89.85 6.783z"/>
            <path d="M1852.572 627.332c4.926-2.605 88.996 6.56 92.572 6.95l-.047.43c-.875-.09-87.512-9.534-92.322-6.995l-.203-.385z"/>
          </g>
          <g>
            <path d="M1846.246 675.867l.076-.262c.057-.207 6.086-20.734 24.96-34.148l.253.352c-17.596 12.513-23.955 31.24-24.713 33.655 1.268.09 6.39.46 7.303.568 39.852 4.94 60.03-12.613 69.94-28.22l.37.243c-5.936 9.342-13.777 16.6-23.307 21.588-12.998 6.793-28.832 9.092-47.06 6.83-1.01-.123-7.487-.588-7.556-.592l-.266-.015z"/>
            <path d="M1847.098 674.852c41.22-.035 62.91-14.352 73.848-26.342l.322.297c-10.992 12.062-32.787 26.44-74.168 26.48v-.435z"/>
            <path d="M1846.902 674.977c6.088-13.957 15.096-24.803 26.758-32.225l.236.367c-11.59 7.378-20.54 18.16-26.596 32.034l-.398-.177z"/>
            <path d="M1846.69 675.295l.228-.346c.113-.173 11.518-17.48 31.328-30.063l.232.367c-18.182 11.55-29.256 27.094-30.96 29.592 32.653-.516 55.065-14.045 68.126-25.338l.29.332c-13.18 11.39-35.817 25.05-68.835 25.447l-.41.008z"/>
            <path d="M1846.602 675.36l.326-.425c8.94-11.756 20.61-21.41 34.682-28.695l.2.39c-13.84 7.167-25.343 16.632-34.206 28.136 4.668-.744 38.75-6.664 64.717-24.71l.255.358c-27.885 19.37-65.074 24.82-65.443 24.873l-.53.074z"/>
            <path d="M1847.98 674.568l.464-.47c.137-.142 14.37-14.407 36.79-26.573l.21.383c-20.064 10.887-33.54 23.443-36.207 26.016 15.75-2.504 33.81-10.102 55.184-23.22l.23.37c-21.73 13.334-40.053 20.988-56.016 23.387l-.655.108z"/>
            <path d="M1848.057 674.63l1.145-.825c20.07-14.4 24.42-16.71 32.316-20.902 2.12-1.13 4.525-2.408 7.557-4.096l.207.38c-3.03 1.696-5.438 2.972-7.56 4.1-7.724 4.105-12.044 6.403-31.087 20.032 14.502-4.95 33.29-14.724 48.17-22.765l.21.387c-15.376 8.307-34.91 18.46-49.618 23.254l-1.34.435z"/>
            <path d="M1847.434 674.6c1.27-2.12 16.926-10.496 46.53-24.887l.188.402c-36.775 17.87-45.502 23.3-46.342 24.703l-.376-.218z"/>
          </g>
          <g>
            <path d="M1912.305 692.832c.79-3.496 1.846-6.865 3.174-10.098 4.09-9.95 10.6-18.428 19.36-25.19l.268.343c-14.623 11.303-30.264 33.014-21.693 72.24.197.898 1.037 5.96 1.246 7.217 2.335-.98 20.41-9.023 31.245-27.69l.383.214c-11.63 20.027-31.523 27.906-31.723 27.986l-.25.098-.045-.266c-.01-.068-1.062-6.477-1.28-7.47-2.99-13.663-3.215-26.193-.685-37.384z"/>
            <path d="M1916.87 696.018c3.788-16.77 10.892-27.994 17.515-35.252l.322.295c-10.947 11.99-23.207 34.896-19.46 75.946l-.44.045c-1.493-16.407-.44-29.94 2.064-41.032z"/>
            <path d="M1914.924 736.84c13.268-7.3 23.178-17.2 29.465-29.414l.386.19c-6.326 12.302-16.3 22.26-29.64 29.605l-.212-.38z"/>
            <path d="M1917.064 703.633c3.64-16.127 10.48-28.65 16.775-37.457l.354.256c-10.047 14.04-21.47 37.586-18.98 70.166 2.332-1.932 16.79-14.38 26.625-33.545l.394.2c-10.72 20.882-26.908 33.82-27.072 33.95l-.322.254-.03-.416c-.994-12.444.038-23.593 2.254-33.407z"/>
            <path d="M1919.01 709.107c2.756-12.195 7.254-26.625 14.566-39.537l.38.217c-15.587 27.52-18.366 61.998-18.677 66.713 10.645-9.873 19.017-22.2 24.884-36.637l.408.158c-5.967 14.68-14.514 27.19-25.396 37.173l-.395.36.026-.532c.016-.213.657-12.2 4.204-27.913z"/>
            <path d="M1917.64 719.975c2.8-12.41 8.1-26.44 16-42.447l.394.19c-11.176 22.65-17.13 41.315-18.172 57.026 2.328-2.873 13.69-17.396 22.697-38.38l.4.17c-10.062 23.446-23.062 38.86-23.19 39.01l-.424.495.037-.65c.28-4.847 1.03-9.978 2.256-15.415z"/>
            <path d="M1915.172 736.652l.322-1.412c3.238-14.277 11.477-34.457 19.1-52.32l.404.17c-7.355 17.23-15.28 36.62-18.73 50.756 2.74-4.865 12.42-22.38 20.868-41.5l.398.178c-9.912 22.432-21.52 42.668-21.637 42.87l-.725 1.258z"/>
            <path d="M1915.207 736.303c1.326-.97 5.936-10.152 20.36-48.422l.407.16c-11.613 30.804-18.512 47.16-20.508 48.614l-.26-.35z"/>
          </g>
          <g>
            <path d="M1885.81 689.514c1.31-5.79 3.073-11.17 5.284-16.086l.398.182c-3.627 8.066-6.055 17.395-7.21 27.738-.103.91-.702 6.045-.845 7.273 1.943-.14 14.605-1.288 27.756-8.76l.215.384c-14.324 8.133-28.072 8.816-28.21 8.832l-.255.006.025-.256s.764-6.5.88-7.52c.455-4.095 1.113-8.035 1.963-11.792z"/>
            <path d="M1883.38 708.355c3.476-14.496 8.46-27.184 14.81-37.72l.377.226c-6.332 10.5-11.295 23.15-14.76 37.6l-.428-.105z"/>
            <path d="M1883.555 708.195c10.512-1.88 19.922-5.543 27.965-10.88l.244.366c-8.098 5.376-17.562 9.056-28.13 10.94l-.08-.425z"/>
            <path d="M1883.28 708.756l.1-.4c3.786-15.016 10.218-28.504 19.132-40.098l.348.27c-8.797 11.44-15.166 24.732-18.95 39.53 2.4-.917 15.526-6.212 28.853-16.952l.277.334c-14.734 11.875-29.227 17.127-29.373 17.178l-.386.138z"/>
            <path d="M1883.197 708.826l.195-.498c.094-.24 9.822-24.674 27.72-45.8l.33.28c-16.43 19.398-25.954 41.59-27.442 45.18 10.947-4.906 21.004-11.934 29.898-20.887l.314.315c-9.07 9.125-19.34 16.248-30.533 21.19l-.483.22z"/>
            <path d="M1883.71 708.123l.253-.623c14.05-34.768 60.008-70.94 60.47-71.3l.27.347c-.458.352-45.76 36.014-60.07 70.467 3.08-2.014 17.83-12.02 32.276-27.463l.323.296c-16.2 17.322-32.783 27.814-32.947 27.92l-.577.357z"/>
            <path d="M1883.566 708.533l.777-1.264c14.885-24.302 59.615-70.587 60.068-71.056l.313.303c-.443.463-43.562 45.076-59.18 69.652 6.406-5.825 37.67-34.634 51.838-55.456l.366.244c-15.783 23.19-52.7 56.254-53.068 56.586l-1.112.99z"/>
            <path d="M1883.998 707.77c5.19-1.622 59.45-69.82 59.998-70.515l.34.27c-2.234 2.816-54.89 68.996-60.21 70.666l-.128-.42z"/>
          </g>
        </g>
        <path stroke-miterlimit="10" fill="none" stroke="#fff" d="M1845.498 742.975l154.006-159.5"/>
        <path d="M1834.723 737.44c4.938-4.835 12.865-4.75 17.7.187 4.833 4.94 4.75 12.863-.19 17.7-1.006.985-3.953 2.468-5 2.69-4.938 1.044-19.436 4.192-23.295 6.01 0 0 6.29-16.056 7.986-21.65.252-.832 1.812-3.97 2.8-4.936z" fill="#eeefa0"/>
        <path d="M2079.428 502.01c-44.055-44.97-115.332-44.97-159.387 0-44.052 44.998-44.052 117.78 0 162.78.08.077.165.15.24.23l79.575-81.505-.275-.283 79.848-81.222z" fill="#f9c0c5"/>
        <path d="M1920.28 665.02c22.028 22.36 50.808 33.522 79.575 33.495v-115l-79.576 81.506z" fill="#444861"/>
        <g fill="none" stroke="#eeefa0" stroke-miterlimit="10">
          <path d="M1996.412 695.02c-26.68-.815-51.76-11.388-71.27-30.046l71.27-73.002v103.05z"/>
          <path d="M1992.97 691.408c-23.255-1.512-45.35-10.84-62.894-26.557l62.893-64.42v90.978z"/>
          <path d="M1989.525 687.662c-19.857-2.04-38.94-10.113-54.43-23.023l54.43-55.75v78.772z"/>
          <path d="M1986.08 683.768c-16.496-2.383-32.54-9.184-45.863-19.44l45.863-46.98v66.42z"/>
          <path d="M1982.637 679.703c-13.314-2.51-26.04-7.914-37.195-15.8l37.195-38.097v53.897z"/>
          <path d="M1979.19 675.45c-10-2.378-19.69-6.503-28.4-12.093l28.4-29.094v41.186z"/>
          <path d="M1975.746 670.975c-6.738-1.975-13.35-4.797-19.465-8.312l19.466-19.94v28.252z"/>
          <path d="M1972.303 666.246c-3.54-1.25-7.01-2.734-10.37-4.443l10.37-10.623v15.066z"/>
        </g>
      </g>
      <g>
        <path stroke-miterlimit="10" fill="none" stroke="#fff" d="M920.79 510.055l189.505 243.093M999.992 476.89l73.026 297.938"/>
        <g fill="#eeefa0">
          <path d="M1047.635 666.64c-11.955-7.083-17.984-16.448-18.045-16.542l-.115-.172.186-.107c31.42-18.472 55.253-12.134 69.724-3.563 12.29 7.28 18.94 16.81 19.01 16.902l.14.204-.23.102c-.062.02-5.704 2.324-6.57 2.727-29.908 14.034-51.36 7.993-64.1.448zm-17.58-16.58c.887 1.313 6.826 9.737 17.79 16.235 12.65 7.49 33.966 13.488 63.712-.47.777-.366 5.242-2.192 6.35-2.642-1.045-1.426-7.52-9.94-18.734-16.582-14.35-8.496-37.97-14.772-69.118 3.46z"/>
          <path d="M1042.092 660.844c-8.63-5.11-12.574-10.488-12.625-10.557l.336-.24c.06.088 6.207 8.463 20.012 14.203 12.738 5.3 34.805 9.37 67.55-1.32l.13.383c-32.885 10.734-55.057 6.633-67.87 1.3-2.826-1.177-5.334-2.465-7.533-3.77z"/>
          <path d="M1029.738 650.342l-.205-.352c.13-.068 12.785-7.15 29.873-9.074 15.783-1.77 38.693.617 58.176 22.068l-.307.27c-19.375-21.32-42.13-23.692-57.824-21.935-17.005 1.91-29.585 8.953-29.712 9.022z"/>
          <path d="M1036.38 654.967l-.01-.002c-4.4-2.61-6.83-4.596-6.853-4.615l-.246-.205.292-.133c14.352-6.844 30.064-8.656 46.71-5.396 13.968 2.74 25.67 8.508 33.03 12.87 5.186 3.07 8.223 5.452 8.25 5.474l.3.236-.36.117c-16.922 5.314-33.85 6.396-50.328 3.227-13.79-2.663-24.357-7.765-30.787-11.573zm-6.34-4.727c.714.56 2.976 2.264 6.544 4.373 13.832 8.195 42.637 20.156 80.408 8.428-.895-.67-3.682-2.71-7.898-5.208-15.766-9.338-46.97-22.713-79.055-7.592z"/>
          <path d="M1033.064 652.604c-1.21-.713-2.4-1.473-3.53-2.242l-.355-.242.413-.117c.11-.035 11.324-3.244 27.133-3.598 14.59-.33 36.19 1.773 56.248 13.652 1.547.914 3.082 1.89 4.566 2.893l.412.28-.492.09c-.505.09-51.292 8.895-84.396-10.716zm-2.93-2.33c1.017.683 2.07 1.35 3.138 1.98 31.213 18.49 78.242 11.616 83.62 10.745-1.35-.896-2.74-1.772-4.13-2.595-19.973-11.83-41.488-13.924-56.027-13.598-14.03.318-24.424 2.886-26.6 3.466z"/>
          <path d="M1028.926 650.148l.678-.152c40.758-9.14 87.447 12.717 87.914 12.94l.576.276-.633.105c-34.75 5.914-87.353-12.746-87.882-12.934l-.652-.235zm87.814 12.88c-5.555-2.505-48.404-20.952-86.344-12.794 6.22 2.15 53.85 18.002 86.344 12.795z"/>
          <path d="M1028.97 650.254l.603-.246c17.75-7.303 84.717 12.398 85.393 12.596l1.32.393-1.38.004c-26.792.138-84.712-12.48-85.298-12.606l-.637-.14zm84.49 12.342c-9.612-2.756-66.08-18.473-83.095-12.46 6.43 1.387 57.383 12.17 83.094 12.46z"/>
          <path d="M1030.648 650.215l.047-.404c3.355.392 82.334 9.606 86.297 12.99l-.273.308c-3.86-3.296-85.253-12.8-86.072-12.893z"/>
          <g>
            <path d="M995.283 732.174l-.104-.227c-.058-.127-5.927-13.02-4.61-29.48.78-9.667 3.842-18.667 9.105-26.735 6.576-10.082 16.633-18.732 29.883-25.715l.186-.102.094.184c.06.11 5.648 11.278 4.91 26.376-.684 13.932-7.047 34.16-33.5 51.404-.79.523-5.713 4.11-5.762 4.145l-.203.15zm34.278-81.703c-29.688 15.728-37.366 36.958-38.573 52.015-1.22 15.152 3.69 27.26 4.465 29.066.96-.704 4.852-3.534 5.572-4.003 26.31-17.156 32.635-37.252 33.316-51.09.678-13.922-4.057-24.465-4.78-25.986z"/>
            <path d="M995.543 731.25l-.27-.31c26.225-22.157 34.117-42.93 36.117-56.452 2.166-14.633-1.9-24.143-1.94-24.238l.376-.162c.04.096 4.154 9.71 1.965 24.46-2 13.59-9.925 34.458-36.247 56.702z"/>
            <path d="M995.21 731.154c-8.485-27.57 1.306-48.178 11.005-60.605 10.51-13.458 23.19-20.49 23.318-20.56l.2.357c-.122.07-12.747 7.066-23.2 20.463-9.64 12.352-19.363 32.826-10.93 60.23l-.394.114z"/>
            <path d="M995.258 731.502l-.05-.377c-.024-.137-1.757-13.795 1.6-30.523 3.097-15.453 11.292-36.773 32.728-50.584l.268-.166.057.314c.02.113 1.71 11.527-1.663 27.148-3.115 14.418-11.305 35.475-32.648 53.938l-.292.25zm34.234-80.96c-21.12 13.73-29.21 34.827-32.28 50.136-3.028 15.11-1.895 27.69-1.642 30.014 21.03-18.32 29.13-39.158 32.217-53.44 3.053-14.113 1.947-24.772 1.705-26.71z"/>
            <path d="M995.234 731.605l-.03-.496c-1.405-24.59 8-45.32 16.134-58.384 8.814-14.148 18.08-22.602 18.172-22.684l.326-.285.023.428c1.26 20.63-8.13 41.572-16.233 55.506-8.777 15.09-17.965 25.44-18.06 25.542l-.333.373zm34.24-80.96c-1.706 1.61-9.927 9.684-17.794 22.305-8.04 12.922-17.332 33.375-16.088 57.635 1.725-1.998 9.865-11.666 17.688-25.102 8.015-13.784 17.292-34.448 16.195-54.838z"/>
            <path d="M995.496 730.613l.06-.627c.048-.5 4.938-50.205 33.946-79.932l.48-.502-.13.68c-.106.533-10.825 53.586-33.935 79.906l-.42.475zm33.81-79.77c-26.688 27.825-32.6 72.632-33.27 78.534 21.32-24.748 31.94-72.24 33.27-78.533z"/>
            <path d="M995.652 730.707l.34-1.324c.182-.676 18.03-68.125 33.535-79.354l.53-.38-.212.61c-.193.56-19.49 56.7-33.475 79.28l-.718 1.167zm33.58-79.94c-14.018 11.29-29.85 67.716-32.467 77.333 13.075-21.912 30.32-71.13 32.467-77.332z"/>
            <path d="M995.365 730.562c-.88-5.105 32.018-76.643 33.412-79.686l.375.168c-.338.744-34.24 74.467-33.383 79.45l-.405.068z"/>
          </g>
          <g>
            <path d="M1036.855 750.244l-.213-.143c-.168-.11-16.732-11.392-23.162-31.948l.39-.12c6 19.165 20.86 30.216 22.796 31.59.45-1.097 2.29-5.51 2.656-6.284 16.12-33.738 6.377-56.648-4.646-69.928l.322-.254c6.598 7.95 10.777 16.98 12.432 26.84 2.244 13.445-.355 28.088-7.734 43.518-.406.855-2.723 6.44-2.746 6.498l-.095.232z"/>
            <path d="M1036.195 749.195c12.088-36.39 5.676-59.69-1.818-72.826l.36-.2c7.542 13.207 13.98 36.617 1.85 73.154l-.392-.13z"/>
            <path d="M1036.254 749.408c-10.682-9.43-17.72-20.53-20.916-32.977l.396-.104c3.182 12.373 10.182 23.406 20.793 32.78l-.273.302z"/>
            <path d="M1036.475 749.686l-.244-.3c-.118-.15-12.222-15.243-17.638-36.382l.396-.102c4.97 19.406 15.596 33.69 17.326 35.924 9.14-28.97 3.64-52.682-2.605-67.49l.38-.158c6.3 14.94 11.846 38.887 2.496 68.146l-.11.362z"/>
            <path d="M1036.508 749.783l-.287-.412c-7.868-11.302-13.06-24.41-15.433-38.944l.406-.062c2.334 14.295 7.404 27.197 15.078 38.36.708-4.333 5.435-36.134-3.052-64.296l.396-.12c9.104 30.243 3.045 64.646 2.984 64.987l-.09.488z"/>
            <path d="M1036.203 748.338l-.285-.547c-.086-.16-8.643-16.868-12.918-40.188l.404-.072c3.826 20.87 11.08 36.408 12.592 39.512 2.395-14.63.914-32.775-4.518-55.45l.4-.095c5.52 23.05 6.97 41.447 4.42 56.234l-.095.608z"/>
            <path d="M1036.283 748.287l-.4-1.252c-6.963-21.895-7.748-26.402-9.174-34.592-.384-2.2-.82-4.69-1.437-7.857l.402-.074c.62 3.166 1.057 5.662 1.438 7.86 1.398 8.01 2.178 12.493 8.756 33.257-.16-14.237-3.368-33.657-6.177-49.128l.41-.072c2.898 15.982 6.225 36.174 6.184 50.547v1.31z"/>
            <path d="M1036.07 748.826c-1.52-1.736-4.4-17.984-8.547-48.293l.41-.053c5.152 37.65 7.436 46.93 8.445 48.078l-.308.268z"/>
          </g>
          <g>
            <path d="M1071.424 696.867c-2.893-1.71-5.59-3.62-8.086-5.734-7.686-6.498-13.342-14.71-16.81-24.402l.386-.138c5.797 16.19 20.592 36.303 58.145 40.13.858.085 5.628.813 6.81.995-.188-2.346-2.06-20.633-15.547-35.62l.305-.272c14.47 16.08 15.656 35.928 15.672 36.125l.014.25-.246-.037c-.07-.014-6.102-.943-7.055-1.04-13.083-1.33-24.337-4.775-33.59-10.256z"/>
            <path d="M1075.61 693.764c-13.866-8.213-21.802-17.744-26.34-25.697l.362-.2c7.488 13.144 24.342 30.62 62.11 39.237l-.093.398c-15.09-3.447-26.867-8.307-36.04-13.738z"/>
            <path d="M1111.502 707.336c-2.623-13.828-8.55-25.447-17.615-34.543l.285-.287c9.13 9.154 15.092 20.848 17.73 34.758l-.4.072z"/>
            <path d="M1082.47 695.805c-13.333-7.896-22.51-17.57-28.522-25.684l.332-.24c9.588 12.946 27.26 29.864 57.09 37.134-1.043-2.62-7.91-18.996-22.14-33.244l.296-.29c15.502 15.526 22.3 33.573 22.37 33.755l.132.357-.38-.092c-11.41-2.74-21.066-6.89-29.18-11.695z"/>
            <path d="M1087.93 695.676c-10.08-5.973-21.648-14.133-31.03-24.338l.306-.275c20 21.75 49.975 34.22 54.096 35.863-5.69-12.264-14.238-23.234-25.41-32.605l.264-.31c11.357 9.528 20.02 20.706 25.732 33.212l.21.453-.472-.182c-.188-.075-10.704-4.122-23.696-11.817z"/>
            <path d="M1097.234 700.045c-10.264-6.078-21.232-14.828-33.21-26.45l.288-.294c16.947 16.446 31.86 27.118 45.588 32.603-1.88-2.89-11.512-17.137-27.61-31.178l.27-.307c17.99 15.688 27.933 31.64 28.028 31.797l.32.52-.57-.223c-4.248-1.657-8.61-3.807-13.104-6.467z"/>
            <path d="M1111.402 707.064l-1.164-.693c-11.8-7.005-27.404-20.136-41.117-32.056l.272-.307c13.227 11.5 28.215 24.125 39.828 31.273-3.543-3.83-16.34-17.463-30.932-30.47l.277-.302c17.117 15.264 31.78 31.39 31.926 31.547l.912 1.01z"/>
            <path d="M1111.105 706.934c-.48-1.453-7.326-8.188-37.268-32.037l.264-.31c24.1 19.194 36.68 30.032 37.39 32.22l-.385.127z"/>
          </g>
          <g>
            <path d="M1060.672 719.287c-4.785-2.834-9.076-5.955-12.812-9.332l.277-.303c6.137 5.545 13.758 10.398 22.654 14.422.784.352 5.196 2.375 6.25 2.86.448-1.76 3.142-13.27.337-27.042l.402-.082c3.052 15.004-.376 27.34-.403 27.465l-.07.227-.223-.098s-5.58-2.56-6.46-2.96c-3.52-1.587-6.843-3.315-9.952-5.157z"/>
            <path d="M1076.787 726.906c-11.924-7.277-21.797-15.363-29.34-24.027l.314-.27c7.515 8.642 17.356 16.696 29.245 23.95l-.218.346z"/>
            <path d="M1076.69 726.705c1.415-9.824.91-19.19-1.493-27.842l.4-.11c2.416 8.71 2.922 18.134 1.504 28.007l-.41-.055z"/>
            <path d="M1077.115 727.107l-.328-.2c-12.3-7.704-22.455-17.3-30.19-28.532l.343-.23c7.633 11.087 17.63 20.57 29.734 28.204-.113-2.384-.982-15.507-6.656-30.388l.38-.145c6.274 16.45 6.704 30.764 6.706 30.912l.01.377z"/>
            <path d="M1077.152 727.205l-.387-.316c-.19-.155-19.148-15.84-32.76-37.77l.346-.212c12.5 20.135 29.52 34.986 32.29 37.344-1.164-11.088-4.482-22.004-9.865-32.455l.37-.188c5.483 10.655 8.827 21.788 9.956 33.104l.052.49z"/>
            <path d="M1076.674 726.547l-.48-.404c-26.924-22.498-45.723-73.566-45.908-74.08l.387-.137c.184.506 18.715 50.85 45.283 73.484-.893-3.303-5.494-19.225-15.045-36.463l.362-.197c10.71 19.328 15.207 37.01 15.254 37.186l.148.61z"/>
            <path d="M1077 726.793l-.9-1.055c-17.332-20.193-45.52-73.117-45.807-73.652l.363-.188c.283.527 27.457 51.54 44.816 72.46-3.316-7.345-19.863-43.306-34.295-61.856l.324-.252c16.075 20.668 34.757 62.854 34.944 63.273l.556 1.27z"/>
            <path d="M1076.445 726.193c.076-5.055-44.887-72.754-45.346-73.44l.34-.222c1.86 2.792 45.49 68.485 45.42 73.67l-.415-.007z"/>
          </g>
        </g>
        <path d="M1086.33 781.668c-1.38-6.082-7.49-9.906-13.643-8.543-6.156 1.363-10.025 7.4-8.646 13.482.282 1.238 1.804 3.807 2.493 4.486 3.262 3.215 12.797 12.713 14.85 15.98 0 0 3.16-15.232 4.64-20.3.217-.75.582-3.888.307-5.105zM1123.627 752.387c-4.238-4.617-11.463-4.965-16.133-.78-4.672 4.19-5.025 11.327-.787 15.944.86.94 3.47 2.435 4.408 2.69 4.44 1.204 17.477 4.815 20.895 6.657 0 0-4.857-14.79-6.102-19.918-.185-.76-1.435-3.67-2.28-4.593z" fill="#eeefa0"/>
        <path d="M1094.752 540.238c-11.47-26.762-34.07-48.318-63.137-57.992-4.953-1.648-10.086-2.957-15.385-3.883-10.162-1.775-16.502-1.543-16.502-1.543l47.598 195.4c0 .004-.01.006-.01.008l-125.877-160.8-.583-1.443c-13.307 14.146-22.78 32.115-26.44 52.553-5.837 32.623 4.444 64.37 25.16 87.31.003.005.01.007.01.01 15.155 16.78 35.886 28.856 60.034 33.075 57.165 9.99 111.71-27.727 121.817-84.22 3.67-20.496.958-40.64-6.685-58.475z" fill="#f9c0c5"/>
        <path d="M920.82 509.893c20.06-21.25 48.77-33.842 79.434-33.078l-.285.572 47.356 194.834c0 .005-.01.007-.01.01L921.44 511.427l-.62-1.535z" fill="#444861"/>
        <path d="M924.637 510.436c19.168-19.45 45.414-30.47 72.71-30.547l43.51 179.01-116.22-148.464z" fill="none" stroke="#eeefa0" stroke-miterlimit="10"/>
        <path d="M928.818 510.7c17.71-16.995 41.52-26.972 66.06-27.667l39.5 162.518L928.82 510.7z" fill="none" stroke="#eeefa0" stroke-miterlimit="10"/>
        <path d="M933.047 511.03c16.21-14.644 37.576-23.565 59.38-24.786l35.476 145.955-94.856-121.17z" fill="none" stroke="#eeefa0" stroke-miterlimit="10"/>
        <path d="M937.334 511.428c14.648-12.39 33.56-20.258 52.658-21.896l31.432 129.316-84.09-107.42z" fill="none" stroke="#eeefa0" stroke-miterlimit="10"/>
        <path d="M941.682 511.904c13.16-10.393 29.264-17.062 45.896-19.008l27.367 112.602-73.263-93.594z" fill="none" stroke="#eeefa0" stroke-miterlimit="10"/>
        <path d="M946.096 512.467c11.428-8.367 25.11-14.01 39.088-16.115l23.285 95.795-62.374-79.68z" fill="none" stroke="#eeefa0" stroke-miterlimit="10"/>
        <path d="M950.582 513.123c9.707-6.56 20.74-11.086 32.232-13.223l19.176 78.895-51.408-65.672z" fill="none" stroke="#eeefa0" stroke-miterlimit="10"/>
        <path d="M955.15 513.88c7.777-4.798 16.424-8.325 25.32-10.327l15.043 61.893-40.363-51.565z" fill="none" stroke="#eeefa0" stroke-miterlimit="10"/>
        <path d="M959.81 514.76c5.755-3.207 12-5.736 18.345-7.436l10.88 44.77-29.224-37.334z" fill="none" stroke="#eeefa0" stroke-miterlimit="10"/>
        <path d="M964.574 515.768c3.643-1.81 7.422-3.33 11.295-4.545l6.688 27.52-17.984-22.975z" fill="none" stroke="#eeefa0" stroke-miterlimit="10"/>
        <path d="M969.457 516.93c1.37-.596 2.76-1.15 4.164-1.662l2.46 10.125-6.623-8.463z" fill="none" stroke="#eeefa0" stroke-miterlimit="10"/>
      </g>
      <g>
        <g fill="#eeefa0">
          <path d="M1320.747 666.2c-12.69-2.55-20.914-8.968-20.996-9.03l-.153-.117.127-.154c21.675-26.128 44.52-27.93 59.874-24.843 13.048 2.623 21.862 8.99 21.95 9.053l.19.14-.175.16c-.043.038-4.256 3.83-4.885 4.458-21.745 21.724-42.415 23.048-55.93 20.333zm-20.603-9.21c1.19.887 9.038 6.494 20.676 8.836 13.422 2.7 33.96 1.377 55.592-20.232.562-.564 3.893-3.568 4.722-4.31-1.362-.94-9.706-6.46-21.61-8.855-15.228-3.06-37.867-1.274-59.38 24.56z"/>
          <path d="M1314.07 662.793c-9.16-1.84-14.302-5.373-14.364-5.42l.215-.314c.083.058 8.097 5.56 21.978 6.347 12.814.73 33.4-2.533 58.682-22.184l.232.3c-25.39 19.735-46.077 23-58.965 22.265-2.842-.165-5.442-.524-7.778-.995z"/>
          <path d="M1299.956 657.338l-.29-.246c.093-.102 8.936-10.31 23.28-17.326 13.252-6.48 34.043-11.488 57.837 1.44l-.182.335c-23.658-12.85-44.314-7.872-57.486-1.433-14.28 6.98-23.068 17.13-23.158 17.23z"/>
          <path d="M1307.22 659.365c-4.674-.94-7.42-1.943-7.445-1.953l-.28-.104.208-.21c10.403-10.52 23.582-17.015 39.166-19.306 13.08-1.92 25.14-.453 32.948 1.117 5.504 1.106 8.91 2.272 8.94 2.28l.337.115-.28.217c-13.13 9.97-27.6 16.19-43.01 18.51-12.905 1.94-23.755.708-30.58-.667zm-7.033-2.21c.805.27 3.32 1.075 7.105 1.837 14.68 2.95 43.645 4.58 72.996-17.553-.996-.32-4.072-1.255-8.55-2.155-16.733-3.363-48.237-5.498-71.55 17.87z"/>
          <path d="M1303.575 658.31c-1.28-.26-2.558-.56-3.79-.892l-.387-.102.325-.236c.09-.064 8.89-6.393 22.605-11.625 12.66-4.826 32.223-9.686 53.507-5.408 1.642.33 3.288.713 4.905 1.143l.447.117-.4.232c-.413.24-42.075 23.83-77.212 16.77zm-3.292-1.158c1.102.29 2.233.553 3.367.78 33.128 6.66 72.108-14.054 76.534-16.495-1.457-.375-2.95-.72-4.424-1.016-21.197-4.26-40.682.58-53.3 5.394-12.172 4.645-20.455 10.15-22.177 11.338z"/>
          <path d="M1299.187 657.418l.544-.346c32.783-20.768 80.505-15.94 80.984-15.89l.594.065-.52.293c-28.54 16.043-80.437 15.887-80.955 15.883l-.646-.005zm80.878-15.908c-5.648-.492-48.945-3.496-79.566 15.53 6.118-.036 52.776-.815 79.565-15.53z"/>
          <path d="M1299.26 657.498l.444-.402c13.232-11.988 78.02-15.377 78.672-15.412l1.28-.062-1.205.432c-23.396 8.455-78.04 15.3-78.592 15.37l-.597.074zm77.796-15.355c-9.273.55-63.623 4.203-76.617 14.816 6.06-.77 54.036-7.075 76.616-14.817z"/>
          <path d="M1300.712 656.943l-.086-.373c3.06-.7 75.055-17.107 79.586-15.346l-.14.357c-4.415-1.71-78.612 15.19-79.36 15.363z"/>
          <g>
            <path d="M1295.575 740.5l-.166-.168c-.09-.094-9.282-9.684-13.31-24.662-2.36-8.803-2.518-17.72-.45-26.502 2.58-10.97 8.653-21.758 18.048-32.062l.13-.145.142.134c.086.082 8.488 8.227 12.597 21.822 3.785 12.547 4.587 32.434-13.126 55.93-.524.71-3.702 5.414-3.733 5.463l-.132.19zm4.268-82.992c-21.023 23.156-21.06 44.34-17.375 58.045 3.703 13.795 11.81 22.988 13.057 24.344.62-.922 3.133-4.64 3.613-5.28 17.617-23.37 16.824-43.126 13.063-55.59-3.787-12.537-11.25-20.398-12.357-21.52z"/>
            <path d="M1295.51 739.602l-.333-.188c15.97-27.775 16.334-48.62 13.826-61.213-2.71-13.63-9.26-20.78-9.326-20.853l.274-.264c.07.072 6.695 7.307 9.424 21.04 2.524 12.66 2.162 33.604-13.865 61.48z"/>
            <path d="M1295.187 739.623c-16.1-21.77-14.02-43.06-9.447-57.08 4.96-15.182 13.84-25.354 13.928-25.45l.29.253c-.087.098-8.927 10.22-13.86 25.332-4.543 13.932-6.605 35.082 9.4 56.717l-.31.228z"/>
            <path d="M1295.337 739.914l-.158-.318c-.065-.115-5.882-11.662-8.21-27.52-2.16-14.645-1.697-36.068 12.71-54.96l.18-.233.147.262c.05.096 5.125 9.672 7.094 24.553 1.808 13.732 1.274 34.924-11.587 57.906l-.176.31zm4.47-82.32c-14.16 18.723-14.593 39.918-12.46 54.424 2.104 14.318 7.055 25.104 8.012 27.082 12.632-22.762 13.154-43.73 11.36-57.334-1.773-13.442-6.092-22.534-6.914-24.172z"/>
            <path d="M1295.35 740.012l-.182-.43c-8.97-21.328-7.265-42.607-4.26-56.703 3.253-15.27 8.702-25.632 8.755-25.733l.193-.355.157.37c7.6 17.874 5.972 39.335 3.272 54.19-2.93 16.088-7.713 28.107-7.764 28.227l-.17.432zm4.47-82.326c-.985 1.957-5.636 11.664-8.546 25.283-2.97 13.94-4.654 34.935 4.066 56.026.883-2.303 4.963-13.395 7.572-27.723 2.677-14.695 4.29-35.875-3.09-53.587z"/>
            <path d="M1295.27 739.053l-.15-.572c-.112-.46-11.478-45.983 4.542-81.325l.262-.59.095.64c.08.505 7.404 50.808-4.53 81.298l-.22.55zm4.467-81.137c-14.59 32.938-5.658 74.44-4.386 79.875 10.864-28.54 5.204-73.89 4.387-79.874z"/>
            <path d="M1295.437 739.09l-.122-1.28c-.054-.653-5.67-65.92 4.364-80.685l.34-.498.01.604c0 .56.796 56.263-4.326 80.603l-.263 1.257zm4.213-81.22c-8.71 14.355-4.8 69.235-4.062 78.562 4.54-23.465 4.136-72.405 4.062-78.56z"/>
            <path d="M1295.135 739.05c-2.372-4.245 3.888-77.81 4.153-80.94l.377.03c-.06.767-6.512 76.58-4.195 80.724l-.335.187z"/>
          </g>
          <g>
            <path d="M1337.628 743.568l-.23-.06c-.18-.046-18.22-4.884-30.318-21.08l.3-.228c11.286 15.098 27.765 20.262 29.887 20.873.052-1.107.27-5.588.345-6.387 3.487-34.885-12.25-52.133-26.074-60.46l.203-.327c8.278 4.985 14.774 11.68 19.325 19.894 6.197 11.205 8.53 24.977 6.934 40.934-.087.883-.358 6.547-.36 6.605l-.012.235z"/>
            <path d="M1336.724 742.846c-.883-35.977-13.826-54.61-24.516-63.91l.252-.287c10.754 9.345 23.756 28.07 24.646 64.187l-.382.01z"/>
            <path d="M1336.84 743.014c-12.31-5.025-21.962-12.662-28.68-22.688l.315-.215c6.678 9.966 16.275 17.554 28.51 22.552l-.146.352z"/>
            <path d="M1337.12 743.193l-.307-.19c-.152-.097-15.492-9.692-26.885-26.724l.314-.212c10.456 15.63 24.252 24.975 26.47 26.412-1.128-28.492-13.398-47.773-23.526-58.938l.285-.262c10.214 11.27 22.605 30.746 23.636 59.555l.014.358z"/>
            <path d="M1337.18 743.268l-.38-.275c-10.443-7.56-19.11-17.547-25.76-29.676l.336-.184c6.54 11.93 15.04 21.775 25.264 29.273-.746-4.06-6.617-33.684-22.906-55.975l.31-.228c17.48 23.938 23.01 56.283 23.06 56.604l.077.462z"/>
            <path d="M1336.46 742.084l-.422-.396c-.125-.117-12.87-12.246-23.95-31.56l.327-.192c9.918 17.285 21.156 28.787 23.455 31.062-2.51-13.695-9.516-29.3-21.406-47.684l.318-.207c12.085 18.69 19.146 34.523 21.57 48.406l.108.57z"/>
            <path d="M1336.513 742.014l-.744-.982c-12.983-17.22-15.09-20.97-18.913-27.773-1.03-1.827-2.195-3.9-3.73-6.51l.328-.19c1.543 2.61 2.705 4.684 3.732 6.512 3.742 6.658 5.838 10.38 18.128 26.72-4.62-12.554-13.538-28.75-20.864-41.57l.334-.194c7.566 13.25 16.835 30.09 21.32 42.828l.41 1.158z"/>
            <path d="M1336.497 742.56c-1.877-1.065-9.51-14.558-22.683-40.097l.347-.176c16.36 31.73 21.278 39.234 22.52 39.938l-.183.334z"/>
          </g>
          <g>
            <path d="M1351.068 685.562c-3.065-.62-6.028-1.47-8.878-2.562-8.77-3.365-16.3-8.87-22.385-16.377l.292-.242c10.168 12.53 29.44 25.733 63.5 17.442.78-.19 5.18-1.03 6.272-1.236-.903-2.018-8.298-17.627-24.815-26.7l.18-.335c17.72 9.735 25.01 26.937 25.083 27.108l.09.217-.23.043c-.06.01-5.632 1.062-6.493 1.273-11.864 2.892-22.795 3.347-32.617 1.372z"/>
            <path d="M1353.757 681.51c-14.715-2.96-24.66-8.926-31.13-14.557l.25-.287c10.69 9.307 30.935 19.533 66.69 15.414l.046.383c-14.29 1.642-26.122 1.004-35.856-.953z"/>
            <path d="M1389.427 682.365c-6.645-11.43-15.493-19.873-26.28-25.107l.157-.342c10.867 5.268 19.765 13.764 26.45 25.256l-.327.193z"/>
            <path d="M1360.397 681.184c-14.148-2.842-25.22-8.555-33.037-13.865l.215-.317c12.463 8.48 33.25 17.96 61.633 15.115-1.734-1.996-12.896-14.357-29.828-22.545l.166-.348c18.45 8.924 30.076 22.785 30.19 22.926l.23.276-.362.035c-10.84 1.126-20.593.456-29.207-1.276z"/>
            <path d="M1365.138 679.373c-10.7-2.154-23.39-5.78-34.81-11.896l.18-.336c24.342 13.036 54.493 14.75 58.614 14.923-8.84-9.088-19.77-16.14-32.492-20.96l.13-.36c12.937 4.902 24.032 12.104 32.97 21.395l.324.338-.467-.012c-.19-.01-10.662-.32-24.45-3.09z"/>
            <path d="M1374.65 680.346c-10.89-2.188-23.243-6.523-37.378-13.088l.158-.348c20 9.285 36.412 14.094 50.146 14.68-2.555-1.97-15.465-11.588-33.967-19.016l.14-.354c20.672 8.295 34.395 19.324 34.525 19.434l.443.36-.57-.02c-4.233-.144-8.727-.69-13.5-1.648z"/>
            <path d="M1389.257 682.152l-1.24-.252c-12.527-2.53-30.31-9.305-46.06-15.588l.14-.357c15.19 6.064 32.28 12.58 44.69 15.3-4.306-2.292-19.792-10.38-36.655-17.356l.148-.353c19.78 8.186 37.685 17.902 37.865 17.998l1.112.607z"/>
            <path d="M1388.95 682.13c-.873-1.138-8.982-4.972-42.682-16.77l.13-.358c27.126 9.498 41.542 15.182 42.854 16.893l-.3.234z"/>
          </g>
          <g>
            <path d="M1348.722 708.754c-5.08-1.02-9.812-2.45-14.148-4.28l.15-.35c7.115 3 15.307 4.925 24.36 5.72.794.07 5.29.488 6.363.586-.164-1.693-1.427-12.72-8.22-24.043l.33-.197c7.394 12.334 8.275 24.32 8.29 24.44l.013.222-.226-.016s-5.688-.533-6.58-.613c-3.582-.31-7.036-.807-10.332-1.47z"/>
            <path d="M1365.217 710.486c-12.724-2.734-23.902-6.822-33.228-12.146l.188-.334c9.293 5.31 20.437 9.38 33.12 12.105l-.08.376z"/>
            <path d="M1365.073 710.336c-1.857-9.135-5.25-17.273-10.072-24.182l.313-.22c4.86 6.954 8.268 15.14 10.13 24.323l-.37.08z"/>
            <path d="M1365.568 710.564l-.352-.078c-13.186-2.994-25.09-8.33-35.392-15.87l.23-.308c10.165 7.44 21.896 12.725 34.89 15.72-.848-2.075-5.743-13.42-15.39-24.83l.286-.25c10.668 12.616 15.553 25.155 15.598 25.282l.13.334z"/>
            <path d="M1365.632 710.637l-.44-.162c-.21-.076-21.735-8.062-40.546-23.246l.238-.294c17.27 13.938 36.836 21.793 40 23.018-4.51-9.453-10.85-18.086-18.848-25.664l.268-.28c8.152 7.728 14.58 16.544 19.127 26.21l.202.417z"/>
            <path d="M1365.007 710.203l-.547-.207c-30.637-11.543-63.16-50.91-63.482-51.305l.297-.243c.316.395 32.38 39.197 62.746 50.973-1.82-2.646-10.858-15.312-24.636-27.602l.25-.29c15.455 13.782 24.955 28.04 25.05 28.18l.323.495z"/>
            <path d="M1365.367 710.32l-1.118-.652c-21.52-12.49-62.84-50.572-63.26-50.96l.26-.278c.413.377 40.243 37.09 62.015 50.21-5.216-5.47-31.006-32.16-49.473-44.097l.205-.322c20.566 13.298 50.19 44.835 50.485 45.147l.885.953z"/>
            <path d="M1364.696 709.96c-1.525-4.5-62.17-50.446-62.787-50.91l.225-.302c2.507 1.893 61.356 46.482 62.925 51.09l-.364.12z"/>
          </g>
        </g>
        <path fill="#f9c0c5" d="M1335.308 681.322V495.277h-99.89l.095 83.95"/>
        <path d="M1335.308 681.523v-.2l-99.795-102.097-81.166-83.04v185.337h180.96z" fill="#444861" stroke="#c8e5c8" stroke-miterlimit="10"/>
        <path fill="none" stroke="#eeefa0" stroke-miterlimit="10" d="M1157.946 677.924V505.02l169.004 172.904z"/>
        <path fill="none" stroke="#eeefa0" stroke-miterlimit="10" d="M1161.546 674.324v-160.47l156.85 160.47z"/>
        <path fill="none" stroke="#eeefa0" stroke-miterlimit="10" d="M1165.146 670.725v-148.04l144.7 148.04z"/>
        <path fill="none" stroke="#eeefa0" stroke-miterlimit="10" d="M1168.745 667.125V531.52l132.547 135.605z"/>
        <path fill="none" stroke="#eeefa0" stroke-miterlimit="10" d="M1172.345 663.525V540.352l120.394 123.173z"/>
        <path fill="none" stroke="#eeefa0" stroke-miterlimit="10" d="M1175.944 659.926v-110.74l108.243 110.74z"/>
        <path fill="none" stroke="#eeefa0" stroke-miterlimit="10" d="M1179.544 656.326v-98.308l96.09 98.308z"/>
        <path fill="none" stroke="#eeefa0" stroke-miterlimit="10" d="M1183.144 652.727v-85.875l83.937 85.875z"/>
        <path fill="none" stroke="#eeefa0" stroke-miterlimit="10" d="M1186.743 649.127v-73.443l71.785 73.443z"/>
        <path fill="none" stroke="#eeefa0" stroke-miterlimit="10" d="M1190.343 645.527v-61.01l59.633 61.01z"/>
        <path fill="none" stroke="#eeefa0" stroke-miterlimit="10" d="M1193.942 641.928v-48.576l47.48 48.576z"/>
        <path fill="none" stroke="#eeefa0" stroke-miterlimit="10" d="M1197.542 638.328v-36.144l35.328 36.144z"/>
        <path fill="none" stroke="#eeefa0" stroke-miterlimit="10" d="M1201.142 634.73v-23.712l23.175 23.71z"/>
        <path fill="none" stroke="#eeefa0" stroke-miterlimit="10" d="M1204.74 631.13V619.85l11.025 11.277z"/>
        <path stroke-miterlimit="10" fill="none" stroke="#fff" d="M1154.347 496.188l241.705 248.683"/>
        <path d="M1388.927 756.04c-5.17-4.587-5.645-12.5-1.06-17.67 4.59-5.17 12.497-5.644 17.67-1.056 1.052.934 2.74 3.77 3.03 4.797 1.393 4.855 5.553 19.095 7.64 22.817 0 0-16.46-5.145-22.16-6.445-.848-.19-4.087-1.527-5.12-2.443z" fill="#eeefa0"/>
      </g>
      <g>
        <path stroke-miterlimit="10" fill="none" stroke="#fff" d="M1567.513 682.385l279.507-161.93"/>
        <path d="M1849.48 505.527c-5.332 3.078-7.16 9.896-4.084 15.227 3.076 5.332 9.895 7.16 15.227 4.082 1.084-.625 3.062-2.8 3.503-3.643 2.08-3.986 8.26-15.664 10.742-18.54 0 0-15.278 1.542-20.484 1.66-.774.017-3.84.6-4.905 1.214z" fill="#eeefa0"/>
        <g fill="#eeefa0">
          <path d="M1805.313 612.61c.52.74 4.064 5.312 4.102 5.358l.144.19-.213.106c-.1.05-10.102 4.848-23.674 5.12-15.975.325-38.584-5.612-55.624-35.76l-.1-.175.174-.093c.098-.05 9.51-5.004 22.714-5.27 14.063-.284 34.575 4.78 52.475 30.524zM1785.665 623c12.38-.25 21.76-4.285 23.295-4.98-.7-.893-3.498-4.514-3.963-5.186-17.81-25.602-38.19-30.64-52.153-30.357-12.106.248-20.998 4.46-22.353 5.137 16.928 29.822 39.333 35.706 55.175 35.386z"/>
          <path d="M1745.518 584.303c-9.526.193-15.326 2.81-15.402 2.844l.163.357c.088-.045 9.13-4.12 23.208-2.402 12.998 1.582 33.076 8.578 54.904 32.873l.29-.258c-21.923-24.398-42.103-31.416-55.175-33.008-2.884-.35-5.56-.456-7.99-.407z"/>
          <path d="M1730.364 587.23l-.335.194c.07.12 7.107 11.963 20.238 21.602 12.133 8.898 32.102 17.688 58.327 9.006l-.12-.37c-26.078 8.626-45.916-.104-57.974-8.95-13.075-9.59-20.063-21.366-20.136-21.483z"/>
          <path d="M1768.844 591.36c15.055 5.112 28.456 13.976 39.838 26.356l.24.268-.358.057c-.032.003-3.665.558-9.388.673-8.127.166-20.495-.54-33.282-4.83-15.232-5.117-27.29-14.018-35.83-26.46l-.172-.25.3-.054c.025-.01 2.968-.517 7.826-.616h.01c7.103-.145 18.214.582 30.82 4.855zm30.324 26.964c4.655-.094 7.918-.48 8.97-.62-25.467-27.522-54.84-31.12-70.11-30.81-3.938.08-6.61.433-7.466.56 19.182 27.673 51.2 31.224 68.606 30.87z"/>
          <path d="M1808.66 617.697l.357.305-.47.04c-1.698.136-3.425.224-5.13.26-22.145.446-40.904-7.966-52.74-15.103-12.828-7.73-20.515-15.675-20.592-15.757l-.287-.293.407-.035c1.296-.107 2.637-.18 3.967-.205 36.554-.742 74.115 30.47 74.487 30.787zm-57.783-14.832c11.798 7.11 30.482 15.49 52.532 15.043 1.534-.03 3.092-.105 4.628-.217-4.007-3.25-39.398-31.09-73.856-30.392-1.18.023-2.364.082-3.523.174 1.512 1.507 8.833 8.53 20.217 15.393z"/>
          <path d="M1730.255 587.117c.52.092 52.65 9.312 78.404 30.578l.468.387-.606-.04c-.49-.036-49.275-3.813-78.43-30.59l-.487-.444.65.11zm.6.51c27.304 24.633 71.315 29.443 77.07 29.97-24.233-19.617-70.935-28.83-77.07-29.97z"/>
          <path d="M1730.28 587.125c.542.17 54.163 16.918 76.127 29.635l1.128.652-1.27-.297c-.65-.15-65.08-15.264-76.2-29.69l-.37-.483.585.183zm.502.568c11.126 13.006 65.03 26.494 74.238 28.723-21.268-11.852-68.292-26.852-74.238-28.723z"/>
          <path d="M1731.05 587.762l-.15.357c2.94 1.253 72.256 30.74 77.127 29.786l-.08-.383c-4.74.924-76.176-29.455-76.896-29.76z"/>
          <g>
            <path d="M1741.09 503.162c.023.055 2.364 5.352 2.765 6.158 13.535 26.79 9.14 46.61 3.068 58.523-6.58 12.906-16.49 19.566-16.59 19.633l-.165.107-.104-.17c-7.57-12.04-11.72-23.97-12.326-35.45-.485-9.188 1.28-18.116 5.243-26.524 6.75-14.312 17.715-22.278 17.82-22.358l.193-.137.098.217zm5.486 64.504c6.03-11.832 10.393-31.525-3.067-58.172-.37-.727-2.22-4.914-2.674-5.953-1.497 1.14-11.3 8.9-17.51 22.08-6.176 13.095-9.966 34.37 6.954 61.415 1.318-.924 10.227-7.467 16.296-19.37z"/>
            <path d="M1740.766 503.836l-.367.13c11.013 30.77 7.61 51.763 2.817 63.952-5.186 13.193-13.054 19.19-13.13 19.252l.23.312c.078-.06 8.037-6.125 13.257-19.422 4.824-12.25 8.244-33.34-2.808-64.224z"/>
            <path d="M1740.447 503.758c-20.1 18.945-21.858 40.693-19.802 55.596 2.238 16.14 9.312 27.955 9.384 28.07l.334-.2c-.066-.116-7.115-11.878-9.334-27.94-2.045-14.81-.29-36.415 19.687-55.245l-.27-.282z"/>
            <path d="M1740.77 503.834c8.76 25.398 5.468 46.77 1.167 60.23-4.662 14.583-11.49 23.282-11.557 23.368l-.194.234-.14-.264c-11.05-21.572-7.64-43.162-2.83-57.477 5.205-15.496 13.133-26.04 13.217-26.145l.218-.29.12.344zm.798 60.094c4.26-13.336 7.524-34.484-1.046-59.615-1.315 1.812-8.234 11.746-12.937 25.74-4.764 14.18-8.157 35.535 2.672 56.895 1.124-1.5 7.103-9.848 11.31-23.02z"/>
            <path d="M1740.776 503.86c.03.13 2.657 13.063 2.69 29.743.03 15.402-2.218 37.24-13.077 53.812l-.224.342-.132-.39c-.033-.11-3.63-11.5-4.14-27.417-.47-14.693 1.667-36.365 14.525-56.158l.26-.4.096.467zm2.305 29.753c-.032-14.855-2.123-26.73-2.592-29.2-12.567 19.597-14.668 40.98-14.208 55.515.46 14.2 3.373 24.78 4.012 26.926 10.61-16.45 12.818-38.004 12.79-53.24z"/>
            <path d="M1740.548 504.936c6.47 32.768-9.976 81.945-10.143 82.438l-.214.625-.155-.642c-9.696-38.375 9.942-82.025 10.14-82.465l.252-.55.12.593zm-.268.69c-2.26 5.224-18.728 45.28-10.028 80.98 1.897-5.86 15.775-50.364 10.028-80.98z"/>
            <path d="M1740.635 505.646c.745 25.363-10.114 81.143-10.22 81.7l-.115.608-.254-.564c-7.404-16.635 10.03-81.145 10.202-81.79l.35-1.265.037 1.31zm-.363 1.385c-2.426 9.233-16.27 63.622-10.12 79.606 1.187-6.167 10.437-55.226 10.12-79.605z"/>
            <path d="M1740.292 504.322c-3.152 3.832-10.16 78.822-10.46 82.01l.385.035c.077-.78 7.3-78.057 10.376-81.8l-.3-.245z"/>
          </g>
          <g>
            <path d="M1783.77 507.465l-.24.02c-.193.014-19.18 1.607-34.252 15.682l.263.285c14.058-13.12 31.534-15.324 33.778-15.555-.15 1.12-.74 5.658-.81 6.475-2.802 35.652-21.72 50.125-37.105 55.986l.146.365c9.207-3.51 16.94-9.06 22.992-16.482 8.248-10.128 13.078-23.53 14.36-39.84.07-.9.824-6.638.836-6.696l.033-.24z"/>
            <path d="M1782.73 508.03c-7.387 35.958-23.75 52.325-36.162 59.728l.197.336c12.49-7.44 28.925-23.887 36.347-59.986l-.383-.08z"/>
            <path d="M1782.877 507.88c-13.267 2.82-24.336 8.74-32.893 17.595l.278.27c8.506-8.796 19.51-14.68 32.695-17.485l-.08-.38z"/>
            <path d="M1783.19 507.75l-.34.137c-.17.068-17.307 6.93-31.823 21.967l.278.27c13.326-13.802 28.86-20.688 31.345-21.733-6.277 28.4-22.084 45.54-34.267 54.92l.236.313c12.29-9.467 28.246-26.78 34.49-55.516l.08-.357z"/>
            <path d="M1783.264 507.686l-.43.207c-11.852 5.703-22.358 14.164-31.228 25.14l.307.245c8.72-10.797 19.03-19.145 30.652-24.822-1.48 3.938-12.732 32.617-33.114 52.053l.272.284c21.88-20.873 33.273-52.344 33.386-52.658l.156-.45z"/>
            <path d="M1782.325 508.746l-.493.32c-.15.096-15.135 9.967-29.75 27.357l.296.25c13.078-15.56 26.442-25.078 29.162-26.947-4.994 13.297-14.85 27.697-30.11 44.004l.286.268c15.51-16.58 25.46-31.2 30.4-44.7l.21-.552z"/>
            <path d="M1782.37 508.824l-.927.854c-16.147 14.94-18.938 18.322-24.008 24.463-1.36 1.65-2.907 3.52-4.92 5.862l.294.25c2.018-2.342 3.563-4.213 4.924-5.86 4.96-6.007 7.737-9.37 23.028-23.552-6.908 11.77-18.79 26.416-28.462 37.967l.303.252c9.99-11.935 22.336-27.167 29.145-39.144l.622-1.092z"/>
            <path d="M1782.45 508.275c-2.078.73-12.18 12.893-30.017 36.154l.318.237c22.156-28.896 28.45-35.543 29.824-36.025l-.124-.367z"/>
          </g>
          <g>
            <path d="M1786.78 568.13c-3.193.063-6.318.384-9.376.968-9.415 1.793-17.97 5.963-25.434 12.396l.246.295c12.476-10.745 34.21-20.515 66.905-6.036.746.336 5.016 1.97 6.075 2.377-1.27 1.862-11.515 16.194-29.737 22.32l.118.37c19.55-6.57 29.976-22.523 30.08-22.68l.13-.203-.222-.086c-.06-.02-5.464-2.083-6.29-2.45-11.387-5.046-22.28-7.476-32.494-7.27z"/>
            <path d="M1788.745 572.684c-15.31.31-26.37 4.506-33.883 8.988l.2.334c12.413-7.41 34.587-14.02 69.735-3.426l.116-.373c-14.05-4.232-26.042-5.728-36.168-5.523z"/>
            <path d="M1824.71 578.27c-8.737 10.272-19.144 17.153-30.925 20.456l.1.373c11.86-3.323 22.33-10.247 31.12-20.577l-.295-.252z"/>
            <path d="M1795.356 574.21c-14.722.298-26.87 4.03-35.678 7.952l.158.355c14.047-6.26 36.628-12.02 64.61-4.037-2.103 1.69-15.544 12.082-34.022 17.244l.104.38c20.134-5.628 34.313-17.44 34.457-17.56l.277-.236-.354-.102c-10.683-3.087-20.595-4.177-29.552-3.995z"/>
            <path d="M1799.782 576.89c-11.13.224-24.524 1.573-37.096 5.647l.12.373c26.797-8.688 57.374-4.96 61.543-4.39-10.517 7.526-22.765 12.63-36.41 15.17l.067.388c13.873-2.586 26.313-7.81 36.968-15.523l.385-.28-.476-.07c-.186-.03-10.757-1.61-25.102-1.316z"/>
            <path d="M1809.51 577.63c-11.33.228-24.514 2.35-39.892 6.384l.1.38c21.758-5.712 39.1-7.573 52.995-5.68-2.92 1.52-17.62 8.84-37.54 12.95l.08.383c22.252-4.59 38.02-13.182 38.174-13.27l.512-.28-.58-.087c-4.277-.617-8.887-.883-13.85-.78z"/>
            <path d="M1824.502 578.453l-1.29.03c-13.033.274-32.114 3.86-49.06 7.325l.078.385c16.347-3.346 34.68-6.797 47.628-7.28-4.734 1.52-21.746 6.84-39.934 10.796l.084.378c21.34-4.645 41.068-11.16 41.264-11.223l1.23-.412z"/>
            <path d="M1824.194 578.422c-1.087.984-9.92 3.367-45.887 9.123l.066.383c28.95-4.635 44.45-7.734 46.077-9.217l-.256-.288z"/>
          </g>
          <g>
            <path d="M1788.614 544.422c-5.284.107-10.296.686-14.975 1.738l.08.38c7.69-1.726 16.26-2.18 25.49-1.34.812.075 5.403.468 6.5.562-.472 1.672-3.735 12.514-12.6 22.654l.296.256c9.65-11.045 12.705-22.92 12.74-23.037l.054-.223-.23-.02s-5.806-.495-6.72-.58c-3.65-.332-7.205-.46-10.636-.39z"/>
            <path d="M1805.487 545.664c-13.27.445-25.23 2.527-35.555 6.188l.13.37c10.287-3.65 22.215-5.724 35.44-6.167l-.015-.39z"/>
            <path d="M1805.313 545.787c-3.513 8.838-8.39 16.393-14.478 22.46l.272.278c6.133-6.107 11.035-13.71 14.567-22.592l-.36-.146z"/>
            <path d="M1805.852 545.65l-.364.014c-13.777.623-26.693 3.828-38.4 9.535l.173.35c11.554-5.632 24.29-8.817 37.873-9.476-1.23 1.93-8.19 12.44-19.94 22.146l.245.3c12.988-10.733 20.157-22.442 20.23-22.56l.184-.31z"/>
            <path d="M1805.93 545.588l-.47.082c-.23.04-23.28 4.168-44.906 16.01l.184.34c19.86-10.873 40.92-15.223 44.32-15.88-6.236 8.677-14.162 16.196-23.56 22.358l.214.33c9.58-6.285 17.63-13.973 23.943-22.857l.276-.382z"/>
            <path d="M1805.224 545.91l-.587.11c-32.843 6.052-72.608 39.694-73.004 40.034l.255.295c.39-.337 39.59-33.5 72.208-39.833-2.31 2.328-13.67 13.41-29.726 23.258l.198.336c18.007-11.042 30.12-23.636 30.242-23.763l.414-.437z"/>
            <path d="M1805.61 545.86l-1.243.452c-23.858 8.646-72.224 39.414-72.718 39.725l.208.328c.484-.305 47.106-29.963 71.336-39.2-6.226 4.55-36.942 26.683-57.638 35.327l.146.363c23.053-9.633 58.49-35.94 58.845-36.2l1.063-.796z"/>
            <path d="M1804.87 546.1c-2.346 4.238-71.534 39.408-72.237 39.762l.174.346c2.856-1.447 69.997-35.576 72.403-39.92l-.34-.188z"/>
          </g>
        </g>
        <path d="M1743.318 580.848l-57.95 33.47-117.855 68.067H1803.243l-59.925-101.537z" fill="#f9c0c5"/>
        <path fill="#444861" d="M1685.367 482.654l57.95 98.194-175.804 101.537"/>
        <path fill="none" stroke="#c8e5c8" stroke-miterlimit="10" d="M1685.367 482.654l57.95 98.194-175.804 101.537z"/>
        <path fill="none" stroke="#eeefa0" stroke-miterlimit="10" d="M1739.102 579.74l-53.735-91.05-109.28 185.2z"/>
        <path fill="none" stroke="#eeefa0" stroke-miterlimit="10" d="M1734.888 578.633l-49.52-83.908-100.707 170.67z"/>
        <path fill="none" stroke="#eeefa0" stroke-miterlimit="10" d="M1730.67 577.523l-45.303-76.76-92.133 156.137z"/>
        <path fill="none" stroke="#eeefa0" stroke-miterlimit="10" d="M1726.457 576.416l-41.09-69.62-83.56 141.612z"/>
        <path fill="none" stroke="#eeefa0" stroke-miterlimit="10" d="M1722.24 575.307l-36.873-62.475-74.986 127.082z"/>
        <path fill="none" stroke="#eeefa0" stroke-miterlimit="10" d="M1718.026 574.2l-32.66-55.333-66.41 112.553z"/>
        <path fill="none" stroke="#eeefa0" stroke-miterlimit="10" d="M1713.81 573.092l-28.443-48.19-57.838 98.024z"/>
        <path fill="none" stroke="#eeefa0" stroke-miterlimit="10" d="M1709.594 571.984l-24.224-41.045-49.268 83.492z"/>
        <path fill="none" stroke="#eeefa0" stroke-miterlimit="10" d="M1705.38 570.877l-20.01-33.904-40.693 68.965z"/>
        <path fill="none" stroke="#eeefa0" stroke-miterlimit="10" d="M1701.165 569.77l-15.795-26.76-32.12 54.433z"/>
        <path fill="none" stroke="#eeefa0" stroke-miterlimit="10" d="M1696.947 568.662l-11.577-19.617-23.546 39.904z"/>
        <path fill="none" stroke="#eeefa0" stroke-miterlimit="10" d="M1692.733 567.555l-7.363-12.475-14.973 25.375z"/>
        <g>
          <path fill="none" stroke="#eeefa0" stroke-miterlimit="10" d="M1688.518 566.445l-3.146-5.33-6.4 10.846z"/>
        </g>
      </g>
      <g>
        <path stroke-miterlimit="10" fill="none" stroke="#fff" d="M1512.577 699.223l-54.09-295.203"/>
        <g fill="#eeefa0">
          <path d="M1517.38 471.98c.734-.046 5.396-.546 5.445-.552l.195-.018-.02.19c-.01.09-.94 9.015-6.514 18.48-6.562 11.143-20.268 24.195-48.338 23.137l-.167-.006.016-.155c0-.088.58-8.678 6.002-17.885 5.778-9.807 17.984-21.787 43.382-23.19zm-1.164 17.942c5.084-8.633 6.277-16.807 6.45-18.16-.917.102-4.604.494-5.268.527-25.26 1.403-37.396 13.304-43.13 23.042-4.97 8.44-5.838 16.355-5.943 17.576 27.8.996 41.385-11.94 47.89-22.986z"/>
          <path d="M1472.42 501.152c-3.91 6.646-4.565 11.752-4.575 11.816l.316.04c.01-.08 1.028-8.04 8.196-17.007 6.613-8.282 19.975-19.142 46.037-23.866l-.055-.31c-26.174 4.745-39.592 15.67-46.246 23.997-1.464 1.84-2.675 3.637-3.67 5.332z"/>
          <path d="M1468.01 512.832l-.01.314c.11 0 11.28.184 23.522-4.773 11.303-4.58 25.856-14.605 30.996-36.355l-.31-.074c-5.11 21.625-19.57 31.584-30.808 36.137-12.176 4.936-23.287 4.752-23.393 4.752z"/>
          <path d="M1487.204 488.08c9.928-8.2 21.743-13.67 35.135-16.256l.286-.05-.113.27c-.01.022-1.172 2.76-3.523 6.75-3.336 5.67-9.076 13.892-17.473 20.876-10.006 8.322-21.275 12.85-33.504 13.45l-.247.015.093-.23c.01-.02.9-2.262 2.895-5.65v-.004c2.916-4.953 8.138-12.3 16.445-19.17zm31.516-9.443c1.91-3.248 3.03-5.656 3.38-6.443-29.837 5.863-44.8 24.568-51.07 35.22-1.618 2.745-2.507 4.733-2.782 5.378 27.27-1.47 43.323-22.017 50.472-34.155z"/>
          <path d="M1522.314 471.834l.364-.12-.172.343c-.627 1.227-1.3 2.453-2 3.643-9.096 15.44-22.875 24.795-32.834 29.92-10.792 5.553-19.547 7.48-19.64 7.498l-.32.07.15-.293c.474-.94.995-1.893 1.54-2.822 15.013-25.493 52.538-38.118 52.912-38.24zm-34.788 33.506c9.924-5.107 23.65-14.422 32.704-29.8.632-1.07 1.245-2.18 1.817-3.282-3.95 1.377-38.22 13.943-52.37 37.975-.487.822-.948 1.666-1.378 2.5 1.682-.4 9.647-2.465 19.226-7.393z"/>
          <path d="M1467.884 512.86c.287-.32 28.795-32.313 54.43-41.028l.47-.16-.288.4c-.23.324-23.562 32.326-54.45 41.043l-.515.148.354-.402zm.607-.196c28.62-8.354 50.636-36.63 53.446-40.37-23.85 8.366-50.052 36.628-53.445 40.37z"/>
          <path d="M1467.898 512.846c.35-.3 34.696-30.127 52.813-39.86l.93-.5-.743.75c-.38.38-38.188 38.35-52.88 39.886l-.495.05.376-.326zm.607-.104c13.715-2.143 45.928-33.55 51.38-38.947-17.226 9.62-47.56 35.646-51.38 38.947z"/>
          <path d="M1468.667 512.586l.183.256c2.115-1.494 51.93-36.727 53.343-40.484l-.3-.11c-1.375 3.66-52.708 39.973-53.226 40.338z"/>
          <g>
            <path d="M1414.462 469.766c.043.006 4.7.643 5.428.71 24.264 2.046 36.096 13.485 41.752 22.722 6.124 10.014 6.52 19.664 6.52 19.764v.16l-.16-.004c-11.537.105-21.542-2.098-29.736-6.553-6.555-3.564-11.975-8.572-16.105-14.87-7.022-10.724-7.872-21.655-7.882-21.76l-.014-.196.193.026zm46.908 23.595c-5.615-9.17-17.373-20.538-41.506-22.573-.663-.057-4.34-.56-5.25-.684.15 1.512 1.35 11.56 7.822 21.428 6.43 9.813 19.52 21.456 45.402 21.278-.08-1.3-.82-10.214-6.468-19.447z"/>
            <path d="M1414.786 470.275l-.066.307c25.943 5.473 39.01 16.727 45.398 25.2 6.917 9.17 7.72 17.136 7.73 17.218l.313-.025c-.01-.08-.817-8.14-7.793-17.377-6.417-8.524-19.54-19.828-45.58-25.323z"/>
            <path d="M1414.6 470.46c4.558 21.888 18.84 32.33 30.013 37.237 12.104 5.31 23.275 5.45 23.39 5.45v-.315c-.11-.006-11.23-.143-23.274-5.43-11.106-4.877-25.294-15.254-29.823-37.008l-.308.065z"/>
            <path d="M1414.788 470.268c21.275 4.75 34.646 16.088 42.123 24.762 8.1 9.402 11.21 17.795 11.243 17.877l.08.234-.242-.013c-19.603-1.545-33.077-13.057-40.925-22.447-8.5-10.16-12.42-20.096-12.457-20.2l-.11-.274.29.062zm41.87 24.957c-7.405-8.596-20.634-19.818-41.645-24.582.694 1.678 4.62 10.66 12.296 19.84 7.778 9.297 21.095 20.695 40.455 22.303-.557-1.407-3.786-9.07-11.106-17.56z"/>
            <path d="M1414.81 470.277c.102.033 10.155 3.713 21.7 10.77 10.657 6.52 24.796 17.333 31.636 31.847l.145.3-.325-.075c-.092-.024-9.49-2.382-20.707-8.784-10.355-5.914-24.428-16.584-32.646-33.842l-.164-.35.362.133zm21.542 11.04c-10.283-6.282-19.378-9.88-21.285-10.608 8.21 16.976 22.097 27.5 32.337 33.35 10.01 5.708 18.56 8.192 20.313 8.663-6.863-14.29-20.82-24.96-31.365-31.407z"/>
            <path d="M1415.456 470.893c25.394 9.45 52.398 41.648 52.668 41.973l.34.412-.508-.162c-30.642-9.61-52.47-41.664-52.69-41.986l-.272-.406.462.17zm.36.474c2.653 3.775 23.345 32.12 51.712 41.28-3.245-3.795-28.11-32.243-51.71-41.28z"/>
            <path d="M1415.982 471.133c17.847 10.25 51.788 41.404 52.128 41.717l.37.338-.5-.066c-14.64-1.96-51.82-41.346-52.197-41.74l-.72-.78.92.53zm.804.838c5.352 5.59 37.06 38.21 50.723 40.76-3.763-3.437-33.74-30.63-50.724-40.76z"/>
            <path d="M1414.92 470.807c1.313 3.8 50.167 40.453 52.24 42.012l.19-.25c-.508-.384-50.85-38.16-52.13-41.866l-.3.103z"/>
          </g>
          <g>
            <path d="M1435.56 442.193l-.092.172c-.07.14-7.03 13.895-3.707 30.252l.312-.06c-3.098-15.253 2.8-28.226 3.594-29.872.713.58 3.598 2.912 4.13 3.307 23.45 17.062 25.42 36.236 22.94 49.32l.313.057c1.482-7.835.933-15.517-1.626-22.837-3.502-9.98-10.713-18.998-21.44-26.8-.593-.435-4.235-3.386-4.272-3.42l-.152-.12z"/>
            <path d="M1435.507 443.148c21.717 20.35 26.08 38.568 25.924 50.258l.317.004c.162-11.758-4.225-30.06-26.023-50.494l-.217.232z"/>
            <path d="M1435.465 442.982c-3.685 10.338-4.292 20.475-1.808 30.125l.307-.076c-2.467-9.59-1.862-19.67 1.8-29.944l-.3-.104z"/>
            <path d="M1435.51 442.713l-.05.293c-.023.145-2.56 14.86 1.67 31.242l.304-.078c-3.882-15.035-2.044-28.66-1.71-30.814 16.963 16.38 22.098 34.54 23.404 46.914l.318-.03c-1.324-12.485-6.514-30.823-23.723-47.323l-.212-.204z"/>
            <path d="M1435.497 442.633l-.04.385c-1.093 10.584.292 21.414 4.114 32.182l.297-.107c-3.755-10.592-5.147-21.236-4.134-31.65 2.092 2.693 17.134 22.613 21.914 44.902l.31-.064c-5.136-23.93-22.048-45.136-22.216-45.345l-.243-.302z"/>
            <path d="M1435.83 443.73l.013.477c0 .14.46 14.654 6.27 32.104l.302-.097c-5.2-15.615-6.102-28.857-6.238-31.525 7.066 9.084 12.832 21.984 17.624 39.416l.307-.082c-4.872-17.72-10.752-30.78-17.98-39.912l-.296-.38z"/>
            <path d="M1435.905 443.732l.195 1.002c3.468 17.46 4.62 20.818 6.71 26.922.563 1.635 1.198 3.494 1.962 5.875l.3-.097c-.763-2.383-1.4-4.242-1.96-5.88-2.046-5.966-3.19-9.306-6.497-25.858 5.2 9.754 10.278 24.154 14.153 35.72l.303-.103c-4.005-11.947-9.29-26.916-14.677-36.688l-.488-.892z"/>
            <path d="M1435.558 443.445c-.377 1.74 3.74 13.86 12.242 36.02l.298-.115c-10.563-27.53-12.483-34.684-12.23-35.834l-.31-.07z"/>
          </g>
          <g>
            <path d="M1478.766 465.865c-1.312 2.227-2.417 4.516-3.312 6.87-2.762 7.243-3.512 14.907-2.234 22.782l.31-.05c-2.13-13.15.35-32.27 24.24-48.644.55-.373 3.493-2.617 4.222-3.174.75 1.663 6.305 14.804 2.797 29.954l.308.074c3.762-16.256-2.836-30.207-2.9-30.348l-.086-.174-.152.115c-.04.036-3.762 2.88-4.367 3.294-8.328 5.706-14.633 12.18-18.827 19.3z"/>
            <path d="M1482.747 466.443c-6.287 10.678-8.086 20.076-8.176 27.156l.314.005c.15-11.695 4.996-29.775 27.248-49.49l-.204-.24c-8.897 7.88-15.02 15.508-19.18 22.568z"/>
            <path d="M1501.884 444.04c3.39 10.382 3.725 20.468 1.006 29.987l.3.09c2.74-9.582 2.4-19.732-1.008-30.172l-.298.096z"/>
            <path d="M1486.61 462.54c-6.045 10.267-8.623 20.22-9.656 27.948l.314.043c1.64-12.333 7.245-30.333 24.646-46.218.277 2.166 1.752 15.836-2.53 30.754l.308.09c4.66-16.258 2.518-31.04 2.496-31.188l-.043-.29-.22.202c-6.674 6.046-11.635 12.413-15.315 18.66z"/>
            <path d="M1490.34 460.625c-4.57 7.764-9.326 17.562-11.85 27.95l.31.077c5.375-22.145 20.938-41.625 23.102-44.258.738 10.44-.937 21.045-4.975 31.52l.293.118c4.107-10.652 5.78-21.44 4.97-32.053l-.028-.386-.25.295c-.1.12-5.683 6.73-11.57 16.735z"/>
            <path d="M1494.985 454.238c-4.654 7.902-8.79 17.883-12.53 30.19l.304.093c5.292-17.41 11.373-30.147 18.58-38.915-.19 2.656-1.37 15.893-6.99 31.355l.298.11c6.277-17.28 7.034-31.788 7.04-31.93l.022-.472-.3.36c-2.247 2.69-4.388 5.75-6.425 9.21z"/>
            <path d="M1501.918 444.264l-.524.9c-5.346 9.096-10.97 23.76-15.77 36.902l.295.11c4.633-12.68 10.03-26.77 15.196-35.897-.962 3.905-4.51 17.88-9.497 32.087l.296.105c5.854-16.67 9.727-33.025 9.767-33.19l.235-1.018z"/>
            <path d="M1501.77 444.463c.216 1.164-1.886 8.262-13.184 35.48l.294.116c9.09-21.91 13.53-33.9 13.197-35.653l-.308.056z"/>
          </g>
          <g>
            <path d="M1463.157 454.54c-2.168 3.685-3.896 7.384-5.156 11.054l.298.104c2.072-6.025 5.398-12.125 9.898-18.127.396-.524 2.62-3.522 3.148-4.237.956 1.033 7.062 7.885 10.306 18.29l.306-.09c-3.535-11.337-10.447-18.48-10.512-18.556l-.13-.13-.115.147s-2.81 3.79-3.253 4.385c-1.78 2.37-3.38 4.768-4.79 7.16z"/>
            <path d="M1471.185 443.445c-5.328 9.326-8.97 18.45-10.824 27.115l.313.068c1.844-8.637 5.477-17.732 10.787-27.03l-.275-.153z"/>
            <path d="M1471.196 443.615c4.613 6.174 7.766 12.736 9.37 19.508l.312-.07c-1.615-6.818-4.787-13.42-9.428-19.625l-.254.187z"/>
            <path d="M1471.33 443.186l-.146.26c-5.422 9.754-8.69 20.014-9.72 30.496l.315.03c1.013-10.347 4.22-20.47 9.533-30.108.813 1.666 5.118 10.92 6.84 23.135l.313-.042c-1.904-13.504-6.954-23.408-7.004-23.51l-.133-.262z"/>
            <path d="M1471.318 443.105l-.144.36c-.07.175-7.007 17.806-8.007 37.73l.313.017c.92-18.295 6.86-34.648 7.85-37.268 3.346 7.977 5.18 16.625 5.445 25.717l.32-.01c-.278-9.267-2.172-18.073-5.632-26.192l-.145-.353z"/>
            <path d="M1471.243 443.73l-.175.45c-9.765 25.194-3.4 66.86-3.335 67.278l.31-.047c-.06-.41-6.337-41.49 3.138-66.644.63 2.578 3.464 15.107 3.452 30.346l.315.004c.017-17.09-3.542-30.777-3.58-30.914l-.124-.472z"/>
            <path d="M1471.37 443.443l-.215 1.05c-4.156 20.1-3.43 66.478-3.426 66.95l.315-.006c-.01-.463-.705-45.166 3.2-65.775.503 6.217 2.753 36.77-.06 54.695l.31.053c3.134-19.967 0-55.545-.026-55.896l-.1-1.07z"/>
            <path d="M1471.22 444.055c1.938 3.414-3.14 66-3.195 66.635l.314.027c.212-2.584 5.136-63.314 3.157-66.818l-.277.155z"/>
          </g>
        </g>
        <g fill="#f9c0c5">
          <path d="M1395.173 563.7v-68.436h67.017l-31.323 203.96V563.7M1547.583 563.7h-35.006v135.523l-37.174-203.96h72.18"/>
        </g>
        <path fill="#444861" d="M1475.782 494.8l37.346 204.89h-82.792l31.462-204.89"/>
        <path fill="none" stroke="#c8e5c8" stroke-miterlimit="10" d="M1475.782 494.8l37.346 204.89h-82.792l31.462-204.89z"/>
        <path fill="none" stroke="#eeefa0" stroke-miterlimit="10" d="M1464.888 498.398L1434.53 696.09h74.282l-36.034-197.692z"/>
        <path fill="none" stroke="#eeefa0" stroke-miterlimit="10" d="M1467.587 501.53l-29.397 191.425h66.856l-34.89-191.424z"/>
        <path fill="none" stroke="#eeefa0" stroke-miterlimit="10" d="M1501.28 689.82l-32.254-176.96-27.176 176.96z"/>
        <path fill="none" stroke="#eeefa0" stroke-miterlimit="10" d="M1497.513 686.688l-28.223-154.846-23.777 154.846z"/>
        <path fill="none" stroke="#eeefa0" stroke-miterlimit="10" d="M1493.75 683.553l-24.194-132.73-20.383 132.73z"/>
        <path fill="none" stroke="#eeefa0" stroke-miterlimit="10" d="M1489.98 680.42l-20.16-110.617-16.984 110.617z"/>
        <path fill="none" stroke="#eeefa0" stroke-miterlimit="10" d="M1486.216 677.285l-16.13-88.502-13.59 88.502z"/>
        <path fill="none" stroke="#eeefa0" stroke-miterlimit="10" d="M1482.45 674.152l-12.1-66.386-10.195 66.386z"/>
        <path fill="none" stroke="#eeefa0" stroke-miterlimit="10" d="M1478.685 671.018l-8.07-44.272-6.798 44.272z"/>
        <g>
          <path fill="none" stroke="#eeefa0" stroke-miterlimit="10" d="M1474.918 667.885l-4.038-22.158-3.402 22.158z"/>
        </g>
        <path d="M1466.876 392.977c2.11 6.58-1.512 13.63-8.09 15.744-6.585 2.11-13.63-1.51-15.744-8.093-.43-1.338-.436-4.64-.164-5.674 1.275-4.883 4.95-19.258 5.053-23.52 0 0 11.542 12.81 15.784 16.833.633.597 2.74 3.396 3.162 4.71z" fill="#eeefa0"/>
      </g>
      <g>
        <path stroke-miterlimit="10" fill="none" stroke="#fff" d="M2229.46 699.223l-54.09-295.203"/>
        <g fill="#eeefa0">
          <path d="M2234.262 471.98c.734-.046 5.396-.546 5.445-.552l.195-.018-.02.19c-.01.09-.94 9.015-6.514 18.48-6.562 11.143-20.268 24.195-48.338 23.137l-.166-.006.014-.155c0-.088.58-8.678 6.002-17.885 5.778-9.807 17.985-21.787 43.382-23.19zm-1.164 17.942c5.084-8.633 6.277-16.807 6.45-18.16-.917.102-4.604.494-5.267.527-25.26 1.403-37.395 13.304-43.13 23.042-4.97 8.44-5.838 16.355-5.943 17.576 27.8.996 41.385-11.94 47.89-22.986z"/>
          <path d="M2189.303 501.152c-3.912 6.646-4.566 11.752-4.576 11.816l.316.04c.01-.08 1.027-8.04 8.195-17.007 6.613-8.282 19.975-19.142 46.037-23.866l-.055-.31c-26.174 4.745-39.592 15.67-46.246 23.997-1.464 1.84-2.675 3.637-3.67 5.332z"/>
          <path d="M2184.89 512.832l-.01.314c.112 0 11.284.184 23.524-4.773 11.303-4.58 25.857-14.605 30.996-36.355l-.31-.074c-5.11 21.625-19.57 31.584-30.808 36.137-12.177 4.936-23.286 4.752-23.393 4.752z"/>
          <path d="M2204.086 488.08c9.928-8.2 21.744-13.67 35.135-16.256l.288-.05-.113.27c-.01.022-1.172 2.76-3.523 6.75-3.336 5.67-9.076 13.892-17.473 20.876-10.007 8.322-21.276 12.85-33.505 13.45l-.246.015.09-.23c.01-.02.903-2.262 2.897-5.65v-.004c2.916-4.953 8.138-12.3 16.445-19.17zm31.516-9.443c1.91-3.248 3.03-5.656 3.38-6.443-29.837 5.863-44.798 24.568-51.07 35.22-1.618 2.745-2.507 4.733-2.782 5.378 27.27-1.47 43.323-22.017 50.472-34.155z"/>
          <path d="M2239.197 471.834l.363-.12-.172.343c-.627 1.227-1.3 2.453-2 3.643-9.096 15.44-22.875 24.795-32.834 29.92-10.79 5.553-19.547 7.48-19.64 7.498l-.32.07.15-.293c.474-.94.995-1.893 1.54-2.822 15.013-25.493 52.538-38.118 52.913-38.24zm-34.79 33.506c9.925-5.107 23.65-14.422 32.706-29.8.63-1.07 1.244-2.18 1.816-3.282-3.95 1.377-38.222 13.943-52.372 37.975-.486.822-.947 1.666-1.377 2.5 1.685-.4 9.65-2.465 19.228-7.393z"/>
          <path d="M2184.766 512.86c.287-.32 28.795-32.313 54.43-41.028l.47-.16-.288.4c-.23.324-23.562 32.326-54.45 41.043l-.515.148.353-.402zm.607-.196c28.62-8.354 50.635-36.63 53.445-40.37-23.85 8.366-50.052 36.628-53.445 40.37z"/>
          <path d="M2184.78 512.846c.35-.3 34.696-30.127 52.813-39.86l.93-.5-.744.75c-.38.38-38.19 38.35-52.88 39.886l-.496.05.377-.326zm.607-.104c13.715-2.143 45.928-33.55 51.38-38.947-17.226 9.62-47.56 35.646-51.38 38.947z"/>
          <path d="M2185.55 512.586l.183.256c2.115-1.494 51.93-36.727 53.342-40.484l-.3-.11c-1.375 3.66-52.71 39.973-53.226 40.338z"/>
          <g>
            <path d="M2131.344 469.766c.043.006 4.7.643 5.428.71 24.264 2.046 36.096 13.485 41.752 22.722 6.125 10.014 6.52 19.664 6.52 19.764l.01.16-.16-.004c-11.538.105-21.542-2.098-29.737-6.553-6.555-3.564-11.975-8.572-16.105-14.87-7.023-10.724-7.873-21.655-7.883-21.76l-.015-.196.193.026zm46.908 23.595c-5.615-9.17-17.373-20.538-41.506-22.573-.662-.057-4.34-.56-5.25-.684.15 1.512 1.352 11.56 7.822 21.428 6.43 9.813 19.52 21.456 45.402 21.278-.08-1.3-.82-10.214-6.468-19.447z"/>
            <path d="M2131.668 470.275l-.066.307c25.943 5.473 39.01 16.727 45.398 25.2 6.918 9.17 7.72 17.136 7.73 17.218l.313-.025c-.01-.08-.818-8.14-7.793-17.377-6.418-8.524-19.54-19.828-45.582-25.323z"/>
            <path d="M2131.482 470.46c4.557 21.888 18.84 32.33 30.012 37.237 12.104 5.31 23.275 5.45 23.39 5.45v-.315c-.11-.006-11.23-.143-23.274-5.43-11.105-4.877-25.293-15.254-29.822-37.008l-.308.065z"/>
            <path d="M2131.67 470.268c21.275 4.75 34.646 16.088 42.123 24.762 8.098 9.402 11.21 17.795 11.242 17.877l.08.234-.242-.013c-19.604-1.545-33.078-13.057-40.926-22.447-8.498-10.16-12.42-20.096-12.457-20.2l-.11-.274.29.062zm41.87 24.957c-7.405-8.596-20.634-19.818-41.644-24.582.693 1.678 4.62 10.66 12.295 19.84 7.78 9.297 21.097 20.695 40.458 22.303-.558-1.407-3.787-9.07-11.107-17.56z"/>
            <path d="M2131.69 470.277c.103.033 10.157 3.713 21.7 10.77 10.658 6.52 24.797 17.333 31.637 31.847l.145.3-.326-.075c-.092-.024-9.49-2.382-20.707-8.784-10.356-5.914-24.43-16.584-32.647-33.842l-.164-.35.36.133zm21.544 11.04c-10.283-6.282-19.38-9.88-21.285-10.608 8.208 16.976 22.095 27.5 32.335 33.35 10.01 5.708 18.56 8.192 20.314 8.663-6.864-14.29-20.823-24.96-31.366-31.407z"/>
            <path d="M2132.338 470.893c25.395 9.45 52.398 41.648 52.668 41.973l.342.412-.51-.162c-30.64-9.61-52.47-41.664-52.69-41.986l-.272-.406.462.17zm.36.474c2.653 3.775 23.345 32.12 51.712 41.28-3.244-3.795-28.11-32.243-51.71-41.28z"/>
            <path d="M2132.865 471.133c17.846 10.25 51.787 41.404 52.127 41.717l.37.338-.5-.066c-14.64-1.96-51.82-41.346-52.196-41.74l-.72-.78.92.53zm.803.838c5.352 5.59 37.06 38.21 50.723 40.76-3.76-3.437-33.738-30.63-50.722-40.76z"/>
            <path d="M2131.803 470.807c1.312 3.8 50.166 40.453 52.24 42.012l.19-.25c-.51-.384-50.85-38.16-52.132-41.866l-.297.103z"/>
          </g>
          <g>
            <path d="M2152.44 442.193l-.09.172c-.07.14-7.032 13.895-3.708 30.252l.31-.06c-3.097-15.253 2.802-28.226 3.595-29.872.713.58 3.598 2.912 4.13 3.307 23.45 17.062 25.42 36.236 22.94 49.32l.313.057c1.484-7.835.934-15.517-1.625-22.837-3.502-9.98-10.713-18.998-21.44-26.8-.593-.435-4.235-3.386-4.272-3.42l-.152-.12z"/>
            <path d="M2152.39 443.148c21.716 20.35 26.08 38.568 25.923 50.258l.316.004c.16-11.758-4.226-30.06-26.024-50.494l-.217.232z"/>
            <path d="M2152.348 442.982c-3.686 10.338-4.293 20.475-1.81 30.125l.308-.076c-2.467-9.59-1.86-19.67 1.8-29.944l-.298-.104z"/>
            <path d="M2152.393 442.713l-.05.293c-.024.145-2.56 14.86 1.67 31.242l.304-.078c-3.883-15.035-2.045-28.66-1.71-30.814 16.962 16.38 22.097 34.54 23.403 46.914l.318-.03c-1.324-12.485-6.514-30.823-23.723-47.323l-.212-.204z"/>
            <path d="M2152.38 442.633l-.042.385c-1.092 10.584.293 21.414 4.115 32.182l.297-.107c-3.756-10.592-5.148-21.236-4.135-31.65 2.092 2.693 17.135 22.613 21.914 44.902l.308-.064c-5.135-23.93-22.047-45.136-22.215-45.345l-.244-.302z"/>
            <path d="M2152.713 443.73l.012.477c0 .14.46 14.654 6.27 32.104l.302-.097c-5.2-15.615-6.102-28.857-6.238-31.525 7.065 9.084 12.83 21.984 17.624 39.416l.305-.082c-4.872-17.72-10.753-30.78-17.98-39.912l-.297-.38z"/>
            <path d="M2152.787 443.732l.195 1.002c3.47 17.46 4.62 20.818 6.71 26.922.563 1.635 1.198 3.494 1.962 5.875l.3-.097c-.763-2.383-1.4-4.242-1.96-5.88-2.045-5.966-3.19-9.306-6.496-25.858 5.2 9.754 10.277 24.154 14.152 35.72l.303-.103c-4.006-11.947-9.29-26.916-14.678-36.688l-.488-.892z"/>
            <path d="M2152.44 443.445c-.378 1.74 3.74 13.86 12.24 36.02l.3-.115c-10.564-27.53-12.484-34.684-12.232-35.834l-.31-.07z"/>
          </g>
          <g>
            <path d="M2195.648 465.865c-1.312 2.227-2.418 4.516-3.312 6.87-2.762 7.243-3.512 14.907-2.234 22.782l.31-.05c-2.13-13.15.35-32.27 24.24-48.644.55-.373 3.493-2.617 4.222-3.174.75 1.663 6.305 14.804 2.797 29.954l.31.074c3.762-16.256-2.836-30.207-2.9-30.348l-.086-.174-.152.115c-.04.036-3.762 2.88-4.367 3.294-8.33 5.706-14.633 12.18-18.827 19.3z"/>
            <path d="M2199.63 466.443c-6.288 10.678-8.087 20.076-8.177 27.156l.314.005c.15-11.695 4.996-29.775 27.248-49.49l-.205-.24c-8.896 7.88-15.02 15.508-19.18 22.568z"/>
            <path d="M2218.766 444.04c3.39 10.382 3.725 20.468 1.006 29.987l.3.09c2.74-9.582 2.4-19.732-1.007-30.172l-.3.096z"/>
            <path d="M2203.492 462.54c-6.045 10.267-8.623 20.22-9.656 27.948l.314.043c1.64-12.333 7.246-30.333 24.646-46.218.277 2.166 1.752 15.836-2.53 30.754l.308.09c4.66-16.258 2.518-31.04 2.496-31.188l-.043-.29-.22.202c-6.674 6.046-11.635 12.413-15.315 18.66z"/>
            <path d="M2207.223 460.625c-4.572 7.764-9.326 17.562-11.85 27.95l.31.077c5.374-22.145 20.937-41.625 23.1-44.258.74 10.44-.935 21.045-4.974 31.52l.292.118c4.107-10.652 5.78-21.44 4.97-32.053l-.028-.386-.25.295c-.1.12-5.683 6.73-11.57 16.735z"/>
            <path d="M2211.867 454.238c-4.654 7.902-8.79 17.883-12.53 30.19l.304.093c5.294-17.41 11.376-30.147 18.583-38.915-.19 2.656-1.37 15.893-6.992 31.355l.3.11c6.277-17.28 7.035-31.788 7.04-31.93l.022-.472-.3.36c-2.247 2.69-4.388 5.75-6.425 9.21z"/>
            <path d="M2218.8 444.264l-.524.9c-5.346 9.096-10.97 23.76-15.77 36.902l.296.11c4.633-12.68 10.03-26.77 15.197-35.897-.964 3.905-4.51 17.88-9.5 32.087l.298.105c5.854-16.67 9.727-33.025 9.768-33.19l.235-1.018z"/>
            <path d="M2218.65 444.463c.217 1.164-1.885 8.262-13.184 35.48l.295.116c9.09-21.91 13.532-33.9 13.198-35.653l-.308.056z"/>
          </g>
          <g>
            <path d="M2180.04 454.54c-2.17 3.685-3.897 7.384-5.157 11.054l.297.104c2.072-6.025 5.398-12.125 9.898-18.127.396-.524 2.62-3.522 3.148-4.237.957 1.033 7.062 7.885 10.307 18.29l.305-.09c-3.535-11.337-10.447-18.48-10.512-18.556l-.13-.13-.114.147-3.252 4.385c-1.78 2.37-3.38 4.768-4.79 7.16z"/>
            <path d="M2188.066 443.445c-5.328 9.326-8.97 18.45-10.824 27.115l.312.068c1.844-8.637 5.477-17.732 10.787-27.03l-.274-.153z"/>
            <path d="M2188.078 443.615c4.613 6.174 7.766 12.736 9.37 19.508l.312-.07c-1.615-6.818-4.787-13.42-9.428-19.625l-.254.187z"/>
            <path d="M2188.21 443.186l-.144.26c-5.422 9.754-8.69 20.014-9.72 30.496l.315.03c1.015-10.347 4.222-20.47 9.536-30.108.812 1.666 5.117 10.92 6.84 23.135l.312-.042c-1.904-13.504-6.953-23.408-7.004-23.51l-.133-.262z"/>
            <path d="M2188.2 443.105l-.144.36c-.07.175-7.006 17.806-8.006 37.73l.312.017c.92-18.295 6.86-34.648 7.85-37.268 3.346 7.977 5.18 16.625 5.445 25.717l.32-.01c-.277-9.267-2.172-18.073-5.63-26.192l-.146-.353z"/>
            <path d="M2188.125 443.73l-.174.45c-9.765 25.194-3.4 66.86-3.335 67.278l.31-.047c-.06-.41-6.337-41.49 3.138-66.644.63 2.578 3.463 15.107 3.45 30.346l.317.004c.016-17.09-3.543-30.777-3.58-30.914l-.125-.472z"/>
            <path d="M2188.252 443.443l-.215 1.05c-4.156 20.1-3.43 66.478-3.426 66.95l.317-.006c-.01-.463-.705-45.166 3.2-65.775.503 6.217 2.753 36.77-.06 54.695l.31.053c3.134-19.967 0-55.545-.026-55.896l-.098-1.07z"/>
            <path d="M2188.102 444.055c1.938 3.414-3.14 66-3.195 66.635l.314.027c.214-2.584 5.138-63.314 3.16-66.818l-.278.155z"/>
          </g>
        </g>
        <g fill="#f9c0c5">
          <path d="M2112.055 563.7v-68.436h67.017l-31.322 203.96V563.7M2264.465 563.7h-35.006v135.523l-37.175-203.96h72.18"/>
        </g>
        <path fill="#444861" d="M2192.664 494.8l37.346 204.89h-82.793l31.463-204.89"/>
        <path fill="none" stroke="#c8e5c8" stroke-miterlimit="10" d="M2192.664 494.8l37.346 204.89h-82.793l31.463-204.89z"/>
        <path fill="none" stroke="#eeefa0" stroke-miterlimit="10" d="M2181.77 498.398l-30.358 197.692h74.28l-36.032-197.692z"/>
        <path fill="none" stroke="#eeefa0" stroke-miterlimit="10" d="M2184.47 501.53l-29.398 191.425h66.856l-34.89-191.424z"/>
        <path fill="none" stroke="#eeefa0" stroke-miterlimit="10" d="M2218.162 689.82l-32.254-176.96-27.176 176.96z"/>
        <path fill="none" stroke="#eeefa0" stroke-miterlimit="10" d="M2214.395 686.688l-28.223-154.846-23.777 154.846z"/>
        <path fill="none" stroke="#eeefa0" stroke-miterlimit="10" d="M2210.63 683.553l-24.192-132.73-20.383 132.73z"/>
        <path fill="none" stroke="#eeefa0" stroke-miterlimit="10" d="M2206.863 680.42l-20.16-110.617-16.986 110.617z"/>
        <path fill="none" stroke="#eeefa0" stroke-miterlimit="10" d="M2203.098 677.285l-16.13-88.502-13.59 88.502z"/>
        <path fill="none" stroke="#eeefa0" stroke-miterlimit="10" d="M2199.332 674.152l-12.1-66.386-10.195 66.386z"/>
        <path fill="none" stroke="#eeefa0" stroke-miterlimit="10" d="M2195.566 671.018l-8.068-44.272-6.8 44.272z"/>
        <g>
          <path fill="none" stroke="#eeefa0" stroke-miterlimit="10" d="M2191.8 667.885l-4.038-22.158-3.403 22.158z"/>
        </g>
        <path d="M2183.758 392.977c2.11 6.58-1.512 13.63-8.09 15.744-6.584 2.11-13.63-1.51-15.744-8.093-.43-1.338-.436-4.64-.164-5.674 1.275-4.883 4.95-19.258 5.053-23.52 0 0 11.54 12.81 15.783 16.833.633.597 2.74 3.396 3.162 4.71z" fill="#eeefa0"/>
      </g>
    </g>
  </switch>
</svg>
