<svg xmlns="http://www.w3.org/2000/svg" viewBox="0 0 1200 310.32">
  <path fill="#c78862" d="M78.42 95.19c8.928 2.023 14.632 6.702 14.69 6.75l.108.085-.093.106c-15.777 18.102-31.962 18.982-42.767 16.534-9.18-2.08-15.305-6.733-15.367-6.78l-.128-.102.123-.11c.033-.027 3.077-2.636 3.533-3.067 15.75-14.99 30.387-15.568 39.9-13.414zm14.408 6.87c-.825-.65-6.28-4.752-14.468-6.608-9.444-2.14-23.99-1.56-39.658 13.348-.408.39-2.815 2.458-3.412 2.97.946.685 6.753 4.734 15.127 6.63 10.715 2.427 26.754 1.554 42.41-16.34z"/>
  <path fill="#c78862" d="M83.08 97.702c6.444 1.46 10.018 4.047 10.065 4.08l-.16.22c-.055-.044-5.628-4.073-15.43-4.87-9.05-.736-23.662 1.215-41.876 14.674l-.162-.217C53.81 98.072 68.495 96.12 77.598 96.863c2.008.166 3.838.466 5.48.838z"/>
  <path fill="#c78862" d="M92.968 101.838l.2.178c-.065.07-6.496 7.135-16.76 11.85-9.48 4.354-24.27 7.537-40.873-2.015l.134-.233c16.51 9.495 31.202 6.33 40.626 2.005 10.217-4.69 16.607-11.715 16.672-11.784z"/>
  <path fill="#c78862" d="M87.865 100.287h.003c3.288.745 5.215 1.502 5.23 1.51l.198.078-.15.144c-7.54 7.26-16.97 11.624-28.03 12.975-9.284 1.132-17.78-.113-23.28-1.36-3.87-.876-6.26-1.76-6.283-1.766l-.235-.09.202-.147c9.457-6.823 19.795-10.972 30.734-12.348 9.16-1.144 16.808-.087 21.61 1.002zm4.936 1.686c-.565-.207-2.328-.82-4.993-1.423-10.33-2.34-30.78-3.99-51.92 11.153.698.24 2.86.957 6.01 1.67 11.772 2.667 34.014 4.72 50.904-11.4z"/>
  <path fill="#c78862" d="M90.428 101.1c.9.203 1.8.44 2.665.693l.27.08-.23.16c-.066.044-6.397 4.368-16.186 7.83-9.037 3.197-22.952 6.295-37.93 2.903-1.152-.262-2.312-.563-3.448-.892l-.315-.092.287-.157c.296-.163 30.163-16.125 54.886-10.526zm2.31.87c-.774-.22-1.572-.427-2.37-.607-23.308-5.28-51.23 8.694-54.402 10.345 1.026.29 2.075.558 3.113.792 14.913 3.38 28.772.293 37.78-2.892 8.687-3.074 14.64-6.824 15.877-7.637z"/>
  <path fill="#c78862" d="M93.515 101.764l-.393.236c-23.538 14.12-57.2 9.882-57.538 9.84l-.418-.06.372-.196c20.46-10.853 57.152-9.847 57.52-9.836l.457.016zM36.05 111.62c3.983.445 34.548 3.315 56.53-9.61-4.327-.08-37.334-.334-56.53 9.61z"/>
  <path fill="#c78862" d="M93.463 101.69l-.323.278c-9.562 8.248-55.435 9.527-55.896 9.54l-.905.024.856-.287c16.692-5.574 55.45-9.472 55.84-9.513l.427-.042zm-55.276 9.516c6.566-.23 45.06-1.874 54.43-9.158-4.3.443-38.33 4.074-54.43 9.158z"/>
  <path fill="#c78862" d="M92.43 102.06l.054.264c-2.174.44-53.367 10.802-56.542 9.476l.107-.25c3.09 1.29 55.847-9.382 56.38-9.49zM97.503 43.05l.112.122c.06.07 6.395 7.007 8.986 17.67 1.52 6.265 1.474 12.574-.138 18.75-2.015 7.71-6.495 15.235-13.316 22.358l-.095.1-.095-.096c-.06-.06-5.862-5.963-8.532-15.648-2.463-8.938-2.683-23.013 10.246-39.323.384-.492 2.712-3.765 2.736-3.797l.097-.135zm-4.452 58.612c15.268-16.01 15.657-30.99 13.29-40.745-2.38-9.818-7.955-16.457-8.814-17.438-.454.64-2.296 3.226-2.647 3.67C82.02 63.37 82.237 77.355 84.682 86.233c2.464 8.93 7.603 14.616 8.368 15.428z"/>
  <path fill="#c78862" d="M97.532 43.716l.23.14C85.993 63.22 85.376 77.953 86.93 86.902c1.682 9.684 6.19 14.855 6.235 14.908l-.2.18c-.046-.052-4.606-5.282-6.297-15.04-1.568-8.995-.95-23.796 10.864-43.234z"/>
  <path fill="#c78862" d="M97.76 43.716c11.012 15.672 9.174 30.69 5.7 40.524-3.77 10.65-10.225 17.69-10.29 17.757l-.2-.183c.062-.07 6.49-7.075 10.236-17.674 3.455-9.775 5.276-24.695-5.666-40.27l.22-.154z"/>
  <path fill="#c78862" d="M97.658 43.495l.108.228c.043.082 3.956 8.35 5.33 19.602 1.273 10.392.578 25.533-9.937 38.643l-.133.16-.1-.185c-.033-.07-3.457-6.928-4.59-17.486-1.044-9.74-.298-24.716 9.19-40.746l.13-.215zM93.08 101.63c10.333-13 11.005-27.975 9.75-38.27-1.245-10.162-4.56-17.874-5.2-19.29-9.323 15.877-10.057 30.695-9.024 40.347 1.022 9.535 3.92 16.038 4.474 17.212z"/>
  <path fill="#c78862" d="M97.65 43.42l.12.308c5.975 15.238 4.404 30.255 2.035 40.17-2.565 10.74-6.596 17.976-6.635 18.046l-.142.247-.104-.262c-5.065-12.77-3.547-27.917-1.38-38.376 2.35-11.326 5.938-19.743 5.976-19.827l.13-.304zm-4.583 58.138c.733-1.368 4.188-8.15 6.48-17.73 2.34-9.808 3.894-24.625-1.908-39.69-.665 1.615-3.74 9.388-5.834 19.473-2.145 10.348-3.65 25.296 1.26 37.948z"/>
  <path fill="#c78862" d="M97.695 44.085l.095.41c.074.325 7.325 32.712-4.612 57.427l-.197.414-.057-.455c-.045-.357-4.356-36.054 4.608-57.408l.165-.387zm-4.56 57.297c10.887-23.038 5.287-52.542 4.48-56.405-8.173 19.994-4.952 52.16-4.48 56.405z"/>
  <path fill="#c78862" d="M97.576 44.085l.063.907c.027.464 2.872 46.71-4.478 56.978l-.25.348.005-.427c.006-.395.41-39.796 4.45-56.92l.21-.885zm-4.38 57.358c6.406-10 4.587-48.873 4.227-55.48-3.615 16.513-4.172 51.125-4.228 55.48z"/>
  <path fill="#c78862" d="M97.79 44.085c1.608 3.042-4.09 54.955-4.33 57.162l-.268-.03c.057-.54 5.926-54.037 4.36-57.008l.24-.125zM67.82 40.17l.162.047c.13.037 12.803 3.77 21.08 15.43l-.22.156C81.124 44.93 69.56 40.997 68.068 40.527c-.055.784-.288 3.947-.354 4.51C64.647 69.644 75.48 82.113 85.11 88.24l-.15.228c-5.763-3.67-10.243-8.515-13.32-14.402-4.187-8.03-5.6-17.81-4.196-29.063.077-.624.365-4.625.366-4.665l.01-.167z"/>
  <path fill="#c78862" d="M68.442 40.688c.003 25.455 8.834 38.855 16.232 45.614l-.182.2c-7.444-6.794-16.315-20.258-16.32-45.813h.27z"/>
  <path fill="#c78862" d="M68.368 40.614c8.618 3.767 15.31 9.334 19.888 16.54l-.228.145c-4.55-7.16-11.203-12.693-19.77-16.438l.11-.248z"/>
  <path fill="#c78862" d="M68.17 40.467l.21.138c.107.07 10.788 7.123 18.55 19.36l-.225.145c-7.127-11.234-16.717-18.077-18.26-19.134.303 20.168 8.65 34.013 15.617 42.083l-.205.177C76.83 75.094 68.404 61.11 68.17 40.72v-.253z"/>
  <path fill="#c78862" d="M68.132 40.393l.262.2c7.256 5.525 13.213 12.74 17.707 21.432l-.24.122C81.44 53.597 75.6 46.49 68.5 41.013c.457 2.88 4.1 23.93 15.23 39.974l-.22.156C71.556 63.915 68.207 40.948 68.175 40.72l-.044-.327z"/>
  <path fill="#c78862" d="M68.62 41.28l.29.286c.086.085 8.89 8.88 16.39 22.73l-.234.128c-6.715-12.393-14.463-20.72-16.05-22.37 1.538 9.73 6.225 20.884 14.315 34.088l-.23.14c-8.223-13.422-12.94-24.74-14.415-34.6l-.066-.403z"/>
  <path fill="#c78862" d="M68.575 41.28l.51.707c8.883 12.4 10.307 15.087 12.895 19.964.695 1.31 1.484 2.796 2.525 4.668l-.234.13c-1.045-1.873-1.832-3.36-2.528-4.67-2.532-4.77-3.948-7.44-12.358-19.206 3.052 8.957 9.08 20.563 14.04 29.756l-.242.13c-5.122-9.5-11.384-21.567-14.337-30.65l-.27-.83z"/>
  <path fill="#c78862" d="M68.597 40.91c1.31.783 6.474 10.454 15.347 28.743l-.248.117C72.676 47.05 69.328 41.66 68.46 41.142l.137-.232zM57.312 81.01c2.16.49 4.24 1.145 6.234 1.967 6.143 2.53 11.375 6.555 15.545 11.966l-.208.166c-6.974-9.037-20.374-18.704-44.6-13.43-.555.123-3.682.638-4.458.768.602 1.442 5.563 12.605 17.087 19.306l-.132.235c-12.364-7.19-17.22-19.48-17.27-19.6l-.06-.157.162-.027c.045-.008 4.002-.654 4.615-.788 8.44-1.84 16.178-1.972 23.087-.407z"/>
  <path fill="#c78862" d="M55.34 83.818c10.355 2.346 17.283 6.74 21.76 10.83l-.18.2c-7.4-6.764-21.54-14.347-46.89-12.05l-.027-.27c10.132-.916 18.488-.26 25.337 1.29z"/>
  <path fill="#c78862" d="M30.135 82.562c4.503 8.196 10.61 14.32 18.153 18.206l-.12.24c-7.593-3.912-13.74-10.075-18.27-18.316l.237-.13z"/>
  <path fill="#c78862" d="M50.643 83.892c9.956 2.254 17.69 6.483 23.124 10.375l-.157.22c-8.667-6.21-23.203-13.274-43.323-11.752 1.193 1.44 8.874 10.375 20.704 16.457l-.12.243c-12.892-6.63-20.876-16.63-20.955-16.732l-.158-.2.257-.018c7.685-.607 14.57.034 20.63 1.407z"/>
  <path fill="#c78862" d="M47.26 85.147c7.53 1.707 16.438 4.49 24.408 9.01l-.133.236c-16.988-9.637-38.278-11.37-41.188-11.563 6.09 6.58 13.7 11.753 22.614 15.382l-.1.253c-9.062-3.69-16.783-8.974-22.943-15.7l-.223-.242.332.016c.13.008 7.534.41 17.235 2.607z"/>
  <path fill="#c78862" d="M40.548 84.26c7.663 1.736 16.324 5.013 26.206 9.9l-.12.244C52.65 87.49 41.13 83.807 31.428 83.156c1.77 1.44 10.734 8.463 23.69 14.032l-.107.25C40.538 91.213 31.026 83.18 30.933 83.1l-.306-.262.403.022c2.993.178 6.16.64 9.518 1.4z"/>
  <path fill="#c78862" d="M30.253 82.71l.87.2c8.816 2.005 21.274 7.1 32.3 11.818l-.104.25C52.68 90.426 40.71 85.525 31.98 83.39 34.986 85.084 45.8 91.068 57.6 96.294l-.11.246c-13.846-6.13-26.338-13.31-26.463-13.38l-.774-.45z"/>
  <path fill="#c78862" d="M30.467 82.784c.6.82 6.267 3.67 29.895 12.595l-.1.25C41.245 88.443 31.15 84.176 30.25 82.942l.217-.16zM59.373 64.616c3.574.81 6.898 1.9 9.928 3.27l-.108.246c-4.98-2.243-10.74-3.748-17.125-4.465-.563-.063-3.737-.436-4.494-.525.087 1.202.792 9.02 5.4 17.143l-.238.135c-5.014-8.85-5.432-17.34-5.44-17.425l-.007-.16.16.018s4.014.475 4.645.545c2.526.283 4.958.692 7.28 1.218z"/>
  <path fill="#c78862" d="M47.734 63.14c8.948 2.15 16.785 5.235 23.287 9.16l-.14.235c-6.477-3.917-14.29-6.987-23.21-9.132l.064-.264z"/>
  <path fill="#c78862" d="M47.837 63.213c1.154 6.494 3.413 12.305 6.704 17.275l-.225.15c-3.313-5.002-5.583-10.848-6.744-17.375l.267-.05z"/>
  <path fill="#c78862" d="M47.49 63.065l.247.06C57.01 65.47 65.334 69.45 72.49 74.957l-.166.213c-7.06-5.434-15.267-9.375-24.403-11.716.568 1.48 3.83 9.59 10.456 17.823l-.206.17c-7.325-9.102-10.562-18.054-10.596-18.145l-.084-.237z"/>
  <path fill="#c78862" d="M47.446 62.99l.308.124c.15.058 15.232 6.077 28.27 17.137l-.172.205C63.878 70.3 50.182 64.41 47.962 63.49c3.027 6.76 7.36 12.974 12.886 18.472l-.192.193C55.024 76.55 50.63 70.205 47.58 63.29l-.134-.3z"/>
  <path fill="#c78862" d="M47.88 63.287l.385.156c21.465 8.69 43.784 37.088 44.004 37.374l-.214.165c-.218-.282-22.22-28.275-43.49-37.126C49.808 65.76 55.98 74.87 65.51 83.8l-.182.2C54.64 73.987 48.167 63.743 48.104 63.64l-.223-.355z"/>
  <path fill="#c78862" d="M47.63 63.213l.78.482c15 9.2 43.56 36.844 43.854 37.124l-.19.192c-.285-.274-27.816-26.92-42.986-36.575 3.593 3.96 21.372 23.277 34.223 32.035l-.15.226c-14.314-9.758-34.715-32.57-34.92-32.796l-.61-.69z"/>
  <path fill="#c78862" d="M48.096 63.508c1.002 3.207 43.094 36.743 43.52 37.082l-.165.21c-1.737-1.38-42.583-33.926-43.613-37.213l.26-.08z"/>
  <path fill="#d66d65" d="M154.236 159.324l-77.02-70.137c-16.096 1.86-28.707 17.693-28.707 34.576 0 18.186 11.19 30.375 29.124 34.16v1.4H51.79v69.724h1.802l100.645-68.326v-1.396z"/>
  <path fill="#d66d65" d="M171.754 171.997c-3.422-4.517-8.143-8.167-14.25-10.31-1.05-.37-2.138-.694-3.272-.97L53.586 229.042h93.69c29.248 0 39.602-37.063 24.473-57.046z"/>
  <path stroke="#fff" stroke-miterlimit="10" fill="none" d="M15.468 33.377l138.768 125.97" stroke-width=".73852"/>
  <path d="M176.584 159.324V89.002H80.376c-1.066 0-2.12.064-3.162.185l77.02 70.137h22.352z" stroke="#006163" stroke-miterlimit="10" fill="#b0dfdd" stroke-width=".73852"/>
  <path stroke="#006163" stroke-miterlimit="10" fill="none" d="M155.056 157.197L82.51 91.13h91.947v66.067z" stroke-width=".73852"/>
  <path stroke="#006163" stroke-miterlimit="10" fill="none" d="M155.883 155.07l-67.878-61.8h84.325v61.8z" stroke-width=".73852"/>
  <path stroke="#006163" stroke-miterlimit="10" fill="none" d="M156.703 152.943L93.5 95.413h76.703v57.53z" stroke-width=".73852"/>
  <path stroke="#006163" stroke-miterlimit="10" fill="none" d="M157.53 150.817L98.994 97.48h69.082v53.337z" stroke-width=".73852"/>
  <path stroke="#006163" stroke-miterlimit="10" fill="none" d="M158.35 148.69l-53.86-49.068h61.46v49.068z" stroke-width=".73852"/>
  <path stroke="#006163" stroke-miterlimit="10" fill="none" d="M159.177 146.563l-49.193-44.8h53.845v44.8z" stroke-width=".73852"/>
  <path stroke="#006163" stroke-miterlimit="10" fill="none" d="M159.996 144.436l-44.518-40.53h46.217v40.53z" stroke-width=".73852"/>
  <path stroke="#006163" stroke-miterlimit="10" fill="none" d="M120.973 106.047h38.595v35.117z" stroke-width=".73852"/>
  <path stroke="#006163" stroke-miterlimit="10" fill="none" d="M126.467 108.115h30.974v28.24z" stroke-width=".73852"/>
  <path stroke="#006163" stroke-miterlimit="10" fill="none" d="M131.962 110.257h23.352v21.27z" stroke-width=".73852"/>
  <path stroke="#006163" stroke-miterlimit="10" fill="none" d="M137.457 112.4h15.73v14.326z" stroke-width=".73852"/>
  <path stroke="#006163" stroke-miterlimit="10" fill="none" d="M142.944 114.54h8.116v7.386z" stroke-width=".73852"/>
  <path fill="#eeefa0" d="M16.48 23.85c3.017 3.02 3.013 7.915-.007 10.93-3.02 3.016-7.915 3.012-10.93-.01-.615-.613-1.55-2.425-1.692-3.068-.674-3.044-2.708-11.978-3.854-14.35 0 0 9.955 3.784 13.42 4.8.514.15 2.46 1.094 3.063 1.698z"/>
  <path fill="#c78862" d="M1095.992 99.03c8.594 3.16 13.645 8.536 13.697 8.59l.092.1-.105.092c-17.982 15.91-34.145 14.693-44.544 10.87-8.835-3.245-14.306-8.652-14.362-8.706l-.114-.117.137-.093c.037-.023 3.392-2.22 3.9-2.587 17.553-12.83 32.143-11.513 41.3-8.15zm13.4 8.674c-.735-.75-5.613-5.524-13.493-8.42-9.09-3.34-23.59-4.645-41.05 8.114-.458.335-3.11 2.075-3.77 2.503.85.804 6.087 5.57 14.146 8.532 10.312 3.788 26.33 4.994 44.166-10.728z"/>
  <path fill="#c78862" d="M1100.35 102.133c6.2 2.28 9.412 5.31 9.453 5.347l-.187.196c-.05-.048-5.055-4.764-14.672-6.82-8.877-1.898-23.62-1.85-43.42 9.143l-.132-.236c19.884-11.04 34.7-11.08 43.628-9.168 1.97.422 3.747.955 5.33 1.537z"/>
  <path fill="#c78862" d="M1109.58 107.524l.176.203c-.076.06-7.363 6.236-18.15 9.586-9.963 3.092-25.04 4.34-40.27-7.277l.162-.216c15.145 11.548 30.123 10.307 40.03 7.235 10.734-3.33 17.98-9.472 18.052-9.53z"/>
  <path fill="#c78862" d="M1104.706 105.31h.008c3.163 1.163 4.976 2.16 4.992 2.172l.185.103-.17.124c-8.412 6.226-18.326 9.335-29.466 9.246-9.354-.077-17.62-2.41-22.91-4.354-3.726-1.37-5.982-2.553-6.003-2.564l-.22-.116.218-.122c10.258-5.544 21.047-8.323 32.07-8.275 9.23.048 16.68 2.083 21.302 3.784zm4.676 2.307c-.532-.278-2.2-1.113-4.765-2.055-9.94-3.655-30.01-7.933-52.925 4.354.66.328 2.71 1.318 5.74 2.433 11.332 4.163 33.122 9.072 51.95-4.733z"/>
  <path fill="#c78862" d="M1107.143 106.417c.866.317 1.728.667 2.553 1.03l.26.116-.254.128c-.068.036-6.906 3.506-17.06 5.675-9.373 2.003-23.572 3.278-37.985-2.02-1.112-.408-2.223-.856-3.306-1.33l-.3-.13.305-.12c.316-.123 31.995-12.095 55.788-3.348zm2.177 1.162c-.738-.322-1.502-.63-2.27-.91-22.43-8.246-51.923 2.006-55.284 3.233.98.418 1.986.82 2.985 1.187 14.356 5.277 28.498 4.007 37.838 2.01 9.013-1.925 15.4-4.875 16.732-5.52z"/>
  <path fill="#c78862" d="M1110.17 107.524l-.418.184c-25.162 10.962-57.998 2.413-58.327 2.326l-.408-.11.395-.148c21.688-8.12 57.945-2.385 58.307-2.325l.45.074zm-58.256 2.353c3.893.955 33.832 7.75 57.296-2.23-4.278-.637-36.975-5.153-57.296 2.23z"/>
  <path fill="#c78862" d="M1110.097 107.45l-.356.234c-10.545 6.945-56.2 2.29-56.658 2.24l-.9-.09.885-.174c17.274-3.372 56.21-2.232 56.603-2.22l.427.01zm-56.043 2.3c6.542.62 44.926 3.96 55.16-2.053-4.322-.115-38.537-.91-55.16 2.053z"/>
  <path fill="#c78862" d="M1108.99 107.672l.02.27c-2.215.157-54.316 3.82-57.293 2.096l.138-.235c2.9 1.678 56.593-2.093 57.135-2.13zM1121.692 49.846l.097.134c.05.077 5.437 7.775 6.627 18.684.698 6.407-.162 12.66-2.557 18.572-2.993 7.39-8.408 14.27-16.092 20.452l-.107.088-.082-.108c-.052-.066-5.042-6.67-6.44-16.62-1.287-9.18.31-23.166 15.238-37.67.446-.44 3.177-3.382 3.205-3.41l.112-.122zm-11.982 57.545c17.206-13.903 19.527-28.707 18.438-38.686-1.09-10.044-5.764-17.348-6.486-18.43-.533.577-2.693 2.903-3.098 3.296-14.848 14.426-16.437 28.322-15.158 37.44 1.288 9.176 5.65 15.477 6.304 16.38z"/>
  <path fill="#c78862" d="M1121.618 50.51l.212.168c-14.173 17.683-16.688 32.214-16.302 41.288.417 9.82 4.22 15.53 4.26 15.586l-.224.153c-.038-.056-3.885-5.83-4.302-15.727-.393-9.12 2.13-23.72 16.356-41.468z"/>
  <path fill="#c78862" d="M1121.84 50.51c8.895 16.962 5.132 31.617.416 40.92-5.115 10.075-12.424 16.222-12.495 16.28l-.174-.206c.07-.06 7.35-6.178 12.433-16.204 4.687-9.247 8.42-23.806-.42-40.665l.24-.125z"/>
  <path fill="#c78862" d="M1121.766 50.29l.078.238c.032.088 2.846 8.792 2.754 20.126-.08 10.47-2.724 25.394-14.844 37.037l-.15.144-.076-.198c-.025-.074-2.535-7.317-2.295-17.932.223-9.794 2.896-24.547 14.377-39.22l.156-.195zm-12.047 57.056c11.923-11.555 14.526-26.32 14.607-36.692.08-10.236-2.21-18.313-2.662-19.8-11.298 14.54-13.938 29.14-14.16 38.845-.218 9.585 1.816 16.41 2.214 17.646z"/>
  <path fill="#c78862" d="M1121.766 50.215l.08.32c3.956 15.883.46 30.572-3.168 40.097-3.932 10.32-8.862 16.973-8.91 17.038l-.177.227-.066-.276c-3.373-13.317.09-28.14 3.59-38.232 3.79-10.927 8.436-18.81 8.484-18.89l.168-.283zm-12.052 57.06c.903-1.263 5.206-7.54 8.716-16.746 3.586-9.425 7.042-23.917 3.233-39.604-.867 1.514-4.92 8.826-8.3 18.556-3.463 9.982-6.887 24.612-3.65 37.792z"/>
  <path fill="#c78862" d="M1121.766 50.88l.04.416c.032.333 3.04 33.387-11.99 56.353l-.247.383v-.458c0-.36.335-36.316 11.98-56.333l.214-.362zm-11.92 56.228c13.77-21.44 12.026-51.42 11.726-55.355-10.686 18.772-11.648 51.084-11.726 55.355z"/>
  <path fill="#c78862" d="M1121.618 50.88l-.054.907c-.034.465-3.183 46.692-11.798 55.923l-.293.314.06-.424c.058-.39 5.546-39.41 11.766-55.87l.318-.85zm-11.75 56.312c7.643-9.09 10.86-47.87 11.355-54.47-5.716 15.908-10.74 50.16-11.356 54.47z"/>
  <path fill="#c78862" d="M1121.84 50.88c1.2 3.225-11.154 53.966-11.678 56.124l-.262-.065c.13-.53 12.855-52.82 11.687-55.968l.253-.092zM1092.594 43.125l.155.067c.12.053 12.207 5.39 18.908 18.02l-.236.128c-6.25-11.777-17.21-17.172-18.63-17.83-.154.77-.794 3.876-.932 4.427-6.22 24.005 2.91 37.768 11.673 45.087l-.18.206c-5.242-4.382-9.058-9.767-11.348-16-3.117-8.505-3.255-18.385-.408-29.363.156-.608.96-4.538.966-4.58l.03-.162z"/>
  <path fill="#c78862" d="M1093.185 43.716c-3.285 25.24 3.742 39.67 10.207 47.328l-.208.174c-6.504-7.7-13.56-22.195-10.267-47.537l.268.036z"/>
  <path fill="#c78862" d="M1093.11 43.642c8.06 4.846 13.977 11.232 17.587 18.968l-.244.116c-3.588-7.688-9.472-14.034-17.482-18.853l.14-.23z"/>
  <path fill="#c78862" d="M1092.964 43.495l.193.164c.095.083 9.777 8.455 15.894 21.594l-.24.113c-5.616-12.06-14.245-20.085-15.637-21.332-2.304 20.037 4.184 34.845 10.052 43.747l-.227.15c-5.918-8.982-12.466-23.938-10.064-44.187l.03-.25z"/>
  <path fill="#c78862" d="M1092.89 43.42l.235.234c6.48 6.416 11.456 14.338 14.788 23.537l-.256.092c-3.278-9.048-8.15-16.85-14.484-23.198.08 2.915.975 24.26 9.942 41.607l-.24.126c-9.626-18.627-9.98-41.834-9.984-42.065v-.33z"/>
  <path fill="#c78862" d="M1093.26 44.307l.248.322c.077.096 7.67 9.953 13.32 24.656l-.25.098c-5.058-13.157-11.665-22.415-13.026-24.256.268 9.846 3.475 21.513 9.792 35.65l-.246.112c-6.42-14.374-9.64-26.208-9.827-36.175l-.01-.408z"/>
  <path fill="#c78862" d="M1093.26 44.38l.413.77c7.21 13.443 8.274 16.29 10.21 21.462.52 1.39 1.11 2.964 1.9 4.954l-.25.097c-.793-1.99-1.384-3.567-1.904-4.955-1.895-5.058-2.955-7.89-9.773-20.642 1.87 9.277 6.347 21.563 10.077 31.32l-.254.098c-3.853-10.08-8.504-22.857-10.26-32.246l-.16-.857z"/>
  <path fill="#c78862" d="M1093.26 43.938c1.196.947 5.07 11.203 11.506 30.485l-.26.084c-7.996-23.952-10.62-29.73-11.412-30.357l.165-.212zM1076.938 82.193c2.077.763 4.054 1.68 5.927 2.754 5.767 3.302 10.432 7.968 13.87 13.873l-.23.138c-5.747-9.86-17.787-21.178-42.492-19.075-.566.05-3.733.157-4.52.185.413 1.507 3.89 13.218 14.45 21.35l-.16.217c-11.333-8.725-14.563-21.54-14.595-21.667l-.04-.162.165-.007c.044 0 4.052-.134 4.678-.187 8.61-.734 16.297.134 22.948 2.58z"/>
  <path fill="#c78862" d="M1074.574 84.778c9.966 3.664 16.268 8.914 20.18 13.55l-.206.175c-6.462-7.664-19.505-17.01-44.94-18.006l.007-.27c10.167.4 18.367 2.127 24.96 4.55z"/>
  <path fill="#c78862" d="M1049.76 80.273c3.407 8.708 8.673 15.57 15.65 20.397l-.15.224c-7.025-4.86-12.323-11.765-15.75-20.523l.25-.097z"/>
  <path fill="#c78862" d="M1069.922 84.26c9.583 3.522 16.703 8.715 21.59 13.276l-.184.198c-7.792-7.278-21.295-16.16-41.442-17.248.997 1.584 7.46 11.433 18.406 18.992l-.154.227c-11.925-8.24-18.552-19.188-18.618-19.298l-.13-.22.256.016c7.702.388 14.444 1.914 20.276 4.058z"/>
  <path fill="#c78862" d="M1066.45 85c7.246 2.663 15.72 6.575 23.04 12.087l-.162.216c-15.602-11.75-36.49-16.217-39.35-16.786 5.19 7.312 12.067 13.425 20.436 18.175l-.13.236c-8.51-4.83-15.485-11.066-20.725-18.53l-.19-.27.326.06c.13.026 7.418 1.38 16.755 4.81z"/>
  <path fill="#c78862" d="M1059.878 83.3c7.375 2.71 15.54 7.08 24.708 13.202l-.15.227c-12.972-8.662-23.922-13.803-33.46-15.7 1.574 1.655 9.555 9.777 21.682 16.972l-.137.233c-13.55-8.04-21.944-17.235-22.024-17.326l-.272-.3.397.073c2.946.562 6.028 1.43 9.258 2.618z"/>
  <path fill="#c78862" d="M1049.834 80.494l.838.31c8.48 3.128 20.18 9.79 30.506 15.892l-.138.234c-9.962-5.887-21.197-12.293-29.578-15.538 2.76 2.068 12.71 9.4 23.738 16.105l-.14.23c-12.94-7.867-24.4-16.6-24.513-16.685l-.713-.548z"/>
  <path fill="#c78862" d="M1050.056 80.494c.488.89 5.74 4.45 28.017 16.352l-.13.235c-17.93-9.58-27.39-15.114-28.122-16.454l.236-.132zM1081.073 66.24c3.44 1.266 6.595 2.778 9.424 4.526l-.14.23c-4.65-2.868-10.166-5.104-16.407-6.64-.548-.134-3.646-.914-4.386-1.1-.07 1.203-.38 9.047 3.138 17.697l-.252.103c-3.83-9.424-3.148-17.896-3.145-17.982l.016-.16.156.04s3.918.99 4.536 1.14c2.467.605 4.827 1.324 7.06 2.147z"/>
  <path fill="#c78862" d="M1069.774 63.287c8.597 3.29 15.967 7.36 21.91 12.093l-.17.214c-5.92-4.72-13.268-8.775-21.837-12.053l.097-.253z"/>
  <path fill="#c78862" d="M1069.848 63.36c.306 6.588 1.795 12.642 4.416 17.995l-.243.12c-2.638-5.388-4.134-11.48-4.442-18.102l.27-.012z"/>
  <path fill="#c78862" d="M1069.48 63.213l.235.09c8.89 3.524 16.633 8.544 23.018 14.932l-.193.19c-6.3-6.303-13.927-11.27-22.684-14.772.37 1.544 2.557 10.005 8.064 19.026l-.227.14c-6.09-9.973-8.14-19.266-8.163-19.362l-.05-.245z"/>
  <path fill="#c78862" d="M1069.48 63.14l.29.16c.14.077 14.32 7.993 25.82 20.645l-.197.18C1084.83 72.51 1072.008 64.9 1069.928 63.7c2.128 7.095 5.623 13.817 10.392 19.98l-.215.17c-4.86-6.287-8.4-13.146-10.53-20.395l-.096-.316z"/>
  <path fill="#c78862" d="M1069.848 63.508l.36.205c20.163 11.39 38.626 42.43 38.808 42.742l-.232.137c-.18-.308-18.384-30.908-38.333-42.43.99 2.046 5.932 11.88 14.23 21.965l-.205.173c-9.307-11.308-14.403-22.303-14.453-22.413l-.174-.38z"/>
  <path fill="#c78862" d="M1069.626 63.36l.71.578c13.688 11.062 38.44 42.162 38.693 42.476l-.212.168c-.247-.31-24.108-30.288-37.904-41.82 3.053 4.39 18.188 25.842 29.8 36.186l-.177.204c-12.935-11.524-30.22-36.78-30.393-37.03l-.518-.76z"/>
  <path fill="#c78862" d="M1070.07 63.73c.578 3.31 37.986 42 38.366 42.39l-.192.19c-1.546-1.595-37.844-39.143-38.443-42.536l.27-.044z"/>
  <path fill="#d66d65" d="M1175.53 159.324l-77.02-70.137c-16.095 1.86-28.708 17.693-28.708 34.576 0 18.186 11.192 30.375 29.126 34.16v1.4h-25.842v69.724h1.8l100.644-68.326v-1.396zM1193.107 171.997c-3.424-4.517-8.143-8.167-14.25-10.31-1.05-.37-2.14-.694-3.272-.97l-100.646 68.326h93.688c29.25 0 39.603-37.063 24.476-57.046z"/>
  <path stroke="#fff" stroke-miterlimit="10" fill="none" d="M1036.762 33.377l138.768 125.97" stroke-width=".73852"/>
  <path d="M1197.908 159.324V89.002H1101.7c-1.067 0-2.123.064-3.162.185l77.02 70.137h22.352z" stroke="#006163" stroke-miterlimit="10" fill="#b0dfdd" stroke-width=".73852"/>
  <path stroke="#006163" stroke-miterlimit="10" fill="none" d="M1176.417 157.197L1103.82 91.13h91.946v66.067z" stroke-width=".73852"/>
  <path stroke="#006163" stroke-miterlimit="10" fill="none" d="M1177.23 155.07l-67.87-61.8h84.264v61.8z" stroke-width=".73852"/>
  <path stroke="#006163" stroke-miterlimit="10" fill="none" d="M1178.04 152.943l-63.216-57.53h76.732v57.53z" stroke-width=".73852"/>
  <path stroke="#006163" stroke-miterlimit="10" fill="none" d="M1178.854 150.817L1120.29 97.48h69.125v53.337z" stroke-width=".73852"/>
  <path stroke="#006163" stroke-miterlimit="10" fill="none" d="M1179.666 148.69l-53.838-49.068h61.445v49.068z" stroke-width=".73852"/>
  <path stroke="#006163" stroke-miterlimit="10" fill="none" d="M1180.48 146.563l-49.187-44.8h53.838v44.8z" stroke-width=".73852"/>
  <path stroke="#006163" stroke-miterlimit="10" fill="none" d="M1181.29 144.436l-44.458-40.53h46.157v40.53z" stroke-width=".73852"/>
  <path stroke="#006163" stroke-miterlimit="10" fill="none" d="M1142.297 106.047h38.625v35.117z" stroke-width=".73852"/>
  <path stroke="#006163" stroke-miterlimit="10" fill="none" d="M1147.762 108.115h31.018v28.24z" stroke-width=".73852"/>
  <path stroke="#006163" stroke-miterlimit="10" fill="none" d="M1153.3 110.257h23.338v21.27z" stroke-width=".73852"/>
  <path stroke="#006163" stroke-miterlimit="10" fill="none" d="M1158.766 112.4h15.73v14.326z" stroke-width=".73852"/>
  <path stroke="#006163" stroke-miterlimit="10" fill="none" d="M1164.305 114.54h8.05v7.386z" stroke-width=".73852"/>
  <path fill="#eeefa0" d="M1037.796 23.85c3.016 3.02 3.01 7.915-.01 10.93-3.02 3.016-7.914 3.012-10.93-.01-.613-.613-1.547-2.425-1.69-3.068-.676-3.044-2.708-11.978-3.853-14.35 0 0 9.953 3.784 13.418 4.8.515.15 2.464 1.094 3.066 1.698zM295.95 17.646c2.193 3.68 6.938 4.88 10.602 2.68 3.663-2.2 4.858-6.968 2.666-10.648-.446-.75-1.974-2.104-2.563-2.4-2.785-1.407-10.95-5.584-12.97-7.282 0 0 1.234 10.625 1.37 14.25.02.536.46 2.665.896 3.4z"/>
  <path fill="#c78862" d="M381.693 59.3c.498-.387 3.537-3.013 3.57-3.04l.126-.108.08.146c.035.07 3.707 6.858 4.368 16.29.78 11.1-2.546 27.037-22.832 39.94l-.12.077-.07-.12c-.035-.064-3.795-6.44-4.437-15.615-.686-9.773 2.106-24.22 19.313-37.57zm7.877 13.305c-.604-8.602-3.724-14.986-4.26-16.03-.594.516-3.002 2.59-3.452 2.937-17.112 13.282-19.894 27.637-19.212 37.34.592 8.415 3.82 14.452 4.334 15.37 20.064-12.815 23.362-28.608 22.59-39.617z"/>
  <path fill="#c78862" d="M364.19 101.838c.465 6.62 2.48 10.566 2.506 10.616l.24-.126c-.033-.062-3.17-6.208-2.47-16.062.646-9.096 4.792-23.307 20.86-39.34l-.19-.193C369 72.835 364.842 87.118 364.196 96.266c-.142 2.02-.124 3.883-.01 5.572z"/>
  <path fill="#c78862" d="M366.7 112.325l.147.226c.08-.053 8.04-5.36 14.258-14.832 5.74-8.75 11.132-22.948 4.212-40.89l-.254.098c6.88 17.84 1.522 31.944-4.184 40.643-6.186 9.426-14.1 14.7-14.18 14.755z"/>
  <path fill="#c78862" d="M368.252 85.37c3.02-10.65 8.692-20.282 16.87-28.632l.177-.178.05.25c0 .02.512 2.53.793 6.506.396 5.646.337 14.275-2.19 23.322-3.016 10.774-8.76 19.47-17.08 25.848l-.17.13-.045-.21c-.007-.016-.46-2.044-.7-5.422-.346-4.935-.23-12.69 2.293-21.612zm17.62-22.036c-.227-3.235-.606-5.49-.74-6.218-18.176 18.676-19.646 39.235-18.903 49.85.19 2.735.528 4.58.648 5.17 18.497-14.308 19.844-36.706 18.995-48.802z"/>
  <path fill="#c78862" d="M385.09 56.788l.2-.262.043.328c.153 1.178.274 2.373.356 3.56 1.08 15.386-4.096 28.73-8.625 37.215-4.908 9.19-10.143 14.818-10.196 14.875l-.195.207-.04-.28c-.12-.9-.214-1.83-.28-2.753-1.78-25.402 18.53-52.623 18.735-52.892zm-8.264 40.715c4.514-8.455 9.67-21.745 8.595-37.07-.076-1.067-.182-2.15-.31-3.21-2.115 2.9-20.166 28.488-18.483 52.436.057.82.138 1.642.24 2.444.992-1.104 5.6-6.444 9.96-14.6z"/>
  <path fill="#c78862" d="M366.627 112.4c.046-.368 4.62-36.952 18.453-55.61l.25-.34-.007.425c-.007.342-.93 34.41-18.458 55.627l-.29.354.052-.457zm.33-.436c16.113-19.853 17.915-50.637 18.08-54.662-12.743 17.544-17.5 50.354-18.08 54.662z"/>
  <path fill="#c78862" d="M366.7 112.4c.1-.384 9.836-38.27 17.88-53.993l.413-.81-.16.898c-.082.455-8.31 45.804-17.915 54.042l-.323.277.106-.415zm.377-.37c8.622-8.192 16.09-46.163 17.313-52.648-7.468 15.21-16.223 48.447-17.313 52.65z"/>
  <path fill="#c78862" d="M367.07 111.808l.254.094c.766-2.092 18.777-51.34 17.95-54.693l-.263.067c.805 3.266-17.753 54.018-17.94 54.53zM308.136 107.746c.036-.02 3.623-1.83 4.17-2.138 18.08-10.35 31.96-7.985 40.42-4.177 9.17 4.13 14.124 10.788 14.173 10.858l.08.11-.114.078c-8.077 5.686-16.194 8.988-24.122 9.81-6.347.662-12.59-.257-18.55-2.72-10.147-4.197-16.046-11.546-16.103-11.616l-.102-.13.148-.074zm44.48-6.07c-8.403-3.78-22.193-6.13-40.18 4.167-.49.28-3.325 1.714-4.03 2.068.84 1 6.557 7.55 15.9 11.41 9.282 3.837 24.148 5.734 42.29-6.98-.687-.884-5.527-6.856-13.98-10.663z"/>
  <path fill="#c78862" d="M308.653 107.967l.103.252c20.928-8.735 35.584-7.102 44.193-4.195 9.316 3.148 13.742 8.413 13.787 8.466l.21-.17c-.046-.055-4.522-5.38-13.91-8.547-8.654-2.93-23.378-4.573-44.384 4.194z"/>
  <path fill="#c78862" d="M308.58 108.19c13.82 13.32 28.94 13.784 39.19 11.834 11.098-2.12 19.035-7.455 19.113-7.508l-.15-.225c-.08.05-7.978 5.364-19.025 7.466-10.185 1.94-25.21 1.476-38.942-11.766l-.186.2z"/>
  <path fill="#c78862" d="M308.653 107.967c17.286-6.978 32.2-5.433 41.67-2.913 10.263 2.736 16.523 7.18 16.586 7.223l.168.128-.18.107c-14.554 8.44-29.624 6.822-39.704 3.974-10.913-3.08-18.49-8.227-18.566-8.28l-.208-.143.233-.096zm41.59-2.652c-9.384-2.497-24.14-4.03-41.25 2.81 1.303.85 8.422 5.32 18.277 8.1 9.985 2.82 24.892 4.434 39.306-3.844-1.076-.728-7.066-4.596-16.333-7.065z"/>
  <path fill="#c78862" d="M308.653 107.967c.088-.025 8.953-2.306 20.504-2.91 10.666-.557 25.867.244 37.72 7.22l.247.143-.267.106c-.076.028-7.837 2.926-18.843 3.836-10.16.838-25.242.11-39.397-8.146l-.284-.167.32-.083zm20.525-2.642c-10.288.54-18.438 2.41-20.135 2.824 14.01 8.056 28.89 8.77 38.94 7.946 9.82-.816 17.046-3.214 18.51-3.732-11.76-6.806-26.763-7.59-37.315-7.04z"/>
  <path fill="#c78862" d="M309.392 108.115c22.467-5.644 57.097 4.08 57.442 4.18l.442.126-.44.132c-26.24 8.085-57.15-4.053-57.46-4.175l-.39-.158.406-.105zm.487.16c3.695 1.39 32.007 11.448 56.43 4.152-4.124-1.114-35.428-9.216-56.43-4.15z"/>
  <path fill="#c78862" d="M309.91 108.04c17.54-1.402 56.545 4.206 56.936 4.26l.422.06-.38.197c-11.263 5.732-56.543-4.146-56.998-4.242l-.886-.202.905-.072zm.973.207c6.476 1.366 44.624 9.098 55.48 4.26-4.314-.608-38.61-5.332-55.48-4.26z"/>
  <path fill="#c78862" d="M308.95 108.263c2.76 2.058 54.937 4.317 57.156 4.416l.01-.273c-.54-.025-54.31-2.354-57.008-4.36l-.16.216zM309.613 77.91l.022.167c.015.135 1.78 13.285 12.05 23.28l.187-.193c-9.573-9.32-11.708-21.4-11.946-22.953.783.064 3.946.317 4.512.337 24.79.705 35.47 13.36 40.062 23.858l.248-.114c-2.75-6.282-6.86-11.467-12.213-15.418-7.3-5.385-16.752-8.278-28.09-8.6-.628-.02-4.625-.342-4.666-.347l-.167-.015z"/>
  <path fill="#c78862" d="M310.057 78.648c25.158 3.885 37.064 14.695 42.62 23.073l.225-.15c-5.585-8.428-17.547-19.287-42.804-23.19l-.04.268z"/>
  <path fill="#c78862" d="M309.983 78.574c2.413 9.13 6.9 16.626 13.327 22.268l.18-.2c-6.39-5.613-10.846-13.063-13.247-22.14l-.26.072z"/>
  <path fill="#c78862" d="M309.835 78.353l.106.233c.055.117 5.402 11.798 16.32 21.37l.178-.202c-10.022-8.787-15.332-19.354-16.14-21.048 19.888 3.377 32.304 13.774 39.224 21.924l.207-.176c-6.982-8.22-19.527-18.717-39.645-22.057l-.25-.044z"/>
  <path fill="#c78862" d="M309.835 78.28l.16.29c4.36 8.047 10.583 15.06 18.494 20.847l.156-.22c-7.778-5.69-13.918-12.573-18.254-20.457 2.778.89 23.03 7.718 37.2 21.217l.187-.197c-15.216-14.492-37.407-21.32-37.63-21.387l-.315-.094z"/>
  <path fill="#c78862" d="M310.574 78.87l.24.33c.07.1 7.428 10.182 19.978 19.742l.163-.215c-11.23-8.555-18.285-17.52-19.673-19.345 9.38 3.01 19.695 9.364 31.52 19.41l.174-.207c-12.02-10.21-22.492-16.622-32.013-19.588l-.39-.127z"/>
  <path fill="#c78862" d="M310.647 78.87l.624.614c10.91 10.712 13.347 12.537 17.776 15.847 1.188.892 2.538 1.902 4.23 3.22l.164-.214c-1.692-1.324-3.042-2.332-4.23-3.222-4.334-3.24-6.757-5.054-17.11-15.197 8.39 4.395 18.946 12.148 27.28 18.475l.165-.22c-8.61-6.533-19.59-14.59-28.12-18.91l-.778-.392z"/>
  <path fill="#c78862" d="M310.278 78.796c.576 1.42 9.35 8.02 26.082 19.62l.153-.23c-20.783-14.404-25.603-18.55-25.985-19.49l-.25.1zM351.562 73.7c.155 2.22.485 4.382.997 6.49 1.566 6.484 4.75 12.292 9.466 17.26l.196-.184c-7.873-8.3-15.395-23.08-6.503-46.332.204-.53 1.188-3.555 1.433-4.307 1.334.818 11.616 7.446 16.49 19.91l.252-.098c-5.23-13.372-16.64-20.067-16.752-20.136l-.144-.082-.052.157c-.014.04-1.254 3.872-1.48 4.46-3.1 8.1-4.405 15.76-3.906 22.86z"/>
  <path fill="#c78862" d="M354.663 72.223c.748 10.64 4.037 18.188 7.402 23.258l.224-.15c-5.563-8.377-10.912-23.572-4.794-48.392l-.263-.068c-2.443 9.92-3.063 18.316-2.57 25.353z"/>
  <path fill="#c78862" d="M357.248 46.966c7.416 5.72 12.542 12.72 15.24 20.8l.255-.083c-2.715-8.135-7.872-15.177-15.332-20.93l-.162.213z"/>
  <path fill="#c78862" d="M355.476 67.57c.717 10.23 3.723 18.55 6.746 24.54l.24-.12c-4.823-9.553-9.598-25.062-5.04-44.807 1.244 1.403 8.908 10.392 13.123 23.065l.26-.085c-4.596-13.81-13.27-23.26-13.357-23.355l-.173-.187-.057.253c-1.77 7.54-2.18 14.472-1.742 20.697z"/>
  <path fill="#c78862" d="M357.174 64.395c.544 7.736 1.943 17.006 5.202 25.61l.254-.098c-6.948-18.338-5.43-39.74-5.177-42.66 5.576 7.054 9.538 15.395 11.77 24.798l.264-.06c-2.272-9.56-6.323-18.032-12.034-25.172l-.207-.26-.033.33c-.012.135-.74 7.543-.04 17.512z"/>
  <path fill="#c78862" d="M357.322 57.6c.55 7.873 2.477 16.972 5.806 27.527l.26-.08c-4.71-14.937-6.602-26.938-5.773-36.67 1.154 1.98 6.735 11.95 10.273 25.66l.26-.065c-3.952-15.32-10.45-25.99-10.514-26.094l-.212-.345-.04.404c-.28 2.998-.3 6.214-.06 9.663z"/>
  <path fill="#c78862" d="M357.396 47.113l.064.896c.646 9.058 3.79 22.203 6.78 33.87l.262-.064c-2.884-11.256-5.91-23.89-6.697-32.88 1.217 3.242 5.493 14.89 8.866 27.404l.26-.073c-3.958-14.682-9.156-28.18-9.206-28.315l-.328-.84z"/>
  <path fill="#c78862" d="M357.396 47.335c.718.72 2.676 6.782 7.912 31.6l.262-.06c-4.216-19.976-6.9-30.65-7.984-31.73l-.19.19zM335.093 73.257c.26 3.67.834 7.137 1.725 10.356l.26-.072c-1.463-5.285-2.074-11.233-1.814-17.685.024-.567.136-3.773.163-4.54 1.175.27 8.796 2.16 16.126 7.974l.168-.215c-7.984-6.33-16.313-8.038-16.395-8.058l-.156-.03-.01.16s-.138 4.057-.164 4.696c-.106 2.552-.07 5.028.097 7.414z"/>
  <path fill="#c78862" d="M335.314 61.514c.77 9.216 2.628 17.463 5.52 24.52l.254-.105c-2.887-7.032-4.737-15.255-5.502-24.44l-.272.024z"/>
  <path fill="#c78862" d="M335.462 61.588c6.242 2.137 11.644 5.267 16.054 9.29l.185-.2c-4.442-4.054-9.875-7.197-16.15-9.344l-.088.254z"/>
  <path fill="#c78862" d="M335.314 61.22l.022.253c.91 9.563 3.58 18.436 7.938 26.382l.237-.134c-4.3-7.84-6.95-16.586-7.877-26.014 1.378.786 8.9 5.264 16.03 13.097l.2-.178c-7.886-8.662-16.242-13.24-16.327-13.286l-.222-.12z"/>
  <path fill="#c78862" d="M335.24 61.22l.075.323c.033.158 3.693 16.05 12.647 30.682l.227-.14c-8.22-13.435-11.962-27.935-12.535-30.277 6.223 4.034 11.707 9.286 16.3 15.61l.222-.162c-4.686-6.447-10.29-11.776-16.662-15.858l-.275-.18z"/>
  <path fill="#c78862" d="M335.536 61.662l.096.406c5.332 22.635 30.01 49.125 30.26 49.387l.198-.186c-.246-.26-24.574-26.375-30.094-48.842 1.692 1.523 9.76 9.04 17.14 19.865l.225-.15c-8.272-12.14-17.415-20.128-17.505-20.208l-.32-.273z"/>
  <path fill="#c78862" d="M335.462 61.367l.356.846c6.82 16.298 29.805 48.87 30.038 49.2l.22-.156c-.23-.326-22.386-31.723-29.627-48.257 3.368 4.172 19.763 24.768 26.47 38.864l.244-.116c-7.472-15.7-26.922-39.434-27.115-39.672l-.588-.71z"/>
  <path fill="#c78862" d="M335.683 61.884c3.018 1.483 29.777 48.388 30.046 48.863l.233-.133c-1.1-1.937-27.07-47.453-30.162-48.974l-.117.244z"/>
  <path fill="#d66d65" d="M409.536 169.486l55.08-59.57c-10.38-12.558-26.045-20.533-43.52-20.533h-66.637l55.076 80.1v.005z"/>
  <path fill="#d66d65" d="M455.99 190.593c13.276-10.365 21.606-26.296 21.606-44.434 0-13.81-4.887-26.43-13.004-36.248l-110.158 119.13H476.4L456.02 190.62z"/>
  <path d="M409.536 169.486v-.004l-55.077-80.1v139.67l55.074-59.563z" stroke="#006163" stroke-miterlimit="10" fill="#b0dfdd" stroke-width=".73852"/>
  <path stroke="#006163" stroke-miterlimit="10" fill="none" d="M356.583 96.225l50.22 73.055-50.22 54.325z" stroke-width=".73852"/>
  <path stroke="#006163" stroke-miterlimit="10" fill="none" d="M358.725 103.093l45.345 65.995-45.345 49.082z" stroke-width=".73852"/>
  <path stroke="#006163" stroke-miterlimit="10" fill="none" d="M360.793 109.96l40.545 58.928-40.545 43.84z" stroke-width=".73852"/>
  <path stroke="#006163" stroke-miterlimit="10" fill="none" d="M362.935 116.756l35.67 51.933-35.67 38.594z" stroke-width=".73852"/>
  <path stroke="#006163" stroke-miterlimit="10" fill="none" d="M365.076 123.624l30.87 44.873-30.87 33.35z" stroke-width=".73852"/>
  <path stroke="#006163" stroke-miterlimit="10" fill="none" d="M367.218 130.492l25.996 37.805-25.996 28.108z" stroke-width=".73852"/>
  <path stroke="#006163" stroke-miterlimit="10" fill="none" d="M369.36 137.346l21.122 30.752-21.122 22.872z" stroke-width=".73852"/>
  <path stroke="#006163" stroke-miterlimit="10" fill="none" d="M371.428 144.2l16.32 23.706-16.32 17.62z" stroke-width=".73852"/>
  <path stroke="#006163" stroke-miterlimit="10" fill="none" d="M373.57 151.053l11.447 16.654-11.448 12.385z" stroke-width=".73852"/>
  <path stroke="#006163" stroke-miterlimit="10" fill="none" d="M375.71 157.906l6.574 9.6-6.573 7.143z" stroke-width=".73852"/>
  <path stroke="#006163" stroke-miterlimit="10" fill="none" d="M377.853 164.76l1.7 2.555-1.7 1.898z" stroke-width=".73852"/>
  <path stroke="#fff" stroke-miterlimit="10" fill="none" d="M306.512 19.714l103.245 149.78" stroke-width=".73852"/>
  <path fill="#c78862" d="M573.266 204.204c-4.512-8.14-4.825-15.634-4.83-15.708l-.007-.14h.14c24.41-.293 36.036 11.385 41.494 21.237 4.64 8.368 5.255 16.163 5.262 16.242l.012.167-.168-.02c-.042-.005-4.083-.547-4.718-.6-22.03-1.797-32.38-12.506-37.187-21.178zm-4.547-15.577c.067 1.066.648 7.977 4.784 15.444 4.773 8.61 15.06 19.25 36.972 21.037.573.045 3.77.47 4.564.58-.122-1.184-.982-8.328-5.214-15.963-5.415-9.766-16.937-21.34-41.107-21.097z"/>
  <path fill="#c78862" d="M572.01 198.96c-3.256-5.874-3.714-10.34-3.72-10.395l.274-.026c.007.07.72 7.023 6.754 14.997 5.567 7.36 16.94 17.12 39.48 21.82l-.056.267c-22.634-4.72-34.056-14.535-39.656-21.94-1.234-1.633-2.246-3.225-3.076-4.723z"/>
  <path fill="#c78862" d="M568.465 188.688v-.273c.1.003 9.81.094 20.334 4.687 9.718 4.242 22.146 13.302 26.143 32.358l-.27.06c-3.976-18.95-16.323-27.948-25.985-32.168-10.473-4.572-20.127-4.66-20.223-4.664z"/>
  <path fill="#c78862" d="M570.68 193.614v-.003c-1.66-2.997-2.39-4.97-2.396-4.99l-.073-.2.213.017c10.61.8 20.303 4.998 28.815 12.468 7.145 6.275 11.955 13.565 14.732 18.574 1.954 3.53 2.904 5.94 2.912 5.96l.094.238-.25-.053c-11.575-2.553-21.722-7.582-30.17-14.945-7.07-6.17-11.447-12.687-13.874-17.066zm-2.062-4.884c.226.57.955 2.32 2.3 4.75 5.22 9.416 17.816 26.045 43.61 31.82-.29-.693-1.21-2.815-2.8-5.686-5.95-10.735-19.452-28.992-43.11-30.884z"/>
  <path fill="#c78862" d="M569.573 191.125c-.454-.82-.885-1.662-1.28-2.49l-.122-.26.28.068c.077.02 7.644 1.893 16.896 6.97 8.54 4.69 20.312 13.145 27.88 26.8.584 1.052 1.142 2.134 1.66 3.218l.143.302-.315-.112c-.324-.115-32.65-11.956-45.142-34.495zm-.902-2.34c.356.737.74 1.48 1.144 2.207 11.776 21.25 41.277 32.963 44.678 34.25-.476-.973-.982-1.95-1.506-2.896-7.537-13.6-19.26-22.018-27.774-26.692-8.214-4.508-15.09-6.482-16.54-6.87z"/>
  <path fill="#c78862" d="M568.022 188.304l.445.14c26.642 8.29 46.22 36.684 46.417 36.97l.24.356-.402-.15c-22.08-8.166-46.16-36.672-46.4-36.958l-.3-.358zm46.38 36.905c-2.36-3.323-20.876-28.445-45.56-36.363 2.87 3.336 25.023 28.538 45.56 36.362z"/>
  <path fill="#c78862" d="M568.022 188.378l.428.056c12.728 1.667 44.758 35.586 45.08 35.927l.63.672-.8-.457c-15.527-8.882-44.724-35.634-45.02-35.903l-.318-.294zm44.642 35.473c-4.62-4.822-31.93-32.9-43.798-35.076 3.246 2.963 29.04 26.312 43.798 35.077z"/>
  <path fill="#c78862" d="M568.982 188.917l.164-.22c1.807 1.35 44.323 33.155 45.467 36.46l-.26.087c-1.116-3.216-44.928-35.996-45.37-36.327zM520.83 225.016l.016-.168c.01-.092.983-9.595 7.316-18.777 3.72-5.393 8.537-9.63 14.31-12.588 7.212-3.694 15.95-5.392 25.972-5.04l.14.002-.01.14c-.006.085-.553 8.482-6.09 17.063-5.11 7.92-15.634 17.617-36.755 18.854-.636.043-4.693.493-4.734.497l-.166.02zm47.46-36.307c-22.477-.737-34.1 9.11-39.895 17.508-5.832 8.453-7.092 17.175-7.256 18.49.792-.09 4-.445 4.572-.478 21.01-1.23 31.466-10.866 36.543-18.73 5.105-7.913 5.938-15.66 6.035-16.79z"/>
  <path fill="#c78862" d="M521.274 224.558l-.05-.27c22.655-4.186 34.244-13.69 39.978-20.93 6.204-7.83 7.074-14.75 7.082-14.82l.273.03c-.008.07-.887 7.066-7.142 14.958-5.758 7.278-17.402 16.832-40.14 21.032z"/>
  <path fill="#c78862" d="M521.126 224.395c4.43-18.96 17.062-27.733 26.873-31.756 10.628-4.353 20.335-4.225 20.43-4.222l-.007.276c-.094 0-9.76-.132-20.333 4.204-9.75 3.997-22.3 12.717-26.7 31.562l-.267-.065z"/>
  <path fill="#c78862" d="M521.052 224.61l.1-.235c.033-.088 3.653-8.655 11.256-17.313 7.02-8.003 18.97-17.725 36.032-18.63l.212-.008-.076.2c-.03.074-2.913 7.313-10.15 15.32-6.68 7.386-18.54 16.96-37.123 20.618l-.25.048zm47.185-35.887c-16.85.964-28.665 10.594-35.622 18.518-6.864 7.822-10.467 15.557-11.107 17.002 18.353-3.678 30.087-13.155 36.706-20.474 6.537-7.23 9.508-13.83 10.023-15.045z"/>
  <path fill="#c78862" d="M520.978 224.66l.15-.297c7.512-14.848 19.963-23.823 29.086-28.742 9.88-5.324 18.095-7.166 18.175-7.185l.284-.057-.13.257c-6.255 12.488-18.77 21.59-28.168 27.028-10.178 5.887-18.99 8.864-19.08 8.893l-.318.105zm47.19-35.885c-1.533.37-9.015 2.34-17.833 7.088-9.02 4.87-21.31 13.72-28.805 28.32 1.674-.59 9.65-3.52 18.716-8.76 9.296-5.378 21.652-14.357 27.92-26.648z"/>
  <path fill="#c78862" d="M521.495 224.174l.246-.348c.2-.277 19.848-27.703 46.673-35.384l.446-.13-.308.35c-.24.28-24.39 27.715-46.65 35.375l-.407.137zm46.535-35.334c-24.84 7.343-43.42 31.564-45.804 34.79 20.694-7.34 42.906-31.56 45.804-34.79z"/>
  <path fill="#c78862" d="M521.57 224.285l.644-.664c.333-.333 33.477-33.8 46.238-35.18l.433-.045-.327.286c-.305.264-30.454 26.635-46.178 35.164l-.81.44zm46.46-35.513c-11.92 1.913-40.167 29.61-44.933 34.357 14.97-8.44 41.595-31.45 44.934-34.358z"/>
  <path fill="#c78862" d="M521.422 224.1c1.218-3.278 44.442-34.105 46.278-35.417l.16.224c-.448.322-44.99 32.09-46.183 35.29l-.255-.097zM538.703 249.483l-.075-.154c-.06-.124-5.81-12.26-2.57-26.43l.266.058c-3.018 13.215 1.827 24.647 2.48 26.097.632-.49 3.186-2.455 3.66-2.787 20.737-14.333 22.86-30.99 20.984-42.442l.274-.04c1.122 6.855.478 13.534-1.903 19.852-3.253 8.612-9.713 16.305-19.198 22.86-.525.364-3.754 2.852-3.788 2.88l-.13.105z"/>
  <path fill="#c78862" d="M538.703 248.65c19.3-17.237 23.483-33.007 23.598-43.195l.277.005c-.11 10.245-4.316 26.087-23.692 43.394l-.182-.205z"/>
  <path fill="#c78862" d="M538.703 248.796c-2.98-9.084-3.29-17.93-.925-26.28l.264.073c-2.348 8.3-2.038 17.092.922 26.12l-.26.086z"/>
  <path fill="#c78862" d="M538.703 249.033l-.038-.256c-.02-.13-1.904-13.003 2.12-27.177l.263.075c-3.694 13.01-2.39 24.917-2.146 26.802 15.087-13.885 19.935-29.586 21.34-40.334l.272.035c-1.417 10.84-6.318 26.7-21.623 40.68l-.187.175z"/>
  <path fill="#c78862" d="M538.703 249.1l-.025-.337c-.722-9.243.715-18.643 4.264-27.934l.256.097c-3.49 9.14-4.927 18.38-4.273 27.473 1.875-2.296 15.37-19.31 20.002-38.614l.268.062c-4.974 20.727-20.123 38.817-20.273 38.996l-.22.255z"/>
  <path fill="#c78862" d="M538.998 248.154l.02-.415c.008-.125.716-12.755 6.14-27.82l.257.09c-4.853 13.484-5.92 24.998-6.098 27.317 6.335-7.753 11.62-18.86 16.158-33.935l.262.08c-4.61 15.324-10 26.566-16.478 34.357l-.262.324z"/>
  <path fill="#c78862" d="M539.072 248.154l.192-.867c3.388-15.13 4.46-18.032 6.41-23.296.52-1.412 1.114-3.016 1.828-5.073l.258.09c-.712 2.062-1.306 3.665-1.828 5.08-1.906 5.15-2.97 8.03-6.2 22.373 4.727-8.378 9.446-20.805 13.06-30.79l.263.094c-3.736 10.315-8.65 23.235-13.537 31.625l-.446.764z"/>
  <path fill="#c78862" d="M538.777 248.39c-.293-1.523 3.545-11.988 11.406-31.097l.257.108c-9.767 23.738-11.587 29.928-11.395 30.937l-.268.053zM576.737 229.838c-1.092-1.97-2.002-3.988-2.73-6.058-2.242-6.37-2.73-13.063-1.452-19.89l.268.046c-2.13 11.407-.39 28.113 20.015 42.915.468.337 2.975 2.358 3.598 2.86.686-1.434 5.793-12.755 3.072-26.027l.27-.06c2.916 14.243-3.114 26.246-3.173 26.367l-.076.15-.133-.106c-.033-.03-3.205-2.59-3.72-2.966-7.11-5.153-12.45-10.93-15.94-17.23z"/>
  <path fill="#c78862" d="M580.208 229.425c-5.232-9.44-6.592-17.67-6.52-23.836l.274.003c-.12 10.19 3.703 26.047 22.608 43.717l-.187.202c-7.554-7.063-12.714-13.843-16.175-20.087z"/>
  <path fill="#c78862" d="M596.382 249.365c3.165-8.964 3.674-17.742 1.516-26.092l.262-.072c2.174 8.407 1.662 17.24-1.52 26.254l-.258-.09z"/>
  <path fill="#c78862" d="M583.53 232.91c-5.03-9.077-7.058-17.803-7.786-24.56l.273-.03c1.157 10.778 5.644 26.582 20.418 40.81.286-1.88 1.86-13.753-1.538-26.843l.268-.072c3.7 14.263 1.52 27.09 1.5 27.22l-.047.253-.186-.183c-5.664-5.415-9.84-11.07-12.9-16.594z"/>
  <path fill="#c78862" d="M586.707 234.66c-3.803-6.865-7.724-15.505-9.693-24.61l.27-.06c4.193 19.41 17.293 36.727 19.117 39.066.866-9.076-.36-18.35-3.645-27.563l.258-.097c3.338 9.37 4.56 18.804 3.63 28.026l-.034.335-.21-.26c-.085-.108-4.792-5.992-9.693-14.836z"/>
  <path fill="#c78862" d="M590.62 240.325c-3.87-6.984-7.25-15.77-10.235-26.572l.266-.075c4.226 15.282 9.233 26.513 15.308 34.31-.11-2.317-.852-13.87-5.4-27.464l.26-.088c5.084 15.19 5.43 27.842 5.43 27.966l.01.41-.255-.32c-1.892-2.39-3.686-5.106-5.382-8.167z"/>
  <path fill="#c78862" d="M596.455 249.173l-.438-.796c-4.447-8.044-9.018-20.94-12.907-32.497l.26-.09c3.75 11.15 8.14 23.546 12.43 31.61-.75-3.426-3.533-15.676-7.56-28.163l.26-.084c4.727 14.65 7.74 28.983 7.772 29.126l.183.893z"/>
  <path fill="#c78862" d="M596.308 248.996c.215-1.01-1.46-7.24-10.69-31.197l.257-.096c7.428 19.285 11.028 29.83 10.7 31.346l-.267-.054zM563 239.35c-1.804-3.258-3.226-6.518-4.242-9.743l.26-.082c1.672 5.295 4.43 10.68 8.21 16.01.333.47 2.2 3.127 2.644 3.762.853-.878 6.304-6.706 9.346-15.7l.26.088c-3.312 9.796-9.47 15.86-9.527 15.924l-.117.11-.094-.132s-2.358-3.364-2.732-3.892c-1.497-2.108-2.835-4.23-4.008-6.345z"/>
  <path fill="#c78862" d="M569.72 249.195c-4.427-8.245-7.392-16.273-8.82-23.862l.273-.052c1.418 7.565 4.378 15.566 8.79 23.784l-.242.13z"/>
  <path fill="#c78862" d="M569.72 249.047c4.143-5.27 7.02-10.92 8.56-16.778l.267.067c-1.548 5.9-4.447 11.58-8.61 16.88l-.216-.17z"/>
  <path fill="#c78862" d="M569.795 249.424l-.12-.227c-4.5-8.618-7.12-17.626-7.788-26.783l.275-.017c.658 9.034 3.227 17.924 7.636 26.437.742-1.43 4.68-9.396 6.438-19.995l.27.04c-1.945 11.72-6.54 20.234-6.59 20.32l-.12.224z"/>
  <path fill="#c78862" d="M569.795 249.49l-.115-.316c-.057-.153-5.706-15.664-6.146-33.04l.274-.01c.405 15.955 5.213 30.333 6.016 32.636 3.078-6.872 4.855-14.365 5.284-22.277l.277.016c-.438 8.063-2.274 15.69-5.453 22.685l-.137.305z"/>
  <path fill="#c78862" d="M569.795 248.95l-.142-.397c-7.943-22.16-1.518-58.31-1.45-58.672l.27.05c-.07.356-6.398 35.993 1.29 58.115.602-2.23 3.333-13.08 3.65-26.353l.275.003c-.355 14.885-3.74 26.73-3.774 26.846l-.12.41z"/>
  <path fill="#c78862" d="M569.87 249.202l-.165-.915c-3.178-17.607-1.553-57.98-1.538-58.39l.273.012c-.014.402-1.58 39.32 1.37 57.36.568-5.406 3.18-31.966 1.122-47.642l.273-.04c2.29 17.462-1.193 48.38-1.227 48.686l-.11.928z"/>
  <path fill="#c78862" d="M569.72 248.663c1.753-2.93-1.31-57.554-1.345-58.107l.273-.017c.13 2.254 3.102 55.26 1.308 58.266l-.235-.143z"/>
  <path fill="#eeefa0" d="M510.935 246.485c2.158-3.765 6.96-5.067 10.723-2.91 3.765 2.16 5.067 6.96 2.91 10.725-.44.764-1.968 2.164-2.562 2.477-2.804 1.475-11.025 5.853-13.046 7.61 0 0 1.057-10.773 1.126-14.443.01-.546.418-2.708.85-3.46zM629.098 246.485c-2.158-3.765-6.96-5.067-10.724-2.91s-5.066 6.96-2.908 10.725c.44.764 1.967 2.164 2.56 2.477 2.804 1.475 11.026 5.853 13.048 7.61 0 0-1.057-10.773-1.128-14.443-.01-.546-.417-2.708-.848-3.46z"/>
  <path fill="#d66d65" d="M612.63 89.06l-21.895 37.1-21.175 35.878-43.062-72.977H486.48l83.077 140.793 40.85-69.216 42.24-71.573H612.63z"/>
  <path d="M569.573 89.06H526.51l43.063 72.978 21.175-35.878 21.894-37.1h-43.07z" stroke="#006163" stroke-miterlimit="10" fill="none" stroke-width=".73852"/>
  <path fill="#b0dfdd" d="M530.284 91.203h78.58l-39.29 66.585"/>
  <path stroke="#006163" stroke-miterlimit="10" fill="none" d="M530.284 91.203h78.58l-39.29 66.585z" stroke-width=".73852"/>
  <path stroke="#006163" stroke-miterlimit="10" fill="none" d="M534.124 93.42h70.972l-35.523 60.114z" stroke-width=".73852"/>
  <path stroke="#006163" stroke-miterlimit="10" fill="none" d="M537.89 95.56h63.44l-31.757 53.72z" stroke-width=".73852"/>
  <path stroke="#006163" stroke-miterlimit="10" fill="none" d="M541.657 97.702h55.832l-27.917 47.325z" stroke-width=".73852"/>
  <path stroke="#006163" stroke-miterlimit="10" fill="none" d="M545.424 99.844h48.3l-24.15 40.93z" stroke-width=".73852"/>
  <path stroke="#006163" stroke-miterlimit="10" fill="none" d="M549.264 102.06h40.692l-20.383 34.46z" stroke-width=".73852"/>
  <path stroke="#006163" stroke-miterlimit="10" fill="none" d="M553.03 104.2h33.086l-16.543 28.065z" stroke-width=".73852"/>
  <path stroke="#006163" stroke-miterlimit="10" fill="none" d="M556.797 106.343h25.553l-12.777 21.638z" stroke-width=".73852"/>
  <path stroke="#006163" stroke-miterlimit="10" fill="none" d="M560.563 108.558h18.02l-9.01 15.214z" stroke-width=".73852"/>
  <path stroke="#006163" stroke-miterlimit="10" fill="none" d="M564.404 110.7h10.413l-5.244 8.788z" stroke-width=".73852"/>
  <path stroke="#fff" stroke-miterlimit="10" fill="none" d="M612.63 89.06L521.2 243.517M526.37 89.06l91.43 154.456" stroke-width=".73852"/>
  <path fill="#c78862" d="M719.272 96.3c-.644 9.168-4.403 15.542-4.44 15.606l-.07.118-.118-.075c-20.286-12.9-23.613-28.828-22.834-39.925.662-9.426 4.333-16.213 4.37-16.282l.08-.144.127.106c.033.027 3.073 2.65 3.57 3.038C717.162 72.09 719.954 86.53 719.27 96.3zm-4.602 15.345c.515-.92 3.742-6.956 4.334-15.365.68-9.7-2.1-24.047-19.212-37.323-.45-.346-2.858-2.42-3.454-2.937-.535 1.046-3.655 7.426-4.26 16.025-.77 11.003 2.528 26.79 22.592 39.6z"/>
  <path fill="#c78862" d="M717.5 101.32c-.465 6.62-2.48 10.562-2.506 10.61l-.242-.124c.036-.06 3.172-6.205 2.47-16.054-.644-9.092-4.79-23.297-20.858-39.322l.19-.192c16.135 16.093 20.293 30.368 20.94 39.515.143 2.018.125 3.88.01 5.568z"/>
  <path fill="#c78862" d="M714.914 111.734l-.146.225c-.08-.055-8.04-5.36-14.258-14.827-5.74-8.746-11.132-22.938-4.212-40.87l.253.097c-6.878 17.832-1.52 31.93 4.186 40.624 6.186 9.424 14.1 14.695 14.178 14.75z"/>
  <path fill="#c78862" d="M715.653 106.417c-.237 3.376-.694 5.403-.7 5.422l-.045.205-.168-.127c-8.32-6.376-14.065-15.07-17.08-25.837-2.527-9.04-2.586-17.667-2.19-23.31.28-3.976.79-6.483.794-6.505l.05-.247.177.178c8.18 8.344 13.85 17.972 16.87 28.616 2.523 8.917 2.64 16.67 2.29 21.602zm-.916 5.154c.118-.59.456-2.435.648-5.17.745-10.607-.726-31.157-18.903-49.826-.134.73-.514 2.982-.74 6.217-.85 12.092.498 34.48 18.995 48.78z"/>
  <path fill="#c78862" d="M715.284 109.075c-.065.925-.16 1.852-.28 2.753l-.04.28-.192-.208c-.054-.056-5.29-5.68-10.198-14.867-4.53-8.48-9.705-21.818-8.624-37.2.083-1.185.204-2.38.357-3.557l.043-.327.2.26c.206.27 20.516 27.477 18.734 52.865zm-.51 2.425c.102-.802.184-1.624.24-2.444 1.682-23.937-16.37-49.516-18.482-52.414-.13 1.062-.236 2.144-.312 3.21-1.074 15.317 4.08 28.602 8.595 37.053 4.357 8.155 8.966 13.49 9.958 14.595z"/>
  <path fill="#c78862" d="M715.062 112.25l-.292-.354c-17.53-21.206-18.45-55.26-18.458-55.6l-.008-.425.25.342c13.834 18.648 18.41 55.216 18.454 55.582l.054.457zM696.6 56.725c.165 4.02 1.966 34.79 18.077 54.636-.577-4.308-5.335-37.102-18.078-54.636z"/>
  <path fill="#c78862" d="M715.062 112.177l-.323-.277c-9.604-8.233-17.834-53.56-17.915-54.018l-.16-.895.413.81c8.043 15.713 17.78 53.582 17.877 53.964l.107.417zm-17.797-53.405c1.225 6.48 8.693 44.433 17.314 52.624-1.09-4.2-9.845-37.42-17.315-52.624z"/>
  <path fill="#c78862" d="M714.545 111.217l-.253.095c-.767-2.09-18.78-51.315-17.95-54.667l.264.068c-.805 3.263 17.75 53.993 17.94 54.504zM773.627 107.303l-.104.13c-.057.07-5.955 7.417-16.102 11.61-5.96 2.464-12.203 3.38-18.55 2.722-7.93-.823-16.045-4.124-24.122-9.807l-.112-.077.08-.11c.048-.07 5.005-6.727 14.17-10.852 8.462-3.805 22.34-6.17 40.423 4.174.544.308 4.13 2.118 4.168 2.138l.15.073zm-58.61 4.516c18.143 12.708 33.007 10.812 42.29 6.976 9.344-3.86 15.06-10.403 15.9-11.404-.703-.354-3.54-1.786-4.03-2.067-17.985-10.29-31.775-7.942-40.178-4.163-8.454 3.806-13.295 9.773-13.982 10.657z"/>
  <path fill="#c78862" d="M773.036 107.377l-.103.25c-20.93-8.73-35.584-7.097-44.193-4.19-9.316 3.145-13.743 8.407-13.79 8.46l-.206-.17c.044-.054 4.52-5.375 13.91-8.543 8.652-2.927 23.376-4.57 44.382 4.193z"/>
  <path fill="#c78862" d="M773.11 107.598c-13.818 13.314-28.94 13.78-39.19 11.83-11.098-2.12-19.036-7.452-19.112-7.505l.15-.225c.078.05 7.977 5.36 19.024 7.463 10.184 1.94 25.21 1.476 38.942-11.76l.186.198z"/>
  <path fill="#c78862" d="M773.258 107.524l-.21.14c-.075.056-7.65 5.2-18.564 8.278-10.08 2.847-25.15 4.466-39.705-3.97l-.18-.108.17-.127c.062-.044 6.323-4.486 16.585-7.22 9.47-2.52 24.385-4.064 41.67 2.91l.233.097zm-58.156 4.316c14.415 8.274 29.32 6.66 39.307 3.843 9.855-2.78 16.974-7.247 18.275-8.1-17.108-6.834-31.866-5.302-41.25-2.805-9.268 2.466-15.256 6.333-16.333 7.062z"/>
  <path fill="#c78862" d="M773.33 107.45l-.283.167c-14.156 8.252-29.237 8.98-39.396 8.142-11.005-.91-18.767-3.807-18.843-3.836l-.265-.104.245-.143c11.854-6.974 27.055-7.774 37.72-7.218 11.55.604 20.416 2.883 20.504 2.908l.32.083zm-58.157 4.312c1.462.52 8.69 2.913 18.51 3.73 10.047.825 24.93.113 38.937-7.942-1.696-.414-9.846-2.282-20.133-2.822-10.552-.552-25.555.23-37.314 7.034z"/>
  <path fill="#c78862" d="M772.667 107.598l-.39.158c-.31.122-31.22 12.255-57.46 4.174l-.44-.132.443-.125c.345-.102 34.975-9.82 57.44-4.18l.407.105zm-57.324 4.208c24.423 7.29 52.735-2.76 56.432-4.15-21.004-5.063-52.308 3.034-56.432 4.15z"/>
  <path fill="#c78862" d="M772.667 107.524l-.887.2c-.454.1-45.734 9.97-56.997 4.24l-.382-.194.424-.06c.392-.055 39.397-5.66 56.937-4.257l.907.07zm-57.358 4.394c10.854 4.835 49.003-2.895 55.477-4.26-16.87-1.072-51.165 3.65-55.478 4.26z"/>
  <path fill="#c78862" d="M772.667 107.746c-2.763 2.058-54.94 4.316-57.158 4.414l-.013-.27c.544-.025 54.31-2.354 57.01-4.36l.16.216zM772.002 77.393l-.02.167c-.016.133-1.78 13.28-12.05 23.27l-.188-.194c9.573-9.316 11.71-21.39 11.946-22.943-.783.065-3.946.316-4.51.336-24.79.705-35.47 13.355-40.064 23.847l-.248-.114c2.752-6.28 6.862-11.464 12.213-15.414 7.303-5.38 16.754-8.273 28.09-8.595.63-.02 4.627-.342 4.667-.348l.165-.014z"/>
  <path fill="#c78862" d="M771.56 78.057c-25.16 3.882-37.065 14.69-42.622 23.062l-.224-.152c5.584-8.424 17.546-19.28 42.804-23.18l.04.27z"/>
  <path fill="#c78862" d="M771.707 77.983c-2.413 9.126-6.9 16.62-13.327 22.26l-.18-.203c6.388-5.608 10.846-13.055 13.247-22.127l.26.07z"/>
  <path fill="#c78862" d="M771.78 77.762l-.106.232c-.053.117-5.4 11.792-16.32 21.362l-.176-.204c10.022-8.784 15.33-19.346 16.14-21.036-19.887 3.373-32.305 13.766-39.224 21.912l-.208-.176c6.982-8.216 19.527-18.708 39.646-22.046l.248-.044z"/>
  <path fill="#c78862" d="M771.854 77.688l-.16.29c-4.36 8.044-10.584 15.054-18.494 20.838l-.158-.22c7.78-5.69 13.92-12.568 18.255-20.45-2.78.893-23.032 7.715-37.2 21.21l-.187-.198c15.216-14.485 37.407-21.31 37.627-21.377l.317-.092z"/>
  <path fill="#c78862" d="M771.042 78.353l-.24.33c-.07.1-7.427 10.177-19.978 19.734l-.164-.215c11.23-8.552 18.287-17.51 19.675-19.337-9.38 3.01-19.696 9.36-31.52 19.4l-.176-.206c12.02-10.208 22.492-16.615 32.014-19.58l.388-.127z"/>
  <path fill="#c78862" d="M771.042 78.28l-.623.613c-10.91 10.707-13.347 12.53-17.776 15.84-1.188.89-2.538 1.9-4.23 3.217l-.164-.213c1.692-1.323 3.043-2.33 4.23-3.22 4.334-3.24 6.758-5.054 17.11-15.19-8.39 4.39-18.947 12.14-27.28 18.465l-.166-.22c8.612-6.53 19.59-14.584 28.12-18.9l.778-.393z"/>
  <path fill="#c78862" d="M771.41 78.28c-.575 1.417-9.35 8.016-26.08 19.61l-.153-.23c20.782-14.398 25.604-18.543 25.985-19.482l.25.1zM730.128 73.183c-.156 2.217-.486 4.38-.997 6.487-1.567 6.482-4.75 12.286-9.467 17.25l-.195-.182c7.873-8.297 15.395-23.07 6.503-46.31-.205-.532-1.188-3.555-1.433-4.307-1.334.82-11.616 7.444-16.49 19.9l-.254-.094c5.23-13.366 16.64-20.06 16.754-20.127l.145-.083.05.158c.013.042 1.253 3.87 1.48 4.458 3.1 8.095 4.404 15.754 3.906 22.85z"/>
  <path fill="#c78862" d="M727.026 71.632c-.748 10.635-4.037 18.18-7.402 23.248l-.225-.15c5.56-8.373 10.91-23.562 4.793-48.37l.262-.07c2.443 9.92 3.064 18.31 2.57 25.342z"/>
  <path fill="#c78862" d="M724.367 46.45c-7.417 5.715-12.543 12.712-15.24 20.787l-.255-.08c2.714-8.134 7.872-15.17 15.33-20.922l.165.214z"/>
  <path fill="#c78862" d="M726.214 66.98c-.717 10.225-3.724 18.542-6.747 24.53l-.24-.123c4.824-9.548 9.597-25.05 5.04-44.785-1.244 1.402-8.908 10.387-13.124 23.055l-.26-.085c4.596-13.803 13.27-23.25 13.358-23.346l.174-.186.056.253c1.77 7.535 2.18 14.464 1.744 20.687z"/>
  <path fill="#c78862" d="M724.515 63.804c-.542 7.73-1.943 16.998-5.2 25.596l-.254-.096c6.948-18.328 5.43-39.72 5.178-42.64-5.578 7.05-9.54 15.39-11.77 24.787l-.265-.06c2.273-9.555 6.323-18.022 12.034-25.16l.206-.26.035.33c.01.135.74 7.54.037 17.504z"/>
  <path fill="#c78862" d="M724.294 57.01c-.55 7.868-2.477 16.963-5.805 27.515l-.262-.082c4.71-14.93 6.603-26.924 5.774-36.652-1.154 1.98-6.735 11.946-10.274 25.65l-.26-.066c3.952-15.313 10.45-25.98 10.515-26.082l.212-.345.04.404c.278 2.997.302 6.212.06 9.66z"/>
  <path fill="#c78862" d="M724.294 46.596l-.065.895c-.646 9.055-3.792 22.195-6.78 33.86l-.262-.068c2.883-11.25 5.91-23.877 6.696-32.865-1.217 3.24-5.493 14.882-8.866 27.392l-.26-.072c3.958-14.677 9.157-28.168 9.208-28.303l.328-.84z"/>
  <path fill="#c78862" d="M724.294 46.818c-.72.72-2.675 6.78-7.912 31.586l-.262-.06c4.216-19.966 6.9-30.635 7.984-31.716l.19.19zM746.597 72.74c-.26 3.67-.833 7.134-1.725 10.353l-.26-.073c1.46-5.285 2.074-11.23 1.813-17.68-.023-.564-.135-3.77-.163-4.537-1.175.27-8.795 2.16-16.127 7.97l-.166-.214c7.983-6.327 16.312-8.035 16.394-8.057l.156-.028.008.16s.14 4.054.166 4.693c.106 2.55.07 5.028-.097 7.412z"/>
  <path fill="#c78862" d="M746.3 60.924c-.767 9.21-2.626 17.455-5.52 24.507l-.253-.103c2.888-7.028 4.737-15.247 5.503-24.426l.27.024z"/>
  <path fill="#c78862" d="M746.228 61.07c-6.242 2.136-11.645 5.265-16.057 9.288l-.183-.2c4.443-4.054 9.878-7.195 16.153-9.34l.088.253z"/>
  <path fill="#c78862" d="M746.3 60.702l-.02.254c-.91 9.557-3.58 18.427-7.938 26.37l-.238-.134c4.303-7.836 6.95-16.58 7.878-26.003-1.377.785-8.898 5.26-16.028 13.09l-.2-.18c7.885-8.657 16.242-13.232 16.328-13.278l.22-.12z"/>
  <path fill="#c78862" d="M746.375 60.628l-.074.324c-.033.157-3.693 16.044-12.646 30.668l-.23-.14c8.22-13.43 11.964-27.922 12.536-30.263-6.223 4.033-11.707 9.28-16.302 15.603l-.22-.162c4.686-6.444 10.29-11.77 16.662-15.85l.275-.18z"/>
  <path fill="#c78862" d="M746.154 61.145l-.098.406c-5.33 22.627-30.01 49.103-30.26 49.366l-.2-.186c.248-.26 24.577-26.36 30.096-48.82-1.69 1.524-9.76 9.04-17.14 19.858l-.224-.15c8.273-12.134 17.416-20.12 17.507-20.2l.32-.273z"/>
  <path fill="#c78862" d="M746.154 60.85l-.358.846c-6.815 16.29-29.803 48.847-30.038 49.178l-.218-.157c.227-.326 22.386-31.71 29.626-48.234-3.37 4.17-19.763 24.756-26.47 38.845l-.246-.115c7.473-15.692 26.922-39.417 27.116-39.654l.588-.71z"/>
  <path fill="#c78862" d="M746.006 61.367c-3.018 1.483-29.776 48.364-30.045 48.84l-.233-.133c1.1-1.935 27.07-47.43 30.16-48.952l.12.245z"/>
  <path fill="#eeefa0" d="M781.234 29.02c-2.647 3.363-7.508 3.934-10.857 1.277-3.348-2.656-3.92-7.536-1.272-10.9.537-.684 2.23-1.828 2.85-2.046 2.944-1.032 11.577-4.11 13.8-5.53 0 0-2.593 10.37-3.196 13.944-.09.53-.798 2.584-1.326 3.255z"/>
  <path stroke="#fff" stroke-miterlimit="10" fill="none" d="M771.41 29.98l-90.32 114.648" stroke-width=".73852"/>
  <path fill="#d66d65" d="M681.09 89.357h43.573L681.09 144.79M724.663 228.996H681.09v-35.714"/>
  <path stroke="#006163" stroke-miterlimit="10" fill="#b0dfdd" d="M681.09 144.79l43.573-55.433v139.64L681.09 193.28z" stroke-width=".73852"/>
  <path stroke="#006163" stroke-miterlimit="10" fill="none" d="M722.52 95.56l-39.362 49.97v46.732L722.52 224.5z" stroke-width=".73852"/>
  <path stroke="#006163" stroke-miterlimit="10" fill="none" d="M720.453 101.69L685.3 146.275v44.976L720.453 220z" stroke-width=".73852"/>
  <path stroke="#006163" stroke-miterlimit="10" fill="none" d="M718.312 107.82l-30.87 39.193v43.226l30.87 25.264z" stroke-width=".73852"/>
  <path stroke="#006163" stroke-miterlimit="10" fill="none" d="M716.17 113.95l-26.587 33.81v41.46l26.587 21.786z" stroke-width=".73852"/>
  <path stroke="#006163" stroke-miterlimit="10" fill="none" d="M714.028 120.08l-22.303 28.418v39.71l22.303 18.3z" stroke-width=".73852"/>
  <path stroke="#006163" stroke-miterlimit="10" fill="none" d="M711.886 126.283l-18.093 22.96v37.953l18.093 14.815z" stroke-width=".73852"/>
  <path stroke="#006163" stroke-miterlimit="10" fill="none" d="M709.82 132.413l-13.886 17.57v36.2l13.885 11.33z" stroke-width=".73852"/>
  <path stroke="#006163" stroke-miterlimit="10" fill="none" d="M707.677 138.55l-9.6 12.178v34.437l9.6 7.85z" stroke-width=".73852"/>
  <path stroke="#006163" stroke-miterlimit="10" fill="none" d="M705.535 144.694l-5.317 6.772v32.687l5.317 4.365z" stroke-width=".73852"/>
  <path stroke="#006163" stroke-miterlimit="10" fill="none" d="M703.393 150.84l-1.034 1.372v30.93l1.033.878z" stroke-width=".73852"/>
  <path stroke="#fff" stroke-miterlimit="10" fill="none" d="M171.768 296.076L284.356 174.87" stroke-width=".73852"/>
  <path fill="#eeefa0" d="M162.182 293.772c3.05-3.01 7.945-2.957 10.93.117 2.986 3.073 2.934 8.004-.116 11.015-.62.61-2.442 1.534-3.087 1.672-3.05.652-12.004 2.61-14.388 3.74 0 0 3.883-9.992 4.934-13.474.153-.516 1.117-2.47 1.726-3.07z"/>
  <path fill="#c78862" d="M235.2 239.262c.643-9.204 4.402-15.6 4.44-15.666l.07-.12.117.077c20.286 12.947 23.612 28.937 22.833 40.075-.662 9.462-4.333 16.273-4.368 16.344l-.082.144-.126-.107c-.033-.028-3.073-2.663-3.57-3.05-17.205-13.4-20-27.892-19.314-37.698zm4.602-15.403c-.515.92-3.742 6.98-4.334 15.42-.682 9.736 2.1 24.14 19.212 37.466.45.347 2.858 2.43 3.453 2.948.535-1.05 3.655-7.453 4.26-16.086.77-11.045-2.527-26.89-22.59-39.75z"/>
  <path fill="#c78862" d="M236.987 234.233c.464-6.643 2.48-10.6 2.505-10.65l.24.124c-.033.062-3.17 6.23-2.47 16.116.645 9.126 4.792 23.385 20.86 39.47l-.19.194c-16.135-16.155-20.293-30.485-20.94-39.665-.143-2.025-.125-3.895-.005-5.59z"/>
  <path fill="#c78862" d="M239.543 223.753l.146-.227c.077.055 8.038 5.38 14.256 14.883 5.74 8.778 11.132 23.023 4.212 41.023l-.254-.097c6.88-17.9 1.523-32.05-4.184-40.78-6.186-9.457-14.1-14.75-14.177-14.803z"/>
  <path fill="#c78862" d="M238.774 229.078v-.003c.237-3.39.692-5.424.698-5.442l.046-.206.168.128c8.32 6.4 14.065 15.125 17.08 25.933 2.528 9.077 2.587 17.735 2.19 23.4-.28 3.99-.79 6.508-.792 6.53l-.05.248-.18-.178c-8.176-8.377-13.848-18.04-16.87-28.725-2.52-8.95-2.637-16.734-2.29-21.685zm.918-5.174c-.12.595-.457 2.446-.65 5.19-.743 10.648.73 31.276 18.905 50.015.133-.732.512-2.994.74-6.24.848-12.136-.5-34.608-18.995-48.966z"/>
  <path fill="#c78862" d="M239.188 226.404c.065-.927.16-1.86.28-2.76l.04-.283.193.21c.054.056 5.288 5.702 10.197 14.925 4.53 8.51 9.706 21.9 8.625 37.34-.083 1.19-.203 2.39-.357 3.57l-.043.33-.2-.264c-.207-.27-20.517-27.58-18.734-53.066zm.51-2.433c-.102.807-.184 1.63-.24 2.454-1.68 24.027 16.368 49.703 18.48 52.61.13-1.063.237-2.15.314-3.22 1.075-15.374-4.08-28.71-8.595-37.194-4.358-8.184-8.967-13.54-9.96-14.65z"/>
  <path fill="#c78862" d="M239.41 223.22l.292.356c17.53 21.287 18.45 55.47 18.458 55.81l.01.428-.253-.342c-13.833-18.72-18.407-55.425-18.453-55.793l-.054-.46zm18.463 55.74c-.165-4.04-1.966-34.925-18.08-54.845.58 4.323 5.338 37.242 18.08 54.844z"/>
  <path fill="#c78862" d="M239.365 223.28l.324.277c9.603 8.265 17.83 53.765 17.912 54.223l.162.898-.413-.81c-8.043-15.775-17.78-53.79-17.878-54.173l-.107-.415zm17.796 53.608c-1.222-6.507-8.69-44.603-17.312-52.823 1.09 4.216 9.844 37.562 17.313 52.823z"/>
  <path fill="#c78862" d="M239.882 224.255l.254-.095c.765 2.1 18.777 51.51 17.95 54.874l-.264-.068c.805-3.277-17.753-54.2-17.94-54.71zM180.8 228.228l.103-.13c.058-.072 5.956-7.445 16.102-11.656 5.962-2.472 12.205-3.392 18.55-2.73 7.93.826 16.047 4.14 24.123 9.844l.113.078-.078.112c-.05.068-5.006 6.75-14.173 10.892-8.46 3.82-22.34 6.194-40.423-4.19-.545-.31-4.133-2.128-4.17-2.145l-.146-.075zm58.607-4.533c-18.14-12.758-33.006-10.854-42.29-7.005-9.343 3.873-15.06 10.444-15.898 11.448.702.354 3.537 1.793 4.027 2.074 17.988 10.33 31.777 7.972 40.182 4.18 8.45-3.82 13.293-9.81 13.977-10.697z"/>
  <path fill="#c78862" d="M181.42 228.095l.104-.252c20.928 8.764 35.583 7.125 44.193 4.207 9.316-3.157 13.743-8.44 13.788-8.493l.21.172c-.046.053-4.522 5.395-13.912 8.574-8.653 2.94-23.376 4.587-44.382-4.21z"/>
  <path fill="#c78862" d="M181.384 227.874c13.82-13.366 28.94-13.832 39.19-11.876 11.098 2.128 19.036 7.48 19.113 7.534l-.15.227c-.08-.05-7.98-5.383-19.025-7.493-10.185-1.948-25.208-1.48-38.942 11.804l-.186-.196z"/>
  <path fill="#c78862" d="M181.192 228.007l.208-.143c.076-.054 7.652-5.218 18.564-8.308 10.08-2.857 25.152-4.48 39.707 3.986l.18.108-.17.127c-.062.044-6.323 4.504-16.584 7.248-9.47 2.53-24.385 4.078-41.67-2.924l-.234-.093zm58.155-4.332c-14.415-8.305-29.322-6.685-39.307-3.857-9.854 2.79-16.974 7.273-18.275 8.128 17.11 6.86 31.864 5.323 41.25 2.817 9.267-2.476 15.257-6.356 16.332-7.088z"/>
  <path fill="#c78862" d="M181.125 228.022l.285-.168c14.155-8.283 29.236-9.014 39.397-8.173 11.005.914 18.767 3.823 18.843 3.85l.266.106-.245.144c-11.854 7-27.055 7.803-37.72 7.244-11.552-.606-20.417-2.894-20.504-2.918l-.32-.084zm58.16-4.33c-1.463-.52-8.69-2.923-18.51-3.742-10.05-.83-24.93-.113-38.94 7.972 1.697.414 9.846 2.29 20.134 2.833 10.55.554 25.556-.233 37.315-7.063z"/>
  <path fill="#c78862" d="M181.79 227.874l.39-.156c.31-.124 31.22-12.302 57.46-4.192l.44.133-.44.125c-.348.1-34.977 9.856-57.443 4.193l-.407-.104zm57.324-4.222c-24.422-7.32-52.735 2.77-56.43 4.167 21.002 5.08 52.306-3.05 56.43-4.168z"/>
  <path fill="#c78862" d="M181.775 228l.888-.202c.454-.098 45.735-10.008 56.998-4.257l.38.197-.42.06c-.393.056-39.398 5.68-56.938 4.273l-.907-.07zm57.36-4.41c-10.856-4.853-49.004 2.906-55.48 4.276 16.87 1.074 51.166-3.664 55.48-4.276z"/>
  <path fill="#c78862" d="M181.783 227.785c2.763-2.065 54.94-4.333 57.158-4.43l.012.27c-.542.027-54.31 2.364-57.01 4.378l-.16-.218zM182.447 258.242l.022-.168c.014-.134 1.78-13.33 12.05-23.358l.187.195c-9.574 9.352-11.71 21.472-11.947 23.03.784-.064 3.946-.317 4.512-.337 24.788-.708 35.468-13.406 40.062-23.937l.248.114c-2.75 6.303-6.86 11.507-12.212 15.47-7.303 5.403-16.753 8.307-28.09 8.63-.63.018-4.627.342-4.667.348l-.166.014z"/>
  <path fill="#c78862" d="M182.876 257.533c25.158-3.896 37.063-14.743 42.62-23.15l.224.153c-5.584 8.455-17.546 19.35-42.804 23.266l-.04-.27z"/>
  <path fill="#c78862" d="M182.765 257.63c2.413-9.162 6.9-16.68 13.327-22.344l.18.203c-6.388 5.63-10.845 13.105-13.246 22.21l-.26-.07z"/>
  <path fill="#c78862" d="M182.662 257.843l.105-.233c.054-.117 5.402-11.837 16.322-21.442l.174.203c-10.02 8.82-15.33 19.42-16.14 21.12 19.886-3.388 32.304-13.82 39.224-21.997l.206.177c-6.98 8.247-19.525 18.78-39.644 22.13l-.248.043z"/>
  <path fill="#c78862" d="M182.617 257.895l.16-.292c4.36-8.073 10.584-15.11 18.494-20.915l.16.22c-7.78 5.71-13.92 12.615-18.255 20.527 2.777-.896 23.03-7.744 37.2-21.29l.186.2c-15.214 14.54-37.405 21.39-37.625 21.457l-.318.093z"/>
  <path fill="#c78862" d="M183.385 257.274l.24-.333c.07-.098 7.428-10.214 19.978-19.806l.163.215c-11.23 8.583-18.285 17.577-19.673 19.41 9.38-3.022 19.695-9.395 31.52-19.476l.174.208c-12.02 10.247-22.493 16.677-32.013 19.654l-.39.128z"/>
  <path fill="#c78862" d="M183.437 257.31l.623-.616c10.91-10.746 13.347-12.576 17.775-15.898 1.188-.895 2.538-1.907 4.23-3.23l.164.215c-1.693 1.328-3.043 2.34-4.232 3.234-4.333 3.25-6.756 5.07-17.108 15.247 8.39-4.41 18.946-12.187 27.28-18.534l.165.22c-8.612 6.553-19.59 14.638-28.12 18.97l-.778.395z"/>
  <path fill="#c78862" d="M183.053 257.348c.576-1.424 9.35-8.048 26.08-19.684l.155.23c-20.783 14.452-25.604 18.612-25.985 19.555l-.25-.102zM224.35 262.466c.155-2.226.486-4.396.997-6.51 1.568-6.508 4.753-12.335 9.468-17.318l.196.184c-7.873 8.33-15.394 23.158-6.502 46.485.205.534 1.19 3.57 1.434 4.324 1.334-.82 11.616-7.47 16.49-19.974l.252.095c-5.23 13.417-16.64 20.136-16.752 20.203l-.144.082-.052-.157c-.013-.042-1.254-3.886-1.48-4.476-3.1-8.126-4.404-15.813-3.905-22.936z"/>
  <path fill="#c78862" d="M227.438 263.995c.747-10.675 4.037-18.248 7.402-23.336l.224.15c-5.562 8.406-10.91 23.65-4.794 48.554l-.262.068c-2.443-9.955-3.063-18.378-2.57-25.437z"/>
  <path fill="#c78862" d="M230.06 289.29c7.416-5.74 12.542-12.762 15.24-20.868l.256.082c-2.715 8.163-7.872 15.227-15.332 21l-.164-.215z"/>
  <path fill="#c78862" d="M228.265 268.662c.717-10.262 3.724-18.61 6.746-24.622l.24.123c-4.822 9.584-9.597 25.144-5.04 44.954 1.246-1.407 8.91-10.425 13.126-23.142l.26.085c-4.596 13.856-13.27 23.34-13.36 23.433l-.172.188-.057-.252c-1.77-7.563-2.178-14.518-1.742-20.766z"/>
  <path fill="#c78862" d="M229.964 271.845c.543-7.76 1.943-17.062 5.2-25.693l.255.096c-6.948 18.398-5.43 39.872-5.18 42.8 5.58-7.075 9.54-15.446 11.774-24.88l.263.06c-2.273 9.592-6.323 18.093-12.035 25.257l-.206.26-.034-.332c-.012-.132-.737-7.566-.038-17.568z"/>
  <path fill="#c78862" d="M230.14 278.662c.552-7.898 2.478-17.027 5.807-27.62l.26.083c-4.71 14.987-6.602 27.027-5.773 36.79 1.154-1.985 6.735-11.99 10.273-25.746l.262.067c-3.955 15.37-10.45 26.077-10.517 26.18l-.212.345-.038-.404c-.28-3.007-.303-6.235-.06-9.696z"/>
  <path fill="#c78862" d="M230.193 289.156l.065-.897c.645-9.09 3.79-22.28 6.78-33.988l.262.067c-2.884 11.293-5.91 23.968-6.697 32.99 1.217-3.254 5.493-14.94 8.866-27.497l.258.073c-3.956 14.73-9.156 28.273-9.207 28.41l-.327.84z"/>
  <path fill="#c78862" d="M230.178 288.935c.72-.723 2.676-6.806 7.912-31.706l.262.058c-4.215 20.044-6.9 30.754-7.983 31.837l-.192-.19zM207.867 262.91c.26-3.683.834-7.16 1.726-10.392l.26.073c-1.462 5.306-2.074 11.274-1.813 17.745.022.57.135 3.787.162 4.555 1.175-.27 8.796-2.168 16.126-8l.168.216c-7.985 6.35-16.313 8.064-16.396 8.086l-.156.03-.01-.162s-.138-4.07-.163-4.71c-.104-2.56-.07-5.048.097-7.44z"/>
  <path fill="#c78862" d="M208.14 274.733c.77-9.246 2.63-17.52 5.522-24.6l.252.105c-2.887 7.053-4.735 15.304-5.502 24.518l-.27-.023z"/>
  <path fill="#c78862" d="M208.237 274.622c6.242-2.143 11.644-5.283 16.054-9.322l.186.202c-4.443 4.067-9.876 7.222-16.152 9.377l-.087-.258z"/>
  <path fill="#c78862" d="M208.126 274.992l.02-.256c.91-9.595 3.58-18.498 7.94-26.47l.236.136c-4.302 7.865-6.95 16.64-7.878 26.1 1.378-.788 8.9-5.28 16.03-13.14l.2.18c-7.886 8.69-16.242 13.282-16.328 13.328l-.22.122z"/>
  <path fill="#c78862" d="M208.074 275.043l.073-.324c.036-.16 3.695-16.106 12.648-30.787l.228.14c-8.218 13.482-11.96 28.03-12.535 30.38 6.224-4.048 11.708-9.318 16.302-15.663l.22.163c-4.685 6.468-10.29 11.815-16.66 15.91l-.276.18z"/>
  <path fill="#c78862" d="M208.325 274.563l.096-.407c5.333-22.71 30.013-49.287 30.263-49.552l.197.188c-.247.26-24.576 26.46-30.095 49.002 1.692-1.528 9.762-9.07 17.14-19.93l.226.15c-8.273 12.18-17.416 20.195-17.506 20.275l-.32.273z"/>
  <path fill="#c78862" d="M208.274 274.83l.356-.852c6.817-16.35 29.805-49.03 30.037-49.364l.22.16c-.227.325-22.386 31.828-29.626 48.414 3.37-4.184 19.765-24.848 26.47-38.992l.246.116c-7.47 15.752-26.922 39.567-27.115 39.803l-.586.714z"/>
  <path fill="#c78862" d="M208.466 274.32c3.018-1.49 29.777-48.548 30.046-49.026l.233.133c-1.1 1.945-27.07 47.61-30.16 49.138l-.12-.245z"/>
  <path fill="#d66d65" d="M214.854 88.987v8.64l69.502 77.243h30.132v-31.616h-29.984v-8.715h29.984V88.986M314.488 229.122V182.81h-30.132v-7.94l-50.264 54.252"/>
  <path fill="#b0dfdd" d="M214.854 97.628v131.494h19.238l50.264-54.252"/>
  <path stroke="#006163" stroke-miterlimit="10" fill="none" d="M214.854 97.628v131.494h19.238l50.264-54.252z" stroke-width=".73852"/>
  <path stroke="#006163" stroke-miterlimit="10" fill="none" d="M216.98 226.98V103.167l64.496 71.68-48.307 52.133z" stroke-width=".73852"/>
  <path stroke="#006163" stroke-miterlimit="10" fill="none" d="M219.108 224.83V108.78l59.488 66.053-46.35 49.998z" stroke-width=".73852"/>
  <path stroke="#006163" stroke-miterlimit="10" fill="none" d="M221.235 222.69V114.32l54.48 60.49-44.392 47.88z" stroke-width=".73852"/>
  <path stroke="#006163" stroke-miterlimit="10" fill="none" d="M223.362 220.548v-100.69l49.466 54.93-42.428 45.76z" stroke-width=".73852"/>
  <path stroke="#006163" stroke-miterlimit="10" fill="none" d="M225.488 218.406v-93.01l44.452 49.37-40.464 43.64z" stroke-width=".73852"/>
  <path stroke="#006163" stroke-miterlimit="10" fill="none" d="M227.615 216.264v-85.328l39.43 43.81-38.492 41.518z" stroke-width=".73852"/>
  <path stroke="#006163" stroke-miterlimit="10" fill="none" d="M229.742 136.504l34.415 38.218-34.415 37.11z" stroke-width=".73852"/>
  <path stroke="#006163" stroke-miterlimit="10" fill="none" d="M231.87 142.058L261.26 174.7l-29.393 31.698z" stroke-width=".73852"/>
  <path stroke="#006163" stroke-miterlimit="10" fill="none" d="M233.996 147.61l24.38 27.068-24.38 26.292z" stroke-width=".73852"/>
  <path stroke="#006163" stroke-miterlimit="10" fill="none" d="M236.123 153.165l19.357 21.49-19.357 20.88z" stroke-width=".73852"/>
  <path stroke="#006163" stroke-miterlimit="10" fill="none" d="M238.25 158.72l14.342 15.92L238.25 190.1z" stroke-width=".73852"/>
  <path stroke="#006163" stroke-miterlimit="10" fill="none" d="M240.377 164.265l9.32 10.354-9.32 10.05z" stroke-width=".73852"/>
  <path stroke="#006163" stroke-miterlimit="10" fill="none" d="M242.504 169.82l4.306 4.777-4.306 4.638z" stroke-width=".73852"/>
  <path stroke="#fff" stroke-miterlimit="10" fill="none" d="M886.768 294.282l112.625-120.26" stroke-width=".73852"/>
  <path fill="#eeefa0" d="M877.24 292c3.053-2.986 7.947-2.934 10.932.115 2.986 3.05 2.933 7.943-.116 10.93-.62.608-2.443 1.524-3.087 1.66-3.052.646-12.004 2.59-14.388 3.712 0 0 3.884-9.915 4.933-13.37.154-.513 1.12-2.45 1.726-3.047z"/>
  <path fill="#c78862" d="M950.207 237.91c.644-9.133 4.403-15.48 4.44-15.545l.068-.118.12.075c20.286 12.847 23.613 28.712 22.834 39.764-.664 9.39-4.335 16.146-4.37 16.216l-.082.144-.128-.107c-.03-.03-3.07-2.642-3.57-3.026-17.203-13.293-19.997-27.674-19.313-37.404zm4.603-15.283c-.516.914-3.742 6.926-4.335 15.3-.68 9.66 2.1 23.95 19.213 37.174.448.346 2.857 2.41 3.453 2.926.536-1.04 3.656-7.395 4.26-15.96.772-10.96-2.527-26.68-22.59-39.44z"/>
  <path fill="#c78862" d="M952.054 232.918c.464-6.592 2.48-10.518 2.504-10.57l.242.127c-.034.06-3.17 6.18-2.47 15.99.645 9.054 4.79 23.2 20.86 39.163l-.19.19c-16.136-16.03-20.296-30.247-20.942-39.356-.142-2.008-.123-3.863-.007-5.544z"/>
  <path fill="#c78862" d="M954.565 222.527l.146-.225c.08.054 8.04 5.337 14.258 14.767 5.74 8.71 11.133 22.845 4.21 40.704l-.25-.096c6.88-17.76 1.52-31.802-4.186-40.462-6.185-9.385-14.1-14.635-14.177-14.69z"/>
  <path fill="#c78862" d="M953.826 227.807v-.003c.236-3.363.693-5.38.698-5.4l.047-.204.167.127c8.322 6.348 14.065 15.007 17.08 25.733 2.53 9.005 2.587 17.596 2.19 23.218-.28 3.96-.79 6.456-.792 6.477l-.05.247-.177-.177c-8.18-8.312-13.85-17.9-16.87-28.503-2.522-8.88-2.638-16.602-2.292-21.515zm.917-5.133c-.12.59-.456 2.426-.648 5.15-.744 10.564.727 31.032 18.903 49.625.134-.728.513-2.97.74-6.192.85-12.043-.498-34.34-18.995-48.584z"/>
  <path fill="#c78862" d="M954.195 225.156c.065-.92.16-1.845.282-2.74l.037-.28.195.207c.05.056 5.286 5.66 10.195 14.808 4.53 8.448 9.705 21.73 8.625 37.05-.083 1.182-.203 2.373-.357 3.544l-.043.326-.2-.262c-.207-.267-20.518-27.365-18.735-52.652zm.512-2.415c-.104.8-.185 1.618-.243 2.436-1.68 23.84 16.37 49.315 18.483 52.202.13-1.058.236-2.135.312-3.197 1.074-15.253-4.08-28.485-8.596-36.903-4.357-8.12-8.966-13.435-9.957-14.536z"/>
  <path fill="#c78862" d="M954.417 221.995l.293.353c17.527 21.12 18.45 55.036 18.457 55.377l.008.422-.25-.34c-13.835-18.57-18.408-54.993-18.454-55.358l-.053-.455zM972.88 277.3c-.165-4.007-1.967-34.654-18.078-54.42.58 4.292 5.337 36.954 18.08 54.42z"/>
  <path fill="#c78862" d="M954.417 222.054l.323.276c9.603 8.2 17.832 53.346 17.913 53.8l.16.893-.412-.805c-8.043-15.652-17.778-53.37-17.877-53.75l-.106-.414zm17.795 53.19c-1.223-6.454-8.693-44.254-17.312-52.41 1.09 4.183 9.842 37.27 17.312 52.41z"/>
  <path fill="#c78862" d="M954.934 223.022l.253-.094c.765 2.083 18.777 51.108 17.95 54.448l-.263-.068c.804-3.25-17.752-53.777-17.94-54.286zM895.852 226.958l.102-.13c.06-.07 5.956-7.387 16.103-11.564 5.96-2.453 12.205-3.367 18.55-2.71 7.93.82 16.047 4.107 24.123 9.768l.114.078-.08.11c-.05.07-5.006 6.7-14.173 10.808-8.46 3.79-22.34 6.146-40.422-4.158-.544-.307-4.132-2.11-4.168-2.13l-.148-.072zm58.61-4.5c-18.144-12.656-33.008-10.768-42.29-6.948-9.344 3.844-15.06 10.362-15.9 11.357.703.353 3.538 1.78 4.028 2.06 17.986 10.248 31.777 7.91 40.18 4.145 8.453-3.788 13.294-9.733 13.98-10.613z"/>
  <path fill="#c78862" d="M896.443 226.833l.105-.252c20.926 8.698 35.583 7.07 44.192 4.176 9.316-3.133 13.743-8.374 13.787-8.427l.21.17c-.045.054-4.52 5.353-13.912 8.507-8.652 2.917-23.375 4.553-44.382-4.174z"/>
  <path fill="#c78862" d="M896.443 226.61c13.818-13.26 28.94-13.724 39.19-11.782 11.098 2.11 19.035 7.42 19.113 7.474l-.15.226c-.08-.05-7.98-5.34-19.025-7.434-10.184-1.93-25.207-1.468-38.94 11.713l-.187-.196z"/>
  <path fill="#c78862" d="M896.22 226.744l.21-.14c.075-.056 7.653-5.18 18.565-8.244 10.08-2.836 25.15-4.447 39.706 3.956l.18.105-.17.128c-.063.044-6.323 4.468-16.586 7.192-9.468 2.508-24.384 4.046-41.67-2.9l-.233-.096zm58.157-4.298c-14.414-8.24-29.32-6.632-39.306-3.827-9.855 2.768-16.974 7.215-18.276 8.065 17.108 6.807 31.866 5.28 41.25 2.795 9.268-2.458 15.257-6.31 16.333-7.034z"/>
  <path fill="#c78862" d="M896.148 226.76l.285-.167c14.153-8.218 29.236-8.943 39.395-8.11 11.006.907 18.77 3.79 18.844 3.82l.265.104-.244.143c-11.854 6.945-27.056 7.743-37.72 7.187-11.553-.6-20.418-2.87-20.505-2.896l-.32-.08zm58.158-4.296c-1.46-.516-8.69-2.902-18.508-3.715-10.05-.823-24.93-.112-38.94 7.91 1.696.412 9.847 2.272 20.132 2.81 10.553.55 25.557-.23 37.316-7.006z"/>
  <path fill="#c78862" d="M896.812 226.618l.39-.155c.31-.123 31.222-12.206 57.463-4.158l.438.13-.44.126c-.348.102-34.977 9.78-57.443 4.163l-.408-.105zm57.326-4.19c-24.425-7.262-52.735 2.752-56.432 4.135 21.003 5.042 52.307-3.024 56.432-4.134z"/>
  <path fill="#c78862" d="M896.812 226.737l.887-.2c.453-.097 45.734-9.93 56.997-4.224l.382.195-.424.06c-.392.054-39.398 5.636-56.938 4.24l-.906-.07zm57.36-4.375c-10.857-4.816-49.005 2.882-55.48 4.242 16.87 1.066 51.167-3.636 55.48-4.242z"/>
  <path fill="#c78862" d="M896.812 226.522c2.765-2.05 54.94-4.298 57.16-4.395l.01.27c-.54.024-54.31 2.344-57.01 4.342l-.16-.218zM897.477 256.743l.022-.166c.015-.133 1.78-13.226 12.048-23.177l.19.193c-9.575 9.28-11.71 21.305-11.947 22.85.784-.064 3.946-.315 4.512-.334 24.787-.705 35.47-13.303 40.063-23.753l.247.113c-2.75 6.255-6.86 11.42-12.213 15.352-7.302 5.36-16.753 8.24-28.09 8.56-.628.02-4.626.34-4.667.346l-.166.015z"/>
  <path fill="#c78862" d="M897.92 256.04c25.16-3.864 37.064-14.628 42.622-22.968l.224.15c-5.585 8.39-17.547 19.2-42.805 23.086l-.04-.267z"/>
  <path fill="#c78862" d="M897.772 256.137c2.415-9.09 6.903-16.55 13.33-22.17l.178.203c-6.387 5.586-10.845 13.003-13.245 22.037l-.263-.07z"/>
  <path fill="#c78862" d="M897.698 256.35l.106-.23c.053-.116 5.4-11.745 16.32-21.275l.176.2c-10.02 8.75-15.33 19.27-16.14 20.954 19.888-3.362 32.305-13.712 39.226-21.825l.206.176c-6.98 8.182-19.526 18.633-39.645 21.957l-.25.044z"/>
  <path fill="#c78862" d="M897.625 256.396l.16-.29c4.36-8.01 10.584-14.993 18.494-20.753l.158.22c-7.78 5.665-13.92 12.515-18.255 20.365 2.778-.89 23.03-7.684 37.2-21.122l.187.196c-15.216 14.426-37.407 21.223-37.628 21.29l-.317.094z"/>
  <path fill="#c78862" d="M898.437 255.783l.24-.33c.07-.1 7.427-10.137 19.978-19.653l.163.213c-11.23 8.518-18.286 17.44-19.675 19.26 9.38-2.998 19.695-9.323 31.52-19.325l.175.206c-12.02 10.167-22.492 16.548-32.013 19.502l-.388.127z"/>
  <path fill="#c78862" d="M898.437 255.82l.623-.612c10.908-10.663 13.346-12.48 17.774-15.776 1.19-.886 2.54-1.892 4.23-3.203l.164.21c-1.69 1.32-3.04 2.323-4.23 3.21-4.333 3.225-6.757 5.03-17.11 15.128 8.39-4.376 18.946-12.095 27.282-18.392l.164.218c-8.61 6.504-19.59 14.525-28.12 18.823l-.777.393z"/>
  <path fill="#c78862" d="M898.068 255.856c.575-1.413 9.35-7.984 26.08-19.53l.154.227c-20.782 14.34-25.604 18.47-25.985 19.403l-.25-.1zM939.35 260.93c.157-2.208.487-4.362.996-6.46 1.57-6.455 4.754-12.238 9.468-17.183l.197.183c-7.872 8.264-15.394 22.978-6.502 46.123.205.53 1.188 3.54 1.434 4.29 1.334-.817 11.615-7.414 16.49-19.82l.252.095c-5.23 13.312-16.64 19.978-16.752 20.046l-.144.082-.052-.158c-.012-.042-1.254-3.855-1.48-4.44-3.098-8.062-4.404-15.69-3.905-22.758z"/>
  <path fill="#c78862" d="M942.453 262.45c.747-10.59 4.037-18.106 7.4-23.153l.227.15c-5.564 8.34-10.913 23.465-4.795 48.176l-.262.067c-2.445-9.877-3.063-18.234-2.57-25.24z"/>
  <path fill="#c78862" d="M945.112 287.554c7.414-5.695 12.542-12.663 15.24-20.706l.255.08c-2.715 8.1-7.872 15.11-15.332 20.838l-.163-.212z"/>
  <path fill="#c78862" d="M943.265 267.082c.717-10.183 3.725-18.467 6.747-24.43l.24.12c-4.823 9.51-9.597 24.95-5.04 44.605 1.244-1.397 8.91-10.346 13.124-22.963l.26.085c-4.596 13.747-13.272 23.156-13.357 23.25l-.175.186-.057-.25c-1.768-7.505-2.18-14.406-1.743-20.604z"/>
  <path fill="#c78862" d="M944.964 270.243c.545-7.7 1.944-16.93 5.202-25.494l.254.096c-6.946 18.254-5.428 39.56-5.177 42.468 5.578-7.022 9.537-15.327 11.77-24.687l.265.06c-2.272 9.516-6.322 17.95-12.034 25.06l-.208.257-.034-.33c-.01-.133-.737-7.508-.038-17.43z"/>
  <path fill="#c78862" d="M945.185 277c.553-7.836 2.48-16.895 5.807-27.404l.26.08c-4.71 14.87-6.6 26.818-5.773 36.506 1.153-1.97 6.734-11.896 10.27-25.546l.264.067c-3.954 15.25-10.45 25.872-10.516 25.976l-.212.343-.04-.403c-.28-2.985-.3-6.187-.06-9.62z"/>
  <path fill="#c78862" d="M945.26 287.414l.064-.89c.645-9.018 3.79-22.107 6.778-33.723l.263.068c-2.884 11.206-5.912 23.78-6.697 32.732 1.218-3.226 5.492-14.822 8.866-27.28l.26.07c-3.957 14.62-9.157 28.055-9.208 28.19l-.327.834z"/>
  <path fill="#c78862" d="M945.185 287.2c.72-.718 2.677-6.753 7.913-31.46l.26.06c-4.213 19.887-6.898 30.513-7.98 31.59l-.193-.19zM922.882 261.38c.26-3.654.833-7.105 1.725-10.31l.26.072c-1.46 5.264-2.075 11.184-1.814 17.607.024.563.136 3.755.164 4.518 1.175-.268 8.795-2.15 16.125-7.938l.17.214c-7.986 6.3-16.316 8.002-16.4 8.022l-.154.03-.007-.16s-.14-4.04-.165-4.675c-.106-2.54-.07-5.005.097-7.38z"/>
  <path fill="#c78862" d="M923.177 273.108c.77-9.174 2.628-17.384 5.52-24.41l.254.106c-2.886 7-4.735 15.184-5.503 24.327l-.27-.022z"/>
  <path fill="#c78862" d="M923.25 272.99c6.243-2.126 11.646-5.242 16.057-9.248l.183.2c-4.442 4.036-9.876 7.166-16.15 9.304l-.09-.256z"/>
  <path fill="#c78862" d="M923.177 273.36l.023-.253c.91-9.52 3.58-18.354 7.937-26.263l.236.134c-4.3 7.803-6.95 16.51-7.877 25.897 1.377-.784 8.897-5.24 16.03-13.038l.2.177c-7.886 8.623-16.242 13.182-16.328 13.227l-.22.12z"/>
  <path fill="#c78862" d="M923.104 273.41l.073-.32c.035-.158 3.695-15.98 12.648-30.547l.23.14c-8.22 13.375-11.964 27.81-12.54 30.142 6.227-4.017 11.71-9.245 16.305-15.54l.22.16c-4.686 6.418-10.29 11.725-16.662 15.788l-.274.178z"/>
  <path fill="#c78862" d="M923.325 272.938l.097-.403c5.332-22.534 30.01-48.905 30.262-49.165l.196.184c-.247.26-24.574 26.255-30.095 48.622 1.693-1.517 9.762-9.002 17.14-19.776l.225.15c-8.273 12.085-17.416 20.037-17.507 20.116l-.318.272z"/>
  <path fill="#c78862" d="M923.325 273.197l.357-.844c6.817-16.223 29.804-48.65 30.038-48.98l.22.157c-.228.324-22.388 31.582-29.627 48.04 3.367-4.153 19.763-24.657 26.47-38.69l.245.115c-7.472 15.63-26.92 39.258-27.115 39.495l-.588.707z"/>
  <path fill="#c78862" d="M923.473 272.695c3.017-1.476 29.776-48.17 30.046-48.643l.23.13c-1.1 1.93-27.067 47.24-30.16 48.757l-.117-.245zM809.888 206.545c2.016-8.93 6.693-14.637 6.74-14.695l.084-.107.107.092c18.11 15.765 19 31.95 16.56 42.757-2.072 9.182-6.72 15.308-6.766 15.37l-.103.13-.108-.124c-.028-.032-2.638-3.074-3.07-3.53-15-15.74-15.59-30.38-13.444-39.893zm6.86-14.414c-.648.827-4.746 6.283-6.597 14.473-2.133 9.446-1.542 23.992 13.376 39.65.39.408 2.46 2.813 2.97 3.412.687-.95 4.73-6.757 6.622-15.133 2.42-10.717 1.535-26.756-16.37-42.4z"/>
  <path fill="#c78862" d="M812.4 201.885c1.454-6.446 4.04-10.023 4.072-10.068l.22.16c-.044.055-4.068 5.63-4.858 15.432-.73 9.048 1.232 23.66 14.703 41.866l-.216.16c-13.527-18.285-15.49-32.967-14.754-42.07.163-2.006.462-3.837.833-5.48z"/>
  <path fill="#c78862" d="M816.46 191.996l.18-.2c.07.067 7.14 6.49 11.862 16.753 4.36 9.477 7.554 24.263-1.986 40.873l-.235-.134c9.485-16.517 6.31-31.207 1.977-40.63-4.697-10.213-11.727-16.6-11.796-16.664z"/>
  <path fill="#c78862" d="M814.91 197.1v-.003c.742-3.29 1.498-5.215 1.508-5.232l.076-.196.146.15c7.265 7.532 11.636 16.96 12.995 28.017 1.14 9.284-.1 17.785-1.342 23.28-.875 3.874-1.756 6.263-1.764 6.286l-.087.234-.15-.2c-6.827-9.452-10.985-19.788-12.367-30.724-1.154-9.158-.102-16.808.984-21.613zm1.682-4.937c-.206.565-.818 2.33-1.418 4.994-2.332 10.33-3.97 30.786 11.188 51.912.24-.7.954-2.86 1.667-6.01 2.657-11.776 4.694-34.02-11.438-50.897z"/>
  <path fill="#c78862" d="M815.723 194.537c.203-.9.437-1.8.692-2.665l.08-.27.16.232c.045.064 4.372 6.393 7.84 16.18 3.203 9.032 6.31 22.945 2.93 37.926-.26 1.155-.56 2.313-.89 3.45l-.09.315-.158-.288c-.163-.297-16.146-30.153-10.564-54.88zm.87-2.31c-.223.775-.427 1.57-.606 2.37-5.264 23.313 8.73 51.224 10.383 54.396.29-1.026.557-2.075.792-3.113 3.367-14.918.27-28.777-2.92-37.78-3.08-8.685-6.836-14.635-7.648-15.872z"/>
  <path fill="#c78862" d="M816.46 191.45l.236.392c14.137 23.527 9.924 57.193 9.88 57.53l-.056.42-.2-.373c-10.866-20.452-9.886-57.146-9.875-57.514l.016-.456zm9.897 57.46c.44-3.986 3.292-34.553-9.65-56.525-.076 4.327-.308 37.334 9.65 56.524z"/>
  <path fill="#c78862" d="M816.387 191.502l.276.32c8.256 9.557 9.568 55.43 9.58 55.89l.024.906-.286-.858c-5.585-16.688-9.51-55.442-9.55-55.834l-.043-.424zm9.555 55.267c-.234-6.567-1.906-45.06-9.194-54.426.443 4.3 4.098 38.33 9.194 54.425z"/>
  <path fill="#c78862" d="M816.756 192.536l.266-.055c.443 2.176 10.84 53.36 9.517 56.536l-.25-.106c1.285-3.093-9.423-55.842-9.534-56.374zM757.75 187.506l.12-.113c.068-.06 7.002-6.402 17.662-9 6.264-1.52 12.574-1.483 18.75.125 7.713 2.01 15.24 6.485 22.368 13.3l.1.095-.095.098c-.06.06-5.96 5.866-15.644 8.543-8.934 2.468-23.01 2.7-39.328-10.218-.493-.385-3.767-2.71-3.8-2.733l-.133-.096zm58.613 4.41c-16.02-15.255-31.003-15.635-40.755-13.26-9.816 2.387-16.452 7.966-17.432 8.824.64.455 3.228 2.294 3.672 2.644 16.232 12.85 30.216 12.62 39.092 10.17 8.928-2.47 14.61-7.614 15.423-8.38z"/>
  <path fill="#c78862" d="M758.413 187.47l.14-.233c19.373 11.76 34.106 12.365 43.053 10.804 9.684-1.688 14.85-6.2 14.903-6.244l.18.2c-.05.045-5.278 4.61-15.036 6.308-8.993 1.575-23.796.966-43.24-10.835z"/>
  <path fill="#c78862" d="M758.34 187.24c15.663-11.02 30.68-9.192 40.52-5.725 10.652 3.764 17.696 10.213 17.764 10.276l-.184.2c-.068-.06-7.078-6.48-17.68-10.222-9.776-3.447-24.697-5.26-40.266 5.695l-.155-.223z"/>
  <path fill="#c78862" d="M758.192 187.344l.228-.107c.082-.044 8.346-3.962 19.597-5.344 10.392-1.28 25.534-.596 38.652 9.91l.16.13-.187.1c-.07.034-6.925 3.463-17.48 4.604-9.74 1.05-24.718.316-40.755-9.163l-.216-.13zm58.137 4.54c-13.004-10.326-27.984-10.988-38.277-9.723-10.16 1.25-17.87 4.57-19.285 5.213 15.883 9.313 30.702 10.035 40.353 8.995 9.534-1.03 16.036-3.93 17.21-4.485z"/>
  <path fill="#c78862" d="M758.118 187.35l.306-.12c15.233-5.986 30.252-4.424 40.17-2.064 10.742 2.557 17.98 6.583 18.05 6.622l.245.143-.264.106c-12.766 5.075-27.914 3.564-38.375 1.405-11.325-2.34-19.745-5.922-19.83-5.96l-.302-.13zm58.14 4.542c-1.368-.73-8.153-4.18-17.735-6.468-9.81-2.332-24.627-3.877-39.687 1.936 1.615.663 9.39 3.735 19.477 5.82 10.347 2.138 25.296 3.634 37.946-1.288z"/>
  <path fill="#c78862" d="M758.783 187.314l.408-.095c.327-.075 32.71-7.35 57.433 4.57l.413.196-.455.058c-.356.047-36.05 4.384-57.41-4.566l-.387-.164zm57.298 4.52c-23.044-10.87-52.543-5.25-56.406-4.44 20 8.158 52.162 4.915 56.407 4.44z"/>
  <path fill="#c78862" d="M758.783 187.425l.906-.063c.464-.028 46.71-2.907 56.982 4.437l.346.248-.425-.006c-.397-.004-39.8-.38-56.926-4.41l-.884-.207zm57.36 4.342c-10.004-6.4-48.876-4.555-55.483-4.19 16.516 3.604 51.13 4.137 55.484 4.19z"/>
  <path fill="#c78862" d="M758.783 187.218c3.04-1.608 54.957 4.052 57.165 4.292l-.03.266c-.538-.056-54.04-5.888-57.01-4.32l-.125-.238zM754.868 217.187l.047-.16c.035-.13 3.758-12.806 15.413-21.09l.156.218c-10.865 7.727-14.792 19.293-15.26 20.784.783.054 3.946.284 4.51.35 24.61 3.05 37.07-7.79 43.19-17.426l.228.15c-3.665 5.768-8.508 10.25-14.392 13.33-8.027 4.196-17.804 5.615-29.06 4.22-.624-.078-4.626-.365-4.667-.366l-.165-.01z"/>
  <path fill="#c78862" d="M755.385 216.56c25.455-.022 38.85-8.863 45.604-16.266l.198.183c-6.788 7.45-20.247 16.328-45.8 16.353v-.27z"/>
  <path fill="#c78862" d="M755.31 216.64c3.76-8.62 9.323-15.316 16.525-19.9l.146.228c-7.156 4.557-12.684 11.215-16.423 19.783l-.246-.11z"/>
  <path fill="#c78862" d="M755.164 216.833l.14-.213c.07-.108 7.113-10.794 19.346-18.565l.144.227c-11.23 7.133-18.067 16.73-19.12 18.274 20.165-.32 34.005-8.673 42.07-15.648l.18.205c-8.14 7.033-22.12 15.468-42.508 15.715l-.252.005z"/>
  <path fill="#c78862" d="M755.09 216.877l.2-.262c5.52-7.26 12.728-13.22 21.417-17.72l.124.24c-8.545 4.426-15.65 10.27-21.122 17.375 2.882-.46 23.928-4.116 39.964-15.26l.156.222c-17.218 11.962-40.184 15.328-40.412 15.36l-.326.045z"/>
  <path fill="#c78862" d="M755.976 216.39l.287-.292c.085-.086 8.876-8.895 22.72-16.41l.13.237c-12.39 6.724-20.712 14.478-22.36 16.066 9.727-1.545 20.88-6.237 34.078-14.338l.143.23c-13.42 8.233-24.734 12.96-34.592 14.44l-.404.068z"/>
  <path fill="#c78862" d="M755.976 216.427l.708-.51c12.394-8.893 15.08-10.32 19.955-12.91 1.31-.696 2.794-1.487 4.666-2.528l.128.234c-1.872 1.047-3.358 1.834-4.667 2.532-4.77 2.534-7.438 3.954-19.198 12.37 8.954-3.057 20.556-9.092 29.745-14.058l.13.24c-9.495 5.128-21.558 11.4-30.64 14.36l-.83.27z"/>
  <path fill="#c78862" d="M755.607 216.405c.783-1.31 10.45-6.48 28.733-15.368l.117.248c-22.71 11.036-28.1 14.388-28.618 15.255l-.233-.135zM795.635 227.667c.488-2.16 1.14-4.24 1.96-6.235 2.526-6.145 6.546-11.38 11.955-15.555l.166.21c-9.03 6.98-18.69 20.387-13.397 44.612.12.553.64 3.678.77 4.454 1.44-.604 12.6-5.572 19.294-17.1l.235.133c-7.183 12.368-19.467 17.233-19.59 17.283l-.155.06-.027-.164c-.007-.043-.656-4-.792-4.613-1.844-8.438-1.982-16.175-.42-23.086z"/>
  <path fill="#c78862" d="M798.515 229.632c2.338-10.357 6.725-17.288 10.816-21.77l.2.182c-6.76 7.404-14.33 21.548-12.018 46.9l-.27.026c-.923-10.132-.273-18.488 1.273-25.338z"/>
  <path fill="#c78862" d="M797.26 254.845c8.193-4.508 14.313-10.622 18.194-18.165l.24.118c-3.907 7.596-10.066 13.746-18.303 18.282l-.13-.235z"/>
  <path fill="#c78862" d="M798.59 234.336c2.245-9.958 6.47-17.693 10.357-23.13l.22.157c-6.204 8.67-13.257 23.21-11.72 43.33 1.44-1.192 10.367-8.88 16.44-20.714l.245.12c-6.62 12.896-16.617 20.887-16.718 20.967l-.2.157-.018-.257c-.613-7.685.023-14.57 1.393-20.63z"/>
  <path fill="#c78862" d="M799.77 237.718c1.703-7.53 4.48-16.442 8.996-24.416l.235.135c-9.625 16.994-11.34 38.286-11.533 41.196 6.574-6.097 11.744-13.708 15.367-22.624l.253.097c-3.685 9.065-8.963 16.79-15.683 22.955l-.243.224.016-.33c.008-.133.404-7.535 2.594-17.238z"/>
  <path fill="#c78862" d="M798.958 244.424c1.73-7.663 5-16.326 9.88-26.21l.245.117c-6.903 13.988-10.578 25.513-11.222 35.215 1.438-1.774 8.455-10.742 14.017-23.7l.247.105c-6.21 14.48-14.24 23.997-14.32 24.088l-.26.307.02-.402c.176-2.993.637-6.162 1.394-9.52z"/>
  <path fill="#c78862" d="M797.407 254.727l.2-.872c2-8.817 7.086-21.278 11.795-32.31l.25.105c-4.543 10.64-9.436 22.615-11.566 31.344 1.692-3.004 7.67-13.82 12.886-25.627l.246.11c-6.12 13.85-13.29 26.348-13.362 26.473l-.45.777z"/>
  <path fill="#c78862" d="M797.48 254.512c.82-.6 3.666-6.27 12.574-29.902l.25.098c-7.17 19.023-11.43 29.123-12.663 30.02l-.16-.216zM779.313 225.614c.808-3.574 1.897-6.898 3.263-9.932l.245.11c-2.238 4.982-3.737 10.742-4.45 17.13-.063.562-.434 3.734-.523 4.492 1.2-.088 9.02-.796 17.14-5.41l.134.236c-8.845 5.023-17.335 5.445-17.42 5.454l-.158.004.016-.158s.473-4.013.544-4.645c.28-2.527.687-4.96 1.21-7.28z"/>
  <path fill="#c78862" d="M777.836 237.253c2.147-8.952 5.225-16.786 9.146-23.294l.233.14c-3.91 6.48-6.975 14.293-9.115 23.217l-.264-.064z"/>
  <path fill="#c78862" d="M777.91 237.15c6.49-1.16 12.303-3.423 17.27-6.718l.15.225c-5 3.32-10.845 5.592-17.37 6.756l-.05-.263z"/>
  <path fill="#c78862" d="M777.763 237.497l.06-.247c2.338-9.273 6.31-17.602 11.815-24.762l.214.168c-5.432 7.065-9.366 15.273-11.702 24.41 1.482-.565 9.588-3.835 17.817-10.468l.17.207c-9.097 7.333-18.047 10.575-18.138 10.607l-.237.085z"/>
  <path fill="#c78862" d="M777.69 237.54l.12-.306c.057-.15 6.065-15.237 17.117-28.283l.203.174c-10.144 11.98-16.026 25.683-16.945 27.9 6.76-3.03 12.97-7.37 18.463-12.898l.194.193c-5.6 5.635-11.943 10.033-18.855 13.087l-.298.134z"/>
  <path fill="#c78862" d="M777.984 237.105l.157-.384c8.676-21.47 37.057-43.806 37.343-44.03l.167.215c-.283.218-28.26 22.24-37.095 43.515 1.902-1.244 11.01-7.42 19.93-16.96l.2.183c-10.003 10.697-20.243 17.177-20.345 17.242l-.356.22z"/>
  <path fill="#c78862" d="M777.91 237.364l.48-.78c9.19-15.007 36.814-43.59 37.094-43.88l.194.188c-.274.286-26.902 27.836-36.546 43.012 3.957-3.596 23.262-21.387 32.012-34.245l.226.15c-9.747 14.32-32.544 34.74-32.77 34.943l-.69.61z"/>
  <path fill="#c78862" d="M778.206 236.89c3.206-1 36.712-43.116 37.05-43.544l.21.166c-1.38 1.74-33.896 42.607-37.18 43.64l-.08-.26z"/>
  <path stroke="#fff" stroke-miterlimit="10" fill="none" d="M754.425 258.633l95.122-98.496" stroke-width=".73852"/>
  <path fill="#eeefa0" d="M747.78 255.214c3.048-2.986 7.943-2.934 10.93.115 2.984 3.05 2.932 7.943-.118 10.93-.62.607-2.442 1.523-3.088 1.66-3.05.645-12.002 2.59-14.385 3.71 0 0 3.882-9.914 4.93-13.37.155-.51 1.12-2.45 1.73-3.046z"/>
  <path fill="#d66d65" d="M898.88 109.814c-27.204-27.772-71.22-27.772-98.423 0-27.205 27.788-27.205 72.732 0 100.52.05.05.1.094.147.144l49.14-50.333-.17-.175 49.308-50.157zM898.88 210.35l-49.137-50.19v71.016c17.78-.017 35.555-6.96 49.137-20.827z"/>
  <path d="M800.583 210.49c13.603 13.806 31.374 20.7 49.14 20.682v-71.016l-49.14 50.333z" stroke="#006163" stroke-miterlimit="10" fill="#b0dfdd" stroke-width=".73852"/>
  <path d="M847.627 229.02c-16.476-.505-31.964-7.033-44.012-18.555l44.012-45.082v63.636z" stroke="#006163" stroke-miterlimit="10" fill="#b0dfdd" stroke-width=".73852"/>
  <path d="M845.485 226.788c-14.36-.933-28.004-6.692-38.838-16.4l38.838-39.78v56.18z" stroke="#006163" stroke-miterlimit="10" fill="none" stroke-width=".73852"/>
  <path d="M843.343 224.477c-12.262-1.26-24.047-6.246-33.61-14.218l33.61-34.43v48.647z" stroke="#006163" stroke-miterlimit="10" fill="none" stroke-width=".73852"/>
  <path d="M841.202 222.07c-10.188-1.472-20.094-5.67-28.323-12.006l28.322-29.012v41.017z" stroke="#006163" stroke-miterlimit="10" fill="none" stroke-width=".73852"/>
  <path d="M839.134 219.558c-8.223-1.55-16.08-4.887-22.97-9.756l22.97-23.526v33.282z" stroke="#006163" stroke-miterlimit="10" fill="none" stroke-width=".73852"/>
  <path d="M836.992 216.93c-6.176-1.47-12.16-4.017-17.538-7.468l17.538-17.965v25.432z" stroke="#006163" stroke-miterlimit="10" fill="none" stroke-width=".73852"/>
  <path d="M834.85 214.167c-4.16-1.22-8.243-2.962-12.02-5.132l12.02-12.314v17.447z" stroke="#006163" stroke-miterlimit="10" fill="none" stroke-width=".73852"/>
  <path d="M832.71 211.25c-2.19-.772-4.33-1.69-6.405-2.744l6.404-6.56v9.304z" stroke="#006163" stroke-miterlimit="10" fill="none" stroke-width=".73852"/>
  <path fill="#d66d65" d="M930.784 88.84v8.64l69.57 77.257h30.057V143.1h-29.983v-8.693h29.984V88.84"/>
  <path fill="#d66d65" d="M1030.41 229.02v-46.344h-30.057v-7.94L950.06 229.02"/>
  <path stroke="#006163" stroke-miterlimit="10" fill="#b0dfdd" d="M930.784 97.48v131.54h19.276l50.293-54.283z" stroke-width=".73852"/>
  <path stroke="#006163" stroke-miterlimit="10" fill="none" d="M932.926 226.87V103.02l64.547 71.695L949.1 226.87z" stroke-width=".73852"/>
  <path stroke="#006163" stroke-miterlimit="10" fill="none" d="M935.068 224.728v-116.17l59.525 66.135-46.38 50.035z" stroke-width=".73852"/>
  <path stroke="#006163" stroke-miterlimit="10" fill="none" d="M937.21 222.586v-108.49l54.428 60.575-44.385 47.916z" stroke-width=".73852"/>
  <path stroke="#006163" stroke-miterlimit="10" fill="none" d="M939.277 220.437V119.71l49.48 54.946-42.39 45.78z" stroke-width=".73852"/>
  <path stroke="#006163" stroke-miterlimit="10" fill="none" d="M941.42 218.295V125.25l44.458 49.384-40.47 43.66z" stroke-width=".73852"/>
  <path stroke="#006163" stroke-miterlimit="10" fill="none" d="M943.56 216.146v-85.358L983 174.612l-38.477 41.534z" stroke-width=".73852"/>
  <path stroke="#006163" stroke-miterlimit="10" fill="none" d="M945.702 136.35l34.416 38.24-34.416 37.132z" stroke-width=".73852"/>
  <path stroke="#006163" stroke-miterlimit="10" fill="none" d="M947.844 141.903l29.393 32.664-29.393 31.72z" stroke-width=".73852"/>
  <path stroke="#006163" stroke-miterlimit="10" fill="none" d="M949.912 147.456l24.37 27.09-24.37 26.305z" stroke-width=".73852"/>
  <path stroke="#006163" stroke-miterlimit="10" fill="none" d="M952.054 153.017l19.35 21.506-19.35 20.885z" stroke-width=".73852"/>
  <path stroke="#006163" stroke-miterlimit="10" fill="none" d="M954.195 158.57l14.328 15.93-14.328 15.473z" stroke-width=".73852"/>
  <path stroke="#006163" stroke-miterlimit="10" fill="none" d="M956.337 164.125l9.305 10.354-9.305 10.057z" stroke-width=".73852"/>
  <path stroke="#006163" stroke-miterlimit="10" fill="none" d="M958.48 169.678l4.282 4.786-4.283 4.638z" stroke-width=".73852"/>
</svg>
