<?xml version="1.0" encoding="UTF-8" standalone="no"?>
<!-- Created with Inkscape (http://www.inkscape.org/) -->

<svg
   xmlns:dc="http://purl.org/dc/elements/1.1/"
   xmlns:cc="http://creativecommons.org/ns#"
   xmlns:rdf="http://www.w3.org/1999/02/22-rdf-syntax-ns#"
   xmlns:svg="http://www.w3.org/2000/svg"
   xmlns="http://www.w3.org/2000/svg"
   version="1.1"
   width="1130.2197"
   height="602.05811"
   id="svg2"
   xml:space="preserve"><metadata
     id="metadata8"><rdf:RDF><cc:Work
         rdf:about=""><dc:format>image/svg+xml</dc:format><dc:type
           rdf:resource="http://purl.org/dc/dcmitype/StillImage" /><dc:title></dc:title></cc:Work></rdf:RDF></metadata><defs
     id="defs6"><clipPath
       id="clipPath18"><path
         d="m 0,1800 2880,0 L 2880,0 0,0 0,1800 z"
         id="path20" /></clipPath><clipPath
       id="clipPath1616"><path
         d="m 0,1800 2880,0 L 2880,0 0,0 0,1800 z"
         id="path1618" /></clipPath></defs><g
     transform="matrix(1.25,0,0,-1.25,-1298.8953,1814.4633)"
     id="g10"><g
       id="g1612"><g
         clip-path="url(#clipPath1616)"
         id="g1614"><g
           transform="translate(1857.6982,1186.9434)"
           id="g1620"><path
             d="m 0,0 84.523,100.688 -166.033,0 L 0,0 z"
             id="path1622"
             style="fill:#c9e5ca;fill-opacity:1;fill-rule:nonzero;stroke:none" /></g><g
           transform="translate(1857.6982,1186.9434)"
           id="g1624"><path
             d="m 0,0 84.523,100.688 -166.033,0 L 0,0 z"
             id="path1626"
             style="fill:none;stroke:#71a486;stroke-width:1;stroke-linecap:butt;stroke-linejoin:miter;stroke-miterlimit:10;stroke-opacity:1;stroke-dasharray:none" /></g><g
           transform="translate(1782.2256,1284.752)"
           id="g1628"><path
             d="M 0,0 153.818,0 75.513,-93.281 0,0 z"
             id="path1630"
             style="fill:none;stroke:#6d7f44;stroke-width:1;stroke-linecap:butt;stroke-linejoin:miter;stroke-miterlimit:10;stroke-opacity:1;stroke-dasharray:none" /></g><g
           transform="translate(1788.2617,1281.8711)"
           id="g1632"><path
             d="M 0,0 141.604,0 69.517,-85.873 0,0 z"
             id="path1634"
             style="fill:none;stroke:#6d7f44;stroke-width:1;stroke-linecap:butt;stroke-linejoin:miter;stroke-miterlimit:10;stroke-opacity:1;stroke-dasharray:none" /></g><g
           transform="translate(1794.2998,1278.9922)"
           id="g1636"><path
             d="M 0,0 129.389,0 63.519,-78.467 0,0 z"
             id="path1638"
             style="fill:none;stroke:#6d7f44;stroke-width:1;stroke-linecap:butt;stroke-linejoin:miter;stroke-miterlimit:10;stroke-opacity:1;stroke-dasharray:none" /></g><g
           transform="translate(1800.3369,1276.1113)"
           id="g1640"><path
             d="M 0,0 117.174,0 57.521,-71.059 0,0 z"
             id="path1642"
             style="fill:none;stroke:#6d7f44;stroke-width:1;stroke-linecap:butt;stroke-linejoin:miter;stroke-miterlimit:10;stroke-opacity:1;stroke-dasharray:none" /></g><g
           transform="translate(1806.374,1273.2324)"
           id="g1644"><path
             d="M 0,0 104.959,0 51.524,-63.652 0,0 z"
             id="path1646"
             style="fill:none;stroke:#6d7f44;stroke-width:1;stroke-linecap:butt;stroke-linejoin:miter;stroke-miterlimit:10;stroke-opacity:1;stroke-dasharray:none" /></g><g
           transform="translate(1812.4102,1270.3516)"
           id="g1648"><path
             d="M 0,0 92.745,0 45.528,-56.244 0,0 z"
             id="path1650"
             style="fill:none;stroke:#6d7f44;stroke-width:1;stroke-linecap:butt;stroke-linejoin:miter;stroke-miterlimit:10;stroke-opacity:1;stroke-dasharray:none" /></g><g
           transform="translate(1818.4463,1267.4727)"
           id="g1652"><path
             d="M 0,0 80.531,0 39.532,-48.838 0,0 z"
             id="path1654"
             style="fill:none;stroke:#6d7f44;stroke-width:1;stroke-linecap:butt;stroke-linejoin:miter;stroke-miterlimit:10;stroke-opacity:1;stroke-dasharray:none" /></g><g
           transform="translate(1824.4824,1264.5918)"
           id="g1656"><path
             d="M 0,0 68.317,0 33.536,-41.43 0,0 z"
             id="path1658"
             style="fill:none;stroke:#6d7f44;stroke-width:1;stroke-linecap:butt;stroke-linejoin:miter;stroke-miterlimit:10;stroke-opacity:1;stroke-dasharray:none" /></g><g
           transform="translate(1830.5186,1261.7129)"
           id="g1660"><path
             d="M 0,0 56.104,0 27.54,-34.023 0,0 z"
             id="path1662"
             style="fill:none;stroke:#6d7f44;stroke-width:1;stroke-linecap:butt;stroke-linejoin:miter;stroke-miterlimit:10;stroke-opacity:1;stroke-dasharray:none" /></g><g
           transform="translate(1836.5537,1258.832)"
           id="g1664"><path
             d="M 0,0 43.89,0 21.546,-26.615 0,0 z"
             id="path1666"
             style="fill:none;stroke:#6d7f44;stroke-width:1;stroke-linecap:butt;stroke-linejoin:miter;stroke-miterlimit:10;stroke-opacity:1;stroke-dasharray:none" /></g><g
           transform="translate(1842.5908,1255.9531)"
           id="g1668"><path
             d="M 0,0 31.676,0 15.549,-19.209 0,0 z"
             id="path1670"
             style="fill:none;stroke:#6d7f44;stroke-width:1;stroke-linecap:butt;stroke-linejoin:miter;stroke-miterlimit:10;stroke-opacity:1;stroke-dasharray:none" /></g><g
           transform="translate(1848.627,1253.0723)"
           id="g1672"><path
             d="M 0,0 19.461,0 9.554,-11.801 0,0 z"
             id="path1674"
             style="fill:none;stroke:#6d7f44;stroke-width:1;stroke-linecap:butt;stroke-linejoin:miter;stroke-miterlimit:10;stroke-opacity:1;stroke-dasharray:none" /></g><g
           transform="translate(1854.6641,1250.1934)"
           id="g1676"><path
             d="M 0,0 7.246,0 3.557,-4.395 0,0 z"
             id="path1678"
             style="fill:none;stroke:#6d7f44;stroke-width:1;stroke-linecap:butt;stroke-linejoin:miter;stroke-miterlimit:10;stroke-opacity:1;stroke-dasharray:none" /></g><g
           transform="translate(1786.6045,1098.5996)"
           id="g1680"><path
             d="M 0,0 152.332,0 71.213,88.377 71.094,88.344 0,0 z"
             id="path1682"
             style="fill:#556278;fill-opacity:1;fill-rule:nonzero;stroke:none" /></g><g
           transform="translate(1776.1885,1098.5996)"
           id="g1684"><path
             d="M 0,0 10.416,0 81.51,88.344 81.629,88.377 0,189.031 0,0 z"
             id="path1686"
             style="fill:#556278;fill-opacity:1;fill-rule:nonzero;stroke:none" /></g><g
           transform="translate(1329.5801,1266.9434)"
           id="g1688"><path
             d="M 0,0 189.504,-243.094"
             id="path1690"
             style="fill:none;stroke:#ffffff;stroke-width:1;stroke-linecap:butt;stroke-linejoin:miter;stroke-miterlimit:10;stroke-opacity:1;stroke-dasharray:none" /></g><g
           transform="translate(1408.7822,1300.1094)"
           id="g1692"><path
             d="M 0,0 73.025,-297.939"
             id="path1694"
             style="fill:none;stroke:#ffffff;stroke-width:1;stroke-linecap:butt;stroke-linejoin:miter;stroke-miterlimit:10;stroke-opacity:1;stroke-dasharray:none" /></g><g
           transform="translate(1444.5967,1116.8223)"
           id="g1696"><path
             d="m 0,0 c 0.682,-1.01 5.245,-7.484 13.673,-12.477 9.717,-5.755 26.098,-10.365 48.957,0.362 0.596,0.281 4.025,1.683 4.878,2.029 C 66.704,-8.99 61.729,-2.449 53.11,2.656 42.085,9.186 23.935,14.01 0,0 m 13.511,-12.742 0,0 C 4.322,-7.299 -0.311,-0.102 -0.358,-0.031 l -0.088,0.133 0.142,0.082 c 24.145,14.195 42.458,9.324 53.577,2.738 9.445,-5.594 14.555,-12.916 14.609,-12.988 l 0.105,-0.159 -0.177,-0.076 c -0.046,-0.017 -4.382,-1.787 -5.048,-2.095 -22.979,-10.786 -39.461,-6.143 -49.251,-0.346"
             id="path1698"
             style="fill:#f6998d;fill-opacity:1;fill-rule:nonzero;stroke:none" /></g><g
           transform="translate(1453.8457,1108.5352)"
           id="g1700"><path
             d="m 0,0 c -6.63,3.928 -9.66,8.059 -9.7,8.111 l 0.26,0.184 c 0.044,-0.066 4.766,-6.502 15.374,-10.912 9.79,-4.074 26.747,-7.201 51.908,1.013 l 0.099,-0.292 C 32.674,-10.146 15.636,-6.994 5.79,-2.898 3.618,-1.992 1.689,-1.002 0,0"
             id="path1702"
             style="fill:#f6998d;fill-opacity:1;fill-rule:nonzero;stroke:none" /></g><g
           transform="translate(1444.3535,1116.6055)"
           id="g1704"><path
             d="M 0,0 -0.158,0.27 C -0.058,0.322 9.667,5.764 22.8,7.242 34.926,8.604 52.53,6.768 67.5,-9.715 L 67.266,-9.924 C 52.38,6.461 34.893,8.283 22.835,6.932 9.765,5.465 0.098,0.051 0,0"
             id="path1706"
             style="fill:#f6998d;fill-opacity:1;fill-rule:nonzero;stroke:none" /></g><g
           transform="translate(1444.584,1116.6836)"
           id="g1708"><path
             d="M 0,0 C 0.552,-0.432 2.29,-1.74 5.03,-3.361 15.659,-9.658 37.794,-18.85 66.817,-9.838 66.132,-9.32 63.989,-7.754 60.748,-5.836 48.633,1.342 24.656,11.619 0,0 m 4.871,-3.633 -0.005,0.002 c -3.381,2.004 -5.247,3.531 -5.262,3.545 l -0.189,0.158 0.221,0.102 c 11.028,5.26 23.105,6.652 35.891,4.148 10.735,-2.105 19.728,-6.539 25.384,-9.89 3.984,-2.36 6.318,-4.19 6.34,-4.205 l 0.23,-0.182 -0.278,-0.09 C 54.202,-14.129 41.192,-14.961 28.53,-12.525 17.934,-10.48 9.813,-6.559 4.871,-3.633"
             id="path1710"
             style="fill:#f6998d;fill-opacity:1;fill-rule:nonzero;stroke:none" /></g><g
           transform="translate(1444.6592,1116.6563)"
           id="g1712"><path
             d="m 0,0 c 0.778,-0.523 1.589,-1.037 2.41,-1.523 23.984,-14.206 60.123,-8.924 64.253,-8.256 -1.032,0.687 -2.102,1.361 -3.169,1.994 C 48.145,1.305 31.61,2.914 20.438,2.662 9.658,2.42 1.672,0.447 0,0 m 2.25,-1.789 c -0.928,0.547 -1.844,1.131 -2.711,1.723 l -0.273,0.185 0.318,0.09 c 0.088,0.027 8.703,2.492 20.85,2.766 11.211,0.254 27.812,-1.364 43.221,-10.493 1.189,-0.701 2.367,-1.451 3.51,-2.222 l 0.315,-0.215 -0.375,-0.068 c -0.39,-0.071 -39.416,-6.836 -64.855,8.234"
             id="path1714"
             style="fill:#f6998d;fill-opacity:1;fill-rule:nonzero;stroke:none" /></g><g
           transform="translate(1511.207,1106.8555)"
           id="g1716"><path
             d="M 0,0 C -4.267,1.926 -37.194,16.102 -66.348,9.832 -61.567,8.182 -24.969,-4.002 0,0 m -67.478,9.898 0.522,0.118 C -35.638,17.039 0.239,0.242 0.598,0.072 L 1.041,-0.141 0.555,-0.223 c -26.701,-4.545 -67.125,9.795 -67.532,9.94 l -0.501,0.181 z"
             id="path1718"
             style="fill:#f6998d;fill-opacity:1;fill-rule:nonzero;stroke:none" /></g><g
           transform="translate(1508.6875,1107.1895)"
           id="g1720"><path
             d="M 0,0 C -7.387,2.117 -50.778,14.193 -63.853,9.572 -58.911,8.508 -19.755,0.223 0,0 m -64.923,9.482 0.462,0.19 C -50.821,15.283 0.64,0.145 1.157,-0.008 L 2.171,-0.309 1.112,-0.313 c -20.59,-0.103 -65.096,9.592 -65.545,9.69 l -0.49,0.105 z"
             id="path1722"
             style="fill:#f6998d;fill-opacity:1;fill-rule:nonzero;stroke:none" /></g><g
           transform="translate(1445.0527,1116.7031)"
           id="g1724"><path
             d="M 0,0 0.035,0.311 C 2.614,0.01 63.304,-7.07 66.349,-9.672 L 66.14,-9.908 C 63.174,-7.377 0.629,-0.074 0,0"
             id="path1726"
             style="fill:#f6998d;fill-opacity:1;fill-rule:nonzero;stroke:none" /></g><g
           transform="translate(1444.2168,1116.5059)"
           id="g1728"><path
             d="m 0,0 c -22.814,-12.084 -28.714,-28.398 -29.642,-39.969 -0.938,-11.644 2.837,-20.947 3.432,-22.336 0.74,0.543 3.728,2.717 4.283,3.078 C -1.71,-46.045 3.149,-30.602 3.672,-19.969 4.194,-9.271 0.556,-1.17 0,0 m -26.337,-62.783 -0.083,0.174 c -0.042,0.097 -4.551,10.005 -3.541,22.652 0.601,7.43 2.952,14.346 6.996,20.545 5.056,7.746 12.782,14.394 22.964,19.76 L 0.142,0.426 0.213,0.285 c 0.047,-0.086 4.34,-8.668 3.773,-20.269 -0.525,-10.705 -5.416,-26.248 -25.739,-39.5 -0.61,-0.403 -4.393,-3.159 -4.43,-3.186 l -0.154,-0.113 z"
             id="path1730"
             style="fill:#f6998d;fill-opacity:1;fill-rule:nonzero;stroke:none" /></g><g
           transform="translate(1418.0771,1054.4336)"
           id="g1732"><path
             d="m 0,0 -0.207,0.236 c 20.151,17.028 26.217,32.991 27.753,43.381 1.664,11.244 -1.46,18.551 -1.49,18.625 l 0.287,0.125 C 26.377,62.293 29.537,54.904 27.855,43.572 26.317,33.127 20.227,17.092 0,0"
             id="path1734"
             style="fill:#f6998d;fill-opacity:1;fill-rule:nonzero;stroke:none" /></g><g
           transform="translate(1417.8213,1054.5059)"
           id="g1736"><path
             d="m 0,0 c -6.521,21.186 1.003,37.021 8.457,46.572 8.078,10.34 17.823,15.744 17.917,15.797 L 26.53,62.094 C 26.435,62.041 16.734,56.664 8.7,46.371 1.293,36.879 -6.177,21.146 0.302,0.09 L 0,0 z"
             id="path1738"
             style="fill:#f6998d;fill-opacity:1;fill-rule:nonzero;stroke:none" /></g><g
           transform="translate(1444.1641,1116.4512)"
           id="g1740"><path
             d="m 0,0 c -16.229,-10.553 -22.444,-26.762 -24.804,-38.525 -2.329,-11.612 -1.458,-21.278 -1.262,-23.065 16.16,14.078 22.383,30.092 24.755,41.067 C 1.035,-9.68 0.188,-1.49 0,0 m -26.306,-62.213 -0.037,0.291 c -0.017,0.106 -1.352,10.6 1.228,23.453 2.38,11.877 8.677,28.26 25.149,38.871 L 0.238,0.529 0.282,0.289 C 0.296,0.201 1.597,-8.568 -0.996,-20.574 -3.391,-31.652 -9.683,-47.832 -26.084,-62.02 l -0.222,-0.193 z"
             id="path1742"
             style="fill:#f6998d;fill-opacity:1;fill-rule:nonzero;stroke:none" /></g><g
           transform="translate(1444.1504,1116.373)"
           id="g1744"><path
             d="m 0,0 c -1.312,-1.238 -7.629,-7.441 -13.672,-17.141 -6.182,-9.929 -13.319,-25.646 -12.364,-44.287 1.326,1.533 7.584,8.963 13.592,19.287 C -6.284,-31.549 0.845,-15.67 0,0 m -26.311,-62.213 -0.022,0.381 c -1.08,18.894 6.146,34.824 12.398,44.863 6.771,10.871 13.892,17.367 13.962,17.43 L 0.278,0.68 0.296,0.352 c 0.97,-15.854 -6.247,-31.946 -12.474,-42.653 -6.743,-11.594 -13.804,-19.547 -13.878,-19.625 l -0.255,-0.287 z"
             id="path1746"
             style="fill:#f6998d;fill-opacity:1;fill-rule:nonzero;stroke:none" /></g><g
           transform="translate(1444.0215,1116.2188)"
           id="g1748"><path
             d="M 0,0 C -20.509,-21.381 -25.053,-55.811 -25.563,-60.346 -9.183,-41.33 -1.022,-4.836 0,0 m -25.979,-61.297 0.044,0.483 c 0.037,0.384 3.797,38.578 26.085,61.421 L 0.52,0.992 0.419,0.471 c -0.08,-0.41 -8.317,-41.18 -26.074,-61.403 l -0.324,-0.365 z"
             id="path1750"
             style="fill:#f6998d;fill-opacity:1;fill-rule:nonzero;stroke:none" /></g><g
           transform="translate(1443.9648,1116.2773)"
           id="g1752"><path
             d="M 0,0 C -10.771,-8.674 -22.938,-52.033 -24.947,-59.424 -14.902,-42.586 -1.65,-4.766 0,0 m -25.805,-61.428 0.263,1.018 c 0.139,0.519 13.855,52.349 25.771,60.976 L 0.637,0.859 0.473,0.391 C 0.322,-0.041 -14.505,-43.18 -25.249,-60.531 l -0.556,-0.897 z"
             id="path1754"
             style="fill:#f6998d;fill-opacity:1;fill-rule:nonzero;stroke:none" /></g><g
           transform="translate(1417.9404,1054.9609)"
           id="g1756"><path
             d="m 0,0 c -0.676,3.922 24.604,58.895 25.678,61.232 l 0.284,-0.128 C 25.704,60.531 -0.348,3.881 0.311,0.049 L 0,0 z"
             id="path1758"
             style="fill:#f6998d;fill-opacity:1;fill-rule:nonzero;stroke:none" /></g><g
           transform="translate(1449.8223,1039.8379)"
           id="g1760"><path
             d="m 0,0 -0.163,0.109 c -0.129,0.086 -12.856,8.754 -17.8,24.549 l 0.3,0.094 C -13.053,10.025 -1.633,1.533 -0.146,0.479 0.202,1.32 1.615,4.711 1.895,5.307 14.285,31.23 6.796,48.836 -1.676,59.039 l 0.248,0.197 C 3.643,53.127 6.854,46.188 8.125,38.611 9.85,28.279 7.852,17.027 2.182,5.172 1.869,4.514 0.09,0.223 0.072,0.178 L 0,0 z"
             id="path1762"
             style="fill:#f6998d;fill-opacity:1;fill-rule:nonzero;stroke:none" /></g><g
           transform="translate(1449.3174,1040.6426)"
           id="g1764"><path
             d="m 0,0 c 9.287,27.965 4.359,45.867 -1.398,55.963 l 0.275,0.152 C 4.673,45.967 9.62,27.979 0.301,-0.098 L 0,0 z"
             id="path1766"
             style="fill:#f6998d;fill-opacity:1;fill-rule:nonzero;stroke:none" /></g><g
           transform="translate(1449.3604,1040.4805)"
           id="g1768"><path
             d="m 0,0 c -8.207,7.246 -13.613,15.773 -16.073,25.34 l 0.305,0.08 C -13.322,15.912 -7.944,7.434 0.21,0.232 L 0,0 z"
             id="path1770"
             style="fill:#f6998d;fill-opacity:1;fill-rule:nonzero;stroke:none" /></g><g
           transform="translate(1449.5303,1040.2656)"
           id="g1772"><path
             d="M 0,0 -0.188,0.23 C -0.279,0.346 -9.58,11.943 -13.743,28.188 l 0.305,0.078 C -9.618,13.354 -1.451,2.377 -0.124,0.662 c 7.023,22.262 2.8,40.481 -2.001,51.859 l 0.293,0.124 C 3.009,41.164 7.27,22.762 0.088,0.279 L 0,0 z"
             id="path1774"
             style="fill:#f6998d;fill-opacity:1;fill-rule:nonzero;stroke:none" /></g><g
           transform="translate(1449.5557,1040.1914)"
           id="g1776"><path
             d="m 0,0 -0.221,0.316 c -6.048,8.686 -10.038,18.758 -11.858,29.926 l 0.313,0.049 C -9.976,19.307 -6.077,9.393 -0.182,0.814 0.36,4.145 3.993,28.58 -2.525,50.221 l 0.301,0.092 C 4.775,27.074 0.116,0.639 0.07,0.375 L 0,0 z"
             id="path1778"
             style="fill:#f6998d;fill-opacity:1;fill-rule:nonzero;stroke:none" /></g><g
           transform="translate(1449.3213,1041.3027)"
           id="g1780"><path
             d="m 0,0 -0.217,0.42 c -0.066,0.125 -6.643,12.961 -9.928,30.881 l 0.31,0.056 c 2.939,-16.035 8.514,-27.976 9.677,-30.361 1.84,11.24 0.7,25.186 -3.474,42.608 l 0.31,0.074 C 0.919,25.965 2.032,11.828 0.076,0.467 L 0,0 z"
             id="path1782"
             style="fill:#f6998d;fill-opacity:1;fill-rule:nonzero;stroke:none" /></g><g
           transform="translate(1449.3838,1041.3398)"
           id="g1784"><path
             d="m 0,0 -0.309,0.963 c -5.348,16.824 -5.953,20.289 -7.048,26.582 -0.296,1.689 -0.629,3.605 -1.104,6.037 l 0.308,0.057 c 0.478,-2.434 0.813,-4.35 1.108,-6.039 1.072,-6.155 1.671,-9.602 6.727,-25.557 -0.123,10.939 -2.587,25.863 -4.745,37.752 l 0.312,0.055 C -2.521,27.568 0.032,12.053 0.004,1.008 L 0,0 z"
             id="path1786"
             style="fill:#f6998d;fill-opacity:1;fill-rule:nonzero;stroke:none" /></g><g
           transform="translate(1449.2197,1040.9277)"
           id="g1788"><path
             d="m 0,0 c -1.171,1.332 -3.381,13.818 -6.569,37.109 l 0.317,0.039 C -2.293,8.217 -0.539,1.086 0.235,0.205 L 0,0 z"
             id="path1790"
             style="fill:#f6998d;fill-opacity:1;fill-rule:nonzero;stroke:none" /></g><g
           transform="translate(1476.3848,1080.8535)"
           id="g1792"><path
             d="m 0,0 c -2.222,1.314 -4.294,2.783 -6.213,4.406 -5.904,4.994 -10.252,11.303 -12.914,18.75 l 0.294,0.108 c 4.455,-12.442 15.824,-27.895 44.679,-30.836 0.664,-0.067 4.326,-0.625 5.237,-0.766 -0.146,1.803 -1.584,15.856 -11.948,27.371 l 0.232,0.211 C 30.486,6.887 31.401,-8.363 31.411,-8.516 l 0.009,-0.191 -0.19,0.027 c -0.052,0.01 -4.686,0.725 -5.417,0.799 C 15.76,-6.859 7.11,-4.211 0,0"
             id="path1794"
             style="fill:#f6998d;fill-opacity:1;fill-rule:nonzero;stroke:none" /></g><g
           transform="translate(1479.6045,1083.2383)"
           id="g1796"><path
             d="m 0,0 c -10.657,6.311 -16.753,13.635 -20.238,19.746 l 0.275,0.152 C -14.21,9.801 -1.259,-3.629 27.763,-10.25 l -0.068,-0.307 C 16.095,-7.908 7.049,-4.174 0,0"
             id="path1798"
             style="fill:#f6998d;fill-opacity:1;fill-rule:nonzero;stroke:none" /></g><g
           transform="translate(1507.1816,1072.8086)"
           id="g1800"><path
             d="m 0,0 c -2.015,10.625 -6.57,19.555 -13.535,26.545 l 0.22,0.221 C -6.301,19.73 -1.718,10.744 0.309,0.057 L 0,0 z"
             id="path1802"
             style="fill:#f6998d;fill-opacity:1;fill-rule:nonzero;stroke:none" /></g><g
           transform="translate(1484.874,1081.6699)"
           id="g1804"><path
             d="m 0,0 c -10.246,6.066 -17.298,13.502 -21.919,19.736 l 0.257,0.186 C -14.295,9.973 -0.715,-3.027 22.206,-8.613 21.405,-6.6 16.129,5.984 5.195,16.932 l 0.227,0.224 C 17.333,5.225 22.559,-8.643 22.611,-8.783 l 0.102,-0.276 -0.294,0.073 C 13.654,-6.881 6.233,-3.693 0,0"
             id="path1806"
             style="fill:#f6998d;fill-opacity:1;fill-rule:nonzero;stroke:none" /></g><g
           transform="translate(1489.0693,1081.7695)"
           id="g1808"><path
             d="m 0,0 c -7.747,4.588 -16.632,10.859 -23.843,18.701 l 0.234,0.211 C -8.241,2.199 14.793,-7.383 17.958,-8.646 13.585,0.779 7.018,9.209 -1.566,16.408 l 0.203,0.242 C 7.363,9.326 14.019,0.738 18.412,-8.871 l 0.158,-0.35 -0.361,0.141 C 18.063,-9.023 9.983,-5.914 0,0"
             id="path1810"
             style="fill:#f6998d;fill-opacity:1;fill-rule:nonzero;stroke:none" /></g><g
           transform="translate(1496.2197,1078.4121)"
           id="g1812"><path
             d="m 0,0 c -7.888,4.67 -16.317,11.395 -25.521,20.326 l 0.224,0.225 C -12.275,7.914 -0.814,-0.287 9.734,-4.502 8.289,-2.281 0.886,8.666 -11.482,19.457 l 0.209,0.234 C 2.548,7.637 10.188,-4.621 10.262,-4.742 l 0.247,-0.399 -0.442,0.17 C 6.805,-3.697 3.452,-2.045 0,0"
             id="path1814"
             style="fill:#f6998d;fill-opacity:1;fill-rule:nonzero;stroke:none" /></g><g
           transform="translate(1507.1055,1073.0176)"
           id="g1816"><path
             d="M 0,0 -0.894,0.533 C -9.961,5.916 -21.952,16.006 -32.49,25.166 l 0.209,0.234 C -22.116,16.564 -10.599,6.863 -1.676,1.371 -4.398,4.313 -14.231,14.789 -25.444,24.785 l 0.213,0.231 C -12.078,13.287 -0.81,0.896 -0.697,0.773 L 0,0 z"
             id="path1818"
             style="fill:#f6998d;fill-opacity:1;fill-rule:nonzero;stroke:none" /></g><g
           transform="translate(1506.877,1073.1191)"
           id="g1820"><path
             d="m 0,0 c -0.366,1.115 -5.629,6.291 -28.637,24.617 l 0.203,0.238 C -9.914,10.105 -0.249,1.777 0.3,0.096 L 0,0 z"
             id="path1822"
             style="fill:#f6998d;fill-opacity:1;fill-rule:nonzero;stroke:none" /></g><g
           transform="translate(1468.123,1063.625)"
           id="g1824"><path
             d="m 0,0 c -3.677,2.178 -6.974,4.576 -9.845,7.172 l 0.212,0.232 c 4.717,-4.261 10.572,-7.99 17.408,-11.082 0.602,-0.271 3.996,-1.826 4.804,-2.197 0.343,1.352 2.413,10.193 0.258,20.779 l 0.309,0.063 C 15.492,3.438 12.858,-6.041 12.837,-6.139 l -0.051,-0.174 -0.172,0.077 c 0,0 -4.287,1.966 -4.965,2.273 C 4.943,-2.742 2.39,-1.416 0,0"
             id="path1826"
             style="fill:#f6998d;fill-opacity:1;fill-rule:nonzero;stroke:none" /></g><g
           transform="translate(1480.5068,1057.7715)"
           id="g1828"><path
             d="m 0,0 c -9.162,5.592 -16.748,11.805 -22.544,18.463 l 0.24,0.205 C -16.528,12.029 -8.968,5.838 0.167,0.266 L 0,0 z"
             id="path1830"
             style="fill:#f6998d;fill-opacity:1;fill-rule:nonzero;stroke:none" /></g><g
           transform="translate(1480.4355,1057.9258)"
           id="g1832"><path
             d="m 0,0 c 1.085,7.549 0.696,14.746 -1.149,21.395 l 0.306,0.084 C 1.015,14.785 1.403,7.545 0.313,-0.043 L 0,0 z"
             id="path1834"
             style="fill:#f6998d;fill-opacity:1;fill-rule:nonzero;stroke:none" /></g><g
           transform="translate(1480.7588,1057.6152)"
           id="g1836"><path
             d="M 0,0 -0.252,0.156 C -9.703,6.074 -17.507,13.449 -23.451,22.08 l 0.263,0.176 C -17.321,13.736 -9.64,6.449 -0.339,0.582 -0.427,2.414 -1.092,12.498 -5.454,23.934 l 0.292,0.111 C -0.34,11.402 -0.011,0.404 -0.008,0.289 L 0,0 z"
             id="path1838"
             style="fill:#f6998d;fill-opacity:1;fill-rule:nonzero;stroke:none" /></g><g
           transform="translate(1480.7871,1057.541)"
           id="g1840"><path
             d="m 0,0 -0.297,0.244 c -0.145,0.117 -14.714,12.17 -25.173,29.022 l 0.266,0.162 C -15.599,13.955 -2.52,2.543 -0.393,0.732 c -0.894,8.52 -3.444,16.909 -7.581,24.94 l 0.285,0.142 C -3.476,17.627 -0.906,9.072 -0.039,0.377 L 0,0 z"
             id="path1842"
             style="fill:#f6998d;fill-opacity:1;fill-rule:nonzero;stroke:none" /></g><g
           transform="translate(1480.4199,1058.0469)"
           id="g1844"><path
             d="M 0,0 -0.368,0.311 C -21.058,17.6 -35.504,56.842 -35.646,57.234 l 0.296,0.106 c 0.142,-0.389 14.384,-39.074 34.8,-56.467 -0.688,2.539 -4.224,14.773 -11.559,28.02 l 0.273,0.152 C -3.605,14.191 -0.15,0.605 -0.115,0.469 L 0,0 z"
             id="path1846"
             style="fill:#f6998d;fill-opacity:1;fill-rule:nonzero;stroke:none" /></g><g
           transform="translate(1480.6709,1057.8574)"
           id="g1848"><path
             d="m 0,0 -0.692,0.811 c -13.316,15.517 -34.979,56.185 -35.2,56.595 l 0.282,0.145 c 0.214,-0.405 21.096,-39.606 34.435,-55.68 -2.549,5.643 -15.263,33.277 -26.351,47.531 l 0.25,0.196 C -14.927,33.715 -0.569,1.299 -0.425,0.977 L 0,0 z"
             id="path1850"
             style="fill:#f6998d;fill-opacity:1;fill-rule:nonzero;stroke:none" /></g><g
           transform="translate(1480.2471,1058.3184)"
           id="g1852"><path
             d="m 0,0 c 0.057,3.885 -34.495,55.906 -34.849,56.432 l 0.263,0.172 C -33.156,54.459 0.371,3.979 0.315,-0.004 L 0,0 z"
             id="path1854"
             style="fill:#f6998d;fill-opacity:1;fill-rule:nonzero;stroke:none" /></g><g
           transform="translate(1495.1191,995.3301)"
           id="g1856"><path
             d="m 0,0 c -1.381,6.082 -7.49,9.906 -13.641,8.543 -6.157,-1.363 -10.027,-7.4 -8.647,-13.482 0.28,-1.239 1.802,-3.807 2.491,-4.487 3.262,-3.215 12.797,-12.713 14.85,-15.98 0,0 3.16,15.232 4.639,20.299 C -0.089,-4.355 0.275,-1.217 0,0"
             id="path1858"
             style="fill:#b4b868;fill-opacity:1;fill-rule:nonzero;stroke:none" /></g><g
           transform="translate(1532.416,1024.6113)"
           id="g1860"><path
             d="m 0,0 c -4.238,4.617 -11.462,4.965 -16.133,0.779 -4.672,-4.187 -5.025,-11.326 -0.787,-15.943 0.862,-0.94 3.469,-2.434 4.409,-2.688 4.441,-1.205 17.479,-4.816 20.895,-6.658 0,0 -4.858,14.791 -6.102,19.918 C 2.097,-3.832 0.846,-0.922 0,0"
             id="path1862"
             style="fill:#b4b868;fill-opacity:1;fill-rule:nonzero;stroke:none" /></g><g
           transform="translate(1503.541,1236.7598)"
           id="g1864"><path
             d="m 0,0 c -11.471,26.762 -34.069,48.318 -63.136,57.992 -4.954,1.649 -10.087,2.957 -15.385,3.883 -10.162,1.775 -16.5,1.543 -16.5,1.543 l 47.595,-195.4 c -10e-4,-0.004 -0.008,-0.006 -0.01,-0.008 l -125.876,160.801 -0.583,1.443 c -13.306,-14.147 -22.78,-32.115 -26.438,-52.553 -5.838,-32.623 4.442,-64.369 25.159,-87.31 0.003,-0.004 0.009,-0.006 0.009,-0.01 15.155,-16.779 35.886,-28.856 60.035,-33.074 57.164,-9.991 111.708,27.726 121.818,84.218 C 10.356,-37.979 7.645,-17.836 0,0"
             id="path1866"
             style="fill:#556278;fill-opacity:1;fill-rule:nonzero;stroke:none" /></g><g
           transform="translate(1329.6104,1267.1055)"
           id="g1868"><path
             d="m 0,0 c 20.061,21.25 48.773,33.842 79.434,33.078 l -0.286,-0.572 47.357,-194.834 c -10e-4,-0.004 -0.008,-0.006 -0.01,-0.008 L 0.619,-1.535 0,0 z"
             id="path1870"
             style="fill:#c9e5ca;fill-opacity:1;fill-rule:nonzero;stroke:none" /></g><g
           transform="translate(1333.4258,1266.5625)"
           id="g1872"><path
             d="M 0,0 C 19.168,19.451 45.414,30.471 72.71,30.547 L 116.221,-148.465 0,0 z"
             id="path1874"
             style="fill:none;stroke:#6d7f44;stroke-width:1;stroke-linecap:butt;stroke-linejoin:miter;stroke-miterlimit:10;stroke-opacity:1;stroke-dasharray:none" /></g><g
           transform="translate(1337.6084,1266.2969)"
           id="g1876"><path
             d="M 0,0 C 17.709,16.996 41.521,26.973 66.059,27.668 L 105.56,-134.85 0,0 z"
             id="path1878"
             style="fill:none;stroke:#6d7f44;stroke-width:1;stroke-linecap:butt;stroke-linejoin:miter;stroke-miterlimit:10;stroke-opacity:1;stroke-dasharray:none" /></g><g
           transform="translate(1341.8389,1265.9688)"
           id="g1880"><path
             d="M 0,0 C 16.206,14.643 37.573,23.564 59.377,24.785 L 94.853,-121.17 0,0 z"
             id="path1882"
             style="fill:none;stroke:#6d7f44;stroke-width:1;stroke-linecap:butt;stroke-linejoin:miter;stroke-miterlimit:10;stroke-opacity:1;stroke-dasharray:none" /></g><g
           transform="translate(1346.123,1265.5703)"
           id="g1884"><path
             d="M 0,0 C 14.649,12.391 33.563,20.258 52.659,21.896 L 84.09,-107.42 0,0 z"
             id="path1886"
             style="fill:none;stroke:#6d7f44;stroke-width:1;stroke-linecap:butt;stroke-linejoin:miter;stroke-miterlimit:10;stroke-opacity:1;stroke-dasharray:none" /></g><g
           transform="translate(1350.4717,1265.0938)"
           id="g1888"><path
             d="M 0,0 C 13.16,10.393 29.263,17.063 45.896,19.008 L 73.266,-93.594 0,0 z"
             id="path1890"
             style="fill:none;stroke:#6d7f44;stroke-width:1;stroke-linecap:butt;stroke-linejoin:miter;stroke-miterlimit:10;stroke-opacity:1;stroke-dasharray:none" /></g><g
           transform="translate(1354.8848,1264.5313)"
           id="g1892"><path
             d="M 0,0 C 11.429,8.367 25.114,14.01 39.088,16.115 L 62.373,-79.68 0,0 z"
             id="path1894"
             style="fill:none;stroke:#6d7f44;stroke-width:1;stroke-linecap:butt;stroke-linejoin:miter;stroke-miterlimit:10;stroke-opacity:1;stroke-dasharray:none" /></g><g
           transform="translate(1359.3711,1263.875)"
           id="g1896"><path
             d="M 0,0 C 9.708,6.559 20.743,11.086 32.233,13.223 L 51.411,-65.672 0,0 z"
             id="path1898"
             style="fill:none;stroke:#6d7f44;stroke-width:1;stroke-linecap:butt;stroke-linejoin:miter;stroke-miterlimit:10;stroke-opacity:1;stroke-dasharray:none" /></g><g
           transform="translate(1363.9404,1263.1172)"
           id="g1900"><path
             d="M 0,0 C 7.776,4.799 16.423,8.326 25.32,10.328 L 40.363,-51.564 0,0 z"
             id="path1902"
             style="fill:none;stroke:#6d7f44;stroke-width:1;stroke-linecap:butt;stroke-linejoin:miter;stroke-miterlimit:10;stroke-opacity:1;stroke-dasharray:none" /></g><g
           transform="translate(1368.6016,1262.2383)"
           id="g1904"><path
             d="M 0,0 C 5.755,3.207 11.996,5.736 18.343,7.436 L 29.223,-37.334 0,0 z"
             id="path1906"
             style="fill:none;stroke:#6d7f44;stroke-width:1;stroke-linecap:butt;stroke-linejoin:miter;stroke-miterlimit:10;stroke-opacity:1;stroke-dasharray:none" /></g><g
           transform="translate(1373.3633,1261.2305)"
           id="g1908"><path
             d="M 0,0 C 3.644,1.809 7.423,3.33 11.296,4.545 L 17.985,-22.975 0,0 z"
             id="path1910"
             style="fill:none;stroke:#6d7f44;stroke-width:1;stroke-linecap:butt;stroke-linejoin:miter;stroke-miterlimit:10;stroke-opacity:1;stroke-dasharray:none" /></g><g
           transform="translate(1378.2471,1260.0684)"
           id="g1912"><path
             d="M 0,0 C 1.371,0.596 2.76,1.15 4.164,1.662 L 6.623,-8.463 0,0 z"
             id="path1914"
             style="fill:none;stroke:#6d7f44;stroke-width:1;stroke-linecap:butt;stroke-linejoin:miter;stroke-miterlimit:10;stroke-opacity:1;stroke-dasharray:none" /></g><g
           transform="translate(1612.6572,1310.0977)"
           id="g1916"><path
             d="m 0,0 c -0.818,11.65 -5.043,20.293 -5.769,21.709 -0.804,-0.701 -4.066,-3.51 -4.675,-3.979 -23.169,-17.986 -26.935,-37.421 -26.014,-50.562 0.801,-11.391 5.172,-19.568 5.87,-20.813 C -3.423,-36.289 1.045,-14.906 0,0 m -10.667,18.02 c 0.673,0.523 4.789,4.078 4.832,4.115 l 0.173,0.144 0.11,-0.195 c 0.048,-0.094 5.018,-9.287 5.915,-22.057 1.055,-15.033 -3.45,-36.611 -30.917,-54.084 l -0.161,-0.101 -0.094,0.16 c -0.048,0.086 -5.141,8.721 -6.009,21.143 -0.928,13.232 2.852,32.792 26.151,50.875"
             id="path1918"
             style="fill:#f6998d;fill-opacity:1;fill-rule:nonzero;stroke:none" /></g><g
           transform="translate(1578.2578,1270.4531)"
           id="g1920"><path
             d="m 0,0 c 0.63,-8.965 3.357,-14.305 3.393,-14.373 l 0.328,0.17 c -0.049,0.082 -4.297,8.406 -3.347,21.748 0.872,12.318 6.487,31.559 28.244,53.269 l -0.257,0.26 C 6.515,39.271 0.884,19.934 0.007,7.543 -0.185,4.811 -0.161,2.287 0,0"
             id="path1922"
             style="fill:#f6998d;fill-opacity:1;fill-rule:nonzero;stroke:none" /></g><g
           transform="translate(1581.7158,1256.3164)"
           id="g1924"><path
             d="m 0,0 0.196,-0.305 c 0.109,0.075 10.885,7.258 19.305,20.086 7.773,11.848 15.075,31.073 5.703,55.365 L 24.863,75.014 C 34.179,50.857 26.924,31.76 19.196,19.98 10.819,7.215 0.105,0.074 0,0"
             id="path1926"
             style="fill:#f6998d;fill-opacity:1;fill-rule:nonzero;stroke:none" /></g><g
           transform="translate(1607.6367,1322.5957)"
           id="g1928"><path
             d="m 0,0 c -0.306,4.381 -0.819,7.434 -1,8.42 -24.612,-25.289 -26.605,-53.127 -25.598,-67.496 0.261,-3.705 0.717,-6.205 0.88,-7.006 C -0.673,-46.705 1.15,-16.379 0,0 m -23.858,-29.836 c 4.088,14.42 11.769,27.463 22.84,38.768 l 0.241,0.24 0.07,-0.334 c 0.006,-0.031 0.693,-3.426 1.073,-8.813 0.536,-7.644 0.458,-19.33 -2.965,-31.578 -4.083,-14.588 -11.86,-26.365 -23.127,-35.002 l -0.225,-0.172 -0.064,0.28 c -0.007,0.025 -0.626,2.769 -0.948,7.343 l 0.003,0.004 c -0.471,6.684 -0.313,17.186 3.102,29.264"
             id="path1930"
             style="fill:#f6998d;fill-opacity:1;fill-rule:nonzero;stroke:none" /></g><g
           transform="translate(1595.4121,1276.377)"
           id="g1932"><path
             d="m 0,0 c 6.114,11.449 13.095,29.445 11.637,50.195 -0.102,1.444 -0.245,2.91 -0.421,4.348 -2.861,-3.926 -27.303,-38.578 -25.025,-71.004 0.075,-1.111 0.187,-2.223 0.326,-3.31 1.34,1.496 7.584,8.724 13.483,19.771 m 11.192,55.129 0.27,0.355 0.056,-0.443 c 0.21,-1.594 0.371,-3.213 0.485,-4.82 C 13.465,29.385 6.458,11.316 0.325,-0.172 -6.321,-12.617 -13.409,-20.236 -13.482,-20.313 l -0.262,-0.283 -0.053,0.381 c -0.161,1.219 -0.29,2.477 -0.378,3.729 -2.415,34.392 25.088,71.25 25.367,71.615"
             id="path1934"
             style="fill:#f6998d;fill-opacity:1;fill-rule:nonzero;stroke:none" /></g><g
           transform="translate(1582.0654,1256.7969)"
           id="g1936"><path
             d="M 0,0 C 21.815,26.883 24.256,68.568 24.479,74.016 7.225,50.262 0.78,5.834 0,0 m -0.45,-0.588 c 0.062,0.496 6.256,50.035 24.988,75.297 l 0.339,0.461 -0.01,-0.574 C 24.857,74.133 23.608,28 -0.128,-0.727 l -0.393,-0.48 0.071,0.619 z"
             id="path1938"
             style="fill:#f6998d;fill-opacity:1;fill-rule:nonzero;stroke:none" /></g><g
           transform="translate(1582.1318,1256.7305)"
           id="g1940"><path
             d="M 0,0 C 11.673,11.096 21.784,62.51 23.443,71.289 13.328,50.693 1.474,5.691 0,0 m -0.51,-0.496 c 0.133,0.517 13.316,51.818 24.206,73.107 l 0.561,1.094 -0.218,-1.213 C 23.93,71.877 12.787,10.469 -0.217,-0.684 l -0.436,-0.375 0.143,0.563 z"
             id="path1942"
             style="fill:#f6998d;fill-opacity:1;fill-rule:nonzero;stroke:none" /></g><g
           transform="translate(1582.1816,1256.9902)"
           id="g1944"><path
             d="M 0,0 0.345,-0.129 C 1.381,2.705 25.77,69.387 24.649,73.928 l -0.358,-0.09 C 25.381,69.414 0.256,0.691 0,0"
             id="path1946"
             style="fill:#f6998d;fill-opacity:1;fill-rule:nonzero;stroke:none" /></g><g
           transform="translate(1562.6084,1270.6641)"
           id="g1948"><path
             d="m 0,0 c -11.379,5.119 -30.052,8.301 -54.406,-5.639 -0.664,-0.381 -4.503,-2.322 -5.455,-2.8 1.136,-1.356 8.876,-10.221 21.526,-15.448 12.571,-5.195 32.699,-7.765 57.265,9.451 C 18,-13.238 11.444,-5.154 0,0 m -60.229,-8.215 c 0.049,0.024 4.907,2.477 5.645,2.895 C -30.1,8.693 -11.308,5.49 0.15,0.334 12.563,-5.254 19.272,-14.273 19.339,-14.365 l 0.109,-0.151 -0.154,-0.107 c -10.935,-7.699 -21.924,-12.17 -32.662,-13.285 -8.594,-0.893 -17.048,0.349 -25.118,3.685 -13.739,5.682 -21.725,15.633 -21.804,15.729 l -0.138,0.178 0.199,0.101 z"
             id="path1950"
             style="fill:#f6998d;fill-opacity:1;fill-rule:nonzero;stroke:none" /></g><g
           transform="translate(1503.0244,1262.1738)"
           id="g1952"><path
             d="M 0,0 0.139,-0.34 C 28.476,11.488 48.32,9.275 59.979,5.338 72.594,1.076 78.587,-6.051 78.647,-6.123 l 0.284,0.23 C 78.87,-5.818 72.808,1.391 60.095,5.682 48.378,9.646 28.443,11.871 0,0"
             id="path1954"
             style="fill:#f6998d;fill-opacity:1;fill-rule:nonzero;stroke:none" /></g><g
           transform="translate(1502.9678,1261.8711)"
           id="g1956"><path
             d="m 0,0 c 18.71,-18.037 39.187,-18.668 53.063,-16.027 15.031,2.871 25.78,10.095 25.881,10.168 l -0.205,0.304 C 78.636,-5.623 67.938,-12.816 52.982,-15.666 39.191,-18.293 18.847,-17.662 0.252,0.266 L 0,0 z"
             id="path1958"
             style="fill:#f6998d;fill-opacity:1;fill-rule:nonzero;stroke:none" /></g><g
           transform="translate(1559.3359,1265.7715)"
           id="g1960"><path
             d="m 0,0 c -12.704,3.381 -32.687,5.455 -55.854,-3.803 1.765,-1.154 11.406,-7.203 24.749,-10.97 13.52,-3.817 33.707,-6.004 53.223,5.205 C 20.66,-8.582 12.552,-3.344 0,0 m -56.312,-3.594 c 23.406,9.451 43.599,7.36 56.423,3.946 13.896,-3.706 22.371,-9.723 22.458,-9.782 l 0.228,-0.172 -0.241,-0.144 c -19.706,-11.428 -40.114,-9.236 -53.764,-5.381 -14.774,4.17 -25.035,11.139 -25.138,11.213 l -0.283,0.191 0.317,0.129 z"
             id="path1962"
             style="fill:#f6998d;fill-opacity:1;fill-rule:nonzero;stroke:none" /></g><g
           transform="translate(1530.8398,1265.7617)"
           id="g1964"><path
             d="m 0,0 c -13.929,-0.732 -24.964,-3.264 -27.261,-3.822 18.969,-10.912 39.119,-11.879 52.726,-10.76 13.297,1.105 23.08,4.35 25.062,5.053 C 34.604,-0.314 14.288,0.748 0,0 m -27.791,-3.576 c 0.119,0.035 12.123,3.121 27.765,3.939 14.441,0.754 35.025,-0.33 51.075,-9.775 L 51.381,-9.607 51.02,-9.748 C 50.919,-9.787 40.408,-13.711 25.506,-14.943 11.748,-16.078 -8.672,-15.092 -27.84,-3.914 l -0.385,0.226 0.434,0.112 z"
             id="path1966"
             style="fill:#f6998d;fill-opacity:1;fill-rule:nonzero;stroke:none" /></g><g
           transform="translate(1504.7285,1261.8027)"
           id="g1968"><path
             d="M 0,0 C 5.002,-1.883 43.338,-15.502 76.408,-5.623 70.824,-4.111 28.438,6.857 0,0 M -0.662,0.217 C 29.761,7.859 76.651,-5.307 77.12,-5.441 l 0.598,-0.172 -0.593,-0.178 C 41.593,-16.736 -0.264,-0.303 -0.684,-0.135 l -0.525,0.211 0.547,0.141 z"
             id="path1970"
             style="fill:#f6998d;fill-opacity:1;fill-rule:nonzero;stroke:none" /></g><g
           transform="translate(1506.0479,1261.8613)"
           id="g1972"><path
             d="M 0,0 C 8.767,-1.85 60.421,-12.32 75.12,-5.771 69.28,-4.945 22.844,1.451 0,0 M -1.318,0.277 C 22.431,2.176 75.245,-5.416 75.776,-5.49 l 0.574,-0.082 -0.517,-0.264 c -15.249,-7.762 -76.562,5.611 -77.178,5.744 l -1.2,0.274 1.227,0.095 z"
             id="path1974"
             style="fill:#f6998d;fill-opacity:1;fill-rule:nonzero;stroke:none" /></g><g
           transform="translate(1503.5039,1261.752)"
           id="g1976"><path
             d="m 0,0 c 3.743,-2.787 74.391,-5.846 77.395,-5.979 l 0.016,0.366 C 76.677,-5.578 3.872,-2.424 0.217,0.295 L 0,0 z"
             id="path1978"
             style="fill:#f6998d;fill-opacity:1;fill-rule:nonzero;stroke:none" /></g><g
           transform="translate(1504.4063,1302.8535)"
           id="g1980"><path
             d="M 0,0 0.031,-0.227 C 0.052,-0.406 2.439,-18.215 16.346,-31.75 l 0.255,0.264 C 3.638,-18.865 0.747,-2.508 0.425,-0.406 c 1.06,-0.088 5.341,-0.43 6.109,-0.455 33.564,-0.957 48.028,-18.092 54.247,-32.307 l 0.334,0.156 c -3.724,8.506 -9.291,15.53 -16.536,20.879 C 34.691,-4.844 21.895,-0.926 6.545,-0.49 5.695,-0.463 0.281,-0.027 0.226,-0.02 L 0,0 z"
             id="path1982"
             style="fill:#f6998d;fill-opacity:1;fill-rule:nonzero;stroke:none" /></g><g
           transform="translate(1504.9824,1301.9004)"
           id="g1984"><path
             d="m 0,0 c 34.066,-5.26 50.188,-19.898 57.712,-31.242 l 0.305,0.205 C 50.455,-19.625 34.256,-4.922 0.057,0.363 L 0,0 z"
             id="path1986"
             style="fill:#f6998d;fill-opacity:1;fill-rule:nonzero;stroke:none" /></g><g
           transform="translate(1504.8359,1302.0313)"
           id="g1988"><path
             d="m 0,0 c 3.269,-12.361 9.345,-22.51 18.045,-30.152 l 0.244,0.275 C 9.641,-22.279 3.604,-12.191 0.354,0.098 L 0,0 z"
             id="path1990"
             style="fill:#f6998d;fill-opacity:1;fill-rule:nonzero;stroke:none" /></g><g
           transform="translate(1504.7021,1302.3223)"
           id="g1992"><path
             d="M 0,0 0.143,-0.316 C 0.214,-0.473 7.457,-16.289 22.24,-29.254 l 0.239,0.277 C 8.909,-17.078 1.721,-2.77 0.625,-0.479 c 26.928,-4.57 43.742,-18.65 53.11,-29.683 l 0.283,0.238 C 44.565,-18.795 27.577,-4.58 0.337,-0.059 L 0,0 z"
             id="path1994"
             style="fill:#f6998d;fill-opacity:1;fill-rule:nonzero;stroke:none" /></g><g
           transform="translate(1504.6367,1302.3867)"
           id="g1996"><path
             d="m 0,0 0.217,-0.395 c 5.902,-10.894 14.332,-20.392 25.041,-28.226 l 0.213,0.299 C 14.938,-20.615 6.625,-11.299 0.755,-0.621 4.517,-1.83 31.939,-11.072 51.125,-29.352 l 0.252,0.268 C 30.775,-9.461 0.727,-0.217 0.429,-0.125 L 0,0 z"
             id="path1998"
             style="fill:#f6998d;fill-opacity:1;fill-rule:nonzero;stroke:none" /></g><g
           transform="translate(1505.6738,1301.5547)"
           id="g2000"><path
             d="m 0,0 0.325,-0.449 c 0.096,-0.135 10.058,-13.785 27.053,-26.733 l 0.221,0.291 C 12.392,-15.305 2.839,-3.168 0.959,-0.695 13.661,-4.771 27.627,-13.373 43.638,-26.979 l 0.237,0.282 C 27.599,-12.869 13.419,-4.189 0.528,-0.172 L 0,0 z"
             id="path2002"
             style="fill:#f6998d;fill-opacity:1;fill-rule:nonzero;stroke:none" /></g><g
           transform="translate(1505.7471,1301.5977)"
           id="g2004"><path
             d="m 0,0 0.844,-0.832 c 14.769,-14.504 18.072,-16.973 24.068,-21.457 1.61,-1.205 3.436,-2.574 5.729,-4.357 l 0.22,0.289 c -2.291,1.793 -4.119,3.158 -5.728,4.363 -5.867,4.389 -9.15,6.844 -23.167,20.578 11.362,-5.951 25.654,-16.451 36.94,-25.016 l 0.223,0.295 C 27.469,-17.289 12.604,-6.379 1.053,-0.533 L 0,0 z"
             id="path2006"
             style="fill:#f6998d;fill-opacity:1;fill-rule:nonzero;stroke:none" /></g><g
           transform="translate(1505.2295,1301.6484)"
           id="g2008"><path
             d="m 0,0 c 0.779,-1.922 12.662,-10.861 35.314,-26.564 l 0.208,0.308 C 7.382,-6.75 0.854,-1.137 0.337,0.135 L 0,0 z"
             id="path2010"
             style="fill:#f6998d;fill-opacity:1;fill-rule:nonzero;stroke:none" /></g><g
           transform="translate(1561.1504,1308.5547)"
           id="g2012"><path
             d="m 0,0 c 0.212,-3.002 0.66,-5.934 1.35,-8.785 2.123,-8.781 6.437,-16.647 12.821,-23.371 l 0.266,0.248 C 3.773,-20.668 -6.409,-0.656 5.629,30.826 5.91,31.545 7.241,35.643 7.573,36.66 9.378,35.551 23.301,26.578 29.901,9.703 l 0.343,0.129 C 23.161,27.938 7.712,37.004 7.559,37.096 L 7.363,37.207 7.293,36.994 C 7.275,36.938 5.597,31.75 5.29,30.955 1.093,19.988 -0.672,9.613 0,0"
             id="path2014"
             style="fill:#f6998d;fill-opacity:1;fill-rule:nonzero;stroke:none" /></g><g
           transform="translate(1565.3281,1310.623)"
           id="g2016"><path
             d="m 0,0 c 1.012,-14.406 5.468,-24.627 10.025,-31.494 l 0.301,0.205 C 2.795,-19.947 -4.447,0.629 3.836,34.236 L 3.482,34.33 C 0.172,20.895 -0.667,9.527 0,0"
             id="path2018"
             style="fill:#f6998d;fill-opacity:1;fill-rule:nonzero;stroke:none" /></g><g
           transform="translate(1568.877,1344.7637)"
           id="g2020"><path
             d="m 0,0 c 10.043,-7.744 16.985,-17.223 20.637,-28.162 l 0.345,0.109 C 17.309,-17.035 10.322,-7.502 0.225,0.289 L 0,0 z"
             id="path2022"
             style="fill:#f6998d;fill-opacity:1;fill-rule:nonzero;stroke:none" /></g><g
           transform="translate(1566.4512,1316.9199)"
           id="g2024"><path
             d="m 0,0 c 0.969,-13.852 5.042,-25.119 9.133,-33.229 l 0.327,0.166 C 2.929,-20.129 -3.536,0.871 2.636,27.605 4.318,25.705 14.695,13.535 20.405,-3.627 l 0.351,0.115 C 14.534,15.188 2.787,27.986 2.668,28.115 L 2.434,28.367 2.359,28.025 C -0.036,17.818 -0.592,8.43 0,0"
             id="path2026"
             style="fill:#f6998d;fill-opacity:1;fill-rule:nonzero;stroke:none" /></g><g
           transform="translate(1568.752,1321.2188)"
           id="g2028"><path
             d="m 0,0 c 0.737,-10.477 2.632,-23.027 7.044,-34.676 l 0.344,0.131 C -2.021,-9.717 0.035,19.264 0.376,23.217 7.929,13.668 13.292,2.371 16.314,-10.361 l 0.358,0.08 C 13.597,2.666 8.111,14.137 0.377,23.807 L 0.1,24.156 0.053,23.709 C 0.035,23.529 -0.947,13.498 0,0"
             id="path2030"
             style="fill:#f6998d;fill-opacity:1;fill-rule:nonzero;stroke:none" /></g><g
           transform="translate(1568.9902,1330.4141)"
           id="g2032"><path
             d="m 0,0 c 0.747,-10.658 3.354,-22.979 7.863,-37.273 l 0.35,0.109 c -6.376,20.226 -8.939,36.475 -7.816,49.652 1.56,-2.679 9.12,-16.179 13.91,-34.746 l 0.353,0.092 C 9.31,-1.424 0.51,13.025 0.422,13.164 L 0.135,13.631 0.083,13.086 C -0.296,9.025 -0.327,4.67 0,0"
             id="path2034"
             style="fill:#f6998d;fill-opacity:1;fill-rule:nonzero;stroke:none" /></g><g
           transform="translate(1569.0566,1344.5742)"
           id="g2036"><path
             d="m 0,0 0.089,-1.211 c 0.874,-12.266 5.133,-30.068 9.18,-45.867 l 0.355,0.09 C 5.717,-31.746 1.62,-14.641 0.555,-2.467 2.204,-6.855 7.992,-22.627 12.559,-39.572 l 0.352,0.095 C 7.552,-19.594 0.513,-1.318 0.443,-1.135 L 0,0 z"
             id="path2038"
             style="fill:#f6998d;fill-opacity:1;fill-rule:nonzero;stroke:none" /></g><g
           transform="translate(1569.0439,1344.2832)"
           id="g2040"><path
             d="m 0,0 c 0.974,-0.977 3.623,-9.186 10.712,-42.791 l 0.355,0.08 C 5.358,-15.66 1.726,-1.205 0.257,0.258 L 0,0 z"
             id="path2042"
             style="fill:#f6998d;fill-opacity:1;fill-rule:nonzero;stroke:none" /></g><g
           transform="translate(1538.832,1309.1621)"
           id="g2044"><path
             d="m 0,0 c 0.354,-4.973 1.131,-9.664 2.336,-14.023 l 0.352,0.095 C 0.709,-6.768 -0.119,1.285 0.233,10.02 0.265,10.787 0.416,15.131 0.454,16.168 2.044,15.803 12.363,13.242 22.29,5.371 l 0.227,0.291 C 11.703,14.232 0.426,16.545 0.314,16.574 L 0.105,16.613 0.093,16.396 c 0,0 -0.191,-5.492 -0.223,-6.357 C -0.271,6.584 -0.227,3.229 0,0"
             id="path2046"
             style="fill:#f6998d;fill-opacity:1;fill-rule:nonzero;stroke:none" /></g><g
           transform="translate(1539.2031,1325.1172)"
           id="g2048"><path
             d="m 0,0 c 1.044,-12.479 3.559,-23.646 7.478,-33.201 l 0.34,0.142 c -3.91,9.518 -6.413,20.653 -7.451,33.09 L 0,0 z"
             id="path2050"
             style="fill:#f6998d;fill-opacity:1;fill-rule:nonzero;stroke:none" /></g><g
           transform="translate(1539.3281,1324.959)"
           id="g2052"><path
             d="m 0,0 c 8.454,-2.891 15.769,-7.129 21.741,-12.58 l 0.249,0.271 C 15.976,-6.818 8.618,-2.561 0.119,0.346 L 0,0 z"
             id="path2054"
             style="fill:#f6998d;fill-opacity:1;fill-rule:nonzero;stroke:none" /></g><g
           transform="translate(1539.1748,1325.459)"
           id="g2056"><path
             d="m 0,0 0.028,-0.342 c 1.235,-12.949 4.849,-24.965 10.748,-35.724 l 0.323,0.181 C 5.272,-25.27 1.688,-13.426 0.431,-0.66 2.298,-1.725 12.479,-7.787 22.137,-18.393 l 0.271,0.243 C 11.73,-6.422 0.413,-0.225 0.298,-0.162 L 0,0 z"
             id="path2058"
             style="fill:#f6998d;fill-opacity:1;fill-rule:nonzero;stroke:none" /></g><g
           transform="translate(1539.1113,1325.5293)"
           id="g2060"><path
             d="M 0,0 0.101,-0.438 C 0.146,-0.65 5.102,-22.17 17.225,-41.984 l 0.309,0.191 C 6.408,-23.602 1.336,-3.967 0.561,-0.797 8.99,-6.26 16.415,-13.369 22.636,-21.934 l 0.298,0.221 C 16.588,-12.984 9,-5.768 0.374,-0.242 L 0,0 z"
             id="path2062"
             style="fill:#f6998d;fill-opacity:1;fill-rule:nonzero;stroke:none" /></g><g
           transform="translate(1539.4473,1324.8809)"
           id="g2064"><path
             d="m 0,0 0.132,-0.549 c 7.218,-30.65 40.637,-66.517 40.973,-66.873 l 0.269,0.252 C 41.039,-66.82 8.097,-31.461 0.623,-1.037 2.915,-3.102 13.84,-13.281 23.832,-27.938 l 0.305,0.204 C 12.934,-11.295 0.553,-0.479 0.43,-0.371 L 0,0 z"
             id="path2066"
             style="fill:#f6998d;fill-opacity:1;fill-rule:nonzero;stroke:none" /></g><g
           transform="translate(1539.3809,1325.2402)"
           id="g2068"><path
             d="m 0,0 0.485,-1.148 c 9.231,-22.067 40.358,-66.172 40.672,-66.62 l 0.297,0.211 C 41.146,-67.115 11.141,-24.6 1.339,-2.215 5.898,-7.861 28.098,-35.75 37.18,-54.836 l 0.334,0.154 C 27.393,-33.422 1.057,-1.283 0.796,-0.963 L 0,0 z"
             id="path2070"
             style="fill:#f6998d;fill-opacity:1;fill-rule:nonzero;stroke:none" /></g><g
           transform="translate(1539.6416,1324.5527)"
           id="g2072"><path
             d="M 0,0 C 4.087,-2.008 40.321,-65.518 40.684,-66.162 L 41,-65.982 C 39.509,-63.359 4.345,-1.73 0.159,0.332 L 0,0 z"
             id="path2074"
             style="fill:#f6998d;fill-opacity:1;fill-rule:nonzero;stroke:none" /></g><g
           transform="translate(1500.1768,1381.7383)"
           id="g2076"><path
             d="M 0,0 139.833,-202.859"
             id="path2078"
             style="fill:none;stroke:#ffffff;stroke-width:1;stroke-linecap:butt;stroke-linejoin:miter;stroke-miterlimit:10;stroke-opacity:1;stroke-dasharray:none" /></g><g
           transform="translate(1711.4355,1368.0117)"
           id="g2080"><path
             d="M 0,0 146.191,-181.295"
             id="path2082"
             style="fill:none;stroke:#ffffff;stroke-width:1;stroke-linecap:butt;stroke-linejoin:miter;stroke-miterlimit:10;stroke-opacity:1;stroke-dasharray:none" /></g><g
           transform="translate(1217.9912,1097.1641)"
           id="g2084"><path
             d="M 0,0 -160.89,339.182"
             id="path2086"
             style="fill:none;stroke:#ffffff;stroke-width:1;stroke-linecap:butt;stroke-linejoin:miter;stroke-miterlimit:10;stroke-opacity:1;stroke-dasharray:none" /></g><g
           transform="translate(1165.1055,1329.2813)"
           id="g2088"><path
             d="m 0,0 c 1.286,11.609 -1.318,20.869 -1.777,22.393 -0.917,-0.547 -4.629,-2.723 -5.315,-3.075 -26.021,-13.535 -33.215,-31.98 -34.664,-45.072 -1.26,-11.351 1.576,-20.178 2.037,-21.527 C -9.879,-35.084 -1.646,-14.85 0,0 m -7.26,19.641 c 0.758,0.396 5.445,3.154 5.493,3.183 l 0.197,0.11 0.074,-0.211 C -1.467,22.621 1.773,12.686 0.363,-0.039 -1.299,-15.016 -9.602,-35.436 -39.761,-47.693 l -0.177,-0.073 -0.062,0.174 c -0.033,0.094 -3.492,9.502 -2.116,21.879 1.462,13.186 8.691,31.75 34.856,45.354"
             id="path2090"
             style="fill:#f6998d;fill-opacity:1;fill-rule:nonzero;stroke:none" /></g><g
           transform="translate(1124.1504,1296.4551)"
           id="g2092"><path
             d="m 0,0 c -0.99,-8.932 0.736,-14.676 0.758,-14.748 l 0.352,0.107 C 1.078,-14.549 -1.607,-5.6 1.721,7.357 4.791,19.318 13.77,37.238 39.068,54.691 l -0.205,0.301 C 13.457,37.467 4.446,19.451 1.359,7.42 0.68,4.766 0.252,2.279 0,0"
             id="path2094"
             style="fill:#f6998d;fill-opacity:1;fill-rule:nonzero;stroke:none" /></g><g
           transform="translate(1125.0137,1281.9277)"
           id="g2096"><path
             d="m 0,0 0.14,-0.336 c 0.119,0.053 12.01,5.188 22.596,16.297 9.772,10.258 20.405,27.861 15.547,53.441 L 37.924,69.334 C 42.754,43.898 32.188,26.412 22.473,16.211 11.939,5.156 0.117,0.055 0,0"
             id="path2098"
             style="fill:#f6998d;fill-opacity:1;fill-rule:nonzero;stroke:none" /></g><g
           transform="translate(1162.4102,1342.4785)"
           id="g2100"><path
             d="m 0,0 c 0.486,4.365 0.529,7.459 0.527,8.463 -28.752,-20.461 -35.709,-47.49 -37.296,-61.807 -0.409,-3.691 -0.407,-6.23 -0.393,-7.049 C -9.045,-45.826 -1.809,-16.318 0,0 m -28.826,-25.068 c 6.611,13.451 16.508,24.902 29.43,34.037 L 0.882,9.162 0.891,8.82 C 0.89,8.789 0.96,5.326 0.365,-0.041 -0.48,-7.658 -2.652,-19.139 -8.219,-30.574 c -6.635,-13.619 -16.4,-23.809 -29.034,-30.281 l -0.256,-0.131 -0.009,0.289 c -0.003,0.023 -0.119,2.836 0.385,7.392 l 0.005,0.004 c 0.733,6.66 2.774,16.961 8.302,28.233"
             id="path2102"
             style="fill:#f6998d;fill-opacity:1;fill-rule:nonzero;stroke:none" /></g><g
           transform="translate(1142.0879,1299.2031)"
           id="g2104"><path
             d="m 0,0 c 8.069,10.166 18.168,26.617 20.459,47.291 0.158,1.439 0.28,2.908 0.365,4.354 -3.519,-3.348 -33.785,-33.051 -37.363,-65.358 -0.125,-1.107 -0.213,-2.223 -0.274,-3.316 C -15.225,-15.797 -7.785,-9.809 0,0 m 20.906,52.227 0.326,0.3 -0.021,-0.447 C 21.131,50.475 21,48.854 20.822,47.25 18.521,26.492 8.385,9.975 0.289,-0.227 -8.482,-11.277 -16.824,-17.5 -16.908,-17.563 l -0.309,-0.23 0.017,0.385 c 0.059,1.226 0.16,2.486 0.298,3.734 3.797,34.268 37.467,65.592 37.808,65.901"
             id="path2106"
             style="fill:#f6998d;fill-opacity:1;fill-rule:nonzero;stroke:none" /></g><g
           transform="translate(1125.4453,1282.3379)"
           id="g2108"><path
             d="M 0,0 C 26.285,22.531 36.17,63.1 37.365,68.422 16.128,48.148 1.814,5.6 0,0 M -0.547,-0.498 C -0.398,-0.02 14.588,47.6 37.547,69.092 L 37.965,69.484 37.85,68.92 C 37.757,68.467 28.25,23.309 -0.256,-0.693 l -0.474,-0.401 0.183,0.596 z"
             id="path2110"
             style="fill:#f6998d;fill-opacity:1;fill-rule:nonzero;stroke:none" /></g><g
           transform="translate(1125.498,1282.2598)"
           id="g2112"><path
             d="M 0,0 C 13.475,8.82 32.65,57.584 35.857,65.924 22.211,47.479 2.471,5.334 0,0 M -0.592,-0.396 C -0.367,0.09 21.809,48.189 36.344,67.178 L 37.09,68.156 36.66,67 C 36.441,66.414 14.457,8.006 -0.336,-0.633 l -0.498,-0.291 0.242,0.528 z"
             id="path2114"
             style="fill:#f6998d;fill-opacity:1;fill-rule:nonzero;stroke:none" /></g><g
           transform="translate(1125.5938,1282.5059)"
           id="g2116"><path
             d="m 0,0 0.316,-0.188 c 1.53,2.602 37.489,63.825 37.202,68.493 L 37.15,68.279 C 37.428,63.732 0.373,0.637 0,0"
             id="path2118"
             style="fill:#f6998d;fill-opacity:1;fill-rule:nonzero;stroke:none" /></g><g
           transform="translate(1108.7939,1299.4727)"
           id="g2120"><path
             d="m 0,0 c -10.278,7.078 -28.075,13.559 -54.538,4.217 -0.721,-0.256 -4.844,-1.477 -5.867,-1.776 0.875,-1.537 6.896,-11.648 18.404,-19.06 11.434,-7.367 30.773,-13.51 58.031,-0.981 C 15.329,-16.256 10.331,-7.125 0,0 m -60.728,2.727 c 0.053,0.015 5.272,1.556 6.073,1.836 26.602,9.392 44.515,2.867 54.861,-4.262 11.207,-7.727 16.191,-17.801 16.24,-17.906 l 0.08,-0.166 -0.171,-0.079 c -12.139,-5.611 -23.754,-8.037 -34.518,-7.207 -8.611,0.664 -16.707,3.405 -24.049,8.135 -12.494,8.055 -18.564,19.277 -18.625,19.385 l -0.103,0.199 0.212,0.065 z"
             id="path2122"
             style="fill:#f6998d;fill-opacity:1;fill-rule:nonzero;stroke:none" /></g><g
           transform="translate(1048.6523,1301.8145)"
           id="g2124"><path
             d="m 0,0 0.076,-0.359 c 30,6.548 49.125,0.81 59.887,-5.155 11.644,-6.457 16.262,-14.545 16.308,-14.627 l 0.323,0.176 c -0.047,0.084 -4.719,8.266 -16.457,14.768 C 49.324,0.807 30.111,6.572 0,0"
             id="path2126"
             style="fill:#f6998d;fill-opacity:1;fill-rule:nonzero;stroke:none" /></g><g
           transform="translate(1048.541,1301.5273)"
           id="g2128"><path
             d="m 0,0 c 15.172,-21.104 35.201,-25.4 49.326,-25.293 15.3,0.127 27.172,5.305 27.286,5.357 L 76.465,-19.6 C 76.35,-19.646 64.535,-24.805 49.313,-24.922 35.273,-25.031 15.371,-20.76 0.297,0.215 L 0,0 z"
             id="path2130"
             style="fill:#f6998d;fill-opacity:1;fill-rule:nonzero;stroke:none" /></g><g
           transform="translate(1104.6953,1295.2441)"
           id="g2132"><path
             d="m 0,0 c -11.891,5.607 -31.178,11.236 -55.629,6.285 1.527,-1.451 9.926,-9.133 22.377,-15.232 12.615,-6.184 32.08,-11.957 53.293,-4.434 C 18.785,-12.148 11.747,-5.541 0,0 M -56.043,6.574 C -31.32,11.67 -11.83,5.988 0.174,0.326 13.178,-5.811 20.437,-13.252 20.508,-13.324 l 0.195,-0.209 -0.264,-0.102 c -21.437,-7.705 -41.121,-1.886 -53.857,4.358 -13.785,6.752 -22.627,15.451 -22.715,15.543 l -0.244,0.238 0.334,0.07 z"
             id="path2134"
             style="fill:#f6998d;fill-opacity:1;fill-rule:nonzero;stroke:none" /></g><g
           transform="translate(1076.6621,1300.3516)"
           id="g2136"><path
             d="m 0,0 c -13.838,1.779 -25.146,1.27 -27.508,1.133 16.703,-14.141 36.355,-18.709 49.94,-20.051 13.277,-1.297 23.488,0.139 25.56,0.473 C 33.982,-6.52 14.189,-1.828 0,0 m -27.982,1.469 c 0.123,0.013 12.486,0.896 28.018,-1.108 14.343,-1.849 34.399,-6.611 48.493,-18.785 l 0.291,-0.25 -0.379,-0.074 c -0.109,-0.022 -11.152,-1.994 -26.034,-0.533 -13.737,1.353 -33.649,5.99 -50.499,20.427 l -0.338,0.292 0.448,0.031 z"
             id="path2138"
             style="fill:#f6998d;fill-opacity:1;fill-rule:nonzero;stroke:none" /></g><g
           transform="translate(1050.2607,1301.1426)"
           id="g2140"><path
             d="M 0,0 C 4.584,-2.75 39.854,-23.029 74.161,-19.246 68.938,-16.758 29.208,1.643 0,0 m -0.61,0.332 c 31.299,2.059 75.066,-19.311 75.502,-19.527 l 0.556,-0.276 -0.615,-0.068 C 37.913,-23.93 -0.312,-0.25 -0.694,-0.01 l -0.483,0.303 0.567,0.039 z"
             id="path2142"
             style="fill:#f6998d;fill-opacity:1;fill-rule:nonzero;stroke:none" /></g><g
           transform="translate(1051.5703,1300.9629)"
           id="g2144"><path
             d="M 0,0 C 8.293,-3.393 57.229,-22.965 72.865,-19.16 67.268,-17.299 22.733,-2.672 0,0 m -1.248,0.51 c 23.705,-2.395 74.301,-19.344 74.81,-19.512 l 0.548,-0.182 -0.555,-0.168 C 57.158,-24.25 -0.756,-0.088 -1.338,0.152 L -2.473,0.635 -1.248,0.51 z"
             id="path2146"
             style="fill:#f6998d;fill-opacity:1;fill-rule:nonzero;stroke:none" /></g><g
           transform="translate(1049.0479,1301.3125)"
           id="g2148"><path
             d="m 0,0 c 3.183,-3.414 72.134,-19.104 75.065,-19.773 l 0.082,0.357 C 74.431,-19.248 3.374,-3.08 0.267,0.25 L 0,0 z"
             id="path2150"
             style="fill:#f6998d;fill-opacity:1;fill-rule:nonzero;stroke:none" /></g><g
           transform="translate(1057.3145,1341.5859)"
           id="g2152"><path
             d="m 0,0 -0.014,-0.229 c -0.01,-0.181 -0.855,-18.128 10.395,-33.939 l 0.297,0.211 C 0.189,-19.213 0.283,-2.604 0.344,-0.479 1.371,-0.752 5.52,-1.857 6.271,-2.021 c 32.848,-6.965 44,-26.418 47.567,-41.518 l 0.357,0.094 c -2.134,9.035 -6.349,16.943 -12.52,23.507 -8.416,8.946 -20.302,15.096 -35.325,18.282 -0.833,0.177 -6.08,1.58 -6.133,1.595 L 0,0 z"
             id="path2154"
             style="fill:#f6998d;fill-opacity:1;fill-rule:nonzero;stroke:none" /></g><g
           transform="translate(1057.709,1340.543)"
           id="g2156"><path
             d="m 0,0 c 32.569,-11.287 45.802,-28.582 51.166,-41.092 l 0.337,0.147 C 46.111,-28.361 32.815,-10.99 0.119,0.35 L 0,0 z"
             id="path2158"
             style="fill:#f6998d;fill-opacity:1;fill-rule:nonzero;stroke:none" /></g><g
           transform="translate(1057.5898,1340.6992)"
           id="g2160"><path
             d="m 0,0 c 0.994,-12.748 5.15,-23.822 12.339,-32.9 l 0.291,0.224 C 5.482,-23.65 1.355,-12.641 0.363,0.031 L 0,0 z"
             id="path2162"
             style="fill:#f6998d;fill-opacity:1;fill-rule:nonzero;stroke:none" /></g><g
           transform="translate(1057.5098,1341.0098)"
           id="g2164"><path
             d="M 0,0 0.082,-0.336 C 0.125,-0.504 4.41,-17.363 16.627,-32.77 l 0.286,0.227 C 5.697,-18.4 1.195,-3.033 0.527,-0.584 26.197,-9.912 40.213,-26.781 47.449,-39.318 l 0.319,0.183 C 40.467,-26.49 26.307,-9.457 0.318,-0.117 L 0,0 z"
             id="path2166"
             style="fill:#f6998d;fill-opacity:1;fill-rule:nonzero;stroke:none" /></g><g
           transform="translate(1057.4551,1341.084)"
           id="g2168"><path
             d="M 0,0 0.142,-0.426 C 3.994,-12.203 10.58,-23.059 19.713,-32.688 l 0.262,0.252 c -8.979,9.473 -15.484,20.133 -19.344,31.69 3.484,-1.865 28.803,-15.879 44.398,-37.305 l 0.295,0.217 C 28.579,-14.832 0.676,-0.346 0.398,-0.201 L 0,0 z"
             id="path2170"
             style="fill:#f6998d;fill-opacity:1;fill-rule:nonzero;stroke:none" /></g><g
           transform="translate(1058.3281,1340.0801)"
           id="g2172"><path
             d="M 0,0 0.236,-0.502 C 0.309,-0.65 7.658,-15.867 22.053,-31.654 l 0.269,0.246 C 9.441,-17.281 2.223,-3.627 0.818,-0.855 12.582,-7.146 24.777,-18.115 38.084,-34.373 l 0.285,0.234 C 24.84,-17.615 12.447,-6.531 0.486,-0.266 L 0,0 z"
             id="path2174"
             style="fill:#f6998d;fill-opacity:1;fill-rule:nonzero;stroke:none" /></g><g
           transform="translate(1058.4063,1340.1094)"
           id="g2176"><path
             d="m 0,0 0.681,-0.971 c 11.925,-16.918 14.731,-19.941 19.825,-25.427 1.367,-1.475 2.918,-3.151 4.853,-5.317 l 0.269,0.246 c -1.931,2.174 -3.483,3.846 -4.851,5.321 -4.984,5.369 -7.771,8.373 -19.097,24.402 10.109,-7.895 22.285,-20.789 31.851,-31.24 l 0.272,0.252 C 23.92,-21.939 11.254,-8.537 0.939,-0.713 L 0,0 z"
             id="path2178"
             style="fill:#f6998d;fill-opacity:1;fill-rule:nonzero;stroke:none" /></g><g
           transform="translate(1057.9063,1340.252)"
           id="g2180"><path
             d="m 0,0 c 0.421,-2.031 10.508,-12.957 29.971,-32.473 l 0.262,0.266 C 6.053,-7.967 0.638,-1.271 0.355,0.072 L 0,0 z"
             id="path2182"
             style="fill:#f6998d;fill-opacity:1;fill-rule:nonzero;stroke:none" /></g><g
           transform="translate(1114.1602,1337.0098)"
           id="g2184"><path
             d="m 0,0 c -0.33,-2.992 -0.418,-5.957 -0.25,-8.887 0.513,-9.019 3.342,-17.529 8.418,-25.291 l 0.305,0.196 c -8.471,12.97 -14.899,34.486 2.599,63.296 0.401,0.657 2.448,4.448 2.956,5.389 1.577,-1.414 13.663,-12.74 17.128,-30.527 l 0.358,0.068 C 27.799,23.326 14.227,35.018 14.094,35.137 L 13.92,35.281 13.813,35.084 C 13.787,35.031 11.203,30.23 10.758,29.502 4.662,19.467 1.063,9.578 0,0"
             id="path2186"
             style="fill:#f6998d;fill-opacity:1;fill-rule:nonzero;stroke:none" /></g><g
           transform="translate(1118.6406,1338.293)"
           id="g2188"><path
             d="m 0,0 c -1.592,-14.354 0.957,-25.209 4.207,-32.779 l 0.336,0.146 c -5.372,12.51 -8.804,34.051 5.375,65.627 L 9.584,33.148 C 3.92,20.525 1.051,9.494 0,0"
             id="path2190"
             style="fill:#f6998d;fill-opacity:1;fill-rule:nonzero;stroke:none" /></g><g
           transform="translate(1128.2578,1371.2441)"
           id="g2192"><path
             d="m 0,0 c 8.49,-9.424 13.619,-19.992 15.248,-31.41 l 0.359,0.047 C 13.971,-19.867 8.809,-9.234 0.273,0.244 L 0,0 z"
             id="path2194"
             style="fill:#f6998d;fill-opacity:1;fill-rule:nonzero;stroke:none" /></g><g
           transform="translate(1120.875,1344.2871)"
           id="g2196"><path
             d="m 0,0 c -1.533,-13.801 0.452,-25.617 3.022,-34.33 l 0.351,0.105 C -0.73,-20.328 -3.322,1.49 7.549,26.686 8.861,24.512 16.887,10.678 19.422,-7.23 l 0.366,0.05 C 17.023,12.332 7.764,27.031 7.67,27.18 L 7.486,27.469 7.35,27.146 C 3.162,17.535 0.932,8.398 0,0"
             id="path2198"
             style="fill:#f6998d;fill-opacity:1;fill-rule:nonzero;stroke:none" /></g><g
           transform="translate(1123.9111,1348.1016)"
           id="g2200"><path
             d="m 0,0 c -1.155,-10.436 -1.546,-23.125 0.704,-35.375 l 0.363,0.064 c -4.8,26.116 2.424,54.256 3.469,58.084 5.717,-10.75 8.964,-22.824 9.652,-35.892 l 0.366,0.014 c -0.7,13.289 -4.037,25.558 -9.91,36.459 L 4.433,23.748 4.306,23.316 C 4.257,23.143 1.491,13.449 0,0"
             id="path2202"
             style="fill:#f6998d;fill-opacity:1;fill-rule:nonzero;stroke:none" /></g><g
           transform="translate(1125.7949,1357.1074)"
           id="g2204"><path
             d="m 0,0 c -1.178,-10.621 -0.826,-23.211 1.045,-38.08 l 0.365,0.045 C -1.234,-16.994 -0.836,-0.549 2.631,12.213 3.688,9.297 8.698,-5.342 10.08,-24.465 l 0.363,0.026 C 8.902,-3.072 2.84,12.721 2.777,12.873 L 2.581,13.385 2.429,12.857 C 1.328,8.932 0.516,4.652 0,0"
             id="path2206"
             style="fill:#f6998d;fill-opacity:1;fill-rule:nonzero;stroke:none" /></g><g
           transform="translate(1128.4023,1371.0254)"
           id="g2208"><path
             d="m 0,0 -0.131,-1.209 c -1.344,-12.223 -0.347,-30.5 0.798,-46.77 l 0.366,0.026 c -1.107,15.695 -2.068,33.258 -0.931,45.426 0.835,-4.616 3.699,-21.168 5.15,-38.659 l 0.365,0.032 C 3.91,-20.633 0.268,-1.391 0.232,-1.197 L 0,0 z"
             id="path2210"
             style="fill:#f6998d;fill-opacity:1;fill-rule:nonzero;stroke:none" /></g><g
           transform="translate(1128.3359,1370.7402)"
           id="g2212"><path
             d="m 0,0 c 0.782,-1.135 1.916,-9.686 2.859,-44.02 l 0.364,0.016 C 2.463,-16.367 1.48,-1.496 0.299,0.207 L 0,0 z"
             id="path2214"
             style="fill:#f6998d;fill-opacity:1;fill-rule:nonzero;stroke:none" /></g><g
           transform="translate(1092.3125,1341.6113)"
           id="g2216"><path
             d="m 0,0 c -0.547,-4.953 -0.624,-9.709 -0.219,-14.215 l 0.362,0.033 c -0.66,7.397 -0.03,15.469 1.883,23.998 0.169,0.75 1.099,4.995 1.321,6.01 1.501,-0.644 11.192,-5.015 19.546,-14.543 l 0.273,0.246 C 14.068,11.9 3.389,16.201 3.285,16.25 L 3.082,16.326 3.033,16.113 c 0,0 -1.172,-5.369 -1.359,-6.213 C 0.914,6.525 0.357,3.217 0,0"
             id="path2218"
             style="fill:#f6998d;fill-opacity:1;fill-rule:nonzero;stroke:none" /></g><g
           transform="translate(1095.5391,1357.2402)"
           id="g2220"><path
             d="m 0,0 c -1.211,-12.463 -0.742,-23.898 1.398,-34.002 l 0.362,0.078 c -2.139,10.067 -2.604,21.469 -1.391,33.891 L 0,0 z"
             id="path2222"
             style="fill:#f6998d;fill-opacity:1;fill-rule:nonzero;stroke:none" /></g><g
           transform="translate(1095.6357,1357.0625)"
           id="g2224"><path
             d="m 0,0 c 7.797,-4.359 14.231,-9.844 19.13,-16.277 l 0.295,0.222 C 14.491,-9.574 8.018,-4.066 0.179,0.32 L 0,0 z"
             id="path2226"
             style="fill:#f6998d;fill-opacity:1;fill-rule:nonzero;stroke:none" /></g><g
           transform="translate(1095.5742,1357.584)"
           id="g2228"><path
             d="m 0,0 -0.035,-0.344 c -1.11,-12.959 0.289,-25.427 4.163,-37.072 l 0.351,0.121 C 0.652,-25.807 -0.75,-13.512 0.306,-0.729 1.951,-2.109 10.879,-9.9 18.475,-22.068 l 0.31,0.189 C 10.387,-8.424 0.366,-0.295 0.266,-0.215 L 0,0 z"
             id="path2230"
             style="fill:#f6998d;fill-opacity:1;fill-rule:nonzero;stroke:none" /></g><g
           transform="translate(1095.5234,1357.6641)"
           id="g2232"><path
             d="m 0,0 0.021,-0.449 c 0.006,-0.219 1.02,-22.278 9.391,-43.946 l 0.336,0.133 C 2.068,-24.369 0.602,-4.143 0.41,-0.885 7.721,-7.771 13.75,-16.1 18.332,-25.641 l 0.333,0.162 C 13.99,-15.752 7.82,-7.291 0.324,-0.305 L 0,0 z"
             id="path2234"
             style="fill:#f6998d;fill-opacity:1;fill-rule:nonzero;stroke:none" /></g><g
           transform="translate(1095.7402,1356.9648)"
           id="g2236"><path
             d="m 0,0 0.029,-0.563 c 1.6,-31.449 28.037,-72.732 28.305,-73.142 l 0.31,0.199 C 28.379,-73.1 2.315,-32.402 0.424,-1.133 2.309,-3.574 11.23,-15.549 18.432,-31.76 l 0.334,0.145 C 10.695,-13.434 0.457,-0.57 0.355,-0.441 L 0,0 z"
             id="path2238"
             style="fill:#f6998d;fill-opacity:1;fill-rule:nonzero;stroke:none" /></g><g
           transform="translate(1095.7383,1357.3301)"
           id="g2240"><path
             d="m 0,0 0.271,-1.217 c 5.122,-23.365 27.823,-72.34 28.053,-72.838 l 0.332,0.157 C 28.43,-73.41 6.545,-26.199 0.918,-2.418 4.393,-8.793 21.225,-40.213 26.732,-60.617 l 0.356,0.092 C 20.947,-37.797 0.809,-1.451 0.607,-1.09 L 0,0 z"
             id="path2242"
             style="fill:#f6998d;fill-opacity:1;fill-rule:nonzero;stroke:none" /></g><g
           transform="translate(1095.8691,1356.6074)"
           id="g2244"><path
             d="m 0,0 c 3.662,-2.709 27.906,-71.689 28.148,-72.389 l 0.345,0.119 C 27.497,-69.422 3.967,-2.482 0.219,0.297 L 0,0 z"
             id="path2246"
             style="fill:#f6998d;fill-opacity:1;fill-rule:nonzero;stroke:none" /></g><g
           transform="translate(1131.4287,1097.1641)"
           id="g2248"><path
             d="m 0,0 -91.531,191.273 182.208,0 L 0,0 z"
             id="path2250"
             style="fill:#c9e5ca;fill-opacity:1;fill-rule:nonzero;stroke:none" /></g><g
           transform="translate(1131.4287,1097.1641)"
           id="g2252"><path
             d="m 0,0 -91.531,191.273 182.208,0 L 0,0 z"
             id="path2254"
             style="fill:none;stroke:#71a486;stroke-width:1;stroke-linecap:butt;stroke-linejoin:miter;stroke-miterlimit:10;stroke-opacity:1;stroke-dasharray:none" /></g><g
           transform="translate(1044.4688,1285.5566)"
           id="g2256"><path
             d="M 0,0 173.084,0 86.947,-181.695 0,0 z"
             id="path2258"
             style="fill:none;stroke:#6d7f44;stroke-width:1;stroke-linecap:butt;stroke-linejoin:miter;stroke-miterlimit:10;stroke-opacity:1;stroke-dasharray:none" /></g><g
           transform="translate(1049.0391,1282.6777)"
           id="g2260"><path
             d="M 0,0 163.961,0 82.366,-172.119 0,0 z"
             id="path2262"
             style="fill:none;stroke:#6d7f44;stroke-width:1;stroke-linecap:butt;stroke-linejoin:miter;stroke-miterlimit:10;stroke-opacity:1;stroke-dasharray:none" /></g><g
           transform="translate(1053.6113,1279.7969)"
           id="g2264"><path
             d="M 0,0 154.836,0 77.781,-162.541 0,0 z"
             id="path2266"
             style="fill:none;stroke:#6d7f44;stroke-width:1;stroke-linecap:butt;stroke-linejoin:miter;stroke-miterlimit:10;stroke-opacity:1;stroke-dasharray:none" /></g><g
           transform="translate(1058.1816,1276.918)"
           id="g2268"><path
             d="M 0,0 145.713,0 73.199,-152.965 0,0 z"
             id="path2270"
             style="fill:none;stroke:#6d7f44;stroke-width:1;stroke-linecap:butt;stroke-linejoin:miter;stroke-miterlimit:10;stroke-opacity:1;stroke-dasharray:none" /></g><g
           transform="translate(1062.7539,1274.0371)"
           id="g2272"><path
             d="M 0,0 136.589,0 68.615,-143.387 0,0 z"
             id="path2274"
             style="fill:none;stroke:#6d7f44;stroke-width:1;stroke-linecap:butt;stroke-linejoin:miter;stroke-miterlimit:10;stroke-opacity:1;stroke-dasharray:none" /></g><g
           transform="translate(1067.3252,1271.1582)"
           id="g2276"><path
             d="M 0,0 127.465,0 64.031,-133.811 0,0 z"
             id="path2278"
             style="fill:none;stroke:#6d7f44;stroke-width:1;stroke-linecap:butt;stroke-linejoin:miter;stroke-miterlimit:10;stroke-opacity:1;stroke-dasharray:none" /></g><g
           transform="translate(1071.8965,1268.2773)"
           id="g2280"><path
             d="M 0,0 118.341,0 59.448,-124.232 0,0 z"
             id="path2282"
             style="fill:none;stroke:#6d7f44;stroke-width:1;stroke-linecap:butt;stroke-linejoin:miter;stroke-miterlimit:10;stroke-opacity:1;stroke-dasharray:none" /></g><g
           transform="translate(1076.4678,1265.3984)"
           id="g2284"><path
             d="M 0,0 109.218,0 54.864,-114.656 0,0 z"
             id="path2286"
             style="fill:none;stroke:#6d7f44;stroke-width:1;stroke-linecap:butt;stroke-linejoin:miter;stroke-miterlimit:10;stroke-opacity:1;stroke-dasharray:none" /></g><g
           transform="translate(1081.0391,1262.5176)"
           id="g2288"><path
             d="M 0,0 100.093,0 50.281,-105.078 0,0 z"
             id="path2290"
             style="fill:none;stroke:#6d7f44;stroke-width:1;stroke-linecap:butt;stroke-linejoin:miter;stroke-miterlimit:10;stroke-opacity:1;stroke-dasharray:none" /></g><g
           transform="translate(1085.6104,1259.6387)"
           id="g2292"><path
             d="M 0,0 90.969,0 45.698,-95.502 0,0 z"
             id="path2294"
             style="fill:none;stroke:#6d7f44;stroke-width:1;stroke-linecap:butt;stroke-linejoin:miter;stroke-miterlimit:10;stroke-opacity:1;stroke-dasharray:none" /></g><g
           transform="translate(1090.1816,1256.7578)"
           id="g2296"><path
             d="M 0,0 81.845,0 41.114,-85.922 0,0 z"
             id="path2298"
             style="fill:none;stroke:#6d7f44;stroke-width:1;stroke-linecap:butt;stroke-linejoin:miter;stroke-miterlimit:10;stroke-opacity:1;stroke-dasharray:none" /></g><g
           transform="translate(1094.752,1253.8789)"
           id="g2300"><path
             d="M 0,0 72.721,0 36.531,-76.346 0,0 z"
             id="path2302"
             style="fill:none;stroke:#6d7f44;stroke-width:1;stroke-linecap:butt;stroke-linejoin:miter;stroke-miterlimit:10;stroke-opacity:1;stroke-dasharray:none" /></g><g
           transform="translate(1099.3242,1250.998)"
           id="g2304"><path
             d="M 0,0 63.596,0 31.947,-66.766 0,0 z"
             id="path2306"
             style="fill:none;stroke:#6d7f44;stroke-width:1;stroke-linecap:butt;stroke-linejoin:miter;stroke-miterlimit:10;stroke-opacity:1;stroke-dasharray:none" /></g><g
           transform="translate(1103.8945,1248.1191)"
           id="g2308"><path
             d="M 0,0 54.473,0 27.365,-57.189 0,0 z"
             id="path2310"
             style="fill:none;stroke:#6d7f44;stroke-width:1;stroke-linecap:butt;stroke-linejoin:miter;stroke-miterlimit:10;stroke-opacity:1;stroke-dasharray:none" /></g><g
           transform="translate(1108.4648,1245.2383)"
           id="g2312"><path
             d="M 0,0 45.35,0 22.782,-47.609 0,0 z"
             id="path2314"
             style="fill:none;stroke:#6d7f44;stroke-width:1;stroke-linecap:butt;stroke-linejoin:miter;stroke-miterlimit:10;stroke-opacity:1;stroke-dasharray:none" /></g><g
           transform="translate(1113.0352,1242.3594)"
           id="g2316"><path
             d="M 0,0 36.227,0 18.199,-38.033 0,0 z"
             id="path2318"
             style="fill:none;stroke:#6d7f44;stroke-width:1;stroke-linecap:butt;stroke-linejoin:miter;stroke-miterlimit:10;stroke-opacity:1;stroke-dasharray:none" /></g><g
           transform="translate(1117.6074,1239.4785)"
           id="g2320"><path
             d="M 0,0 27.102,0 13.615,-28.453 0,0 z"
             id="path2322"
             style="fill:none;stroke:#6d7f44;stroke-width:1;stroke-linecap:butt;stroke-linejoin:miter;stroke-miterlimit:10;stroke-opacity:1;stroke-dasharray:none" /></g><g
           transform="translate(1122.1777,1236.5996)"
           id="g2324"><path
             d="M 0,0 17.979,0 9.032,-18.877 0,0 z"
             id="path2326"
             style="fill:none;stroke:#6d7f44;stroke-width:1;stroke-linecap:butt;stroke-linejoin:miter;stroke-miterlimit:10;stroke-opacity:1;stroke-dasharray:none" /></g><g
           transform="translate(1126.748,1233.7188)"
           id="g2328"><path
             d="M 0,0 8.856,0 4.45,-9.297 0,0 z"
             id="path2330"
             style="fill:none;stroke:#6d7f44;stroke-width:1;stroke-linecap:butt;stroke-linejoin:miter;stroke-miterlimit:10;stroke-opacity:1;stroke-dasharray:none" /></g><g
           transform="translate(1217.9912,1097.1641)"
           id="g2332"><path
             d="m 0,0 -91.53,191.273 182.21,0 L 0,0 z"
             id="path2334"
             style="fill:#556278;fill-opacity:1;fill-rule:nonzero;stroke:none" /></g><g
           transform="translate(1048.9375,1427.4766)"
           id="g2336"><path
             d="m 0,0 c 2.408,-5.275 8.623,-7.584 13.876,-5.16 5.253,2.426 7.558,8.668 5.151,13.943 -0.492,1.072 -2.35,3.121 -3.098,3.608 -3.545,2.3 -13.921,9.119 -16.394,11.703 0,0 0.107,-14.485 -0.242,-19.383 C -0.76,3.984 -0.48,1.055 0,0"
             id="path2338"
             style="fill:#b4b868;fill-opacity:1;fill-rule:nonzero;stroke:none" /></g><g
           transform="translate(1639.6367,1178.8945)"
           id="g2340"><path
             d="M 0,0 74.58,80.658 C 60.526,97.664 39.317,108.463 15.653,108.463 l -90.228,0 L 0.003,0.006 0,0 z"
             id="path2342"
             style="fill:#556278;fill-opacity:1;fill-rule:nonzero;stroke:none" /></g><g
           transform="translate(1702.5693,1150.3047)"
           id="g2344"><path
             d="m 0,0 c 17.976,14.037 29.258,35.609 29.258,60.17 0,18.697 -6.62,35.785 -17.611,49.078 l -149.155,-161.309 165.151,0 L 0,0 z"
             id="path2346"
             style="fill:#556278;fill-opacity:1;fill-rule:nonzero;stroke:none" /></g><g
           transform="translate(1639.6367,1178.8945)"
           id="g2348"><path
             d="m 0,0 0.003,0.006 -74.578,108.457 0,-189.113 L 0,0 z"
             id="path2350"
             style="fill:#c9e5ca;fill-opacity:1;fill-rule:nonzero;stroke:none" /></g><g
           transform="translate(1639.6367,1178.8945)"
           id="g2352"><path
             d="m 0,0 0.003,0.006 -74.578,108.457 0,-189.113 L 0,0 z"
             id="path2354"
             style="fill:none;stroke:#71a486;stroke-width:1;stroke-linecap:butt;stroke-linejoin:miter;stroke-miterlimit:10;stroke-opacity:1;stroke-dasharray:none" /></g><g
           transform="translate(1567.9424,1278.0781)"
           id="g2356"><path
             d="M 0,0 68.013,-98.912 0,-172.469 0,0 z"
             id="path2358"
             style="fill:none;stroke:#6d7f44;stroke-width:1;stroke-linecap:butt;stroke-linejoin:miter;stroke-miterlimit:10;stroke-opacity:1;stroke-dasharray:none" /></g><g
           transform="translate(1570.8213,1268.8008)"
           id="g2360"><path
             d="M 0,0 61.451,-89.369 0,-155.826 0,0 z"
             id="path2362"
             style="fill:none;stroke:#6d7f44;stroke-width:1;stroke-linecap:butt;stroke-linejoin:miter;stroke-miterlimit:10;stroke-opacity:1;stroke-dasharray:none" /></g><g
           transform="translate(1573.7021,1259.5215)"
           id="g2364"><path
             d="M 0,0 54.886,-79.822 0,-139.182 0,0 z"
             id="path2366"
             style="fill:none;stroke:#6d7f44;stroke-width:1;stroke-linecap:butt;stroke-linejoin:miter;stroke-miterlimit:10;stroke-opacity:1;stroke-dasharray:none" /></g><g
           transform="translate(1576.5801,1250.2422)"
           id="g2368"><path
             d="M 0,0 48.325,-70.275 0,-122.537 0,0 z"
             id="path2370"
             style="fill:none;stroke:#6d7f44;stroke-width:1;stroke-linecap:butt;stroke-linejoin:miter;stroke-miterlimit:10;stroke-opacity:1;stroke-dasharray:none" /></g><g
           transform="translate(1579.4609,1240.9629)"
           id="g2372"><path
             d="M 0,0 41.76,-60.73 0,-105.893 0,0 z"
             id="path2374"
             style="fill:none;stroke:#6d7f44;stroke-width:1;stroke-linecap:butt;stroke-linejoin:miter;stroke-miterlimit:10;stroke-opacity:1;stroke-dasharray:none" /></g><g
           transform="translate(1582.3398,1231.6855)"
           id="g2376"><path
             d="M 0,0 35.198,-51.186 0,-89.25 0,0 z"
             id="path2378"
             style="fill:none;stroke:#6d7f44;stroke-width:1;stroke-linecap:butt;stroke-linejoin:miter;stroke-miterlimit:10;stroke-opacity:1;stroke-dasharray:none" /></g><g
           transform="translate(1585.2207,1222.4063)"
           id="g2380"><path
             d="M 0,0 28.633,-41.641 0,-72.605 0,0 z"
             id="path2382"
             style="fill:none;stroke:#6d7f44;stroke-width:1;stroke-linecap:butt;stroke-linejoin:miter;stroke-miterlimit:10;stroke-opacity:1;stroke-dasharray:none" /></g><g
           transform="translate(1588.1016,1213.127)"
           id="g2384"><path
             d="M 0,0 22.069,-32.094 0,-55.961 0,0 z"
             id="path2386"
             style="fill:none;stroke:#6d7f44;stroke-width:1;stroke-linecap:butt;stroke-linejoin:miter;stroke-miterlimit:10;stroke-opacity:1;stroke-dasharray:none" /></g><g
           transform="translate(1590.9814,1203.8496)"
           id="g2388"><path
             d="M 0,0 15.504,-22.549 0,-39.318 0,0 z"
             id="path2390"
             style="fill:none;stroke:#6d7f44;stroke-width:1;stroke-linecap:butt;stroke-linejoin:miter;stroke-miterlimit:10;stroke-opacity:1;stroke-dasharray:none" /></g><g
           transform="translate(1593.8594,1194.5703)"
           id="g2392"><path
             d="M 0,0 8.941,-13.004 0,-22.672 0,0 z"
             id="path2394"
             style="fill:none;stroke:#6d7f44;stroke-width:1;stroke-linecap:butt;stroke-linejoin:miter;stroke-miterlimit:10;stroke-opacity:1;stroke-dasharray:none" /></g><g
           transform="translate(1596.7412,1185.291)"
           id="g2396"><path
             d="M 0,0 2.377,-3.457 0,-6.029 0,0 z"
             id="path2398"
             style="fill:none;stroke:#6d7f44;stroke-width:1;stroke-linecap:butt;stroke-linejoin:miter;stroke-miterlimit:10;stroke-opacity:1;stroke-dasharray:none" /></g><g
           transform="translate(1487.1992,1383.1504)"
           id="g2400"><path
             d="m 0,0 c 2.968,-4.984 9.394,-6.607 14.354,-3.629 4.959,2.979 6.576,9.434 3.611,14.418 -0.603,1.014 -2.674,2.848 -3.47,3.25 -3.774,1.906 -14.827,7.561 -17.562,9.861 0,0 1.671,-14.386 1.854,-19.295 C -1.186,3.877 -0.591,0.994 0,0"
             id="path2402"
             style="fill:#b4b868;fill-opacity:1;fill-rule:nonzero;stroke:none" /></g><g
           transform="translate(1698.8672,1368.4824)"
           id="g2404"><path
             d="m 0,0 c 2.967,-4.984 9.393,-6.607 14.354,-3.627 4.959,2.979 6.576,9.434 3.611,14.418 -0.604,1.012 -2.674,2.848 -3.471,3.25 -3.773,1.904 -14.826,7.559 -17.562,9.859 0,0 1.672,-14.386 1.855,-19.295 C -1.186,3.879 -0.592,0.996 0,0"
             id="path2406"
             style="fill:#b4b868;fill-opacity:1;fill-rule:nonzero;stroke:none" /></g></g></g></g></svg>
