<?xml version="1.0" encoding="utf-8"?>
<!-- Generator: Adobe Illustrator 16.0.0, SVG Export Plug-In . SVG Version: 6.00 Build 0)  -->
<!DOCTYPE svg PUBLIC "-//W3C//DTD SVG 1.1//EN" "http://www.w3.org/Graphics/SVG/1.1/DTD/svg11.dtd">
<svg version="1.1" id="Layer_1" xmlns="http://www.w3.org/2000/svg" xmlns:xlink="http://www.w3.org/1999/xlink" x="0px" y="0px"
	 width="841.89px" height="1190.55px" viewBox="0 0 841.89 1190.55" enable-background="new 0 0 841.89 1190.55"
	 xml:space="preserve">
<g>
	<g>
		<path fill="#808285" d="M425.33,669.551l2.729-2.379c-1.014,0.602-2.088,1.162-3.271,1.643l-0.037,0.029L425.33,669.551z"/>
		<polygon fill="#808285" points="352.109,511.553 353.402,511.553 353.402,503.301 354.955,503.301 354.955,502.213 
			350.557,502.213 350.557,503.301 352.109,503.301 		"/>
		<polygon fill="#808285" points="359.775,507.312 361.498,507.312 361.498,511.553 362.791,511.553 362.791,502.213 
			361.498,502.213 361.498,506.223 359.775,506.223 359.775,502.213 358.48,502.213 358.48,511.553 359.775,511.553 		"/>
		<polygon fill="#808285" points="370.236,510.468 368.013,510.468 368.013,507.312 370.109,507.312 370.109,506.223 
			368.013,506.223 368.013,503.301 370.236,503.301 370.236,502.213 366.721,502.213 366.721,511.553 370.236,511.553 		"/>
		<path fill="#808285" d="M358.226,598.047c1.392-3.848-1.495-6.2-3.953-4.597c-0.212,0.214-0.853-0.32-0.534-0.639
			c2.029-2.245,8.764-3.849,13.035,0.318c3.102,3.1,3.102,8.336,0.857,14.855c-1.285,3.631-3.098,8.549-4.273,12.184
			c-0.75,2.563,0.963,4.382,3.525,3.203c2.885-1.814,5.559-5.13,7.159-8.546l1.177,0.53c-2.672,5.559-7.801,10.795-13.146,10.902
			c-1.92,0-4.166-0.531-5.982-1.604c-2.994-1.814-5.342-6.413-3.314-12.182C354.701,607.13,356.836,601.572,358.226,598.047z
			 M372.145,583.126c0-3.158-2.598-5.754-5.87-5.754c-3.157,0-5.753,2.596-5.753,5.754c0,3.275,2.596,5.867,5.753,5.867
			C369.547,588.994,372.145,586.402,372.145,583.126z"/>
		<path fill="#808285" d="M486.412,677.482c-2.395,0-4.367,1.969-4.367,4.364c0,2.485,1.973,4.454,4.367,4.454
			c2.482,0,4.453-1.969,4.453-4.454C490.865,679.451,488.895,677.482,486.412,677.482z"/>
		<path fill="#808285" d="M483.293,630.71c-2.705,9.066-13.592,32.535-15.871,35.069c-1.096,1.219-2.451,3.445-4.18,3.779
			c-1.716,0.327-1.879-2.035-1.749-3.246c0.905-8.582,7.315-15.35,8.415-23.897c0.357-2.764,0.109-5.511-0.861-8.14
			c-0.957-2.598-3.951-4.687-6.793-4.534c-4.456,0.241-7.51,3.216-9.598,6.835c-2.42,4.186-4.332,10.631-4.873,12.795
			c-0.148,0.604-0.5,1.755,0.502,1.934c0.576,0.104,1.234-0.713,1.521-1.104c1.084-1.479,1.445-5.22,3.576-9.041
			c1.568-2.822,2.594-4.565,4.316-6.299c2.793-2.805,5.823-2.893,5.371,0.256c-1.125,7.875-6.422,14.328-8.376,21.955
			c-0.556,2.168-0.829,4.406-0.716,6.643c0.168,3.25,1.363,7.404,4.764,8.645c1.285,0.465,2.383,0.691,3.359,0.691
			c2.84,0,5.484-1.455,7.864-4.326c1.005-1.215,1.925-2.735,3.062-3.77c0.088,18.528-12.871,19.359-16.244,19.219
			c1.099-1.1,4.672-9.055-3.406-10.395c-2.885-0.477-5.758,2.62-6.299,5.554c-0.467,2.523,0.535,5.019,2.359,6.912
			c1.977,2.05,5.871,2.622,8.795,2.447c5.691-0.335,15.168-0.952,20.02-10.982c0.324-0.665,1.873-5.386,1.873-5.386l12.711-42.529
			h-9.27L483.293,630.71z"/>
		<g>
			<polygon fill="#808285" points="351.365,521.692 351.49,521.692 357.021,517.046 357.021,516.966 351.365,516.966 			"/>
			<polygon fill="#808285" points="357.021,521.692 357.117,521.692 357.148,521.692 362.68,517.048 362.68,516.966 
				357.117,516.966 357.021,517.046 			"/>
			<polygon fill="#808285" points="362.68,521.692 362.775,521.692 362.805,521.692 368.338,517.048 368.338,516.966 
				362.775,516.966 362.68,517.048 			"/>
			<polygon fill="#808285" points="368.338,521.692 368.434,521.692 368.465,521.692 373.994,517.048 373.994,516.966 
				368.434,516.966 368.338,517.048 			"/>
			<polygon fill="#808285" points="373.994,521.692 374.093,521.692 374.123,521.692 379.652,517.048 379.652,516.966 
				374.093,516.966 373.994,517.048 			"/>
			<polygon fill="#808285" points="379.652,521.692 379.75,521.692 379.779,521.692 385.408,516.966 379.75,516.966 
				379.652,517.048 			"/>
			<polygon fill="#808285" points="357.021,521.772 357.021,521.692 351.49,521.692 351.365,521.798 351.365,526.42 351.488,526.42 
							"/>
			<polygon fill="#808285" points="357.021,526.42 357.117,526.42 357.145,526.42 362.68,521.774 362.68,521.692 357.148,521.692 
				357.021,521.798 			"/>
			<polygon fill="#808285" points="362.68,526.42 362.775,526.42 362.802,526.42 368.338,521.774 368.338,521.692 362.805,521.692 
				362.68,521.798 			"/>
			<polygon fill="#808285" points="368.338,526.42 368.434,526.42 368.461,526.42 373.994,521.774 373.994,521.692 368.465,521.692 
				368.338,521.798 			"/>
			<polygon fill="#808285" points="373.994,526.42 374.093,526.42 374.117,526.42 379.652,521.774 379.652,521.692 374.123,521.692 
				373.994,521.798 			"/>
			<polygon fill="#808285" points="379.652,526.42 379.75,526.42 379.776,526.42 385.313,521.77 385.313,521.692 379.779,521.692 
				379.652,521.798 			"/>
			<polygon fill="#808285" points="385.313,526.42 385.408,526.42 385.438,526.42 391.066,521.692 385.408,521.692 385.313,521.77 
							"/>
			<polygon fill="#808285" points="357.021,526.501 357.021,526.42 351.488,526.42 351.365,526.524 351.365,531.146 
				351.488,531.146 			"/>
			<polygon fill="#808285" points="357.146,531.146 362.68,526.503 362.68,526.42 357.145,526.42 357.021,526.524 357.021,531.146 
				357.117,531.146 			"/>
			<polygon fill="#808285" points="362.68,531.146 362.775,531.146 362.803,531.146 368.338,526.503 368.338,526.42 362.802,526.42 
				362.68,526.524 			"/>
			<polygon fill="#808285" points="368.338,531.146 368.434,531.146 368.338,531.228 368.338,531.251 373.994,526.503 
				373.994,526.42 368.461,526.42 368.338,526.524 			"/>
			<polygon fill="#808285" points="373.994,526.524 373.994,531.251 379.652,526.503 379.652,526.42 374.117,526.42 			"/>
			<polygon fill="#808285" points="379.652,531.146 379.777,531.146 385.313,526.499 385.313,526.42 379.776,526.42 
				379.652,526.524 			"/>
			<polygon fill="#808285" points="385.313,531.146 385.408,531.146 385.438,531.146 390.971,526.501 390.971,526.42 
				385.438,526.42 385.313,526.524 			"/>
			<polygon fill="#808285" points="390.971,531.146 391.066,531.146 391.096,531.146 396.725,526.42 391.066,526.42 
				390.971,526.501 			"/>
			<polygon fill="#808285" points="357.021,531.227 357.021,531.146 351.488,531.146 351.365,531.251 351.365,535.873 
				351.488,535.873 			"/>
			<polygon fill="#808285" points="357.146,535.873 362.68,531.228 362.68,531.146 357.146,531.146 357.021,531.251 
				357.021,535.873 357.117,535.873 			"/>
			<polygon fill="#808285" points="362.803,535.873 368.338,531.228 368.338,531.146 362.803,531.146 362.68,531.251 
				362.68,535.873 362.775,535.873 			"/>
			<polygon fill="#808285" points="379.652,531.251 379.652,535.873 379.777,535.873 385.313,531.225 385.313,531.146 
				379.777,531.146 			"/>
			<polygon fill="#808285" points="385.313,535.873 385.408,535.873 385.438,535.873 390.971,531.227 390.971,531.146 
				385.438,531.146 385.313,531.251 			"/>
			<polygon fill="#808285" points="390.971,535.873 391.066,535.873 391.096,535.873 396.725,531.146 391.096,531.146 
				390.971,531.251 			"/>
			<polygon fill="#808285" points="357.021,535.955 357.021,535.873 351.488,535.873 351.365,535.979 351.365,540.602 
				351.488,540.602 			"/>
			<polygon fill="#808285" points="357.145,540.602 362.68,535.956 362.68,535.873 357.146,535.873 357.021,535.979 
				357.021,540.602 357.117,540.602 			"/>
			<polygon fill="#808285" points="362.802,540.602 368.434,535.873 362.803,535.873 362.68,535.979 362.68,540.602 
				362.775,540.602 			"/>
			<polygon fill="#808285" points="379.652,540.602 379.776,540.602 385.313,535.953 385.313,535.873 379.777,535.873 
				379.652,535.979 			"/>
			<polygon fill="#808285" points="385.313,535.979 385.313,540.602 385.408,540.602 385.438,540.602 390.971,535.955 
				390.971,535.873 385.438,535.873 			"/>
			<polygon fill="#808285" points="390.971,540.602 391.066,540.602 391.094,540.602 396.725,535.873 391.096,535.873 
				390.971,535.979 			"/>
			<polygon fill="#808285" points="357.021,540.684 357.021,540.602 351.488,540.602 351.365,540.707 351.365,545.33 
				351.488,545.33 			"/>
			<polygon fill="#808285" points="357.146,545.33 362.68,540.685 362.68,540.602 357.145,540.602 357.021,540.707 357.021,545.33 
				357.117,545.33 			"/>
			<polygon fill="#808285" points="362.803,545.33 368.434,540.602 362.802,540.602 362.68,540.707 362.68,545.33 362.775,545.33 
							"/>
			<polygon fill="#808285" points="379.652,540.707 379.652,545.33 379.777,545.33 385.313,540.682 385.313,540.602 
				379.776,540.602 			"/>
			<polygon fill="#808285" points="385.313,540.707 385.313,545.33 385.408,545.33 385.438,545.33 390.971,540.684 390.971,540.602 
				385.438,540.602 			"/>
			<polygon fill="#808285" points="390.971,545.33 391.066,545.33 391.096,545.33 396.725,540.602 391.094,540.602 390.971,540.707 
							"/>
			<polygon fill="#808285" points="357.021,545.411 357.021,545.33 351.488,545.33 351.365,545.436 351.365,550.058 
				351.488,550.058 			"/>
			<polygon fill="#808285" points="357.146,550.058 362.68,545.412 362.68,545.33 357.146,545.33 357.021,545.436 357.021,550.058 
				357.117,550.058 			"/>
			<polygon fill="#808285" points="362.803,550.058 368.434,545.33 362.803,545.33 362.68,545.436 362.68,550.058 362.775,550.058 
							"/>
			<polygon fill="#808285" points="379.652,545.436 379.652,550.058 379.777,550.058 385.313,545.409 385.313,545.33 
				379.777,545.33 			"/>
			<polygon fill="#808285" points="385.313,545.436 385.313,550.058 385.408,550.058 385.438,550.058 390.971,545.411 
				390.971,545.33 385.438,545.33 			"/>
			<polygon fill="#808285" points="390.971,550.058 391.066,550.058 391.096,550.058 396.725,545.33 391.096,545.33 
				390.971,545.436 			"/>
			<polygon fill="#808285" points="357.021,550.138 357.021,550.058 351.488,550.058 351.365,550.163 351.365,554.787 
				351.488,554.787 			"/>
			<polygon fill="#808285" points="357.145,554.787 362.68,550.14 362.68,550.058 357.146,550.058 357.021,550.163 357.021,554.787 
				357.117,554.787 			"/>
			<polygon fill="#808285" points="362.802,554.787 368.434,550.058 362.803,550.058 362.68,550.163 362.68,554.787 
				362.775,554.787 			"/>
			<polygon fill="#808285" points="379.652,550.163 379.652,554.787 379.776,554.787 385.313,550.136 385.313,550.058 
				379.777,550.058 			"/>
			<polygon fill="#808285" points="385.313,550.163 385.313,554.787 385.408,554.787 385.438,554.787 390.971,550.138 
				390.971,550.058 385.438,550.058 			"/>
			<polygon fill="#808285" points="390.971,554.787 391.066,554.787 391.094,554.787 396.725,550.058 391.096,550.058 
				390.971,550.163 			"/>
			<polygon fill="#808285" points="357.021,554.867 357.021,554.787 351.488,554.787 351.365,554.89 351.365,559.513 
				351.488,559.513 			"/>
			<polygon fill="#808285" points="357.146,559.513 362.68,554.869 362.68,554.787 357.145,554.787 357.021,554.89 357.021,559.513 
				357.117,559.513 			"/>
			<polygon fill="#808285" points="362.803,559.513 368.434,554.787 362.802,554.787 362.68,554.89 362.68,559.513 362.775,559.513 
							"/>
			<polygon fill="#808285" points="379.652,554.89 379.652,559.513 379.75,559.513 379.777,559.513 385.313,554.865 
				385.313,554.787 379.776,554.787 			"/>
			<polygon fill="#808285" points="385.313,554.89 385.313,559.513 385.408,559.513 385.438,559.513 390.971,554.867 
				390.971,554.787 385.438,554.787 			"/>
			<polygon fill="#808285" points="390.971,559.513 391.066,559.513 391.096,559.513 396.725,554.787 391.094,554.787 
				390.971,554.89 			"/>
			<polygon fill="#808285" points="357.021,559.593 357.021,559.513 351.488,559.513 351.365,559.618 351.365,564.24 
				351.488,564.24 			"/>
			<polygon fill="#808285" points="357.146,564.24 362.68,559.594 362.68,559.513 357.146,559.513 357.021,559.618 357.021,564.24 
				357.117,564.24 			"/>
			<polygon fill="#808285" points="368.338,559.513 362.803,559.513 362.68,559.618 362.68,564.24 362.775,564.24 362.803,564.24 
				368.338,559.594 			"/>
			<polygon fill="#808285" points="373.994,559.513 368.434,559.513 368.338,559.594 368.338,564.24 368.434,564.24 368.463,564.24 
				373.994,559.594 			"/>
			<polygon fill="#808285" points="379.652,559.513 374.093,559.513 373.994,559.594 373.994,564.24 374.093,564.24 374.119,564.24 
				379.652,559.594 			"/>
			<polygon fill="#808285" points="379.652,559.618 379.652,564.24 379.75,564.24 379.777,564.24 385.313,559.592 385.313,559.513 
				379.777,559.513 			"/>
			<polygon fill="#808285" points="385.313,559.618 385.313,564.24 385.408,564.24 385.438,564.24 390.971,559.593 390.971,559.513 
				385.438,559.513 			"/>
			<polygon fill="#808285" points="390.971,564.24 391.066,564.24 390.971,564.32 390.971,564.345 396.725,559.513 391.096,559.513 
				390.971,559.618 			"/>
			<polygon fill="#808285" points="357.021,564.32 357.021,564.24 351.488,564.24 351.365,564.345 351.365,568.969 351.488,568.969 
							"/>
			<polygon fill="#808285" points="362.68,564.24 357.146,564.24 357.021,564.345 357.021,568.969 357.117,568.969 357.146,568.969 
				362.68,564.322 			"/>
			<polygon fill="#808285" points="368.338,564.24 362.803,564.24 362.68,564.345 362.68,568.969 362.775,568.969 362.803,568.969 
				368.338,564.322 			"/>
			<polygon fill="#808285" points="373.994,564.24 368.463,564.24 368.338,564.345 368.338,568.969 368.434,568.969 
				368.463,568.969 373.994,564.322 			"/>
			<polygon fill="#808285" points="379.652,564.24 374.119,564.24 373.994,564.345 373.994,568.969 374.093,568.969 
				374.119,568.969 379.652,564.322 			"/>
			<polygon fill="#808285" points="385.313,564.24 379.777,564.24 379.652,564.345 379.652,568.969 379.75,568.969 379.777,568.969 
				385.313,564.319 			"/>
			<polygon fill="#808285" points="385.438,564.24 385.313,564.345 385.313,568.969 385.408,568.969 385.313,569.048 
				385.313,569.074 390.971,564.32 390.971,564.24 			"/>
			<polygon fill="#808285" points="351.488,568.969 351.365,569.074 351.365,573.801 357.021,569.049 357.021,568.969 			"/>
			<polygon fill="#808285" points="357.146,568.969 357.021,569.074 357.021,573.801 362.68,569.051 362.68,568.969 			"/>
			<polygon fill="#808285" points="362.803,568.969 362.68,569.074 362.68,573.801 368.338,569.051 368.338,568.969 			"/>
			<polygon fill="#808285" points="368.463,568.969 368.338,569.074 368.338,573.801 373.994,569.051 373.994,568.969 			"/>
			<polygon fill="#808285" points="374.119,568.969 373.994,569.074 373.994,573.801 379.652,569.051 379.652,568.969 			"/>
			<polygon fill="#808285" points="379.777,568.969 379.652,569.074 379.652,573.801 385.313,569.048 385.313,568.969 			"/>
		</g>
		<path fill="#808285" d="M424.75,668.844l0.037-0.029c-0.016,0.006-0.027,0.014-0.043,0.021L424.75,668.844z"/>
		<path fill="#808285" d="M476.154,540.268c0.104-0.061,0.199-0.128,0.297-0.192c2.694-1.316,3.152-3.615,3.152-4.621
			c0-3.014-2.979-5.117-5.65-5.117c-2.307,0-4.051,1.362-4.051,3.167c0,0.652,0.155,1.182,0.482,1.668l0.344,0.516l0.205-0.062
			l0.275-0.082l0.111-0.033c0.287-0.083,1.162-0.34,1.875-0.34c0.406,0,0.846,0.152,0.846,0.584c0,0.431-0.199,0.788-0.548,1.066
			c-0.327,0.26-0.788,0.452-1.368,0.552c-0.234,0.067-0.503,0.108-0.801,0.108c-0.238,0-0.477-0.021-0.713-0.04
			c-0.08-0.004-0.164-0.006-0.246-0.013c-0.094-0.01-0.189-0.025-0.285-0.038c-0.209-0.025-0.418-0.059-0.625-0.1
			c-0.125-0.024-0.246-0.05-0.369-0.078c-0.078-0.019-0.154-0.04-0.234-0.062c-0.146-0.038-0.291-0.072-0.438-0.117
			c0.154,0.063,0.316,0.131,0.475,0.197c-4.575-1.269-8.152-5.343-8.152-7.983c0-5.484,3.807-8.149,11.639-8.149
			c7.934,0,11.551,2.812,11.551,5.429c0,0.89-1.006,1.97-2.349,2.087l-0.989,0.084l0.209,0.97c0.504,2.336,1.834,3.332,4.439,3.332
			c2.889,0,4.984-2.33,4.984-5.538c0-2.32-1.605-4.868-4.066-6.649c1.945-0.777,2.928-1.965,2.928-3.543
			c0-1.604-1.465-2.817-3.409-2.817h-0.731l-0.127,0.719c-0.17,0.953-0.689,1.925-3.252,1.925c-0.861,0-2.069-0.077-3.543-0.232
			c-1.449-0.074-3.166-0.155-5.209-0.155c-13.209,0-20.119,7.717-20.119,15.34c0,7.645,3.787,12.387,13.805,16.953
			c-0.004,0.001-0.008,0.005-0.012,0.007c-0.203-0.084-0.372-0.154-0.501-0.208c-0.183-0.075-0.179-0.119-0.179-0.119
			c-2.982,1.283-3.566,3.735-3.566,4.78c0,2.167,1.545,3.848,3.405,4.63c0.726,0.305,1.495,0.486,2.247,0.486
			c2.306,0,4.047-1.362,4.047-3.167c0-0.652-0.152-1.183-0.479-1.669l-0.006-0.008c-0.379,0.111-1.137,0.314-1.791,0.314
			c-0.314,0-0.645-0.089-0.795-0.319c-0.073,0.005-0.148,0.017-0.219,0.017c-0.41,0-0.846-0.152-0.846-0.584
			c0-0.833,0.717-1.409,1.914-1.618c0.236-0.067,0.502-0.109,0.801-0.109c0.238,0,0.475,0.021,0.712,0.04
			c0.083,0.004,0.165,0.006,0.247,0.013c0.096,0.01,0.191,0.024,0.285,0.038c0.209,0.027,0.418,0.059,0.627,0.101
			c0.123,0.024,0.244,0.049,0.367,0.077c0.053,0.013,0.105,0.028,0.158,0.042c0.102,0.014,0.205,0.036,0.307,0.052
			c4.59,0.749,9.043,5.009,9.043,8.101c0,6.41-3.838,9.394-12.076,9.394c-9.133,0-13.385-4.77-13.385-7.993
			c0-0.673,0.818-1.306,1.312-1.306c0.49,0,0.82,0.072,1.135,0.145c0.129,0.03,0.251,0.054,0.373,0.076l1.088,0.193l-0.061-1.1
			c-0.115-2.018-1.436-4.171-4.811-4.171c-2.572,0-5.336,1.734-5.336,5.54c0,0.887,0.289,3.766,3.652,6.789
			c-2.041,0.694-3.215,2.012-3.215,3.714c0,2.115,1.547,3.596,3.76,3.596h0.873V573.9c0-1.557,0.596-2.081,2.365-2.081
			c0.635,0,1.504,0.204,2.604,0.458c2.121,0.498,5.326,1.251,10.08,1.251c16.498,0,20.213-12.398,20.213-16.741
			C490.836,549.812,486.027,544.394,476.154,540.268z M472.371,546.775c-9.984-3.093-15.48-8.183-15.48-14.335
			c0-0.195,0.004-0.393,0.02-0.594c1.791,6.081,8.596,8.776,15.209,11.389c0.562,0.224,1.123,0.445,1.682,0.671
			c8.402,3.375,12.662,7.813,12.662,13.193c0,0.292-0.027,0.634-0.076,0.997C485.148,553.072,480.449,549.269,472.371,546.775z"/>
		<path fill="#808285" d="M413.793,545.911h19.834l10.443-7.83v-12.064c0-5.199-5.195-9.427-11.58-9.427h-18.303
			c-0.135,0-0.263,0.013-0.395,0.016c-6.201,0.171-11.187,4.32-11.187,9.411v38.734c0,5.088,4.985,9.239,11.187,9.411
			c0.132,0.002,0.26,0.016,0.395,0.016h18.303c6.385,0,11.58-4.23,11.58-9.427v-0.988V547.4l-11.119,8.449v7.914h-2.867h-16.291
			h-0.064v-17.852H413.793z M413.729,527h0.064h19.158v10.511h-19.158h-0.064V527z"/>
		<g>
			<polygon fill="#808285" points="402.676,688.109 409.1,682.504 409.1,681.484 401.512,688.109 			"/>
			<polygon fill="#808285" points="407.785,688.109 409.1,686.961 409.1,685.945 406.621,688.109 			"/>
			<polygon fill="#808285" points="405.229,688.109 409.1,684.73 409.1,683.714 404.064,688.109 			"/>
			<path fill="#808285" d="M429.402,672.688c0.906-0.371,1.764-0.783,2.572-1.226l6.244-5.451c0.09-0.125,0.188-0.243,0.271-0.369
				c0.395-0.581,0.736-1.188,1.059-1.808L429.402,672.688z"/>
			<polygon fill="#808285" points="438.861,684.504 434.729,688.109 435.893,688.109 439.35,685.096 			"/>
			<polygon fill="#808285" points="439.84,688.109 441.004,688.109 441.479,687.695 440.992,687.103 			"/>
			<polygon fill="#808285" points="439.928,685.803 437.285,688.109 438.451,688.109 440.414,686.396 			"/>
			<path fill="#808285" d="M433.994,661.719c0.412-0.611,0.773-1.248,1.105-1.902l6.521-5.692c-0.008-0.329-0.02-0.656-0.043-0.979
				l-5.729,4.996c0.213-0.551,0.396-1.116,0.556-1.696l5.071-4.425c-0.035-0.309-0.076-0.611-0.121-0.913l-4.641,4.048
				c0.096-0.464,0.172-0.934,0.234-1.416l4.213-3.674c-0.059-0.287-0.123-0.568-0.195-0.848l-3.906,3.409
				c0.033-0.415,0.051-0.839,0.061-1.267l3.566-3.111c-0.084-0.264-0.178-0.523-0.271-0.781l-3.299,2.877
				c-0.006-0.394-0.027-0.777-0.055-1.162l2.996-2.613c-0.051-0.123-0.1-0.25-0.152-0.369c-0.057-0.121-0.121-0.24-0.178-0.362
				l-2.736,2.39c-0.039-0.365-0.105-0.719-0.162-1.075l2.467-2.151c-0.123-0.229-0.252-0.457-0.387-0.68l-2.217,1.938
				c-0.067-0.318-0.162-0.62-0.245-0.93l1.786-1.559c-0.145-0.212-0.297-0.418-0.451-0.623l-1.552,1.355
				c-0.006-0.021-0.01-0.041-0.017-0.061c-0.096-0.313-0.215-0.616-0.328-0.924l1.5-1.309c-0.164-0.195-0.33-0.387-0.504-0.576
				l-1.289,1.127c-0.07-0.162-0.117-0.33-0.188-0.486c-0.062-0.133-0.142-0.254-0.204-0.387l1.049-0.915
				c-0.184-0.181-0.367-0.358-0.56-0.532l-0.858,0.749c-0.146-0.275-0.281-0.558-0.443-0.823l0.604-0.527
				c-0.064-0.052-0.127-0.107-0.189-0.16c-0.139-0.11-0.285-0.214-0.424-0.32l-0.428,0.373c-0.173-0.255-0.338-0.513-0.524-0.758
				l0.192-0.166c-0.219-0.146-0.436-0.297-0.661-0.439l-0.011,0.01c-0.781-0.944-1.65-1.826-2.645-2.627
				c-2.248-1.8-5.016-3.193-8.293-4.174c-3.281-0.979-7.049-1.47-11.303-1.47H394.85v54.077h4.5h0.158h1.389l-1.547,1.351v1.019
				l2.713-2.369h1.387l-4.1,3.58v0.346h0.768l8.982-7.838v-1.019l-4.496,3.926v-1.21l4.496-3.926v-1.02l-4.496,3.926v-1.213
				l4.496-3.927v-0.583h0.672l4.707-4.107c0.23-0.025,0.471-0.033,0.695-0.059l0.314,0.389l-4.326,3.777h1.164l3.643-3.18
				l0.576,0.713l-2.828,2.467h1.166l2.143-1.869l0.574,0.712l-1.293,1.128c0.398-0.01,0.812-0.01,1.203-0.029l0.572-0.5l7.664,9.516
				h1.334l0.225,0.275l0.312-0.275h1.389l-1.131,0.986l0.484,0.6l1.816-1.586h1.385l-2.631,2.295l0.482,0.598l3.312-2.893h1.391
				l-4.131,3.604l0.258,0.322h0.539l4.502-3.926h1.391l-4.498,3.926h1.164l4.943-4.312l-0.484-0.594l-0.748,0.653l-0.582-0.708
				l0.748-0.652l-0.486-0.594l-0.746,0.65l-0.579-0.707l0.745-0.651l-0.484-0.594l-0.746,0.652l-0.58-0.706l0.746-0.652
				l-0.486-0.592l-0.746,0.652l-0.577-0.707l0.745-0.652l-0.486-0.594l-0.746,0.65l-0.58-0.707l0.748-0.652l-0.488-0.592
				l-0.746,0.652l-0.578-0.707l0.746-0.651l-0.486-0.595l-0.748,0.653l-0.578-0.708l0.745-0.652l-0.485-0.594l-0.746,0.652
				l-0.58-0.705l0.748-0.652l-0.488-0.594l-0.744,0.652l-0.582-0.707l12.486-10.896c0.17-0.462,0.32-0.934,0.453-1.413
				l-13.424,11.714l-0.578-0.704l14.359-12.53c0.072-0.393,0.145-0.787,0.197-1.191l-15.043,13.129l-0.581-0.707l15.755-13.752
				c0.025-0.344,0.035-0.699,0.045-1.055l-8.354,7.29C433.502,662.322,433.775,662.041,433.994,661.719z M404.604,678.719v-1.21
				l7.141-6.234c0.486-0.013,0.977-0.021,1.443-0.05L404.604,678.719z M406.604,671.301h1.387l-3.387,2.959v-1.213L406.604,671.301z
				 M404.604,672.029v-0.729h0.834L404.604,672.029z M409.156,671.301h1.395l-5.947,5.189v-1.215L409.156,671.301z M425.33,669.551
				l-0.58-0.707l-0.006-0.009c0.016-0.007,0.027-0.015,0.043-0.021c1.184-0.48,2.258-1.041,3.271-1.643L425.33,669.551z
				 M419.925,667.381l10.046,13.438l-1.531,1.148l-10.476-14.01c-2.489,0.633-4.312,0.74-4.372,0.74l-13.205,0.002v12.693h-0.236
				h-1.678v-48.32h15.872c0.183,0,18.128,0.206,18.128,17.918C432.473,661.212,425.41,665.551,419.925,667.381z"/>
			<path fill="#808285" d="M414.345,634.986h-13.958v31.797h13.16c0.654-0.031,17.012-1.002,17.012-15.793
				C430.559,635.17,415.008,634.986,414.345,634.986z M404.604,637.66h1.055l-1.055,0.92V637.66z M404.604,639.6l2.221-1.939h1.389
				l-3.609,3.15V639.6z M404.604,641.83l4.777-4.17h0.965c0.141,0,0.271,0.008,0.41,0.011l-6.152,5.37V641.83z M404.604,644.059
				l7.285-6.357c0.447,0.015,0.881,0.04,1.309,0.07l-8.594,7.499V644.059z M423.195,660.484c-2.613,2.334-6.896,3.5-12.85,3.5
				h-3.025l1.779-1.555v-1.016l-2.947,2.57h-1.385l4.332-3.783v-1.018l-4.496,3.926v-1.211l4.496-3.926v-1.021l-4.496,3.929v-1.213
				l4.496-3.926v-1.018l-4.496,3.927v-1.214l4.496-3.926v-1.018l-4.496,3.926v-1.213l4.496-3.925v-1.019l-4.496,3.928v-1.214
				l4.496-3.926v-1.017l-4.496,3.926v-1.213l4.496-3.925v-1.017l-4.496,3.924v-1.211l4.496-3.929v-1.016l-4.496,3.925v-1.213
				l4.496-3.926v-0.775h0.893l4.271-3.729c0.418,0.045,0.811,0.104,1.203,0.162l-4.086,3.566h1.165l3.91-3.412
				c0.386,0.073,0.745,0.159,1.106,0.248l-3.627,3.164h0.906c0.088,0,0.168,0.007,0.252,0.007l3.357-2.931
				c0.348,0.103,0.695,0.205,1.02,0.324l-3.025,2.639c0.375,0.015,0.74,0.035,1.1,0.059l2.711-2.366
				c0.311,0.135,0.615,0.272,0.902,0.427l-2.344,2.043c0.35,0.038,0.679,0.091,1.012,0.139l2.033-1.776
				c0.273,0.169,0.525,0.351,0.771,0.538L421,642.111c0.322,0.061,0.623,0.137,0.929,0.207l1.315-1.148
				c0.23,0.204,0.441,0.423,0.652,0.643l-0.902,0.791c0.291,0.088,0.58,0.172,0.855,0.271l0.553-0.485
				c0.193,0.234,0.389,0.472,0.562,0.722l-0.174,0.148c0.125,0.056,0.246,0.114,0.372,0.172c1.29,2.001,1.95,4.445,1.95,7.35
				C427.113,654.918,425.803,658.153,423.195,660.484z"/>
		</g>
		<path fill="#808285" d="M436.799,610.849c3.08-3.243,4.637-7.43,4.637-12.587c0-4.623-1.332-8.555-4.02-11.844
			c-2.682-3.287-6.213-4.923-10.609-4.923c-2.562,0-4.844,0.585-6.798,1.754c-1.979,1.172-3.653,2.805-5.024,4.924
			c-0.383-2.621-1.572-4.885-3.57-6.758c-2-1.875-4.398-2.822-7.242-2.822c-2.342,0-4.297,0.644-5.934,1.916
			c-1.611,1.291-3.064,3.065-4.373,5.345c-0.344-1.755-0.973-3.229-1.857-4.396c-0.889-1.171-2.08-1.759-3.572-1.759
			c-3.148,0-5.367,1.958-6.615,5.874c-1.271,3.893-1.897,8.451-1.897,13.639c0,6.325,1.171,11.831,3.508,16.556
			c2.362,4.702,6.036,7.06,11.017,7.06c4.035,0,7.383-1.414,10.047-4.195c2.664-2.806,3.992-6.536,3.992-11.217v-18.213
			c0-1.027,0.246-1.936,0.686-2.742c0.408-0.848,1.012-1.273,1.797-1.273c1.111,0,1.914,0.527,2.424,1.614
			c0.5,1.089,0.682,2.238,0.587,3.431c-1.034,2.645-1.555,5.327-1.555,8.068c0,4.455,1.329,8.348,3.991,11.68
			c2.645,3.308,6.133,4.96,10.471,4.96c1.775,0,3.469-0.284,5.084-0.848c1.623-0.583,2.965-1.383,4.051-2.399
			c0.008-0.006,0.018-0.014,0.023-0.02c1.191,0.562,2.098,1.287,2.703,2.197c0.584,0.906,0.893,1.713,0.893,2.457
			c0,0.23-0.034,0.395-0.097,0.506c-0.052,0.25-0.146,0.422-0.323,0.422c-0.371,0-0.941-0.283-1.707-0.832
			c-0.786-0.568-1.602-0.854-2.48-0.854c-0.381,0-0.738,0.031-1.078,0.09c-0.762,0.217-1.402,0.594-1.881,1.178
			c-0.789,0.945-1.174,2.074-1.174,3.449c0,1.471,0.469,2.662,1.375,3.571c0.906,0.906,2.057,1.352,3.43,1.352
			c1.754,0,3.168-0.588,4.193-1.795c1.033-1.191,1.537-2.788,1.537-4.782c0-1.897-0.49-3.451-1.275-4.803
			C439.275,612.302,436.773,610.873,436.799,610.849z M393.095,608.967c0,2.725-0.261,4.842-0.784,6.314
			c-0.508,1.494-1.555,2.238-3.149,2.238c-2.624,0-4.538-1.65-5.73-4.963c-1.21-3.307-1.813-7.684-1.813-13.086
			c0-4.337,0.584-8.169,1.754-11.519c1.17-3.329,2.906-5.003,5.186-5.003c1.371,0,2.419,0.363,3.125,1.068
			c0.707,0.728,1.192,1.876,1.413,3.471V608.967z M426.887,602.291l-6.256-0.262c-2.035,0-3.691-0.305-4.961-0.905
			c-1.25-0.583-1.877-1.532-1.877-2.862c0-1.313,0.646-2.283,1.918-2.904c1.293-0.628,2.926-0.93,4.92-0.93l6.256-0.261l6.256,0.261
			c2.057,0,3.709,0.282,5,0.887c1.273,0.604,1.916,1.555,1.916,2.867c0,1.43-0.624,2.42-1.873,3.002
			c-1.252,0.562-2.947,0.846-5.043,0.846L426.887,602.291z"/>
		<g>
			<polygon fill="#808285" points="463.865,594.664 464.619,596.206 469.928,591.347 469.17,589.808 			"/>
			<polygon fill="#808285" points="471.287,594.111 470.508,592.526 465.197,597.387 465.975,598.974 			"/>
			<polygon fill="#808285" points="474.045,599.717 473.242,598.086 467.925,602.953 468.723,604.586 			"/>
			<polygon fill="#808285" points="472.664,596.908 471.867,595.29 466.553,600.154 467.347,601.773 			"/>
			<polygon fill="#808285" points="492.986,584.086 490.514,586.349 492.986,586.349 			"/>
			<polygon fill="#808285" points="481.025,586.906 481.025,589.253 489.904,581.127 487.34,581.127 			"/>
			<polygon fill="#808285" points="477.256,586.349 479.768,586.349 485.473,581.127 482.962,581.127 			"/>
			<polygon fill="#808285" points="465.965,583.286 465.162,581.656 453.85,592.01 453.85,594.374 			"/>
			<polygon fill="#808285" points="459.443,581.127 456.928,581.127 451.225,586.349 453.738,586.349 			"/>
			<polygon fill="#808285" points="448.834,582.888 450.76,581.127 448.834,581.127 			"/>
			<polygon fill="#808285" points="452.625,581.127 448.834,584.596 448.834,586.349 449.359,586.349 455.064,581.127 			"/>
			<polygon fill="#808285" points="463.873,581.127 461.311,581.127 453.85,587.956 453.85,590.301 			"/>
			<polygon fill="#808285" points="475.955,583.598 475.955,585.83 481.094,581.127 478.654,581.127 			"/>
			<polygon fill="#808285" points="481.025,593.325 488.277,586.689 488.277,586.349 488.647,586.349 492.986,582.377 
				492.986,581.127 491.771,581.127 481.025,590.962 			"/>
			<polygon fill="#808285" points="461.1,609.201 453.85,615.836 453.85,617.451 452.084,617.451 448.834,620.427 448.834,622.674 
				448.963,622.674 461.1,611.566 			"/>
			<polygon fill="#808285" points="474.623,600.895 469.301,605.766 470.072,607.34 475.396,602.467 			"/>
			<polygon fill="#808285" points="461.1,615.553 461.1,613.273 450.828,622.674 453.318,622.674 			"/>
			<polygon fill="#808285" points="450.217,617.451 448.834,617.451 448.834,618.718 			"/>
			<polygon fill="#808285" points="488.277,588.397 481.025,595.034 481.025,597.313 488.277,590.677 			"/>
			<polygon fill="#808285" points="475.955,581.89 476.789,581.127 475.955,581.127 			"/>
			<polygon fill="#808285" points="461.1,607.493 461.1,605.146 453.85,611.781 453.85,614.127 			"/>
			<polygon fill="#808285" points="461.1,617.261 455.184,622.674 465.867,622.674 465.867,617.451 461.1,617.451 			"/>
			<polygon fill="#808285" points="481.025,599.021 481.025,613.797 480.969,613.797 475.975,603.645 470.65,608.519 
				477.584,622.674 488.277,622.674 488.277,592.386 			"/>
			<polygon fill="#808285" points="461.1,603.438 461.1,601.139 453.85,607.773 453.85,610.07 			"/>
			<polygon fill="#808285" points="461.1,591.729 461.1,589.448 453.85,596.082 453.85,598.363 			"/>
			<polygon fill="#808285" points="463.287,593.485 468.592,588.629 467.896,587.215 462.594,592.068 			"/>
			<polygon fill="#808285" points="461.244,589.314 462.016,590.889 467.316,586.036 466.543,584.464 			"/>
			<polygon fill="#808285" points="461.1,593.436 453.85,600.07 453.85,602.123 461.1,595.488 			"/>
			<polygon fill="#808285" points="461.1,599.429 461.1,597.196 453.85,603.83 453.85,606.064 			"/>
		</g>
		<path fill="#808285" d="M364.959,672.279l1.244-3.484l11.592-10.608c0.162-0.001,0.322-0.005,0.49,0
			c0.658,0.021,1.273,0.091,1.857,0.196L364.959,672.279z M375.699,658.396c-6.379,1.261-8.551,7.758-8.551,7.758l-0.037,0.103
			L375.699,658.396z M383.357,659.51c-0.533-0.294-1.115-0.553-1.748-0.76l-17.559,16.07l-1.255,3.51L383.357,659.51z
			 M389.016,667.732l-22.436,20.533c0.748,0.102,1.504,0.176,2.273,0.201c0.006,0,0.014,0,0.018,0l20.363-18.636
			C389.205,669.121,389.13,668.422,389.016,667.732z M386.555,662.282l-26.354,24.122c0.502,0.234,1.02,0.443,1.541,0.64
			l25.672-23.495C387.165,663.129,386.881,662.703,386.555,662.282z M388.674,666.334c-0.148-0.459-0.359-1.021-0.648-1.636
			l-24.92,22.808c0.623,0.189,1.254,0.358,1.898,0.494L388.674,666.334z M360.676,684.262l25.053-22.93
			c-0.383-0.392-0.806-0.768-1.275-1.115l-22.564,20.654L360.676,684.262z M388.844,674.244c0.195-0.873,0.322-1.772,0.375-2.691
			l-18.459,16.896c1.004-0.049,1.988-0.168,2.945-0.35L388.844,674.244z M384.699,682.109c1.475-1.609,2.64-3.463,3.422-5.496
			l-11.83,10.828c2.229-0.723,4.264-1.794,6.029-3.154L384.699,682.109z M384.566,641.608c-0.035,0.244-0.082,0.483-0.133,0.724
			c-0.611,2.219-2.666,6.09-6.061,4.718c-4.027-1.629-1.717-7.026-1.717-7.026l2.657-7.281c-0.341-0.513-1.542-0.771-1.542-0.771
			s-1.97,4.713-4.625,12.424c-2.656,7.709,3.426,8.481,3.426,8.481s-6.082-0.856-8.482,5.481l-3.256,8.908l-5.996,16.793
			c0,0,0.34,0.379,0.994,0.75c-0.279,0.331-0.566,0.661-0.848,0.989c-6.271-3.394-10.521-9.645-10.521-16.661
			c0-8.939,6.893-16.167,16.086-17.658c-3.17-2.049-4.951-5.699-4.353-9.87c0.921-6.411,7.124-11.606,13.853-11.606
			S385.486,635.197,384.566,641.608z M376.486,631.457c-1.029-0.515-1.543-0.086-1.543-0.086l-18.418,50.887
			c0.258,0.514,1.284,0.945,1.284,0.945L376.486,631.457z"/>
	</g>
</g>
</svg>
