<?xml version="1.0" encoding="UTF-8" standalone="no"?>
<svg
   xmlns:dc="http://purl.org/dc/elements/1.1/"
   xmlns:cc="http://creativecommons.org/ns#"
   xmlns:rdf="http://www.w3.org/1999/02/22-rdf-syntax-ns#"
   xmlns:svg="http://www.w3.org/2000/svg"
   xmlns="http://www.w3.org/2000/svg"
   xmlns:sodipodi="http://sodipodi.sourceforge.net/DTD/sodipodi-0.dtd"
   xmlns:inkscape="http://www.inkscape.org/namespaces/inkscape"
   width="80"
   height="103.23842"
   id="svg2"
   version="1.1"
   inkscape:version="0.48.4 r9939"
   sodipodi:docname="logo.svg">
  <metadata
     id="metadata244">
    <rdf:RDF>
      <cc:Work
         rdf:about="">
        <dc:format>image/svg+xml</dc:format>
        <dc:type
           rdf:resource="http://purl.org/dc/dcmitype/StillImage" />
      </cc:Work>
    </rdf:RDF>
  </metadata>
  <defs
     id="defs242" />
  <sodipodi:namedview
     pagecolor="#ffffff"
     bordercolor="#666666"
     borderopacity="1"
     objecttolerance="10"
     gridtolerance="10"
     guidetolerance="10"
     inkscape:pageopacity="0"
     inkscape:pageshadow="2"
     inkscape:window-width="1366"
     inkscape:window-height="656"
     id="namedview240"
     showgrid="false"
     showguides="true"
     inkscape:guide-bbox="true"
     fit-margin-top="0"
     fit-margin-left="0"
     fit-margin-right="0"
     fit-margin-bottom="0"
     inkscape:zoom="1.2653545"
     inkscape:cx="72.262001"
     inkscape:cy="93.252159"
     inkscape:window-x="0"
     inkscape:window-y="30"
     inkscape:window-maximized="1"
     inkscape:current-layer="svg2" />
  <path
     d="m 20.397855,21.307319 v -0.0138 l -3.06383,2.57284 h 3.064384 M 7.8696419,18.632069 v -2.57118 l -3.0627227,2.57118 m 15.5909358,0.0587 v -0.0149 l -3.064383,2.57395 h 3.064937 m -5.54e-4,2.67525 v -0.0149 l -3.06383,2.57395 h 3.064384 m -5.54e-4,0.0581 v -0.0149 l -3.064383,2.57395 h 3.064937 M 4.7382806,26.483449 v -2.57229 l -3.0632763,2.57229 m 3.0632763,-10.46795 v -2.571182 l -3.0632763,2.571735 m 3.0632763,5.234247 v -2.57395 l -3.0632763,2.57395 m 18.7228507,7.90839 v -0.0144 l -3.06383,2.57395 h 3.064384 M 4.7382806,18.632069 v -2.571734 l -3.0638298,2.571734 m 3.0638298,5.23425 v -2.57173 l -3.0632763,2.57173 m 6.1946376,2.61713 v -2.57174 l -3.0627227,2.57174 m 3.0627227,2.61768 v -2.57285 l -3.0638298,2.57229 m 23.9360669,63.05511 h 7.310015 c 0.03321,-0.001 1.041758,-0.0609 2.418959,-0.40961 l 5.799412,7.75395 0.846912,-0.63491 -5.560284,-7.43844 c 3.036153,-1.01297 6.945788,-3.41532 6.945788,-9.07358 0,-9.80426 -9.933229,-9.91773 -10.034527,-9.91773 h -8.785746 v 26.74582 h 0.928836 l 0.130635,-0.11292 v -6.91368 z m 0,-18.66085 h 7.726275 c 0.366996,0 8.975057,0.10185 8.975057,8.85881 0,8.18793 -9.054213,8.72541 -9.41678,8.74202 H 28.741879 V 73.494829 z M 7.8696419,23.866319 v -2.57007 l -3.0627227,2.57007 m 3.0627227,-2.61602 v -2.57395 l -3.0638298,2.57395 m 9.3259989,10.51168 -3.061062,2.57229 h 3.061062"
     id="path4"
     inkscape:connector-curvature="0"
     style="fill:none" />
  <path
     d="m 41.367514,87.609479 c 1.443072,-1.29085 2.16876,-3.08154 2.16876,-5.37097 0,-1.60803 -0.365335,-2.96143 -1.079398,-4.06961 -0.06919,-0.0321 -0.13617,-0.0642 -0.204809,-0.0952 l 0.09576,-0.0819 c -0.09631,-0.13839 -0.204809,-0.26958 -0.311088,-0.39966 l -0.305553,0.26847 c -0.152222,-0.0554 -0.312195,-0.1013 -0.473274,-0.14946 l 0.499291,-0.43729 c -0.116243,-0.12178 -0.233593,-0.24356 -0.360907,-0.35648 l -0.727902,0.63546 c -0.169382,-0.0388 -0.335443,-0.0808 -0.514789,-0.11458 l 0.903373,-0.78768 c -0.13617,-0.10407 -0.275662,-0.20481 -0.426224,-0.29891 l -1.125895,0.98363 c -0.184328,-0.026 -0.366442,-0.0554 -0.56018,-0.0764 l 1.297492,-1.13087 c -0.158866,-0.0858 -0.327695,-0.16219 -0.499291,-0.23692 l -1.500087,1.30967 c -0.199273,-0.0122 -0.401868,-0.0243 -0.608891,-0.0321 l 1.673897,-1.46134 c -0.179346,-0.0653 -0.371977,-0.12289 -0.564608,-0.17935 l -1.858225,1.62187 c -0.0465,0 -0.09078,-0.003 -0.139491,-0.003 h -0.500952 l 2.007681,-1.75084 c -0.199274,-0.0498 -0.398547,-0.0974 -0.612213,-0.13839 l -2.164331,1.88923 h -0.647086 l 2.262308,-1.97392 c -0.21754,-0.0321 -0.434527,-0.0648 -0.665906,-0.0897 l -2.363605,2.06469 h -0.494862 v 0.42899 l -2.488704,2.17264 v 0.67144 l 2.488704,-2.17264 v 0.5624 l -2.488704,2.1754 v 0.66978 l 2.488704,-2.17208 v 0.56295 l -2.488704,2.17263 v 0.67089 l 2.488704,-2.17263 v 0.56239 l -2.488704,2.17319 v 0.67255 l 2.488704,-2.17541 v 0.56461 l -2.488704,2.17208 v 0.67144 l 2.488704,-2.17263 v 0.5635 l -2.488704,2.17263 v 0.672 l 2.488704,-2.1743 v 0.5635 l -2.488704,2.17375 v 0.67088 l 2.488704,-2.1754 v 0.56461 l -2.488704,2.17429 v 0.66979 l 2.488704,-2.17264 v 0.56295 l -2.397924,2.09403 h 0.766649 l 1.631275,-1.42259 v 0.56295 l -0.985297,0.86019 h 1.675005 c 3.293547,-0.002 5.664348,-0.64763 7.111295,-1.93848 z M 17.264833,34.333709 v -2.57173 l -3.062723,2.57173 m 6.195745,-2.55845 v -0.0144 l -3.06383,2.57284 h 3.064384 m -12.5287671,-2.616 v -2.57174 l -3.0627227,2.57174 m 6.1946378,0.0443 -3.06383,2.57173 h 3.06383 m 0.05259,-2.61601 h 6.21069 V 13.443764 l -3.133022,2.628196 v -2.626536 l -3.130254,2.628196 v -0.01273 l -3.06383,2.571179 h 3.116416 l -3.116416,2.61823 h 3.116416 l -3.116416,2.61602 h 3.116416 l -3.116416,2.61713 h 3.116416 l -3.116416,2.61823 h 3.116416 l -3.116416,2.61546 h 3.06383 m 12.528213,-5.18886 -3.062723,2.57285 h 3.062723 v -2.55901 m 0,-10.481783 -3.062723,2.571183 h 3.062723 v -2.558451 m 0,2.603281 -3.062723,2.57395 h 3.062723 v -2.55955 m 0,5.22041 -3.062723,2.57229 h 3.062723 v -2.55845 m 0,-2.63041 -3.062723,2.57173 h 3.062723 v -2.559 m -3.131915,-7.864661 -3.06383,2.572842 h 3.064384 v -2.559004 m -3.133576,-2.629303 -3.06383,2.571735 h 3.06383 V 10.841584 M 14.657672,71.493239 4.463726,99.661649 c 0.1428127,0.28452 0.7107421,0.523091 0.7107421,0.523091 L 15.512887,71.540839 c -0.570144,-0.28452 -0.854108,-0.0476 -0.854108,-0.0476 z m 22.543919,-16.74285 c 0.702993,0.33212 1.619651,0.50095 2.745546,0.50095 l 3.463484,0.14503 3.46293,-0.14503 c 1.160215,0 2.097907,-0.1561 2.79149,-0.46829 0.691921,-0.32271 1.036775,-0.87072 1.036775,-1.66227 0,-0.72625 -0.355924,-1.25266 -1.060577,-1.587 -0.714064,-0.33433 -1.629061,-0.49098 -2.767688,-0.49098 l -3.46293,-0.14392 -3.46293,0.14392 c -1.103754,0 -2.007681,0.16716 -2.723405,0.51479 -0.702992,0.34319 -1.061684,0.88012 -1.061684,1.60747 0,0.73731 0.347068,1.26206 1.038989,1.58478 z m -15.00806,-10.06054 c -1.262066,0 -2.223007,0.92662 -2.870646,2.76934 -0.647639,1.85436 -0.970904,3.97551 -0.970904,6.37676 0,2.9891 0.334336,5.41359 1.003563,7.24303 0.659817,1.83332 1.719287,2.74721 3.17177,2.74721 0.882892,0 1.462446,-0.41183 1.743643,-1.23882 0.288946,-0.81536 0.433419,-1.9872 0.433419,-3.49503 v -11.88999 c -0.121778,-0.88289 -0.390797,-1.51835 -0.782148,-1.92077 -0.38969,-0.39025 -0.969798,-0.59229 -1.728697,-0.59229 z m -1.795676,-10.29857 v -0.0133 l -3.06383,2.57395 h 3.064384 m 22.150354,55.6759 1.511157,-1.31742 c -0.56184,0.33378 -1.156893,0.64377 -1.811174,0.90946 l -0.02048,0.0166 0.321052,0.3919 z M 7.8696419,36.951389 v -2.57118 l -3.0627227,2.57229 m -0.068639,-5.2348 v -2.57229 l -3.0638298,2.57229 m 9.3271066,5.23369 v -2.57118 l -3.0638304,2.57229 m -3.1994464,-2.61879 v -2.57173 l -3.0632763,2.57173 m 3.0632763,2.61768 v -2.57229 l -3.0632763,2.57285 m 21.8547661,-7.80654 -3.062723,2.57229 h 3.062723 v -2.55901 m -18.7914898,-0.0576 v -2.5734 l -3.0632763,2.57284 m 12.4568071,7.85082 v -2.57118 l -3.061062,2.57118 m 6.194084,0 v -2.57118 l -3.062723,2.57229 m -6.3324685,-2.61879 v -2.57173 l -3.0627227,2.57173 M 7.937727,13.398927 h 3.06383 v -2.571735 m -6.1957449,2.571735 h 3.0638298 v -2.571735 m 15.6601281,20.934787 -3.062723,2.57173 h 3.062723 v -2.55845 M 4.7382806,13.398927 v -2.571735 l -3.0632763,2.571735 m 9.3946377,0 h 3.062723 v -2.571735 m 3.20166,7.804877 h 3.064384 V 16.058121 M 7.8696419,16.015499 V 13.445424 L 4.8069192,16.015499 M 20.397855,13.398927 v -2.573949 l -3.064383,2.573949 m -0.06864,-2.616018 V 8.211174 l -3.061062,2.571182 m -0.07196,5.53e-4 V 8.211174 l -3.059955,2.571182 m -0.0703,5.53e-4 V 8.211174 L 7.9388341,10.782356 M 23.52977,16.015499 v -2.571735 l -3.062723,2.571735 M 7.8696419,10.782909 V 8.211174 l -3.0610621,2.571182 m 31.3185952,2.938176 h 10.641204 v 5.817677 H 36.126622 z m 40.218924,17.212797 c 0.02768,-0.20093 0.04207,-0.38969 0.04207,-0.55187 0,-2.97803 -2.358069,-5.43463 -7.008891,-7.30282 -0.309981,-0.1251 -0.619962,-0.24743 -0.93105,-0.37087 -3.660543,-1.4464 -7.427366,-2.93929 -8.419305,-6.304794 -0.0083,0.110707 -0.01107,0.220308 -0.01107,0.328804 0,3.40536 3.042795,6.22287 8.568759,7.93496 4.472583,1.37997 7.074209,3.48507 7.759488,6.26604 z M 4.7382806,10.782909 V 8.20896 l -3.0627227,2.573949 m 6.2621691,5.23259 h 3.06383 v -2.570075"
     id="path6"
     inkscape:connector-curvature="0"
     style="fill:none" />
  <path
     d="M 1.1591074,0.601695 H 2.0187511 V 5.17004 H 2.734475 V 0.601695 H 3.5935651 V 0 H 1.1591074 M 7.2153607,5.17004 H 7.9310846 V 0 H 7.2153607 V 2.219685 H 6.2621692 V 0 h -0.716831 v 5.17004 h 0.716831 V 2.823041 h 0.9531915 m 3.6062963,0 h 1.160768 V 2.219685 h -1.160768 v -1.61799 h 1.231067 V 0 h -1.946237 v 5.17004 h 1.946237 V 4.569451 h -1.231067 m -8.43425,56.463588 c -1.1220204,3.1928 0.177132,5.73797 1.8344231,6.74209 1.005224,0.59394 2.2484692,0.88842 3.3112611,0.88842 2.9586578,-0.0592 5.7977508,-2.95755 7.2762498,-6.03355 l -0.651514,-0.29449 c -0.88566,1.89089 -2.365819,3.72642 -3.963328,4.73109 -1.4170557,0.65207 -2.3658188,-0.35427 -1.9506658,-1.77354 0.6509601,-2.0121 1.6539699,-4.73385 2.3652658,-6.7443 1.242138,-3.60906 1.242138,-6.50683 -0.474382,-8.22224 -2.3636047,-2.30659 -6.092233,-1.41872 -7.2153605,-0.17603 -0.1760249,0.17603 0.1782391,0.47217 0.295589,0.35427 1.3600415,-0.88843 2.9581041,0.41404 2.18758,2.54406 -0.769417,1.95011 -1.9501124,5.02612 -3.0167791,7.98367 z m 10.721467,-16.24466 c 0,-1.74807 -1.43809,-3.18506 -3.2492649,-3.18506 -1.7475178,0 -3.184501,1.43643 -3.184501,3.1845 0,1.81284 1.4364297,3.24761 3.1839474,3.24761 1.8111745,0 3.2492645,-1.43366 3.2492645,-3.24761 z m 63.251617,52.23013 c -1.326275,0 -2.417851,1.09047 -2.417851,2.41508 0,1.375541 1.092129,2.466011 2.417298,2.466011 1.372773,0 2.464348,-1.09047 2.464348,-2.466011 0,-1.32572 -1.090468,-2.41563 -2.464902,-2.41563 z m -1.727037,-25.89116 c -1.497318,5.01837 -7.523681,18.00934 -8.784639,19.41256 -0.60723,0.67421 -1.357274,1.90693 -2.313786,2.09126 -0.950424,0.18101 -1.040651,-1.12645 -0.968691,-1.79623 0.500951,-4.75101 4.049126,-8.4979 4.658018,-13.22954 0.197613,-1.52943 0.06089,-3.04999 -0.476043,-4.5058 -0.530288,-1.43753 -2.18758,-2.59387 -3.760733,-2.50918 -2.466009,0.13395 -4.157066,1.78073 -5.312299,3.78398 -1.339561,2.31711 -2.397924,5.8841 -2.697388,7.08196 -0.08192,0.33433 -0.276769,0.97146 0.277876,1.07109 0.318837,0.057 0.683065,-0.39522 0.841377,-0.6111 0.600588,-0.81924 0.800415,-2.88947 1.980003,-5.00398 0.867393,-1.56264 1.435323,-2.52745 2.388514,-3.48729 1.54603,-1.55267 3.223249,-1.60138 2.972496,0.14171 -0.622176,4.35911 -3.55371,7.93108 -4.635876,12.15291 -0.307766,1.19952 -0.459436,2.43834 -0.396332,3.67715 0.09299,1.799 0.754471,4.09839 2.637052,4.78478 0.711296,0.25795 1.31908,0.38194 1.859886,0.38194 1.572046,0 3.035046,-0.80484 4.352465,-2.39405 0.556858,-0.67199 1.066113,-1.51392 1.695485,-2.08683 0.04871,10.255941 -7.124027,10.716481 -8.991662,10.638991 0.607784,-0.6089 2.58502,-5.012841 -1.885902,-5.754581 -1.596956,-0.26404 -3.187269,1.45027 -3.487286,3.07435 -0.257949,1.39657 0.296696,2.778751 1.306348,3.826051 1.094344,1.13475 3.249265,1.45137 4.868362,1.3545 3.149628,-0.18543 8.396056,-0.52752 11.08182,-6.079501 0.179346,-0.3681 1.036775,-2.98135 1.036775,-2.98135 l 7.036568,-23.54084 H 74.78457 l -0.150562,0.50593 z M 1.6069192,8.165784 v 2.616572 h 0.069192 L 4.7371733,8.209514 v -0.04428 m 0.00111,2.617678 h 0.069192 L 7.8696444,8.211177 V 8.165787 H 4.7908666 l -0.05314,0.04428"
     id="path8"
     inkscape:connector-curvature="0"
     style="fill:#ffffff" />
  <path
     d="m 4.7382806,8.210067 0.052586,-0.04428 h -0.052586 m 3.1313613,2.617125 h 0.069746 L 11.001557,8.211177 V 8.165787 H 7.9227815 l -0.05314,0.04539"
     id="path10"
     inkscape:connector-curvature="0"
     style="fill:#ffffff" />
  <path
     d="m 7.8696419,8.211174 0.05314,-0.04539 h -0.05314 m 3.1319151,2.617125 h 0.07085 L 14.133469,8.211174 V 8.165784 H 11.0558 l -0.05369,0.04539 m -5.53e-4,0 0.05314,-0.04539 h -0.05259"
     id="path12"
     inkscape:connector-curvature="0"
     style="fill:#ffffff" />
  <path
     d="m 14.131811,10.782909 h 0.07196 l 3.061062,-2.571735 v -0.04539 h -3.077668 l -0.05535,0.04539"
     id="path14"
     inkscape:connector-curvature="0"
     style="fill:#ffffff" />
  <path
     d="m 14.131811,8.211174 0.05535,-0.04539 h -0.05535 m 3.203321,2.617125 3.116416,-2.617125 h -3.133022 l -0.05369,0.04539 v 2.571182 h 0.05369 m -0.05369,-2.571182 0.05369,-0.04539 h -0.05369 m -15.5887216,2.617125 -0.069192,0.05812 v 2.557343 h 0.068085 L 4.7382837,10.82719 v -0.04428"
     id="path16"
     inkscape:connector-curvature="0"
     style="fill:#ffffff" />
  <path
     d="m 1.6761114,10.782909 h -0.069192 v 0.05812 m 3.1313614,2.557896 h 0.067531 l 3.0638298,-2.571181 v -0.04428 H 4.8085798 l -0.070853,0.05812 m 0.05314,-0.05867 -0.05314,0.04428 v 0.01384 l 0.069746,-0.05868"
     id="path18"
     inkscape:connector-curvature="0"
     style="fill:#ffffff" />
  <path
     d="m 4.7382806,10.827192 0.052586,-0.04428 h -0.052586 m 3.1313613,2.616018 h 0.067532 l 3.0638291,-2.571181 v -0.04428 H 7.9382806 l -0.069192,0.05812 m 0.053693,-0.05867 -0.05314,0.04428 v 0.01384 l 0.069192,-0.05868"
     id="path20"
     inkscape:connector-curvature="0"
     style="fill:#ffffff" />
  <path
     d="m 7.8696419,10.827192 0.05314,-0.04428 h -0.05314 m 3.1319151,2.616018 h 0.06919 l 3.062723,-2.571181 v -0.04428 h -3.059955 l -0.0703,0.05812 m 0.05093,-0.05867 -0.05259,0.04428 v 0.01384 l 0.0703,-0.05868"
     id="path22"
     inkscape:connector-curvature="0"
     style="fill:#ffffff" />
  <path
     d="m 11.001557,10.827192 0.05314,-0.04428 h -0.05259 m 3.129701,2.616018 h 0.06919 l 3.06383,-2.571181 v -0.04428 h -3.061062 l -0.07196,0.05812 m 0.05535,-0.05867 -0.05535,0.04428 v 0.01384 l 0.07196,-0.05868"
     id="path24"
     inkscape:connector-curvature="0"
     style="fill:#ffffff" />
  <path
     d="m 14.131811,10.827192 0.05535,-0.04428 h -0.05535 m 3.133022,2.616018 h 0.06864 l 3.064937,-2.573949 v -0.04262 h -3.062723 l -0.0703,0.05812"
     id="path26"
     inkscape:connector-curvature="0"
     style="fill:#ffffff" />
  <path
     d="m 17.335132,10.782909 h -0.01661 l -0.05369,0.04428 v 0.01384"
     id="path28"
     inkscape:connector-curvature="0"
     style="fill:#ffffff" />
  <path
     d="m 17.264833,10.827192 0.05369,-0.04428 h -0.05369 m 3.202214,2.616018 3.116416,-2.616571 h -3.133022 l -0.05203,0.04262 v 2.573949 h 0.05314"
     id="path30"
     inkscape:connector-curvature="0"
     style="fill:#ffffff" />
  <path
     d="m 20.397855,10.825532 0.05314,-0.04318 h -0.05259 m -18.7234047,2.616571 -0.068085,0.05812 v 2.559003 h 0.068085 L 4.737727,13.444317 v -0.04428"
     id="path32"
     inkscape:connector-curvature="0"
     style="fill:#ffffff" />
  <path
     d="m 1.6750043,13.398927 h -0.068085 v 0.05812 m 3.2,2.55845 3.0627227,-2.570628 v -0.0465 H 4.8058121 l -0.068085,0.05812 v 2.559004 h 0.052586"
     id="path34"
     inkscape:connector-curvature="0"
     style="fill:#ffffff" />
  <path
     d="m 4.7382806,13.443764 v 0.01328 l 0.067531,-0.05757 h -0.014945 m 0,-5.54e-4 h -0.052586 v 0.04428 m 3.1313613,2.572289 h 0.068085 l 3.0638301,-2.570628 v -0.0465 H 7.9377269 l -0.068085,0.05812 m 0.05314,-0.05757 -0.05314,0.04594 v 0.01107 l 0.067532,-0.05757"
     id="path36"
     inkscape:connector-curvature="0"
     style="fill:#ffffff" />
  <path
     d="m 7.8696419,13.445424 0.05314,-0.0465 h -0.05314 m 3.2000001,0 -0.06808,0.05812 v 2.559003 h 0.05314 l -0.05259,0.04539 v 0.01273 l 3.130808,-2.629303 v -0.04539 m -3.078775,-5.54e-4 -0.05259,0.04594 v 0.01107 l 0.06808,-0.05757"
     id="path38"
     inkscape:connector-curvature="0"
     style="fill:#ffffff" />
  <path
     d="m 11.001557,13.445424 0.05314,-0.0465 h -0.05259 m 3.198893,0 -0.06864,0.05812 v 2.617125 l 3.133022,-2.629303 v -0.04539 m -3.078222,-5.54e-4 -0.05535,0.04594 v 0.01107 l 0.06919,-0.05757"
     id="path40"
     inkscape:connector-curvature="0"
     style="fill:#ffffff" />
  <path
     d="m 14.131811,13.445424 0.05535,-0.0465 h -0.05535 m 6.266044,0.04373 v -0.04428 h -3.064383 l -0.06864,0.05868 v 2.559003 h 0.06919 m -0.0155,-2.617125 -0.05369,0.04594 v 0.01107 l 0.06864,-0.05757"
     id="path42"
     inkscape:connector-curvature="0"
     style="fill:#ffffff" />
  <path
     d="m 17.264833,13.445424 0.05369,-0.0465 h -0.05369 m 3.133022,2.616572 h 0.06975 l 3.062169,-2.571735 v -0.04428 h -3.062723 l -0.06864,0.05757"
     id="path44"
     inkscape:connector-curvature="0"
     style="fill:#ffffff" />
  <path
     d="m 20.467047,13.398927 h -0.01661 l -0.05203,0.04428 v 0.01384 m -5.54e-4,-0.01439 0.05314,-0.04428 h -0.05259 m 3.200553,2.617125 3.116416,-2.616572 H 23.58235 l -0.05259,0.04428 v 2.572289 h 0.05314"
     id="path46"
     inkscape:connector-curvature="0"
     style="fill:#ffffff" />
  <path
     d="m 23.52977,13.443764 0.05314,-0.04428 h -0.05314 m -21.8547657,2.616018 -0.068085,0.05812 v 2.557337 h 0.068085 L 4.737727,16.060335 v -0.04428"
     id="path48"
     inkscape:connector-curvature="0"
     style="fill:#ffffff" />
  <path
     d="m 1.6750043,16.015499 h -0.068085 v 0.05812 m 3.2,2.55845 3.0627227,-2.571181 v -0.04539 H 4.8069192 l -0.069192,0.05812 v 2.55734 h 0.052586"
     id="path50"
     inkscape:connector-curvature="0"
     style="fill:#ffffff" />
  <path
     d="m 4.7382806,16.060335 v 0.01328 l 0.068639,-0.05812 h -0.016606"
     id="path52"
     inkscape:connector-curvature="0"
     style="fill:#ffffff" />
  <path
     d="m 4.7908666,16.015499 h -0.052586 v 0.04428 m 3.1994464,2.57229 3.06383,-2.571183 v -0.04539 h -3.06383 l -0.068085,0.05812 v 2.557343 h 0.05314"
     id="path54"
     inkscape:connector-curvature="0"
     style="fill:#ffffff" />
  <path
     d="m 7.8696419,16.060889 v 0.01273 l 0.068085,-0.05812 h -0.014945 m 3.0787751,0.04539 0.05314,-0.04539 h -0.05259"
     id="path56"
     inkscape:connector-curvature="0"
     style="fill:#ffffff" />
  <path
     d="m 7.9227815,16.015499 h -0.05314 v 0.04539 m 9.4643835,2.57118 3.064384,-2.572841 v -0.04428 h -3.06383 l -0.06919,0.05867 v 2.557341"
     id="path58"
     inkscape:connector-curvature="0"
     style="fill:#ffffff" />
  <path
     d="m 17.264833,16.07362 0.06919,-0.05812 h -0.06919 m 3.133022,2.616569 h 0.06975 l 3.062169,-2.571733 v -0.04428 h -3.062723 l -0.06864,0.05757"
     id="path60"
     inkscape:connector-curvature="0"
     style="fill:#ffffff" />
  <path
     d="m 20.450995,16.015499 -0.05259,0.04428 v 0.01384 l 0.06919,-0.05812 m -0.06975,0.04373 0.05314,-0.04428 h -0.05259 m 3.200553,2.61712 3.116416,-2.616566 h -3.116416 l -0.06919,0.05812 v 2.557336 h 0.05314"
     id="path62"
     inkscape:connector-curvature="0"
     style="fill:#ffffff" />
  <path
     d="m 23.598962,16.015499 h -0.01661 l -0.05259,0.04428 v 0.01384"
     id="path64"
     inkscape:connector-curvature="0"
     style="fill:#ffffff" />
  <path
     d="m 23.52977,16.060335 0.05314,-0.04428 h -0.05314 m -21.8547657,2.616014 -0.068085,0.0587 v 2.559 h 0.068085 l 3.0627227,-2.57395 v -0.0443"
     id="path66"
     inkscape:connector-curvature="0"
     style="fill:#ffffff" />
  <path
     d="m 1.6750043,18.632069 h -0.068085 v 0.0587 m 3.1988929,2.55955 3.0638298,-2.57284 v -0.0459 H 4.8069192 l -0.069192,0.0587 v 2.55901 h 0.052586"
     id="path68"
     inkscape:connector-curvature="0"
     style="fill:#ffffff" />
  <path
     d="m 4.7382806,18.676349 v 0.0144 l 0.068639,-0.0592 h -0.016606"
     id="path70"
     inkscape:connector-curvature="0"
     style="fill:#ffffff" />
  <path
     d="m 4.7908666,18.632069 h -0.052586 v 0.0443 m 3.1994464,-0.0443 -0.068085,0.0587 v 2.559 h 0.067532 l 3.116416,-2.61823 m -3.1839476,0.0459 v 0.0133 l 0.068085,-0.0592 h -0.014945"
     id="path72"
     inkscape:connector-curvature="0"
     style="fill:#ffffff" />
  <path
     d="m 7.9227815,18.632069 h -0.05314 v 0.0454 m 12.5282135,-10e-4 v -0.0443 h -3.06383 l -0.06919,0.0587 v 2.559 h 0.06864 m -0.06864,-2.559 0.06919,-0.0592 h -0.06919 m 3.133022,0.0592 v 2.559 h 0.06975 l 3.062169,-2.57395 v -0.0443 h -3.062723"
     id="path74"
     inkscape:connector-curvature="0"
     style="fill:#ffffff" />
  <path
     d="m 20.450995,18.632069 -0.05259,0.0443 v 0.0144 l 0.06919,-0.0592"
     id="path76"
     inkscape:connector-curvature="0"
     style="fill:#ffffff" />
  <path
     d="m 20.397855,18.676349 0.05314,-0.0443 h -0.05259 m 3.198893,2.61823 3.117522,-2.61823 h -3.116415 l -0.06864,0.0587 v 2.559 h 0.05314"
     id="path78"
     inkscape:connector-curvature="0"
     style="fill:#ffffff" />
  <path
     d="m 23.598962,18.632069 h -0.01661 l -0.05259,0.0443 v 0.0144"
     id="path80"
     inkscape:connector-curvature="0"
     style="fill:#ffffff" />
  <path
     d="m 23.52977,18.676349 0.05314,-0.0443 h -0.05314 m -21.8547657,2.61823 -0.068085,0.057 v 2.559 h 0.068085 l 3.0632763,-2.57173 v -0.0443"
     id="path82"
     inkscape:connector-curvature="0"
     style="fill:#ffffff" />
  <path
     d="m 1.6750043,21.250299 h -0.068085 v 0.057 m 3.2,2.559 3.0627227,-2.57063 v -0.0459 H 4.8058121 l -0.068085,0.057 v 2.55901 h 0.052586"
     id="path84"
     inkscape:connector-curvature="0"
     style="fill:#ffffff" />
  <path
     d="m 4.7382806,21.294589 v 0.0127 l 0.067531,-0.0576 h -0.014945"
     id="path86"
     inkscape:connector-curvature="0"
     style="fill:#ffffff" />
  <path
     d="m 4.7908666,21.250299 h -0.052586 v 0.0443 m 3.1994464,-0.0443 -0.068085,0.057 v 2.559 h 0.068085 l 3.116416,-2.61657 m -3.1845011,0.0459 v 0.0111 l 0.067532,-0.057 H 7.922228"
     id="path88"
     inkscape:connector-curvature="0"
     style="fill:#ffffff" />
  <path
     d="m 7.9227815,21.250299 h -0.05314 v 0.0454 m 9.4643835,2.57063 3.064384,-2.57284 v -0.0443 h -3.064384 l -0.06864,0.0581 v 2.559"
     id="path90"
     inkscape:connector-curvature="0"
     style="fill:#ffffff" />
  <path
     d="m 17.333472,21.250299 h -0.06864 v 0.057 m 3.133022,0 v 2.559 h 0.06975 l 3.062169,-2.57173 v -0.0443 H 20.46705"
     id="path92"
     inkscape:connector-curvature="0"
     style="fill:#ffffff" />
  <path
     d="m 20.450995,21.250299 -0.05259,0.0432 v 0.0138 l 0.06919,-0.0576 m -0.06975,0.0437 0.05314,-0.0443 h -0.05259 m 3.200553,2.61712 3.116416,-2.61657 h -3.118076 l -0.06753,0.057 v 2.55901 h 0.05314"
     id="path94"
     inkscape:connector-curvature="0"
     style="fill:#ffffff" />
  <path
     d="m 23.597302,21.250299 h -0.01439 l -0.05314,0.0443 v 0.0127"
     id="path96"
     inkscape:connector-curvature="0"
     style="fill:#ffffff" />
  <path
     d="m 23.52977,21.294589 0.05314,-0.0443 h -0.05314 m -21.8547657,2.61602 -0.068085,0.0587 v 2.55845 h 0.068085 l 3.0627227,-2.5723 v -0.0443"
     id="path98"
     inkscape:connector-curvature="0"
     style="fill:#ffffff" />
  <path
     d="m 1.6750043,23.866319 h -0.068085 v 0.0587 m 3.2,2.55845 3.0627227,-2.57174 v -0.0454 H 4.8069192 l -0.069192,0.0587 v 2.55845 h 0.052586"
     id="path100"
     inkscape:connector-curvature="0"
     style="fill:#ffffff" />
  <path
     d="m 4.7382806,23.911159 v 0.0138 l 0.068639,-0.0587 h -0.016606"
     id="path102"
     inkscape:connector-curvature="0"
     style="fill:#ffffff" />
  <path
     d="m 4.7908666,23.866319 h -0.052586 v 0.0443 m 3.1994464,-0.0443 -0.068085,0.0587 v 2.55845 h 0.068085 l 3.116416,-2.61713"
     id="path104"
     inkscape:connector-curvature="0"
     style="fill:#ffffff" />
  <path
     d="m 7.8696419,23.911709 v 0.0133 l 0.068085,-0.0587 h -0.014945"
     id="path106"
     inkscape:connector-curvature="0"
     style="fill:#ffffff" />
  <path
     d="m 7.9227815,23.866319 h -0.05314 v 0.0454 m 9.4643835,2.57174 3.064384,-2.57395 v -0.0432 h -3.06383 l -0.06919,0.0587 v 2.55845 m 0.06864,-2.61713 h -0.06919 v 0.0587 m 3.133022,0 v 2.55845 h 0.06975 l 3.062169,-2.57229 v -0.0443 h -3.062723"
     id="path108"
     inkscape:connector-curvature="0"
     style="fill:#ffffff" />
  <path
     d="m 20.450995,23.866319 -0.05259,0.0443 v 0.0144 l 0.06919,-0.0587 m -0.06975,0.0437 0.05314,-0.0443 h -0.05259 m 3.200553,2.61768 3.116416,-2.61713 h -3.116416 l -0.06919,0.0587 v 2.55845 h 0.05314"
     id="path110"
     inkscape:connector-curvature="0"
     style="fill:#ffffff" />
  <path
     d="m 23.598962,23.866319 h -0.01661 l -0.05259,0.0443 v 0.0144"
     id="path112"
     inkscape:connector-curvature="0"
     style="fill:#ffffff" />
  <path
     d="m 23.52977,23.911159 0.05314,-0.0443 h -0.05314 m -21.8547657,2.61658 -0.068085,0.0581 v 2.559 h 0.068085 l 3.0627227,-2.57284 v -0.0443"
     id="path114"
     inkscape:connector-curvature="0"
     style="fill:#ffffff" />
  <path
     d="m 1.6750043,26.483449 h -0.068085 v 0.0581 m 3.1988929,2.55956 3.0638298,-2.57229 v -0.0454 H 4.8069192 l -0.069192,0.0581 v 2.559 h 0.052586"
     id="path116"
     inkscape:connector-curvature="0"
     style="fill:#ffffff" />
  <path
     d="m 4.7382806,26.528279 v 0.0133 l 0.068639,-0.0587 h -0.016606"
     id="path118"
     inkscape:connector-curvature="0"
     style="fill:#ffffff" />
  <path
     d="m 4.7908666,26.483449 h -0.052586 v 0.0443 m 3.1994464,-0.0443 -0.068085,0.0581 v 2.559 h 0.067532 l 3.116416,-2.61823"
     id="path120"
     inkscape:connector-curvature="0"
     style="fill:#ffffff" />
  <path
     d="m 7.8696419,26.528839 v 0.0127 l 0.068085,-0.0587 h -0.014945"
     id="path122"
     inkscape:connector-curvature="0"
     style="fill:#ffffff" />
  <path
     d="m 7.9227815,26.483449 h -0.05314 v 0.0454 m 9.4638305,2.57229 3.064937,-2.57395 v -0.0443 h -3.06383 l -0.06919,0.0587 v 2.559"
     id="path124"
     inkscape:connector-curvature="0"
     style="fill:#ffffff" />
  <path
     d="m 17.334025,26.483449 h -0.06919 v 0.0581 m 3.133022,5.5e-4 v 2.55901 h 0.06975 l 3.062169,-2.57285 v -0.0443 h -3.062723 m -0.01605,-5.5e-4 -0.05259,0.0443 v 0.0138 l 0.06919,-0.0587 m -0.06975,0.0443 0.05314,-0.0443 h -0.05259 m 3.198893,2.61824 3.117522,-2.61824 h -3.116415 l -0.06864,0.0587 v 2.559 h 0.05314"
     id="path126"
     inkscape:connector-curvature="0"
     style="fill:#ffffff" />
  <path
     d="m 23.598962,26.483449 h -0.01661 l -0.05259,0.0443 v 0.0138"
     id="path128"
     inkscape:connector-curvature="0"
     style="fill:#ffffff" />
  <path
     d="m 23.52977,26.528279 0.05314,-0.0443 h -0.05314 m -21.8547657,2.61713 -0.068085,0.0576 v 2.55901 h 0.068085 l 3.0627227,-2.57229 v -0.0443"
     id="path130"
     inkscape:connector-curvature="0"
     style="fill:#ffffff" />
  <path
     d="m 1.6750043,29.101129 h -0.068085 v 0.0576 m 3.2,2.55901 3.0627227,-2.57118 v -0.0454 H 4.8058121 l -0.068085,0.0576 v 2.55901 h 0.052586"
     id="path132"
     inkscape:connector-curvature="0"
     style="fill:#ffffff" />
  <path
     d="m 4.7382806,29.145409 v 0.0133 l 0.067531,-0.0576 h -0.014945 m 0,0 h -0.052586 v 0.0443 m 3.1994464,-0.0443 -0.068085,0.0576 v 2.55901 h 0.068085 l 3.116416,-2.61657 m -3.1845011,0.0454 v 0.0122 l 0.067532,-0.0576 H 7.922228"
     id="path134"
     inkscape:connector-curvature="0"
     style="fill:#ffffff" />
  <path
     d="m 7.9227815,29.101129 h -0.05314 v 0.0454 m 9.3951915,0.0122 v 2.55901 h 0.06919 l 3.064384,-2.57395 v -0.0426 h -3.064384 m -5.53e-4,0 h -0.06864 v 0.0576 m 3.133022,0 v 2.55901 h 0.06975 l 3.062169,-2.57229 v -0.0443 h -3.062723"
     id="path136"
     inkscape:connector-curvature="0"
     style="fill:#ffffff" />
  <path
     d="m 20.450995,29.101129 -0.05259,0.0432 v 0.0149 l 0.06919,-0.0576 m -0.06975,0.0421 0.05314,-0.0426 h -0.05259 m 3.200553,2.61657 3.116416,-2.61657 h -3.118076 l -0.06753,0.0576 v 2.55901 h 0.05314"
     id="path138"
     inkscape:connector-curvature="0"
     style="fill:#ffffff" />
  <path
     d="m 23.597302,29.101129 h -0.01439 l -0.05314,0.0443 v 0.0133"
     id="path140"
     inkscape:connector-curvature="0"
     style="fill:#ffffff" />
  <path
     d="m 23.52977,29.145409 0.05314,-0.0443 h -0.05314 m -21.8547657,2.61657 -0.068085,0.0576 v 2.55845 h 0.068085 l 3.0632763,-2.57173 v -0.0443"
     id="path142"
     inkscape:connector-curvature="0"
     style="fill:#ffffff" />
  <path
     d="m 1.6750043,31.717699 h -0.068085 v 0.0576 m 3.2,2.55845 3.0627227,-2.57118 v -0.0443 H 4.8069192 l -0.069192,0.0576 v 2.55845 h 0.052586 m -0.052032,-2.57229 v 0.0133 l 0.068639,-0.0581 h -0.016606"
     id="path144"
     inkscape:connector-curvature="0"
     style="fill:#ffffff" />
  <path
     d="m 4.7908666,31.717699 h -0.052586 v 0.0443 m 6.2632764,-0.0443 h -3.06383 l -0.068085,0.0576 v 2.55845 h 0.068085 l 3.06383,-2.57118"
     id="path146"
     inkscape:connector-curvature="0"
     style="fill:#ffffff" />
  <path
     d="m 7.8696419,31.761979 v 0.0133 l 0.068085,-0.0581 h -0.014945"
     id="path148"
     inkscape:connector-curvature="0"
     style="fill:#ffffff" />
  <path
     d="m 7.9227815,31.717699 h -0.05314 v 0.0443 m 6.2621695,-0.0443 h -3.077668 l -0.05259,0.0443 v 2.57173 h 0.06919 l 3.061062,-2.57118"
     id="path150"
     inkscape:connector-curvature="0"
     style="fill:#ffffff" />
  <path
     d="m 11.001557,31.761979 0.05314,-0.0443 h -0.05259 m 6.262723,0 h -3.077668 l -0.05535,0.0443 v 2.57173 h 0.0703 l 3.062723,-2.57118"
     id="path152"
     inkscape:connector-curvature="0"
     style="fill:#ffffff" />
  <path
     d="m 14.131811,31.761979 0.05535,-0.0443 h -0.05535 m 3.133022,0.0576 v 2.55845 h 0.06919 l 3.064384,-2.57284 v -0.0443 h -3.06383"
     id="path154"
     inkscape:connector-curvature="0"
     style="fill:#ffffff" />
  <path
     d="m 17.318526,31.717699 -0.05369,0.0443 v 0.0133 l 0.06919,-0.0581"
     id="path156"
     inkscape:connector-curvature="0"
     style="fill:#ffffff" />
  <path
     d="m 17.264833,31.761979 0.05369,-0.0443 h -0.05369 m 3.133022,0.0576 v 2.55845 h 0.06975 l 3.062169,-2.57173 v -0.0443 h -3.062723"
     id="path158"
     inkscape:connector-curvature="0"
     style="fill:#ffffff" />
  <path
     d="m 20.450995,31.717699 -0.05259,0.0432 v 0.0144 l 0.06919,-0.0581 m -0.06975,0.0437 0.05314,-0.0443 h -0.05259 m 3.131361,2.61712 h 0.05314 l -0.05314,0.0443 v 0.0138 l 3.185054,-2.67359 h -3.116415 l -0.06864,0.0576 m 0.06919,-0.0581 h -0.01661 l -0.05259,0.0443 v 0.0133"
     id="path160"
     inkscape:connector-curvature="0"
     style="fill:#ffffff" />
  <path
     d="m 23.52977,31.761979 0.05314,-0.0443 h -0.05314 m -21.8547657,2.61601 -0.068085,0.0581 v 2.56011 h 0.068085 l 3.0627227,-2.57285 v -0.0443"
     id="path162"
     inkscape:connector-curvature="0"
     style="fill:#ffffff" />
  <path
     d="m 1.6750043,34.333709 h -0.068085 v 0.0581 m 6.2627227,-0.0581 H 4.8069192 l -0.069192,0.0581 v 2.56011 h 0.069192 l 3.0621692,-2.57229"
     id="path164"
     inkscape:connector-curvature="0"
     style="fill:#ffffff" />
  <path
     d="m 4.7382806,34.378549 v 0.0133 l 0.068639,-0.0576 h -0.016606 m 5.535e-4,-5.6e-4 h -0.052586 v 0.0443 m 6.2632769,-0.0443 H 7.9377275 l -0.068085,0.0581 v 2.56011 h 0.068085 l 3.0638305,-2.57229"
     id="path166"
     inkscape:connector-curvature="0"
     style="fill:#ffffff" />
  <path
     d="M 7.937727,34.333709 H 7.922782 l -0.05314,0.0454 v 0.0127"
     id="path168"
     inkscape:connector-curvature="0"
     style="fill:#ffffff" />
  <path
     d="m 7.9227815,34.333709 h -0.05314 v 0.0454 m 6.2621695,-0.0454 h -3.061062 l -0.06919,0.0581 v 2.56011 h 0.06919 l 3.061062,-2.57229"
     id="path170"
     inkscape:connector-curvature="0"
     style="fill:#ffffff" />
  <path
     d="m 11.070749,34.333709 h -0.01661 l -0.05259,0.0454 v 0.0127"
     id="path172"
     inkscape:connector-curvature="0"
     style="fill:#ffffff" />
  <path
     d="m 11.054143,34.333709 h -0.05259 v 0.0454 m 6.263276,-0.0454 H 14.20211 l -0.06974,0.0581 v 2.56011 h 0.0703 l 3.062723,-2.57229 m -3.063277,-0.046 h -0.01494 l -0.05535,0.0454 v 0.0127"
     id="path174"
     inkscape:connector-curvature="0"
     style="fill:#ffffff" />
  <path
     d="m 14.187165,34.333709 h -0.05535 v 0.0454 m 6.266044,-0.0454 h -3.06383 l -0.06919,0.0581 v 2.56011 h 0.06919 l 3.064384,-2.57395"
     id="path176"
     inkscape:connector-curvature="0"
     style="fill:#ffffff" />
  <path
     d="m 17.334025,34.333709 h -0.0155 l -0.05369,0.0454 v 0.0127 m 0.05369,-0.0581 h -0.05369 v 0.0454 m 6.264937,-5.5e-4 v -0.0443 h -3.062723 l -0.06864,0.0576 v 2.56011 h 0.05314 l -0.05259,0.0443 v 0.0138 m 0.06808,-2.67636 h -0.01661 l -0.05203,0.0443 v 0.0138 m 3.184501,-0.0581 h -0.05314 v 0.0443"
     id="path178"
     inkscape:connector-curvature="0"
     style="fill:#ffffff" />
  <path
     d="m 20.397855,34.377999 0.05314,-0.0443 h -0.05259 M 4.7382806,36.951389 H 1.6744508 l -0.068085,0.0581 v 2.61713 l 3.1308078,-2.63096"
     id="path180"
     inkscape:connector-curvature="0"
     style="fill:#ffffff" />
  <path
     d="m 1.6750043,36.951389 h -0.068085 v 0.0581 m 6.2627227,-0.0581 H 4.8069192 l -0.069192,0.0581 v 2.61713 l 3.1313614,-2.6293"
     id="path182"
     inkscape:connector-curvature="0"
     style="fill:#ffffff" />
  <path
     d="m 4.7382806,37.009509 0.068639,-0.0581 h -0.016606 l -0.052586,0.0443"
     id="path184"
     inkscape:connector-curvature="0"
     style="fill:#ffffff" />
  <path
     d="m 4.7908666,36.951389 h -0.052586 v 0.0443 m 6.2632764,-0.0443 h -3.06383 l -0.068085,0.0581 v 2.61713 l 3.131915,-2.6293"
     id="path186"
     inkscape:connector-curvature="0"
     style="fill:#ffffff" />
  <path
     d="m 7.8696419,37.009509 0.068085,-0.0581 h -0.014945 l -0.05314,0.046"
     id="path188"
     inkscape:connector-curvature="0"
     style="fill:#ffffff" />
  <path
     d="m 7.9227815,36.951389 h -0.05314 v 0.046 m 6.2621695,-0.046 h -3.061062 l -0.06919,0.0581 v 2.61713 l 3.130808,-2.6293"
     id="path190"
     inkscape:connector-curvature="0"
     style="fill:#ffffff" />
  <path
     d="m 11.001557,37.009509 0.06919,-0.0581 h -0.01661 l -0.05259,0.046"
     id="path192"
     inkscape:connector-curvature="0"
     style="fill:#ffffff" />
  <path
     d="m 11.054143,36.951389 h -0.05259 v 0.046 m 6.263276,-0.046 H 14.20211 l -0.06974,0.0581 v 2.61713 l 3.133022,-2.6293 m -3.133576,0.0122 0.0703,-0.0581 h -0.01494 l -0.05535,0.046"
     id="path194"
     inkscape:connector-curvature="0"
     style="fill:#ffffff" />
  <path
     d="m 14.187165,36.951389 h -0.05535 v 0.046 m 6.266044,-0.046 h -3.06383 l -0.06919,0.0581 v 2.61713 l 3.133022,-2.63152"
     id="path196"
     inkscape:connector-curvature="0"
     style="fill:#ffffff" />
  <path
     d="m 17.264833,37.009509 0.06919,-0.0581 h -0.0155 l -0.05369,0.046 m 3.186162,-0.046 h -0.05259 v 0.0443 m -3.079883,-0.0443 h -0.05369 v 0.046"
     id="path198"
     inkscape:connector-curvature="0"
     style="fill:#ffffff" />
  <path
     d="m 45.403356,75.323719 0.513683,-0.44726 c 0.135063,0.0686 0.270126,0.13949 0.398547,0.21588 l -0.774953,0.67531 -0.137277,-0.44449 z m -5.985954,20.31316 c -0.111815,0.0122 -0.235254,0.0183 -0.349836,0.0293 l 0.78713,-0.6875 0.260163,0.33545 -0.562948,0.49265 -0.135063,-0.16939 z m 1.269815,0.41405 -0.550216,0.47991 -0.266806,-0.33101 0.556859,-0.48601 m 0.829753,1.07331 -0.535824,0.46774 -0.265698,-0.33046 0.542466,-0.47438 m 0.831414,1.0722 -0.524754,0.45722 -0.265698,-0.33101 0.530289,-0.46221 m 0.829753,1.0722 -0.510362,0.44615 -0.265698,-0.33046 0.517558,-0.45279 m 0.570697,0.73842 0.260162,0.33544 -0.498183,0.43564 -0.266805,-0.33047 m 1.074969,0.29559 0.260163,0.33434 -0.485453,0.423461 -0.265697,-0.331021"
     id="path200"
     inkscape:connector-curvature="0"
     style="fill:#1d1d1b" />
  <path
     d="m 31.075592,95.233899 1.875385,-1.63736 h -0.76831 l -1.107075,0.96592 m 0.462204,-0.96592 h -0.46165 v 0.40298 m -5.54e-4,-15.483 v 0.67089 l 4.757655,-4.15153 c -0.236914,-0.0166 -0.476042,-0.0305 -0.725134,-0.0388 l -4.031967,3.51939 z m 0.584536,-3.54153 h -0.584536 v 0.50925 m 3.178966,-0.50925 h -0.534164 l -2.644248,2.30825 v 0.66978 l 3.405916,-2.9725 c -0.07639,-0.002 -0.149455,-0.006 -0.22695,-0.006 z m -3.178966,1.74419 1.998271,-1.74364 h -0.76831 l -1.228853,1.07276"
     id="path202"
     inkscape:connector-curvature="0"
     style="fill:none" />
  <path
     d="m 31.075592,76.048299 1.229961,-1.07387 h -0.645425 l -0.583982,0.50926 m -5.54e-4,1.799 2.644802,-2.30826 h -0.646531 l -1.998271,1.74475 m 3.405916,-1.73866 -3.405362,2.9725 v 0.5635 l 4.033074,-3.51884 c -0.204809,-0.008 -0.412939,-0.0149 -0.627158,-0.0166 z m -0.916658,2.1671 h 0.494309 l 2.363605,-2.06469 c -0.189863,-0.0194 -0.390797,-0.0332 -0.589517,-0.047 l -4.757101,4.15153 v 0.56239 l 2.489258,-2.17263 v -0.42955 z m 1.90749,0 2.164332,-1.88867 c -0.174364,-0.0332 -0.362567,-0.0581 -0.548002,-0.0852 l -2.261201,1.97391 h 0.644871 z m -4.396748,3.83823 2.489258,-2.1754 v -0.56184 l -2.488704,2.17319 m -5.54e-4,1.79789 2.489258,-2.17319 v -0.56295 l -2.488704,2.17263 m 5.66767,-4.50856 c 0.04816,0 0.09244,0.004 0.138384,0.004 l 1.858779,-1.62297 c -0.158865,-0.0471 -0.322159,-0.0913 -0.492648,-0.13285 l -2.007127,1.75139 h 0.502058 z m -5.668224,6.3059 2.489258,-2.17319 v -0.56239 l -2.488704,2.17263 m 7.163328,-5.6887 1.500087,-1.30967 c -0.142259,-0.062 -0.282304,-0.12731 -0.433974,-0.18267 l -1.674451,1.46134 c 0.207577,0.007 0.409618,0.0183 0.608892,0.031 z m -7.163882,7.48549 2.489258,-2.17264 v -0.56295 l -2.488704,2.17541 m 8.426501,-6.79136 1.125341,-0.98308 c -0.124546,-0.0775 -0.254627,-0.15333 -0.387476,-0.22418 l -1.298045,1.13143 c 0.193738,0.0205 0.376405,0.0498 0.56018,0.0764 z m 1.163535,0.21755 0.727902,-0.63547 c -0.0094,-0.01 -0.01661,-0.0188 -0.02657,-0.0277 -0.09742,-0.0853 -0.207576,-0.16053 -0.312195,-0.23913 l -0.902266,0.78768 c 0.178239,0.0332 0.3443,0.0753 0.513683,0.11459 z m -9.59059,8.36893 2.489258,-2.17264 v -0.5646 l -2.488704,2.17318 m 10.653382,-7.49766 0.306106,-0.26791 c -0.08967,-0.10739 -0.18156,-0.21588 -0.28009,-0.31884 l -0.499291,0.43729 c 0.160526,0.0487 0.321052,0.0952 0.473275,0.14946 z m -10.653936,9.29666 2.489258,-2.17374 v -0.56295 l -2.488704,2.1743 m 11.380176,-8.4254 c -0.03709,-0.0592 -0.07085,-0.12067 -0.1096,-0.17713 l -0.09631,0.0819 c 0.06919,0.031 0.13617,0.0631 0.205915,0.0952 z m -11.38073,10.22273 2.489258,-2.17374 v -0.56571 l -2.488704,2.1754 m 2.488704,-0.37641 v -0.56239 l -2.488704,2.17319 v 0.48434 h 0.09133 m 12.009548,-11.04529 -0.03986,0.0343 c 0.02934,0.0194 0.05535,0.0399 0.08303,0.0581 -0.01384,-0.0299 -0.02768,-0.062 -0.04318,-0.0924 z m 3.960561,-2.89167 c -0.121779,-0.0814 -0.241343,-0.16496 -0.365335,-0.24356 l -0.0066,0.006 c 0.08967,0.1085 0.180454,0.21754 0.265698,0.32991 l 0.10628,-0.0919 z m -14.557482,13.93585 0.985297,-0.85964 v -0.56295 l -1.631828,1.42259"
     id="path204"
     inkscape:connector-curvature="0"
     style="fill:#ffffff" />
  <path
     d="m 36.468154,73.494829 h -7.726275 v 17.60083 h 7.284552 c 0.362014,-0.0166 9.41678,-0.55354 9.41678,-8.74202 0,-8.75696 -8.607508,-8.85881 -8.975057,-8.85881 z m 4.898807,14.1152 c -1.44584,1.29085 -3.816641,1.93628 -7.112957,1.93628 h -3.177858 v -14.57298 h 3.178966 c 0.0775,0 0.149455,0.004 0.22695,0.006 0.214219,0.002 0.421795,0.009 0.627158,0.0166 0.247431,0.008 0.487113,0.0221 0.725134,0.0387 0.198166,0.0138 0.399654,0.0277 0.589517,0.0476 0.231379,0.0249 0.448366,0.0576 0.665906,0.0897 0.184881,0.0277 0.373084,0.052 0.548002,0.0853 0.213112,0.0404 0.411832,0.0886 0.611659,0.13838 0.169936,0.0404 0.333229,0.0847 0.492648,0.13174 0.192078,0.057 0.384155,0.11403 0.564608,0.17935 0.15167,0.0565 0.291161,0.12178 0.433974,0.18267 0.171596,0.0753 0.340425,0.15111 0.49929,0.23691 0.133957,0.0709 0.264038,0.14669 0.387477,0.22418 0.151669,0.093 0.29116,0.19374 0.427331,0.29781 0.105172,0.0791 0.215879,0.15333 0.312195,0.23913 0.01,0.009 0.01661,0.0177 0.02768,0.0277 0.127313,0.11292 0.243556,0.23415 0.359799,0.35648 0.09964,0.10351 0.19097,0.21145 0.280643,0.31884 0.10628,0.12953 0.214773,0.26127 0.309981,0.39965 0.03875,0.057 0.07307,0.11791 0.110708,0.17713 0.714063,1.10708 1.079398,2.46103 1.079398,4.0685 0,2.29276 -0.725134,4.084 -2.168206,5.37485 z m 6.530635,-11.42944 -0.105173,-0.0886 c -0.07639,-0.0609 -0.157204,-0.11901 -0.234146,-0.17714 l -0.236914,0.20592 c 0.0786,0.11846 0.167168,0.23027 0.241896,0.3515 l 0.333783,-0.29172 z m 0.695796,0.62716 c -0.101851,-0.0996 -0.203148,-0.19761 -0.309981,-0.29337 l -0.474935,0.41349 c 0.06919,0.12731 0.140045,0.25463 0.203702,0.38747 l 0.581214,-0.50759 z m 0.629372,0.68528 c -0.09078,-0.10849 -0.182667,-0.21477 -0.278983,-0.31939 l -0.714063,0.62328 c 0.05812,0.13839 0.110708,0.27898 0.16274,0.42069 l 0.830306,-0.72513 z m -18.147172,17.06943 1.107075,-0.96592 h -0.644871 l -0.46165,0.40298 m 18.616018,-15.64242 c -0.08026,-0.1179 -0.164401,-0.23248 -0.249092,-0.34541 l -0.963155,0.84138 c 0.04428,0.14946 0.07971,0.30555 0.119011,0.45833 l 1.093236,-0.95374 z m -18.616572,17.43975 2.52081,-2.20031 h -0.645425 l -1.874831,1.63736 m 19.203875,-16.1965 c -0.06808,-0.12731 -0.139492,-0.25297 -0.214219,-0.37641 l -1.227193,1.07387 c 0.03321,0.16052 0.04982,0.32935 0.07584,0.49375 l 1.365577,-1.19121 z m 0.421795,0.86905 c -0.02768,-0.0681 -0.05535,-0.13838 -0.08414,-0.20481 -0.03155,-0.0664 -0.06643,-0.13284 -0.09853,-0.20038 l -1.514479,1.32296 c 0.01827,0.17326 0.02768,0.35149 0.03875,0.52863 l 1.658398,-1.44695 z m -16.247431,13.69009 h -0.08635 l -3.291887,2.87175 v 0.56461 l 3.953364,-3.4513 c -0.191523,0.004 -0.376405,0.0155 -0.574571,0.0155 z m -3.378793,4.10614 v 0.56295 l 2.489258,-2.17374 v -0.32271 h 0.371978 l 2.604947,-2.27338 c -0.235807,0.0221 -0.470507,0.0454 -0.714064,0.0587 l -4.752119,4.14821 z m 17.999931,-15.14423 1.973915,-1.72261 c -0.0465,-0.14613 -0.09853,-0.2895 -0.149455,-0.43176 l -1.826674,1.59253 c 0.0022,0.0819 0.01107,0.15887 0.01107,0.24245 0.0011,0.10739 -0.0066,0.212 -0.0089,0.31939 z m -11.708424,11.45048 -0.265698,-0.33102 -2.395156,2.09127 h 0.644317 m 15.96236,-13.92867 c -0.03321,-0.15776 -0.06864,-0.31385 -0.108494,-0.46829 l -2.162117,1.88646 c -0.01661,0.20702 -0.03432,0.41404 -0.06089,0.61608 l 2.330393,-2.03369 z m -20.23733,17.09656 v 0.56461 l 2.489258,-2.17374 v -0.56461 m -3.895243,3.963881 h -0.645424 l -0.856323,0.74728 v 0.5646 m 2.907732,-1.86818 v 0.55685 h -0.638228 l -2.269504,1.98167 v 0.19152 h 0.425117 l 4.971873,-4.338071 v -0.56461 m 17.921882,-15.07504 c -0.01937,-0.17049 -0.04207,-0.33766 -0.06642,-0.50538 l -2.569521,2.24183 c -0.04871,0.24189 -0.106279,0.47881 -0.171597,0.71296 l 2.807542,-2.44885 z m -13.534544,11.81138 -0.265698,-0.33101 -1.566511,1.36558 h 0.645978 m -3.201107,3.46348 -4.200242,3.667741 h 0.643764 l 3.555925,-3.103131 m 18.002145,-15.7094 c -0.0044,-0.18266 -0.01107,-0.36312 -0.0238,-0.54246 l -3.17177,2.76658 c -0.121778,0.31828 -0.262377,0.6255 -0.415153,0.92717 l 3.610725,-3.15129 z m -9.338731,8.14808 0.02048,-0.0166 c -0.0089,0.004 -0.01495,0.009 -0.0238,0.0122 l 0.0039,0.006 z m -4.673516,3.51662 c 0.220308,-0.006 0.449472,-0.006 0.665905,-0.0166 l 0.316624,-0.27566 -0.267359,-0.33212 -0.715724,0.62439 z m 2.300501,-0.7744 -0.78713,0.68749 c 0.114582,-0.0111 0.238021,-0.0166 0.348729,-0.0293 l 0.135616,0.16938 0.563502,-0.49265 -0.260163,-0.33544 z m 4.204671,-3.66774 -1.511157,1.31742 0.269019,0.32936 8.720982,-7.61225 c 0.01384,-0.18987 0.01937,-0.38637 0.02491,-0.58343 l -4.624252,4.03529 c -0.766096,0.98142 -1.719288,1.8239 -2.879502,2.51416 z m -10.494517,9.156621 -2.787061,2.43335 h 0.644318 l 2.14219,-1.86985 m 5.53e-4,0.67199 -1.372773,1.19786 h 0.645425 l 0.727348,-0.63546 M 51.357205,86.740429 c 0.03985,-0.21754 0.08026,-0.43508 0.109047,-0.65871 l -8.326864,7.26684 0.269019,0.32824 7.948798,-6.93582 z m -11.220204,9.79097 0.550216,-0.48047 -0.260163,-0.33655 -0.556859,0.486 m 11.038644,-7.83587 c 0.0941,-0.25574 0.177132,-0.51701 0.250199,-0.78215 l -7.430687,6.48413 0.267913,0.32991 6.912022,-6.03189 z m -10.187856,8.89036 0.535824,-0.46774 -0.259056,-0.33766 -0.542466,0.47494 m 4.348036,-2.56011 c 0.501505,-0.20481 0.97644,-0.43342 1.423699,-0.67864 l 3.456287,-3.01678 c 0.04982,-0.0703 0.104065,-0.13562 0.149455,-0.20481 0.219201,-0.32216 0.407958,-0.6576 0.58675,-1.0019 l -5.616191,4.90157 z m -3.498356,3.61515 0.5242,-0.45667 -0.260163,-0.33599 -0.530289,0.4622 m 3.280263,-2.86124 0.267912,0.32825 0.413493,-0.36091 -0.270127,-0.32824 m 0.178239,1.0805 0.268466,0.3277 0.412939,-0.3598 -0.268466,-0.32936 m -3.433039,3.55869 0.510362,-0.44559 -0.258502,-0.33655 -0.518112,0.45224 m 3.875316,-2.14773 0.270126,0.3288 0.412939,-0.36146 -0.269019,-0.32769 m -3.438574,3.56367 0.498183,-0.43508 -0.260162,-0.33489 -0.504826,0.44006 m 3.881404,-2.15381 0.269019,0.32769 0.414046,-0.36146 -0.270126,-0.32824 m -2.959211,3.1463 -0.260163,-0.33489 -0.490987,0.42733 0.265697,0.331021 m 0.461651,0.57291 0.124546,0.15222 0.173257,-0.15167 m 2.862342,-3.061611 0.270126,0.3288 0.412386,-0.36091 -0.269573,-0.3288 m -1.859332,3.421971 h -0.647639 l -0.625497,0.54634 0.267912,0.33212 m 3.040581,-3.219921 0.269573,0.3288 0.412939,-0.36091 -0.26902,-0.32825 m 0.177132,1.07996 0.26902,0.32769 0.412385,-0.3598 -0.268466,-0.32935 m -1.627953,1.983321 h -0.644318 l -1.455803,1.27092 0.265698,0.32991 m 3.638955,-2.503101 0.267912,0.329361 0.414046,-0.361461 -0.269019,-0.32769 m -1.447501,1.262061 -2.286109,1.9944 0.142259,0.17879 h 0.29891 l 2.490918,-2.17264 m 0.769417,-5.5e-4 -2.489257,2.17319 h 0.644317 l 2.736689,-2.38741 -0.267912,-0.32825 -0.414046,0.36146 0.149455,0.18156 m -0.791005,2.17264 1.913579,-1.66836 -0.270126,-0.3277 -2.288324,1.99606 m 2.061927,0 1.084934,-0.94766 -0.268466,-0.32935 -1.462446,1.27646 m 2.320982,-0.22862 -0.269019,-0.32824 -0.638228,0.55686 h 0.644317"
     id="path206"
     inkscape:connector-curvature="0"
     style="fill:#ffffff" />
  <path
     d="m 69.379277,23.078079 c -0.309981,-0.1251 -0.619962,-0.24743 -0.93105,-0.37087 -3.660543,-1.44639 -7.427366,-2.93928 -8.419305,-6.304788 -0.0083,0.110708 -0.01107,0.220308 -0.01107,0.328802 0,3.405366 3.042795,6.222866 8.568759,7.934956 4.472583,1.38053 7.073102,3.48618 7.758935,6.26715 0.02768,-0.20093 0.04207,-0.38969 0.04207,-0.55187 0,-2.97803 -2.35807,-5.43463 -7.008892,-7.30282 z"
     id="path208"
     inkscape:connector-curvature="0"
     style="fill:none" />
  <path
     d="m 68.930912,27.428889 c 0.08082,0.021 0.162186,0.0399 0.241342,0.0648 -0.03432,-0.0166 -0.07583,-0.0332 -0.113475,-0.0476 -0.05702,-0.009 -0.114029,-0.0221 -0.17049,-0.0293 0.01273,0.006 0.02768,0.008 0.04207,0.0122 z m -0.851341,1.09047 -0.188203,-0.2812 -0.113475,0.0349 -0.214219,0.0631 c -0.142813,0.0426 -0.548002,0.15665 -0.915551,0.18045 0.08303,0.12731 0.265698,0.17713 0.440062,0.17713 0.362014,0 0.781595,-0.11237 0.990832,-0.17381 z"
     id="path210"
     inkscape:connector-curvature="0"
     style="fill:#ffffff" />
  <path
     d="m 70.682304,21.064309 c 0.05757,-0.0332 0.110708,-0.0708 0.164401,-0.10627 1.490676,-0.72791 1.743643,-2.00104 1.743643,-2.55735 0,-1.66891 -1.648435,-2.832448 -3.127487,-2.832448 -1.276457,0 -2.241827,0.753918 -2.241827,1.753608 0,0.3609 0.0858,0.65428 0.266805,0.9233 l 0.190417,0.28618 0.113476,-0.0343 0.152776,-0.0454 0.06089,-0.0183 c 0.159419,-0.0459 0.643764,-0.1882 1.038436,-0.1882 0.224736,0 0.468293,0.0841 0.468293,0.32326 0,0.23803 -0.110708,0.43619 -0.303339,0.59008 -0.181006,0.14392 -0.436187,0.24909 -0.757239,0.30555 -0.129528,0.0371 -0.278429,0.0598 -0.44283,0.0598 -0.132849,0 -0.264591,-0.0111 -0.395226,-0.0221 -0.04428,-0.003 -0.09078,-0.003 -0.13617,-0.007 -0.05203,-0.006 -0.105172,-0.0138 -0.157758,-0.021 -0.116243,-0.0144 -0.231379,-0.0332 -0.345961,-0.0554 -0.06919,-0.0138 -0.13617,-0.0277 -0.204809,-0.0443 l -0.128974,-0.0332 c -0.08137,-0.0221 -0.161633,-0.0404 -0.243556,-0.0653 0.0858,0.0349 0.175471,0.0731 0.263483,0.10905 -2.532433,-0.70299 -4.512437,-2.958659 -4.512437,-4.419444 0,-3.0356 2.107317,-4.511331 6.443176,-4.511331 4.391213,0 6.393358,1.557101 6.393358,3.005709 0,0.492648 -0.556859,1.090469 -1.300813,1.155232 l -0.546895,0.0465 0.116242,0.536931 c 0.27843,1.293063 1.014635,1.844383 2.4566,1.844383 1.599723,0 2.75883,-1.289739 2.75883,-3.066594 0,-1.284207 -0.888427,-2.694067 -2.250683,-3.679917 1.07663,-0.430098 1.620758,-1.087701 1.620758,-1.961736 0,-0.887875 -0.810933,-1.558762 -1.887563,-1.558762 h -0.404082 l -0.0703,0.398547 c -0.0941,0.526968 -0.38194,1.06556 -1.800103,1.06556 -0.476043,0 -1.144716,-0.04262 -1.96063,-0.128421 -0.802629,-0.04041 -1.7525,-0.0858 -2.88393,-0.0858 -7.311123,0 -11.136067,4.271648 -11.136067,8.491264 0,4.231789 2.096247,6.856669 7.641585,9.384119 l -0.0066,0.004 -0.276768,-0.11459 c -0.101851,-0.0415 -0.09964,-0.0664 -0.09964,-0.0664 -1.650649,0.71019 -1.973915,2.06746 -1.973915,2.64591 0,1.20007 0.855216,2.13001 1.884795,2.56288 0.401869,0.16938 0.827539,0.26957 1.243799,0.26957 1.275904,0 2.239613,-0.75392 2.239613,-1.75305 0,-0.36091 -0.08414,-0.65539 -0.265698,-0.92441 l -0.0028,-0.004 c -0.209237,0.0609 -0.628819,0.17381 -0.990832,0.17381 -0.173811,0 -0.357032,-0.0498 -0.440062,-0.17713 -0.04041,0.003 -0.08192,0.009 -0.121779,0.009 -0.22695,0 -0.467739,-0.0841 -0.467739,-0.32382 0,-0.46054 0.396887,-0.78049 1.059471,-0.89507 0.130635,-0.0371 0.277876,-0.0609 0.44283,-0.0609 0.132849,0 0.263484,0.0122 0.394672,0.0221 0.04594,0.003 0.09133,0.004 0.136724,0.008 0.05314,0.006 0.105172,0.0127 0.157758,0.0205 0.115136,0.0144 0.230825,0.0332 0.346515,0.0554 0.06809,0.0138 0.135063,0.0277 0.203148,0.0432 l 0.08746,0.0221 c 0.05701,0.008 0.114028,0.0205 0.170489,0.0299 2.540737,0.41404 5.005639,2.77211 5.005639,4.48365 0,3.54817 -2.123923,5.19993 -6.683964,5.19993 -5.055458,0 -7.409099,-2.64037 -7.409099,-4.42387 0,-0.37309 0.452794,-0.72292 0.726241,-0.72292 0.271233,0 0.453901,0.0399 0.628265,0.0803 0.07196,0.0166 0.138384,0.0305 0.20647,0.0426 l 0.602248,0.10628 -0.03321,-0.60889 c -0.06421,-1.11814 -0.795433,-2.30936 -2.663622,-2.30936 -1.423699,0 -2.953676,0.95928 -2.953676,3.0666 0,0.49043 0.160526,2.08407 2.021519,3.75741 -1.129217,0.38416 -1.779623,1.11372 -1.779623,2.05584 0,1.17073 0.856322,1.99052 2.081301,1.99052 h 0.483238 v -0.48379 c 0,-0.86241 0.329908,-1.15136 1.309116,-1.15136 0.351496,0 0.83252,0.11182 1.441411,0.25297 1.1735,0.27511 2.947587,0.69192 5.579658,0.69192 9.131707,0 11.188099,-6.8622 11.188099,-9.26622 0,-3.86479 -2.660855,-6.86386 -8.12593,-9.14776 z m -2.094586,3.60243 c -5.526518,-1.71209 -8.568759,-4.5296 -8.568759,-7.93496 0,-0.107943 0.0022,-0.217543 0.01107,-0.328804 0.990832,3.365504 4.758208,4.857844 8.419305,6.304794 0.309981,0.12344 0.621069,0.24577 0.929943,0.37087 4.651375,1.86819 7.009445,4.32479 7.009445,7.30282 0,0.16218 -0.01439,0.35094 -0.04152,0.55187 -0.686386,-2.78152 -3.286905,-4.88662 -7.758934,-6.26604 z"
     id="path212"
     inkscape:connector-curvature="0"
     style="fill:#ffffff" />
  <path
     d="m 36.162602,13.720532 h 10.60467 v 5.817677 h -10.60467 z"
     id="path214"
     inkscape:connector-curvature="0"
     style="fill:none" />
  <path
     d="m 36.127175,13.720532 h 0.03543 v 5.817677 h -0.03543 z m 0,10.467397 h 0.03543 v 9.8823 h -0.03543 z m 9.505345,41.16824 c 0,0.81536 0.260163,1.47462 0.761114,1.97723 0.501505,0.50151 1.138627,0.74839 1.898634,0.74839 0.970904,0 1.753606,-0.32548 2.320982,-0.9936 0.571804,-0.65982 0.850787,-1.54327 0.850787,-2.64757 0,-1.05006 -0.271233,-1.90971 -0.70576,-2.65809 -0.489881,-0.84525 -1.874831,-1.63626 -1.859886,-1.64954 -0.06642,-0.0332 -0.127313,-0.0736 -0.197059,-0.10407 l -0.464972,0.44837 c 0.08026,0.0376 0.15333,0.0814 0.231379,0.12178 0.0044,-0.003 0.01,-0.007 0.01273,-0.0111 0.658709,0.31164 1.161321,0.71295 1.496211,1.21667 0.323266,0.50206 0.494309,0.94876 0.494309,1.36004 0,0.12732 -0.01937,0.21865 -0.05425,0.28065 -0.02878,0.13727 -0.08082,0.23248 -0.178793,0.23248 -0.205916,0 -0.521432,-0.1561 -0.945442,-0.46054 -0.43508,-0.31441 -0.886767,-0.47272 -1.372773,-0.47272 -0.210344,0 -0.408511,0.0177 -0.596713,0.0498 -0.421796,0.12011 -0.77606,0.3288 -1.040651,0.65206 -0.437294,0.52365 -0.65096,1.14859 -0.65096,1.90971 z"
     id="path216"
     inkscape:connector-curvature="0"
     style="fill:#ffffff" />
  <path
     d="m 36.162602,24.187929 h 10.978861 l 5.780592,-4.3342 v -6.677877 c 0,-2.878395 -2.875627,-5.218198 -6.409964,-5.218198 H 36.380695 c -0.07473,0 -0.14558,0.0072 -0.218647,0.0094 -3.433039,0.0941 -6.192977,2.391282 -6.192977,5.208788 v 21.440717 c 0,2.81751 2.759384,5.11469 6.192424,5.20879 0.07196,0.002 0.143919,0.009 0.218093,0.009 h 10.131396 c 3.534337,0 6.409964,-2.34146 6.409964,-5.2182 v -9.60387 l -6.155337,4.67739 v 4.38014 H 36.126622 v -9.8823 h 0.03543 z m -0.03543,-10.467397 h 10.640097 v 5.817677 H 36.127175 v -5.817677 z"
     id="path218"
     inkscape:connector-curvature="0"
     style="fill:#ffffff" />
  <path
     d="m 22.193531,44.689849 c -1.262066,0 -2.223007,0.92662 -2.870646,2.76934 -0.647639,1.85436 -0.970904,3.97551 -0.970904,6.37676 0,2.9891 0.334336,5.41359 1.003563,7.24303 0.659817,1.83332 1.719287,2.74721 3.17177,2.74721 0.882892,0 1.462446,-0.41183 1.743643,-1.23882 0.288946,-0.81536 0.433419,-1.9872 0.433419,-3.49503 v -11.88999 c -0.121778,-0.88289 -0.390797,-1.51835 -0.782148,-1.92077 -0.38969,-0.39025 -0.969798,-0.59229 -1.728697,-0.59229 z m 28.508285,8.43203 c 0,-0.72624 -0.355924,-1.25265 -1.060577,-1.58699 -0.714064,-0.33378 -1.629061,-0.49043 -2.767688,-0.49043 l -3.46293,-0.14392 -3.46293,0.14392 c -1.103754,0 -2.007681,0.16717 -2.723405,0.51479 -0.702992,0.34319 -1.061684,0.88012 -1.061684,1.60747 0,0.7362 0.347068,1.26206 1.038989,1.58422 0.702993,0.33213 1.619651,0.50095 2.745546,0.50095 l 3.463484,0.14503 3.46293,-0.14503 c 1.160215,0 2.097907,-0.15609 2.79149,-0.46829 0.691921,-0.32216 1.036775,-0.87016 1.036775,-1.66172 z"
     id="path220"
     inkscape:connector-curvature="0"
     style="fill:none" />
  <path
     d="m 39.556893,91.426669 5.560837,7.43844 -0.846912,0.63491 -5.799412,-7.75506 c -1.377201,0.35039 -2.385746,0.40962 -2.418958,0.40962 l -7.310016,0.001 v 7.02605 h -1.060024 v -26.74693 h 8.785746 c 0.101298,0 10.034527,0.11403 10.034527,9.91829 0,5.65826 -3.909081,8.0595 -6.945788,9.07358 z m 9.479883,9.119531 -0.322159,-0.3919 -0.267912,-0.329911 -0.321052,-0.3919 -0.267912,-0.32825 -0.321052,-0.3908 -0.269019,-0.32825 -0.319391,-0.39079 -0.269573,-0.32936 -0.321052,-0.39301 -0.269019,-0.32659 -0.319944,-0.39135 -0.270127,-0.3288 -0.319944,-0.39301 -0.26902,-0.3277 -0.321051,-0.39079 -0.267912,-0.3288 -0.322159,-0.39135 -0.267912,-0.32936 -0.319945,-0.38969 -0.269019,-0.32769 -0.321052,-0.39136 -0.269019,-0.3288 -0.321052,-0.39135 -0.0033,-0.006 c 0.0089,-0.004 0.01494,-0.009 0.0238,-0.0122 0.654835,-0.2657 1.249334,-0.57568 1.810068,-0.90946 1.160214,-0.69026 2.113405,-1.5333 2.880055,-2.51417 0.132849,-0.17049 0.284518,-0.32548 0.405189,-0.50372 0.228058,-0.33876 0.427885,-0.69192 0.611659,-1.05338 0.152223,-0.30223 0.293375,-0.60889 0.415153,-0.92718 0.117904,-0.30444 0.219201,-0.6183 0.307767,-0.93935 0.06476,-0.23415 0.122885,-0.47161 0.171597,-0.71406 0.05314,-0.25684 0.09521,-0.51701 0.129527,-0.78326 0.02768,-0.20204 0.04539,-0.40962 0.06089,-0.61608 0.01882,-0.22972 0.02878,-0.46498 0.03432,-0.70078 0.0022,-0.10684 0.01,-0.21201 0.01,-0.31995 0,-0.083 -0.01,-0.16052 -0.01107,-0.24245 -0.0039,-0.21864 -0.0155,-0.43065 -0.031,-0.64376 -0.01107,-0.17713 -0.02048,-0.35537 -0.03875,-0.52863 -0.02214,-0.20149 -0.05812,-0.39744 -0.08967,-0.59505 -0.02602,-0.1644 -0.04318,-0.33379 -0.07583,-0.49431 -0.03875,-0.1882 -0.09631,-0.36423 -0.143919,-0.5469 -0.04096,-0.15333 -0.07362,-0.30998 -0.121779,-0.45943 -0.05259,-0.17271 -0.118457,-0.34043 -0.181006,-0.51036 -0.05203,-0.14116 -0.105172,-0.28231 -0.162187,-0.42069 -0.03875,-0.0886 -0.06476,-0.18156 -0.104065,-0.26847 -0.03432,-0.0736 -0.0786,-0.1406 -0.112921,-0.21366 -0.06366,-0.13119 -0.13451,-0.26017 -0.204809,-0.38637 -0.08026,-0.15223 -0.154991,-0.30888 -0.244664,-0.45556 -0.07417,-0.12178 -0.16274,-0.2336 -0.241896,-0.35205 -0.09576,-0.14116 -0.187095,-0.28397 -0.290053,-0.41959 -0.08525,-0.11236 -0.176025,-0.22141 -0.265698,-0.3299 -0.43176,-0.52254 -0.913337,-1.01076 -1.464107,-1.45415 -1.244352,-0.99636 -2.776544,-1.76689 -4.590486,-2.30991 -1.815603,-0.54246 -3.902439,-0.8137 -6.256634,-0.8137 h -8.777997 v 29.933651 h 5.399205 v -7.132891 h 3.378239 c 0.197613,0 0.381941,-0.0111 0.574018,-0.0144 0.269019,-0.007 0.540806,-0.0111 0.798755,-0.0277 0.243556,-0.0127 0.478809,-0.036 0.714063,-0.0581 0.127313,-0.0138 0.26127,-0.0188 0.385262,-0.0332 l 0.173811,0.21588 0.265698,0.33046 0.318837,0.39467 0.265698,0.33102 0.317731,0.39412 0.266805,0.33212 4.242311,5.267461 h 6.407749 l -0.150562,-0.17879 z m -43.293825,0.11182 3.3190106,-9.295001 1.8028714,-4.93202 c 1.32849,-3.50777 4.695105,-3.03339 4.695105,-3.03339 0,0 -3.367169,-0.42622 -1.896973,-4.69399 1.469642,-4.26888 2.560111,-6.87771 2.560111,-6.87771 0,0 0.664245,0.14392 0.853554,0.42733 l -1.470749,4.02976 c 0,0 -1.278671,2.98744 0.950424,3.88915 1.87926,0.75945 3.016779,-1.38384 3.354437,-2.61159 0.02878,-0.13285 0.05535,-0.2657 0.07417,-0.40076 0.509255,-3.54817 -2.097907,-6.42436 -5.822107,-6.42436 -3.725307,0 -7.1583461,2.87563 -7.6681541,6.42436 -0.3321225,2.30825 0.6548348,4.32866 2.4095485,5.46341 C 3.8155336,83.447989 0,87.450059 0,92.397579 c 0,3.88417 2.3525342,7.34544 5.823214,9.221931 0.1560975,-0.181 0.3155163,-0.36367 0.4705068,-0.54689 -0.362567,-0.20481 -0.5507698,-0.41516 -0.5507698,-0.41516 z"
     id="path222"
     inkscape:connector-curvature="0"
     style="fill:#ffffff" />
  <path
     d="m 7.0050164,100.08621 c 0.1450268,-0.260161 0.2490919,-0.521981 0.2811971,-0.784361 l -0.2811971,0.784361 z m 0,0 c -0.1848815,0.33102 -0.4372946,0.66093 -0.7112956,0.98696 0.091887,0.0526 0.1882027,0.10517 0.3044456,0.15388 l 0.40685,-1.14028 z M 4.4631725,99.661649 14.658225,71.493239 c 0,0 0.285072,-0.23802 0.854662,0.0476 L 5.1739145,100.18474 c 0,0 -0.5679294,-0.238021 -0.710742,-0.523091 z"
     id="path224"
     inkscape:connector-curvature="0"
     style="fill:#ffffff" />
  <g
     id="g226"
     transform="scale(0.55353745,0.55353745)"
     style="fill:#ffffff">
    <path
       d="m 31.68,156.17 c -0.584,-0.106 -1.2,-0.177 -1.857,-0.197 -0.168,-0.005 -0.328,0 -0.49,0 L 17.74,166.58 16.497,170.066 31.68,156.17 z m -4.443,0.012 c -6.38,1.262 -8.55,7.758 -8.55,7.758 l -0.038,0.103 8.587,-7.86 z m 7.658,1.115 c -0.533,-0.295 -1.115,-0.553 -1.748,-0.76 l -17.56,16.07 -1.254,3.51 20.562,-18.82 z m 5.658,8.223 -22.436,20.533 c 0.748,0.102 1.504,0.176 2.273,0.2 h 0.018 l 20.363,-18.636 c -0.028,-0.71 -0.103,-1.408 -0.217,-2.098 z M 11.37,182.595 c -0.28,0.33 -0.567,0.66 -0.85,0.99 0.005,0 0.007,0.002 0.01,0.003 l 0.99,-0.91 c -0.05,-0.028 -0.102,-0.055 -0.15,-0.083 z M 38.092,160.068 11.738,184.19 c 0.502,0.234 1.02,0.443 1.54,0.64 l 25.673,-23.495 c -0.248,-0.42 -0.532,-0.846 -0.858,-1.267 z m 2.118,4.052 c -0.147,-0.46 -0.358,-1.02 -0.647,-1.636 l -24.92,22.808 c 0.623,0.19 1.254,0.358 1.898,0.494 l 23.67,-21.666 z m -27.555,16.692 -0.44,1.236 25.052,-22.93 c -0.383,-0.392 -0.806,-0.768 -1.275,-1.114 l -22.564,20.653 -0.264,0.737 c -0.058,0.474 -0.248,0.947 -0.51,1.418 z M 40.38,172.03 c 0.196,-0.873 0.323,-1.772 0.376,-2.69 l -18.46,16.896 c 1.005,-0.05 1.99,-0.17 2.946,-0.35 l 15.14,-13.856 z m -4.143,7.866 c 1.475,-1.608 2.64,-3.463 3.422,-5.496 l -11.83,10.828 c 2.228,-0.722 4.263,-1.794 6.028,-3.153 l 2.38,-2.18 z"
       id="path228"
       inkscape:connector-curvature="0" />
  </g>
  <path
     d="m 48.700225,60.029479 c 0.06975,0.0304 0.131188,0.0709 0.197059,0.10406 1.704896,-1.79457 2.566753,-4.11278 2.566753,-6.96737 0,-2.55901 -0.737312,-4.73552 -2.22522,-6.5561 -1.484588,-1.81948 -3.439128,-2.72507 -5.873033,-2.72507 -1.417055,0 -2.680781,0.32438 -3.762394,0.97202 -1.096004,0.64874 -2.022072,1.55267 -2.780972,2.72561 -0.212005,-1.45026 -0.870161,-2.70403 -1.976128,-3.74191 -1.107075,-1.03678 -2.434458,-1.56098 -4.008719,-1.56098 -1.296384,0 -2.37855,0.35648 -3.284691,1.06003 -0.891195,0.71406 -1.696039,1.69604 -2.420619,2.95866 -0.190417,-0.97146 -0.538592,-1.78793 -1.027919,-2.43335 -0.492649,-0.64764 -1.151358,-0.97423 -1.977236,-0.97423 -1.742536,0 -2.970835,1.08493 -3.66165,3.25203 -0.7041,2.15437 -1.050614,4.67739 -1.050614,7.54915 0,3.50112 0.647639,6.54834 1.941809,9.16436 1.307456,2.60274 3.341152,3.90798 6.098322,3.90798 2.233524,0 4.086767,-0.78271 5.561391,-2.32209 1.474624,-1.55378 2.209721,-3.61848 2.209721,-6.20959 v -10.08047 c 0,-0.56903 0.136171,-1.0722 0.379727,-1.51835 0.225843,-0.4694 0.56018,-0.7041 0.994707,-0.7041 0.614427,0 1.058917,0.29171 1.341221,0.89341 0.276769,0.60225 0.377513,1.23826 0.324927,1.89863 -0.572358,1.46411 -0.860751,2.94814 -0.860751,4.46539 0,2.46601 0.736205,4.62093 2.208614,6.46532 1.46466,1.8311 3.395399,2.74554 5.796645,2.74554 0.982529,0 1.920774,-0.1572 2.814184,-0.4694 0.898945,-0.32326 1.641792,-0.76609 2.242934,-1.32849 -0.0775,-0.0404 -0.151116,-0.0841 -0.231379,-0.12288 l 0.463311,-0.44837 z m -23.994742,-0.9377 c 0,1.50839 -0.143919,2.68023 -0.433973,3.49504 -0.281197,0.82698 -0.860751,1.23882 -1.743643,1.23882 -1.451929,0 -2.511399,-0.91334 -3.171769,-2.74721 -0.669781,-1.82999 -1.00301,-4.25338 -1.00301,-7.24359 0,-2.40069 0.323266,-4.5224 0.970904,-6.37675 0.647639,-1.84218 1.60858,-2.7688 2.870646,-2.7688 0.758346,0 1.33956,0.20094 1.729804,0.59063 0.391905,0.40408 0.66037,1.03899 0.782702,1.92243 v 11.88999 z m 18.705138,-3.69541 -3.46293,-0.14503 c -1.126449,0 -2.042553,-0.16883 -2.745546,-0.50095 -0.691922,-0.32271 -1.039543,-0.84691 -1.039543,-1.58422 0,-0.7268 0.357585,-1.26373 1.061684,-1.60748 0.715724,-0.34762 1.619651,-0.51479 2.723405,-0.51479 l 3.46293,-0.14392 3.46293,0.14392 c 1.138627,0 2.053624,0.1561 2.767688,0.49099 0.704653,0.33489 1.060577,0.86131 1.060577,1.58755 0,0.79155 -0.345407,1.33956 -1.036775,1.66172 -0.693029,0.31164 -1.631275,0.46829 -2.79149,0.46829 l -3.46293,0.14392 z"
     id="path230"
     inkscape:connector-curvature="0"
     style="fill:#ffffff" />
  <path
     d="m 67.635634,58.844349 -5.255285,-10.73032 h -0.03155 v 15.5699"
     id="path232"
     inkscape:connector-curvature="0"
     style="fill:none" />
  <path
     d="m 70.582667,56.145299 -2.947033,2.69905 3.837675,7.83477 h 5.920083 v -16.76554 l -4.014253,3.67327 v 8.17852 h -0.03155 m -8.359523,4.91375 v -2.89057 H 62.3488 v -0.10517 l -3.273621,2.99574"
     id="path234"
     inkscape:connector-curvature="0"
     style="fill:#ffffff" />
  <g
     id="g236"
     transform="scale(0.55353745,0.55353745)"
     style="fill:#ffffff">
    <path
       d="m 121.465,89.133 -0.758,-1.54 -5.304,4.857 0.754,1.542 m 0.578,1.181 0.777,1.587 5.312,-4.862 -0.78,-1.585 m -2.582,10.427 0.798,1.632 5.322,-4.87 -0.802,-1.63 m -6.69,2.068 0.794,1.62 5.317,-4.866 -0.795,-1.618 m 21.118,-8.94 v -2.264 l -2.473,2.264 m -0.609,-5.222 h -2.565 l -6.314,5.778 v 2.348 m 4.447,-8.126 h -2.51 l -5.707,5.222 h 2.512 m -25.918,5.661 v 2.363 l 12.115,-11.088 -0.803,-1.63 m -13.937,4.694 h 2.514 l 5.705,-5.222 h -2.515 m -8.096,0 v 1.76 l 1.927,-1.76 m 4.305,0 h -2.44 l -3.79,3.47 v 1.752 h 0.525 m 4.49,1.606 v 2.346 l 10.023,-9.174 h -2.562 m 19.782,0 h -2.438 l -2.7,2.47 v 2.232 m 15.818,-4.702 -10.747,9.834 v 2.363 l 7.252,-6.634 v -0.34 h 0.37 l 4.34,-3.972 v -1.25 M 100.5,120.46 112.637,109.353 v -2.366 l -7.25,6.635 v 1.616 h -1.766 l -3.25,2.975 v 2.247 m 21.239,-15.334 5.324,-4.873 -0.774,-1.572 -5.322,4.872 m -18.473,16.907 h 2.49 l 7.782,-7.12 v -2.28 m -12.267,5.444 1.384,-1.266 h -1.383 m 32.192,-20.138 7.252,-6.636 v -2.28 l -7.252,6.636 m -5.071,-13.906 v 0.762 l 0.834,-0.762 m -22.939,30.653 v 2.347 l 7.25,-6.635 v -2.347 m 0,12.306 v -0.19 l -5.916,5.412 h 10.685 v -5.222 m 22.409,5.222 V 90.172 l -7.252,6.636 v 14.775 h -0.057 l -4.994,-10.152 -5.324,4.875 6.933,14.155 M 105.387,105.56 v 2.298 l 7.25,-6.634 v -2.3 m -7.25,-5.054 v 2.28 l 7.25,-6.635 v -2.28 m 6.796,-2.235 -5.302,4.855 0.694,1.417 5.305,-4.856 m -1.276,-2.594 -0.774,-1.572 -5.3,4.85 0.773,1.576 m -8.166,11.234 7.25,-6.636 v -2.052 l -7.25,6.636 m 0,3.759 v 2.234 l 7.25,-6.635 v -2.232"
       id="path238"
       inkscape:connector-curvature="0" />
  </g>
</svg>
