<!-- Generator: Adobe Illustrator 16.0.0, SVG Export Plug-In . SVG Version: 6.00 Build 0)  -->
<svg xmlns:rdf="http://www.w3.org/1999/02/22-rdf-syntax-ns#" xmlns="http://www.w3.org/2000/svg" enable-background="new 0 0 841.89 1190.55" xml:space="preserve" viewBox="0 0 144.524 186.50866" version="1.1" y="0px" x="0px" xmlns:cc="http://creativecommons.org/ns#" xmlns:dc="http://purl.org/dc/elements/1.1/"><metadata><rdf:RDF><cc:Work rdf:about=""><dc:format>image/svg+xml</dc:format><dc:type rdf:resource="http://purl.org/dc/dcmitype/StillImage"/><dc:title/></cc:Work></rdf:RDF></metadata><g fill="#808285" transform="translate(-348.462,-502.21301)"><path d="m425.33,669.55,2.729-2.379c-1.014,0.602-2.088,1.162-3.271,1.643l-0.037,0.029,0.579,0.707z"/><polygon points="354.96,503.3,354.96,502.21,350.56,502.21,350.56,503.3,352.11,503.3,352.11,511.55,353.4,511.55,353.4,503.3"/><polygon points="362.79,511.55,362.79,502.21,361.5,502.21,361.5,506.22,359.78,506.22,359.78,502.21,358.48,502.21,358.48,511.55,359.78,511.55,359.78,507.31,361.5,507.31,361.5,511.55"/><polygon points="370.11,507.31,370.11,506.22,368.01,506.22,368.01,503.3,370.24,503.3,370.24,502.21,366.72,502.21,366.72,511.55,370.24,511.55,370.24,510.47,368.01,510.47,368.01,507.31"/><path d="m358.23,598.05c1.392-3.848-1.495-6.2-3.953-4.597-0.212,0.214-0.853-0.32-0.534-0.639,2.029-2.245,8.764-3.849,13.035,0.318,3.102,3.1,3.102,8.336,0.857,14.855-1.285,3.631-3.098,8.549-4.273,12.184-0.75,2.563,0.963,4.382,3.525,3.203,2.885-1.814,5.559-5.13,7.159-8.546l1.177,0.53c-2.672,5.559-7.801,10.795-13.146,10.902-1.92,0-4.166-0.531-5.982-1.604-2.994-1.814-5.342-6.413-3.314-12.182,1.924-5.341,4.059-10.899,5.449-14.424zm13.919-14.921c0-3.158-2.598-5.754-5.87-5.754-3.157,0-5.753,2.596-5.753,5.754,0,3.275,2.596,5.867,5.753,5.867,3.272,0.001,5.87-2.591,5.87-5.867z"/><path d="m486.41,677.48c-2.395,0-4.367,1.969-4.367,4.364,0,2.485,1.973,4.454,4.367,4.454,2.482,0,4.453-1.969,4.453-4.454,0-2.395-1.97-4.364-4.453-4.364z"/><path d="m483.29,630.71c-2.705,9.066-13.592,32.535-15.871,35.069-1.096,1.219-2.451,3.445-4.18,3.779-1.716,0.327-1.879-2.035-1.749-3.246,0.905-8.582,7.315-15.35,8.415-23.897,0.357-2.764,0.109-5.511-0.861-8.14-0.957-2.598-3.951-4.687-6.793-4.534-4.456,0.241-7.51,3.216-9.598,6.835-2.42,4.186-4.332,10.631-4.873,12.795-0.148,0.604-0.5,1.755,0.502,1.934,0.576,0.104,1.234-0.713,1.521-1.104,1.084-1.479,1.445-5.22,3.576-9.041,1.568-2.822,2.594-4.565,4.316-6.299,2.793-2.805,5.823-2.893,5.371,0.256-1.125,7.875-6.422,14.328-8.376,21.955-0.556,2.168-0.829,4.406-0.716,6.643,0.168,3.25,1.363,7.404,4.764,8.645,1.285,0.465,2.383,0.691,3.359,0.691,2.84,0,5.484-1.455,7.864-4.326,1.005-1.215,1.925-2.735,3.062-3.77,0.088,18.528-12.871,19.359-16.244,19.219,1.099-1.1,4.672-9.055-3.406-10.395-2.885-0.477-5.758,2.62-6.299,5.554-0.467,2.523,0.535,5.019,2.359,6.912,1.977,2.05,5.871,2.622,8.795,2.447,5.691-0.335,15.168-0.952,20.02-10.982,0.324-0.665,1.873-5.386,1.873-5.386l12.711-42.529h-9.27l-0.272,0.915z"/><polygon points="357.02,516.97,351.36,516.97,351.36,521.69,351.49,521.69,357.02,517.05"/><polygon points="362.68,517.05,362.68,516.97,357.12,516.97,357.02,517.05,357.02,521.69,357.12,521.69,357.15,521.69"/><polygon points="368.34,517.05,368.34,516.97,362.78,516.97,362.68,517.05,362.68,521.69,362.78,521.69,362.8,521.69"/><polygon points="373.99,517.05,373.99,516.97,368.43,516.97,368.34,517.05,368.34,521.69,368.43,521.69,368.46,521.69"/><polygon points="379.65,517.05,379.65,516.97,374.09,516.97,373.99,517.05,373.99,521.69,374.09,521.69,374.12,521.69"/><polygon points="385.41,516.97,379.75,516.97,379.65,517.05,379.65,521.69,379.75,521.69,379.78,521.69"/><polygon points="351.36,521.8,351.36,526.42,351.49,526.42,357.02,521.77,357.02,521.69,351.49,521.69"/><polygon points="362.68,521.77,362.68,521.69,357.15,521.69,357.02,521.8,357.02,526.42,357.12,526.42,357.14,526.42"/><polygon points="368.34,521.77,368.34,521.69,362.8,521.69,362.68,521.8,362.68,526.42,362.78,526.42,362.8,526.42"/><polygon points="373.99,521.77,373.99,521.69,368.46,521.69,368.34,521.8,368.34,526.42,368.43,526.42,368.46,526.42"/><polygon points="379.65,521.77,379.65,521.69,374.12,521.69,373.99,521.8,373.99,526.42,374.09,526.42,374.12,526.42"/><polygon points="385.31,521.77,385.31,521.69,379.78,521.69,379.65,521.8,379.65,526.42,379.75,526.42,379.78,526.42"/><polygon points="391.07,521.69,385.41,521.69,385.31,521.77,385.31,526.42,385.41,526.42,385.44,526.42"/><polygon points="351.36,526.52,351.36,531.15,351.49,531.15,357.02,526.5,357.02,526.42,351.49,526.42"/><polygon points="357.14,526.42,357.02,526.52,357.02,531.15,357.12,531.15,357.15,531.15,362.68,526.5,362.68,526.42"/><polygon points="368.34,526.5,368.34,526.42,362.8,526.42,362.68,526.52,362.68,531.15,362.78,531.15,362.8,531.15"/><polygon points="368.34,531.25,373.99,526.5,373.99,526.42,368.46,526.42,368.34,526.52,368.34,531.15,368.43,531.15,368.34,531.23"/><polygon points="379.65,526.42,374.12,526.42,373.99,526.52,373.99,531.25,379.65,526.5"/><polygon points="385.31,526.42,379.78,526.42,379.65,526.52,379.65,531.15,379.78,531.15,385.31,526.5"/><polygon points="390.97,526.5,390.97,526.42,385.44,526.42,385.31,526.52,385.31,531.15,385.41,531.15,385.44,531.15"/><polygon points="396.72,526.42,391.07,526.42,390.97,526.5,390.97,531.15,391.07,531.15,391.1,531.15"/><polygon points="351.36,531.25,351.36,535.87,351.49,535.87,357.02,531.23,357.02,531.15,351.49,531.15"/><polygon points="357.15,531.15,357.02,531.25,357.02,535.87,357.12,535.87,357.15,535.87,362.68,531.23,362.68,531.15"/><polygon points="362.8,531.15,362.68,531.25,362.68,535.87,362.78,535.87,362.8,535.87,368.34,531.23,368.34,531.15"/><polygon points="385.31,531.22,385.31,531.15,379.78,531.15,379.65,531.25,379.65,535.87,379.78,535.87"/><polygon points="390.97,531.23,390.97,531.15,385.44,531.15,385.31,531.25,385.31,535.87,385.41,535.87,385.44,535.87"/><polygon points="396.72,531.15,391.1,531.15,390.97,531.25,390.97,535.87,391.07,535.87,391.1,535.87"/><polygon points="351.36,535.98,351.36,540.6,351.49,540.6,357.02,535.96,357.02,535.87,351.49,535.87"/><polygon points="357.15,535.87,357.02,535.98,357.02,540.6,357.12,540.6,357.14,540.6,362.68,535.96,362.68,535.87"/><polygon points="362.68,535.98,362.68,540.6,362.78,540.6,362.8,540.6,368.43,535.87,362.8,535.87"/><polygon points="385.31,535.87,379.78,535.87,379.65,535.98,379.65,540.6,379.78,540.6,385.31,535.95"/><polygon points="385.44,540.6,390.97,535.96,390.97,535.87,385.44,535.87,385.31,535.98,385.31,540.6,385.41,540.6"/><polygon points="396.72,535.87,391.1,535.87,390.97,535.98,390.97,540.6,391.07,540.6,391.09,540.6"/><polygon points="351.36,540.71,351.36,545.33,351.49,545.33,357.02,540.68,357.02,540.6,351.49,540.6"/><polygon points="357.14,540.6,357.02,540.71,357.02,545.33,357.12,545.33,357.15,545.33,362.68,540.68,362.68,540.6"/><polygon points="362.68,540.71,362.68,545.33,362.78,545.33,362.8,545.33,368.43,540.6,362.8,540.6"/><polygon points="385.31,540.68,385.31,540.6,379.78,540.6,379.65,540.71,379.65,545.33,379.78,545.33"/><polygon points="385.44,545.33,390.97,540.68,390.97,540.6,385.44,540.6,385.31,540.71,385.31,545.33,385.41,545.33"/><polygon points="396.72,540.6,391.09,540.6,390.97,540.71,390.97,545.33,391.07,545.33,391.1,545.33"/><polygon points="351.36,545.44,351.36,550.06,351.49,550.06,357.02,545.41,357.02,545.33,351.49,545.33"/><polygon points="357.15,545.33,357.02,545.44,357.02,550.06,357.12,550.06,357.15,550.06,362.68,545.41,362.68,545.33"/><polygon points="362.68,545.44,362.68,550.06,362.78,550.06,362.8,550.06,368.43,545.33,362.8,545.33"/><polygon points="385.31,545.41,385.31,545.33,379.78,545.33,379.65,545.44,379.65,550.06,379.78,550.06"/><polygon points="385.44,550.06,390.97,545.41,390.97,545.33,385.44,545.33,385.31,545.44,385.31,550.06,385.41,550.06"/><polygon points="396.72,545.33,391.1,545.33,390.97,545.44,390.97,550.06,391.07,550.06,391.1,550.06"/><polygon points="351.36,550.16,351.36,554.79,351.49,554.79,357.02,550.14,357.02,550.06,351.49,550.06"/><polygon points="357.15,550.06,357.02,550.16,357.02,554.79,357.12,554.79,357.14,554.79,362.68,550.14,362.68,550.06"/><polygon points="362.68,550.16,362.68,554.79,362.78,554.79,362.8,554.79,368.43,550.06,362.8,550.06"/><polygon points="385.31,550.14,385.31,550.06,379.78,550.06,379.65,550.16,379.65,554.79,379.78,554.79"/><polygon points="385.44,554.79,390.97,550.14,390.97,550.06,385.44,550.06,385.31,550.16,385.31,554.79,385.41,554.79"/><polygon points="396.72,550.06,391.1,550.06,390.97,550.16,390.97,554.79,391.07,554.79,391.09,554.79"/><polygon points="351.36,554.89,351.36,559.51,351.49,559.51,357.02,554.87,357.02,554.79,351.49,554.79"/><polygon points="357.14,554.79,357.02,554.89,357.02,559.51,357.12,559.51,357.15,559.51,362.68,554.87,362.68,554.79"/><polygon points="362.68,554.89,362.68,559.51,362.78,559.51,362.8,559.51,368.43,554.79,362.8,554.79"/><polygon points="379.78,559.51,385.31,554.86,385.31,554.79,379.78,554.79,379.65,554.89,379.65,559.51,379.75,559.51"/><polygon points="385.44,559.51,390.97,554.87,390.97,554.79,385.44,554.79,385.31,554.89,385.31,559.51,385.41,559.51"/><polygon points="396.72,554.79,391.09,554.79,390.97,554.89,390.97,559.51,391.07,559.51,391.1,559.51"/><polygon points="351.36,559.62,351.36,564.24,351.49,564.24,357.02,559.59,357.02,559.51,351.49,559.51"/><polygon points="357.15,559.51,357.02,559.62,357.02,564.24,357.12,564.24,357.15,564.24,362.68,559.59,362.68,559.51"/><polygon points="362.68,564.24,362.78,564.24,362.8,564.24,368.34,559.59,368.34,559.51,362.8,559.51,362.68,559.62"/><polygon points="368.34,564.24,368.43,564.24,368.46,564.24,373.99,559.59,373.99,559.51,368.43,559.51,368.34,559.59"/><polygon points="373.99,564.24,374.09,564.24,374.12,564.24,379.65,559.59,379.65,559.51,374.09,559.51,373.99,559.59"/><polygon points="379.78,564.24,385.31,559.59,385.31,559.51,379.78,559.51,379.65,559.62,379.65,564.24,379.75,564.24"/><polygon points="385.44,564.24,390.97,559.59,390.97,559.51,385.44,559.51,385.31,559.62,385.31,564.24,385.41,564.24"/><polygon points="390.97,564.34,396.72,559.51,391.1,559.51,390.97,559.62,390.97,564.24,391.07,564.24,390.97,564.32"/><polygon points="351.36,564.34,351.36,568.97,351.49,568.97,357.02,564.32,357.02,564.24,351.49,564.24"/><polygon points="357.02,568.97,357.12,568.97,357.15,568.97,362.68,564.32,362.68,564.24,357.15,564.24,357.02,564.34"/><polygon points="362.68,568.97,362.78,568.97,362.8,568.97,368.34,564.32,368.34,564.24,362.8,564.24,362.68,564.34"/><polygon points="368.34,568.97,368.43,568.97,368.46,568.97,373.99,564.32,373.99,564.24,368.46,564.24,368.34,564.34"/><polygon points="373.99,568.97,374.09,568.97,374.12,568.97,379.65,564.32,379.65,564.24,374.12,564.24,373.99,564.34"/><polygon points="379.65,568.97,379.75,568.97,379.78,568.97,385.31,564.32,385.31,564.24,379.78,564.24,379.65,564.34"/><polygon points="385.41,568.97,385.31,569.05,385.31,569.07,390.97,564.32,390.97,564.24,385.44,564.24,385.31,564.34,385.31,568.97"/><polygon points="357.02,569.05,357.02,568.97,351.49,568.97,351.36,569.07,351.36,573.8"/><polygon points="362.68,569.05,362.68,568.97,357.15,568.97,357.02,569.07,357.02,573.8"/><polygon points="368.34,569.05,368.34,568.97,362.8,568.97,362.68,569.07,362.68,573.8"/><polygon points="373.99,569.05,373.99,568.97,368.46,568.97,368.34,569.07,368.34,573.8"/><polygon points="379.65,569.05,379.65,568.97,374.12,568.97,373.99,569.07,373.99,573.8"/><polygon points="385.31,569.05,385.31,568.97,379.78,568.97,379.65,569.07,379.65,573.8"/><path d="m424.75,668.84,0.037-0.029c-0.016,0.006-0.027,0.014-0.043,0.021l0.006,0.008z"/><path d="m476.15,540.27c0.104-0.061,0.199-0.128,0.297-0.192,2.694-1.316,3.152-3.615,3.152-4.621,0-3.014-2.979-5.117-5.65-5.117-2.307,0-4.051,1.362-4.051,3.167,0,0.652,0.155,1.182,0.482,1.668l0.344,0.516,0.205-0.062,0.275-0.082,0.111-0.033c0.287-0.083,1.162-0.34,1.875-0.34,0.406,0,0.846,0.152,0.846,0.584,0,0.431-0.199,0.788-0.548,1.066-0.327,0.26-0.788,0.452-1.368,0.552-0.234,0.067-0.503,0.108-0.801,0.108-0.238,0-0.477-0.021-0.713-0.04-0.08-0.004-0.164-0.006-0.246-0.013-0.094-0.01-0.189-0.025-0.285-0.038-0.209-0.025-0.418-0.059-0.625-0.1-0.125-0.024-0.246-0.05-0.369-0.078-0.078-0.019-0.154-0.04-0.234-0.062-0.146-0.038-0.291-0.072-0.438-0.117,0.154,0.063,0.316,0.131,0.475,0.197-4.575-1.269-8.152-5.343-8.152-7.983,0-5.484,3.807-8.149,11.639-8.149,7.934,0,11.551,2.812,11.551,5.429,0,0.89-1.006,1.97-2.349,2.087l-0.989,0.084,0.209,0.97c0.504,2.336,1.834,3.332,4.439,3.332,2.889,0,4.984-2.33,4.984-5.538,0-2.32-1.605-4.868-4.066-6.649,1.945-0.777,2.928-1.965,2.928-3.543,0-1.604-1.465-2.817-3.409-2.817h-0.731l-0.127,0.719c-0.17,0.953-0.689,1.925-3.252,1.925-0.861,0-2.069-0.077-3.543-0.232-1.449-0.074-3.166-0.155-5.209-0.155-13.209,0-20.119,7.717-20.119,15.34,0,7.645,3.787,12.387,13.805,16.953-0.004,0.001-0.008,0.005-0.012,0.007-0.203-0.084-0.372-0.154-0.501-0.208-0.183-0.075-0.179-0.119-0.179-0.119-2.982,1.283-3.566,3.735-3.566,4.78,0,2.167,1.545,3.848,3.405,4.63,0.726,0.305,1.495,0.486,2.247,0.486,2.306,0,4.047-1.362,4.047-3.167,0-0.652-0.152-1.183-0.479-1.669l-0.006-0.008c-0.379,0.111-1.137,0.314-1.791,0.314-0.314,0-0.645-0.089-0.795-0.319-0.073,0.005-0.148,0.017-0.219,0.017-0.41,0-0.846-0.152-0.846-0.584,0-0.833,0.717-1.409,1.914-1.618,0.236-0.067,0.502-0.109,0.801-0.109,0.238,0,0.475,0.021,0.712,0.04,0.083,0.004,0.165,0.006,0.247,0.013,0.096,0.01,0.191,0.024,0.285,0.038,0.209,0.027,0.418,0.059,0.627,0.101,0.123,0.024,0.244,0.049,0.367,0.077,0.053,0.013,0.105,0.028,0.158,0.042,0.102,0.014,0.205,0.036,0.307,0.052,4.59,0.749,9.043,5.009,9.043,8.101,0,6.41-3.838,9.394-12.076,9.394-9.133,0-13.385-4.77-13.385-7.993,0-0.673,0.818-1.306,1.312-1.306,0.49,0,0.82,0.072,1.135,0.145,0.129,0.03,0.251,0.054,0.373,0.076l1.088,0.193-0.061-1.1c-0.115-2.018-1.436-4.171-4.811-4.171-2.572,0-5.336,1.734-5.336,5.54,0,0.887,0.289,3.766,3.652,6.789-2.041,0.694-3.215,2.012-3.215,3.714,0,2.115,1.547,3.596,3.76,3.596h0.873v-0.9c0-1.557,0.596-2.081,2.365-2.081,0.635,0,1.504,0.204,2.604,0.458,2.121,0.498,5.326,1.251,10.08,1.251,16.498,0,20.213-12.398,20.213-16.741,0.002-6.975-4.807-12.393-14.68-16.519zm-3.783,6.507c-9.984-3.093-15.48-8.183-15.48-14.335,0-0.195,0.004-0.393,0.02-0.594,1.791,6.081,8.596,8.776,15.209,11.389,0.562,0.224,1.123,0.445,1.682,0.671,8.402,3.375,12.662,7.813,12.662,13.193,0,0.292-0.027,0.634-0.076,0.997-1.24-5.024-5.939-8.827-14.017-11.321z"/><path d="m413.79,545.91h19.834l10.443-7.83v-12.064c0-5.199-5.195-9.427-11.58-9.427h-18.303c-0.135,0-0.263,0.013-0.395,0.016-6.201,0.171-11.187,4.32-11.187,9.411v38.734c0,5.088,4.985,9.239,11.187,9.411,0.132,0.002,0.26,0.016,0.395,0.016h18.303c6.385,0,11.58-4.23,11.58-9.427v-17.35l-11.119,8.449v7.914h-19.222v-17.852h0.064zm-0.06-18.91h19.222v10.511h-19.222v-10.51z"/><polygon points="401.51,688.11,402.68,688.11,409.1,682.5,409.1,681.48"/><polygon points="406.62,688.11,407.78,688.11,409.1,686.96,409.1,685.94"/><polygon points="404.06,688.11,405.23,688.11,409.1,684.73,409.1,683.71"/><path d="m429.4,672.69c0.906-0.371,1.764-0.783,2.572-1.226l6.244-5.451c0.09-0.125,0.188-0.243,0.271-0.369,0.395-0.581,0.736-1.188,1.059-1.808l-10.146,8.854z"/><polygon points="439.35,685.1,438.86,684.5,434.73,688.11,435.89,688.11"/><polygon points="440.99,687.1,439.84,688.11,441,688.11,441.48,687.7"/><polygon points="440.41,686.4,439.93,685.8,437.28,688.11,438.45,688.11"/><path d="m433.99,661.72c0.412-0.611,0.773-1.248,1.105-1.902l6.521-5.692c-0.008-0.329-0.02-0.656-0.043-0.979l-5.729,4.996c0.213-0.551,0.396-1.116,0.556-1.696l5.071-4.425c-0.035-0.309-0.076-0.611-0.121-0.913l-4.641,4.048c0.096-0.464,0.172-0.934,0.234-1.416l4.213-3.674c-0.059-0.287-0.123-0.568-0.195-0.848l-3.906,3.409c0.033-0.415,0.051-0.839,0.061-1.267l3.566-3.111c-0.084-0.264-0.178-0.523-0.271-0.781l-3.299,2.877c-0.006-0.394-0.027-0.777-0.055-1.162l2.996-2.613c-0.051-0.123-0.1-0.25-0.152-0.369-0.057-0.121-0.121-0.24-0.178-0.362l-2.736,2.39c-0.039-0.365-0.105-0.719-0.162-1.075l2.467-2.151c-0.123-0.229-0.252-0.457-0.387-0.68l-2.217,1.938c-0.067-0.318-0.162-0.62-0.245-0.93l1.786-1.559c-0.145-0.212-0.297-0.418-0.451-0.623l-1.552,1.355c-0.006-0.021-0.01-0.041-0.017-0.061-0.096-0.313-0.215-0.616-0.328-0.924l1.5-1.309c-0.164-0.195-0.33-0.387-0.504-0.576l-1.289,1.127c-0.07-0.162-0.117-0.33-0.188-0.486-0.062-0.133-0.142-0.254-0.204-0.387l1.049-0.915c-0.184-0.181-0.367-0.358-0.56-0.532l-0.858,0.749c-0.146-0.275-0.281-0.558-0.443-0.823l0.604-0.527c-0.064-0.052-0.127-0.107-0.189-0.16-0.139-0.11-0.285-0.214-0.424-0.32l-0.428,0.373c-0.173-0.255-0.338-0.513-0.524-0.758l0.192-0.166c-0.219-0.146-0.436-0.297-0.661-0.439l-0.011,0.01c-0.781-0.944-1.65-1.826-2.645-2.627-2.248-1.8-5.016-3.193-8.293-4.174-3.281-0.979-7.049-1.47-11.303-1.47h-15.86v54.077h6.047l-1.547,1.351v1.019l2.713-2.369h1.387l-4.1,3.58v0.346h0.768l8.982-7.838v-1.019l-4.496,3.926v-1.21l4.496-3.926v-1.02l-4.496,3.926v-1.213l4.496-3.927v-0.583h0.672l4.707-4.107c0.23-0.025,0.471-0.033,0.695-0.059l0.314,0.389-4.326,3.777h1.164l3.643-3.18,0.576,0.713-2.828,2.467h1.166l2.143-1.869,0.574,0.712-1.293,1.128c0.398-0.01,0.812-0.01,1.203-0.029l0.572-0.5,7.664,9.516h1.334l0.225,0.275,0.312-0.275h1.389l-1.131,0.986,0.484,0.6,1.816-1.586h1.385l-2.631,2.295,0.482,0.598,3.312-2.893h1.391l-4.131,3.604,0.258,0.322h0.539l4.502-3.926h1.391l-4.498,3.926h1.164l4.943-4.312-0.484-0.594-0.748,0.653-0.582-0.708,0.748-0.652-0.486-0.594-0.746,0.65-0.579-0.707,0.745-0.651-0.484-0.594-0.746,0.652-0.58-0.706,0.746-0.652-0.486-0.592-0.746,0.652-0.577-0.707,0.745-0.652-0.486-0.594-0.746,0.65-0.58-0.707,0.748-0.652-0.488-0.592-0.746,0.652-0.578-0.707,0.746-0.651-0.486-0.595-0.748,0.653-0.578-0.708,0.745-0.652-0.485-0.594-0.746,0.652-0.58-0.705,0.748-0.652-0.488-0.594-0.744,0.652-0.582-0.707,12.486-10.896c0.17-0.462,0.32-0.934,0.453-1.413l-13.424,11.714-0.578-0.704,14.359-12.53c0.072-0.393,0.145-0.787,0.197-1.191l-15.043,13.129-0.581-0.707,15.755-13.752c0.025-0.344,0.035-0.699,0.045-1.055l-8.354,7.29c0.239-0.311,0.512-0.592,0.731-0.914zm-29.39,17v-1.21l7.141-6.234c0.486-0.013,0.977-0.021,1.443-0.05l-8.584,7.494zm2-7.418h1.387l-3.387,2.959v-1.213l2-1.746zm-2,0.728v-0.73h0.834l-0.834,0.729zm4.552-0.728h1.395l-5.947,5.189v-1.215l4.552-3.974zm16.174-1.75-0.58-0.707-0.006-0.009c0.016-0.007,0.027-0.015,0.043-0.021,1.184-0.48,2.258-1.041,3.271-1.643l-2.728,2.38zm-5.405-2.17,10.046,13.438-1.531,1.148-10.476-14.01c-2.489,0.633-4.312,0.74-4.372,0.74l-13.205,0.002v12.693h-1.914v-48.32h15.872c0.183,0,18.128,0.206,18.128,17.918,0,10.222-7.063,14.561-12.548,16.391z"/><path d="m414.34,634.99h-13.958v31.797h13.16c0.654-0.031,17.012-1.002,17.012-15.793,0-15.82-15.551-16.004-16.214-16.004zm-9.741,2.674h1.055l-1.055,0.92v-0.92zm0,1.94,2.221-1.939h1.389l-3.609,3.15v-1.21zm0,2.23,4.777-4.17h0.965c0.141,0,0.271,0.008,0.41,0.011l-6.152,5.37v-1.211zm0,2.229,7.285-6.357c0.447,0.015,0.881,0.04,1.309,0.07l-8.594,7.499v-1.212zm18.591,16.425c-2.613,2.334-6.896,3.5-12.85,3.5h-3.025l1.779-1.555v-1.016l-2.947,2.57h-1.385l4.332-3.783v-1.018l-4.496,3.926v-1.211l4.496-3.926v-1.021l-4.496,3.929v-1.213l4.496-3.926v-1.018l-4.496,3.927v-1.214l4.496-3.926v-1.018l-4.496,3.926v-1.213l4.496-3.925v-1.019l-4.496,3.928v-1.214l4.496-3.926v-1.017l-4.496,3.926v-1.213l4.496-3.925v-1.017l-4.496,3.924v-1.211l4.496-3.929v-1.016l-4.496,3.925v-1.213l4.496-3.926v-0.775h0.893l4.271-3.729c0.418,0.045,0.811,0.104,1.203,0.162l-4.086,3.566h1.165l3.91-3.412c0.386,0.073,0.745,0.159,1.106,0.248l-3.627,3.164h0.906c0.088,0,0.168,0.007,0.252,0.007l3.357-2.931c0.348,0.103,0.695,0.205,1.02,0.324l-3.025,2.639c0.375,0.015,0.74,0.035,1.1,0.059l2.711-2.366c0.311,0.135,0.615,0.272,0.902,0.427l-2.344,2.043c0.35,0.038,0.679,0.091,1.012,0.139l2.033-1.776c0.273,0.169,0.525,0.351,0.771,0.538l-1.6,1.45c0.322,0.061,0.623,0.137,0.929,0.207l1.315-1.148c0.23,0.204,0.441,0.423,0.652,0.643l-0.902,0.791c0.291,0.088,0.58,0.172,0.855,0.271l0.553-0.485c0.193,0.234,0.389,0.472,0.562,0.722l-0.174,0.148c0.125,0.056,0.246,0.114,0.372,0.172,1.29,2.001,1.95,4.445,1.95,7.35,0.001,4.136-1.309,7.371-3.917,9.702z"/><path d="m436.8,610.85c3.08-3.243,4.637-7.43,4.637-12.587,0-4.623-1.332-8.555-4.02-11.844-2.682-3.287-6.213-4.923-10.609-4.923-2.562,0-4.844,0.585-6.798,1.754-1.979,1.172-3.653,2.805-5.024,4.924-0.383-2.621-1.572-4.885-3.57-6.758-2-1.875-4.398-2.822-7.242-2.822-2.342,0-4.297,0.644-5.934,1.916-1.611,1.291-3.064,3.065-4.373,5.345-0.344-1.755-0.973-3.229-1.857-4.396-0.889-1.171-2.08-1.759-3.572-1.759-3.148,0-5.367,1.958-6.615,5.874-1.271,3.893-1.897,8.451-1.897,13.639,0,6.325,1.171,11.831,3.508,16.556,2.362,4.702,6.036,7.06,11.017,7.06,4.035,0,7.383-1.414,10.047-4.195,2.664-2.806,3.992-6.536,3.992-11.217v-18.213c0-1.027,0.246-1.936,0.686-2.742,0.408-0.848,1.012-1.273,1.797-1.273,1.111,0,1.914,0.527,2.424,1.614,0.5,1.089,0.682,2.238,0.587,3.431-1.034,2.645-1.555,5.327-1.555,8.068,0,4.455,1.329,8.348,3.991,11.68,2.645,3.308,6.133,4.96,10.471,4.96,1.775,0,3.469-0.284,5.084-0.848,1.623-0.583,2.965-1.383,4.051-2.399,0.008-0.006,0.018-0.014,0.023-0.02,1.191,0.562,2.098,1.287,2.703,2.197,0.584,0.906,0.893,1.713,0.893,2.457,0,0.23-0.034,0.395-0.097,0.506-0.052,0.25-0.146,0.422-0.323,0.422-0.371,0-0.941-0.283-1.707-0.832-0.786-0.568-1.602-0.854-2.48-0.854-0.381,0-0.738,0.031-1.078,0.09-0.762,0.217-1.402,0.594-1.881,1.178-0.789,0.945-1.174,2.074-1.174,3.449,0,1.471,0.469,2.662,1.375,3.571,0.906,0.906,2.057,1.352,3.43,1.352,1.754,0,3.168-0.588,4.193-1.795,1.033-1.191,1.537-2.788,1.537-4.782,0-1.897-0.49-3.451-1.275-4.803-0.889-1.528-3.391-2.957-3.365-2.981zm-43.704-1.882c0,2.725-0.261,4.842-0.784,6.314-0.508,1.494-1.555,2.238-3.149,2.238-2.624,0-4.538-1.65-5.73-4.963-1.21-3.307-1.813-7.684-1.813-13.086,0-4.337,0.584-8.169,1.754-11.519,1.17-3.329,2.906-5.003,5.186-5.003,1.371,0,2.419,0.363,3.125,1.068,0.707,0.728,1.192,1.876,1.413,3.471v21.48zm33.792-6.676-6.256-0.262c-2.035,0-3.691-0.305-4.961-0.905-1.25-0.583-1.877-1.532-1.877-2.862,0-1.313,0.646-2.283,1.918-2.904,1.293-0.628,2.926-0.93,4.92-0.93l6.256-0.261,6.256,0.261c2.057,0,3.709,0.282,5,0.887,1.273,0.604,1.916,1.555,1.916,2.867,0,1.43-0.624,2.42-1.873,3.002-1.252,0.562-2.947,0.846-5.043,0.846l-6.256,0.261z"/><polygon points="469.17,589.81,463.86,594.66,464.62,596.21,469.93,591.35"/><polygon points="465.98,598.97,471.29,594.11,470.51,592.53,465.2,597.39"/><polygon points="468.72,604.59,474.04,599.72,473.24,598.09,467.92,602.95"/><polygon points="467.35,601.77,472.66,596.91,471.87,595.29,466.55,600.15"/><polygon points="492.99,584.09,490.51,586.35,492.99,586.35"/><polygon points="487.34,581.13,481.02,586.91,481.02,589.25,489.9,581.13"/><polygon points="482.96,581.13,477.26,586.35,479.77,586.35,485.47,581.13"/><polygon points="453.85,594.37,465.96,583.29,465.16,581.66,453.85,592.01"/><polygon points="453.74,586.35,459.44,581.13,456.93,581.13,451.22,586.35"/><polygon points="448.83,582.89,450.76,581.13,448.83,581.13"/><polygon points="449.36,586.35,455.06,581.13,452.62,581.13,448.83,584.6,448.83,586.35"/><polygon points="453.85,590.3,463.87,581.13,461.31,581.13,453.85,587.96"/><polygon points="478.65,581.13,475.96,583.6,475.96,585.83,481.09,581.13"/><polygon points="488.65,586.35,492.99,582.38,492.99,581.13,491.77,581.13,481.02,590.96,481.02,593.32,488.28,586.69,488.28,586.35"/><polygon points="452.08,617.45,448.83,620.43,448.83,622.67,448.96,622.67,461.1,611.57,461.1,609.2,453.85,615.84,453.85,617.45"/><polygon points="475.4,602.47,474.62,600.9,469.3,605.77,470.07,607.34"/><polygon points="453.32,622.67,461.1,615.55,461.1,613.27,450.83,622.67"/><polygon points="450.22,617.45,448.83,617.45,448.83,618.72"/><polygon points="488.28,590.68,488.28,588.4,481.02,595.03,481.02,597.31"/><polygon points="475.96,581.89,476.79,581.13,475.96,581.13"/><polygon points="453.85,614.13,461.1,607.49,461.1,605.15,453.85,611.78"/><polygon points="465.87,617.45,461.1,617.45,461.1,617.26,455.18,622.67,465.87,622.67"/><polygon points="475.98,603.64,470.65,608.52,477.58,622.67,488.28,622.67,488.28,592.39,481.02,599.02,481.02,613.8,480.97,613.8"/><polygon points="453.85,610.07,461.1,603.44,461.1,601.14,453.85,607.77"/><polygon points="453.85,598.36,461.1,591.73,461.1,589.45,453.85,596.08"/><polygon points="462.59,592.07,463.29,593.48,468.59,588.63,467.9,587.22"/><polygon points="466.54,584.46,461.24,589.31,462.02,590.89,467.32,586.04"/><polygon points="461.1,595.49,461.1,593.44,453.85,600.07,453.85,602.12"/><polygon points="453.85,606.06,461.1,599.43,461.1,597.2,453.85,603.83"/><path d="m364.96,672.28,1.244-3.484,11.592-10.608c0.162-0.001,0.322-0.005,0.49,0,0.658,0.021,1.273,0.091,1.857,0.196l-15.183,13.896zm10.74-13.883c-6.379,1.261-8.551,7.758-8.551,7.758l-0.037,0.103,8.588-7.861zm7.658,1.114c-0.533-0.294-1.115-0.553-1.748-0.76l-17.559,16.07-1.255,3.51,20.562-18.82zm5.659,8.222-22.436,20.533c0.748,0.102,1.504,0.176,2.273,0.201h0.018l20.363-18.636c-0.029-0.709-0.104-1.408-0.218-2.098zm-2.461-5.45-26.354,24.122c0.502,0.234,1.02,0.443,1.541,0.64l25.672-23.495c-0.249-0.42-0.533-0.846-0.859-1.267zm2.119,4.052c-0.148-0.459-0.359-1.021-0.648-1.636l-24.92,22.808c0.623,0.189,1.254,0.358,1.898,0.494l23.67-21.666zm-27.998,17.928,25.053-22.93c-0.383-0.392-0.806-0.768-1.275-1.115l-22.564,20.654-1.214,3.391zm28.168-10.018c0.195-0.873,0.322-1.772,0.375-2.691l-18.459,16.896c1.004-0.049,1.988-0.168,2.945-0.35l15.139-13.855zm-4.145,7.865c1.475-1.609,2.64-3.463,3.422-5.496l-11.83,10.828c2.229-0.723,4.264-1.794,6.029-3.154l2.379-2.178zm-0.133-40.501c-0.035,0.244-0.082,0.483-0.133,0.724-0.611,2.219-2.666,6.09-6.061,4.718-4.027-1.629-1.717-7.026-1.717-7.026l2.657-7.281c-0.341-0.513-1.542-0.771-1.542-0.771s-1.97,4.713-4.625,12.424c-2.656,7.709,3.426,8.481,3.426,8.481s-6.082-0.856-8.482,5.481l-3.256,8.908-5.996,16.793s0.34,0.379,0.994,0.75c-0.279,0.331-0.566,0.661-0.848,0.989-6.271-3.394-10.521-9.645-10.521-16.661,0-8.939,6.893-16.167,16.086-17.658-3.17-2.049-4.951-5.699-4.353-9.87,0.921-6.411,7.124-11.606,13.853-11.606s11.438,5.194,10.518,11.605zm-8.08-10.151c-1.029-0.515-1.543-0.086-1.543-0.086l-18.418,50.887c0.258,0.514,1.284,0.945,1.284,0.945l18.677-51.746z"/></g></svg>
