<svg xmlns="http://www.w3.org/2000/svg" width="904.219" height="481.644">
  <g fill="#f1666d">
    <path d="M778.235 123.452c.67-.523 4.79-4.078 4.832-4.115l.17-.145.113.195c.047.094 5.018 9.287 5.914 22.057 1.053 15.033-3.45 36.61-30.918 54.084l-.162.102-.092-.16c-.05-.086-5.14-8.72-6.01-21.143-.927-13.233 2.854-32.793 26.153-50.875zm10.666 18.02c-.817-11.65-5.042-20.294-5.767-21.71-.805.7-4.066 3.51-4.676 3.98-23.17 17.985-26.938 37.42-26.014 50.56.8 11.392 5.172 19.57 5.87 20.813 27.166-17.355 31.633-38.737 30.588-53.644z"/>
    <path d="M754.502 181.116c.63 8.965 3.357 14.305 3.393 14.373l.326-.17c-.046-.083-4.294-8.407-3.345-21.75.873-12.317 6.488-31.558 28.244-53.27l-.257-.26c-21.848 21.804-27.48 41.142-28.355 53.532-.19 2.733-.17 5.257-.01 7.544z"/>
    <path d="M757.96 195.253l.196.305c.107-.074 10.885-7.258 19.305-20.086 7.774-11.848 15.075-31.072 5.704-55.365l-.344.133c9.318 24.156 2.062 43.254-5.664 55.033-8.376 12.765-19.09 19.905-19.197 19.98z"/>
    <path d="M760.02 158.81c4.092-14.42 11.77-27.464 22.844-38.77l.24-.24.07.335c0 .03.69 3.426 1.072 8.812.537 7.645.46 19.33-2.965 31.578-4.08 14.588-11.858 26.365-23.126 35.002l-.227.172-.062-.28c-.01-.025-.625-2.77-.947-7.344v-.004c-.47-6.683-.31-17.185 3.102-29.263zm23.86-29.837c-.306-4.38-.82-7.434-1-8.42-24.612 25.29-26.604 53.127-25.597 67.496.26 3.704.717 6.204.88 7.005 25.042-19.377 26.868-49.703 25.718-66.082z"/>
    <path d="M782.848 120.063l.27-.355.057.443c.21 1.595.37 3.214.484 4.82 1.462 20.837-5.546 38.905-11.68 50.394-6.645 12.445-13.733 20.064-13.806 20.14l-.262.284-.053-.38c-.163-1.22-.292-2.478-.38-3.73-2.413-34.392 25.09-71.25 25.368-71.615zm-11.19 55.13c6.11-11.45 13.093-29.446 11.636-50.196-.102-1.443-.246-2.91-.422-4.348-2.86 3.925-27.303 38.577-25.025 71.003.076 1.11.188 2.223.324 3.31 1.344-1.495 7.584-8.724 13.487-19.77z"/>
    <path d="M757.86 195.36c.062-.496 6.256-50.035 24.986-75.297l.338-.46-.01.573c-.01.463-1.258 46.596-24.994 75.322l-.396.48.074-.618zm.45-.588c21.815-26.883 24.255-68.568 24.476-74.016-17.253 23.754-23.696 68.182-24.477 74.016z"/>
    <path d="M757.865 195.335c.133-.518 13.316-51.818 24.207-73.107l.56-1.094-.218 1.213c-.11.615-11.252 62.023-24.256 73.176l-.438.375.145-.563zm.51-.496c11.674-11.097 21.785-62.51 23.443-71.29-10.115 20.595-21.968 65.597-23.443 71.29z"/>
    <path d="M758.426 194.58l.342.128c1.04-2.834 25.428-69.516 24.307-74.057l-.357.09c1.09 4.425-24.038 73.147-24.292 73.84z"/>
    <g>
      <path d="M678.62 189.12c.05-.023 4.907-2.477 5.647-2.895 24.482-14.014 43.277-10.81 54.734-5.654 12.413 5.59 19.124 14.608 19.19 14.7l.11.15-.155.107c-10.936 7.7-21.926 12.17-32.662 13.285-8.594.893-17.05-.35-25.12-3.686-13.74-5.682-21.726-15.633-21.802-15.73l-.14-.177.2-.1zm60.232-8.215c-11.38-5.12-30.05-8.3-54.408 5.64-.664.38-4.5 2.32-5.455 2.8 1.136 1.355 8.876 10.22 21.528 15.447 12.568 5.195 32.7 7.766 57.264-9.45-.93-1.2-7.485-9.283-18.93-14.437z"/>
      <path d="M679.268 189.395l.137.34c28.34-11.828 48.182-9.615 59.842-5.678 12.615 4.262 18.61 11.39 18.67 11.46l.283-.23c-.06-.073-6.123-7.282-18.836-11.573-11.717-3.965-31.655-6.19-60.096 5.68z"/>
      <path d="M679.21 189.698c18.712 18.037 39.188 18.668 53.065 16.027 15.027-2.87 25.777-10.096 25.88-10.168l-.204-.305c-.104.068-10.802 7.262-25.757 10.11-13.79 2.628-34.135 1.997-52.732-15.93l-.25.266z"/>
      <path d="M679.268 189.39c23.406-9.45 43.598-7.358 56.424-3.944 13.895 3.705 22.37 9.723 22.457 9.78l.228.173-.242.144c-19.707 11.428-40.115 9.236-53.766 5.38-14.773-4.17-25.035-11.138-25.135-11.212l-.283-.19.316-.13zm56.312-3.592c-12.705-3.38-32.69-5.455-55.854 3.803 1.762 1.155 11.402 7.204 24.748 10.972 13.518 3.816 33.705 6.004 53.223-5.205-1.457-.987-9.566-6.226-22.117-9.57z"/>
      <path d="M679.293 189.384c.12-.035 12.123-3.12 27.762-3.94 14.44-.753 35.027.33 51.078 9.776l.332.195-.36.14c-.103.04-10.612 3.964-25.515 5.196-13.758 1.136-34.178.15-53.346-11.028l-.385-.227.433-.11zm27.79-3.577c-13.93.732-24.964 3.264-27.263 3.822 18.97 10.91 39.12 11.878 52.73 10.76 13.294-1.106 23.08-4.35 25.06-5.054-15.922-9.214-36.24-10.277-50.526-9.53z"/>
      <path d="M680.31 189.55c30.42-7.643 77.312 5.523 77.782 5.658l.596.172-.592.178c-35.53 10.945-77.387-5.488-77.807-5.656l-.528-.21.55-.142zm.66.216c5.005 1.883 43.34 15.502 76.41 5.623-5.583-1.512-47.972-12.48-76.41-5.624z"/>
      <path d="M680.97 189.43c23.753-1.898 76.567 5.693 77.1 5.768l.57.082-.515.264c-15.25 7.762-76.562-5.61-77.178-5.744l-1.203-.273 1.227-.097zm1.32.278c8.77 1.85 60.423 12.32 75.122 5.77-5.84-.825-52.277-7.22-75.123-5.77z"/>
      <path d="M679.748 189.817c3.74 2.787 74.39 5.846 77.395 5.98l.016-.366c-.737-.034-73.542-3.188-77.194-5.907l-.218.294z"/>
    </g>
    <g>
      <path d="M680.65 148.716l.028.227c.023.18 2.412 17.988 16.318 31.523l.252-.264c-12.96-12.62-15.854-28.98-16.176-31.08 1.062.088 5.344.43 6.11.455 33.565.957 48.028 18.092 54.247 32.307l.335-.156c-3.725-8.506-9.29-15.53-16.537-20.88-9.887-7.288-22.684-11.206-38.033-11.642-.852-.027-6.266-.463-6.322-.47l-.222-.02z"/>
      <path d="M681.227 149.67c34.066 5.26 50.188 19.897 57.71 31.24l.306-.204c-7.562-11.412-23.76-26.115-57.96-31.4l-.056.363z"/>
      <path d="M681.08 149.538c3.266 12.36 9.342 22.51 18.045 30.152l.244-.275c-8.65-7.598-14.69-17.686-17.937-29.975l-.353.098z"/>
      <path d="M680.944 149.247l.143.316c.074.156 7.316 15.973 22.098 28.938l.242-.276c-13.57-11.898-20.762-26.207-21.855-28.498 26.926 4.57 43.742 18.65 53.11 29.684l.282-.238c-9.453-11.13-26.44-25.344-53.68-29.865l-.34-.06z"/>
      <path d="M680.88 149.182l.216.395c5.904 10.895 14.332 20.393 25.043 28.227l.212-.3c-10.533-7.706-18.846-17.022-24.717-27.7 3.76 1.21 31.186 10.45 50.37 28.73l.253-.268c-20.602-19.623-50.65-28.867-50.95-28.96l-.427-.124z"/>
      <path d="M681.918 150.014l.322.45c.098.134 10.06 13.784 27.053 26.73l.22-.29c-15.206-11.586-24.76-23.723-26.636-26.195 12.7 4.075 26.668 12.677 42.678 26.282l.238-.28c-16.28-13.83-30.46-22.51-43.35-26.526l-.525-.172z"/>
      <path d="M681.99 149.97l.843.833c14.77 14.504 18.072 16.973 24.068 21.457 1.612 1.205 3.44 2.574 5.73 4.357l.223-.29c-2.293-1.792-4.12-3.157-5.73-4.362-5.867-4.39-9.146-6.844-23.164-20.578 11.358 5.95 25.653 16.45 36.937 25.016l.225-.295c-11.662-8.848-26.525-19.758-38.078-25.604l-1.055-.533z"/>
      <path d="M681.47 149.92c.782 1.923 12.665 10.862 35.315 26.565l.21-.31c-28.14-19.505-34.667-25.118-35.185-26.39l-.34.136z"/>
    </g>
    <g>
      <path d="M737.395 143.014c.21 3.002.658 5.934 1.35 8.785 2.12 8.78 6.436 16.645 12.82 23.37l.266-.248c-10.663-11.24-20.845-31.252-8.806-62.734.28-.72 1.61-4.816 1.943-5.834 1.805 1.11 15.73 10.082 22.328 26.957l.342-.128c-7.082-18.105-22.533-27.172-22.684-27.264l-.195-.11-.07.212c-.018.057-1.7 5.244-2.004 6.04-4.2 10.966-5.963 21.34-5.29 30.954z"/>
      <path d="M741.573 140.946c1.01 14.406 5.465 24.627 10.023 31.494l.303-.205c-7.532-11.342-14.774-31.918-6.49-65.525l-.356-.094c-3.31 13.435-4.15 24.803-3.48 34.33z"/>
      <path d="M745.12 106.805c10.044 7.744 16.983 17.223 20.638 28.162l.346-.11c-3.676-11.017-10.66-20.55-20.76-28.34l-.223.288z"/>
      <path d="M742.696 134.65c.97 13.85 5.04 25.118 9.133 33.228l.325-.166c-6.533-12.934-12.996-33.934-6.824-60.668 1.685 1.9 12.062 14.07 17.77 31.232l.35-.115c-6.22-18.698-17.966-31.497-18.085-31.626l-.234-.252-.075.342c-2.397 10.207-2.95 19.595-2.36 28.025z"/>
      <path d="M744.996 130.35c.736 10.477 2.63 23.027 7.04 34.676l.347-.13c-9.408-24.83-7.352-53.81-7.014-57.763 7.552 9.55 12.917 20.846 15.94 33.578l.357-.08c-3.076-12.946-8.56-24.417-16.295-34.087l-.28-.35-.044.447c-.017.18-1 10.212-.052 23.71z"/>
      <path d="M745.235 121.155c.746 10.658 3.352 22.98 7.86 37.273l.353-.11c-6.38-20.226-8.94-36.474-7.816-49.65 1.56 2.68 9.12 16.18 13.91 34.745l.354-.092c-5.352-20.74-14.15-35.19-14.238-35.33l-.287-.466-.052.545c-.382 4.06-.413 8.415-.083 13.085z"/>
      <path d="M745.3 106.995l.087 1.21c.875 12.267 5.133 30.07 9.182 45.868l.353-.09c-3.906-15.242-8.004-32.348-9.066-44.52 1.646 4.388 7.438 20.16 12.004 37.104l.353-.096c-5.36-19.882-12.398-38.157-12.467-38.34l-.445-1.135z"/>
      <path d="M745.287 107.286c.973.977 3.623 9.186 10.713 42.79l.355-.08c-5.71-27.05-9.344-41.505-10.81-42.968l-.258.258z"/>
    </g>
    <g>
      <path d="M715.076 142.407c.352 4.973 1.13 9.664 2.336 14.023l.35-.096c-1.977-7.16-2.805-15.213-2.455-23.947.03-.768.186-5.11.22-6.148 1.593.364 11.913 2.925 21.84 10.796l.226-.29c-10.812-8.57-22.09-10.884-22.2-10.913l-.214-.04-.013.218s-.188 5.493-.223 6.358c-.14 3.455-.094 6.81.132 10.04z"/>
      <path d="M715.448 126.452c1.04 12.48 3.56 23.646 7.475 33.2l.344-.142c-3.91-9.518-6.414-20.652-7.45-33.09l-.37.032z"/>
      <path d="M715.573 126.61c8.453 2.89 15.766 7.13 21.74 12.58l.25-.27c-6.016-5.49-13.375-9.75-21.87-12.655l-.12.345z"/>
      <path d="M715.418 126.11l.03.342c1.23 12.95 4.845 24.965 10.747 35.725l.322-.182c-5.826-10.615-9.414-22.46-10.668-35.225 1.866 1.064 12.048 7.127 21.704 17.732l.27-.242c-10.677-11.73-21.993-17.926-22.108-17.988l-.298-.162z"/>
      <path d="M715.356 126.04l.098.438c.05.213 5.004 21.732 17.127 41.547l.308-.19c-11.125-18.192-16.195-37.827-16.97-40.997 8.427 5.463 15.85 12.572 22.07 21.137l.302-.22c-6.346-8.73-13.934-15.946-22.562-21.472l-.372-.243z"/>
      <path d="M715.692 126.688l.13.55c7.22 30.65 40.638 66.517 40.976 66.872l.268-.252c-.334-.35-33.28-35.71-40.75-66.133 2.29 2.064 13.217 12.244 23.21 26.9l.304-.203c-11.203-16.44-23.584-27.256-23.707-27.363l-.43-.372z"/>
      <path d="M715.625 126.33l.482 1.147c9.23 22.066 40.36 66.172 40.674 66.62l.298-.212c-.31-.44-30.312-42.957-40.117-65.342 4.563 5.646 26.763 33.535 35.843 52.62l.334-.153c-10.12-21.26-36.455-53.398-36.717-53.72l-.795-.96z"/>
      <path d="M715.885 127.016c4.086 2.008 40.32 65.518 40.684 66.162l.315-.18c-1.49-2.623-36.654-64.252-40.84-66.314l-.16.332z"/>
    </g>
  </g>
  <path fill="#c8e5c8" stroke="#6aa181" stroke-miterlimit="10" d="M818.608 264.626l84.523-100.688H737.1z"/>
  <path fill="none" stroke="#667a36" stroke-miterlimit="10" d="M743.135 166.817h153.818l-78.306 93.28z"/>
  <path fill="none" stroke="#667a36" stroke-miterlimit="10" d="M749.17 169.698h141.606l-72.088 85.873z"/>
  <path fill="none" stroke="#667a36" stroke-miterlimit="10" d="M755.21 172.577h129.388l-65.87 78.467z"/>
  <path fill="none" stroke="#667a36" stroke-miterlimit="10" d="M761.246 175.458H878.42l-59.652 71.058z"/>
  <path fill="none" stroke="#667a36" stroke-miterlimit="10" d="M767.283 178.337h104.96l-53.436 63.652z"/>
  <path fill="none" stroke="#667a36" stroke-miterlimit="10" d="M773.32 181.218h92.745l-47.217 56.244z"/>
  <path fill="none" stroke="#667a36" stroke-miterlimit="10" d="M779.356 184.096h80.53l-41 48.838z"/>
  <path fill="none" stroke="#667a36" stroke-miterlimit="10" d="M785.39 186.977h68.32l-34.782 41.43z"/>
  <path fill="none" stroke="#667a36" stroke-miterlimit="10" d="M791.428 189.856h56.103l-28.563 34.024z"/>
  <path fill="none" stroke="#667a36" stroke-miterlimit="10" d="M797.463 192.737h43.89l-22.345 26.615z"/>
  <path fill="none" stroke="#667a36" stroke-miterlimit="10" d="M803.5 195.616h31.676l-16.127 19.21z"/>
  <path fill="none" stroke="#667a36" stroke-miterlimit="10" d="M809.535 198.497h19.46l-9.905 11.8z"/>
  <path fill="none" stroke="#667a36" stroke-miterlimit="10" d="M815.573 201.376h7.246l-3.69 4.394z"/>
  <path fill="#4b5a72" d="M899.846 352.97l-81.12-88.377-.118.033-71.094 88.343"/>
  <path fill="#4b5a72" d="M737.098 163.938v189.03h10.416l71.094-88.342.12-.033"/>
  <path stroke-miterlimit="10" fill="none" stroke="#fff" d="M290.49 184.626L479.99 427.72M369.692 151.46l73.025 297.94"/>
  <g fill="#f1666d">
    <path d="M419.016 347.49c-9.188-5.444-13.82-12.642-13.87-12.712l-.087-.133.142-.082c24.145-14.195 42.46-9.324 53.578-2.738 9.443 5.594 14.555 12.916 14.607 12.988l.105.158-.178.077c-.045.018-4.38 1.787-5.047 2.096-22.978 10.785-39.46 6.143-49.25.346zm-13.51-12.743c.682 1.01 5.244 7.484 13.672 12.477 9.717 5.756 26.098 10.365 48.957-.36.596-.282 4.025-1.685 4.88-2.03-.806-1.096-5.78-7.637-14.4-12.742-11.025-6.53-29.175-11.355-53.11 2.655z"/>
    <path d="M414.754 343.034c-6.63-3.928-9.66-8.06-9.7-8.11l.26-.185c.046.065 4.767 6.5 15.374 10.91 9.79 4.075 26.748 7.202 51.908-1.013l.1.293c-25.268 8.25-42.305 5.098-52.15 1.002-2.173-.906-4.102-1.896-5.792-2.898z"/>
    <path d="M405.262 334.964l-.158-.27c.102-.053 9.826-5.494 22.96-6.973 12.124-1.36 29.73.476 44.698 16.958l-.234.21c-14.885-16.386-32.373-18.208-44.43-16.856-13.07 1.467-22.738 6.88-22.836 6.932z"/>
    <path d="M410.364 338.518v-.002c-3.38-2.004-5.248-3.53-5.262-3.545l-.19-.157.222-.102c11.027-5.26 23.105-6.65 35.89-4.147 10.735 2.105 19.73 6.54 25.386 9.89 3.982 2.36 6.318 4.19 6.34 4.206l.23.18-.28.09c-13 4.085-26.01 4.917-38.67 2.48-10.6-2.044-18.72-5.966-23.662-8.892zm-4.872-3.633c.553.432 2.29 1.74 5.03 3.36 10.63 6.298 32.765 15.49 61.788 6.478-.686-.518-2.828-2.084-6.07-4.002-12.115-7.176-36.09-17.454-60.748-5.835z"/>
    <path d="M407.82 336.702c-.93-.547-1.845-1.13-2.712-1.723l-.273-.187.318-.09c.088-.027 8.703-2.492 20.85-2.766 11.21-.254 27.812 1.363 43.22 10.492 1.19.7 2.368 1.45 3.51 2.222l.317.215-.375.068c-.392.072-39.417 6.837-64.856-8.233zm-2.25-1.79c.776.524 1.587 1.038 2.41 1.524 23.98 14.205 60.122 8.924 64.25 8.256-1.03-.688-2.1-1.36-3.167-1.994-15.35-9.09-31.885-10.7-43.057-10.447-10.78.243-18.766 2.216-20.437 2.663z"/>
    <path d="M404.64 334.815l.52-.117c31.318-7.023 67.195 9.773 67.553 9.943l.443.214-.486.082c-26.7 4.545-67.125-9.795-67.53-9.94l-.5-.18zm67.475 9.9c-4.266-1.927-37.193-16.103-66.348-9.833 4.782 1.65 41.38 13.834 66.348 9.832z"/>
    <path d="M404.674 334.897l.46-.19c13.642-5.61 65.103 9.528 65.62 9.68l1.014.302h-1.06c-20.59.103-65.097-9.593-65.544-9.69l-.49-.107zm64.922 9.483c-7.387-2.117-50.777-14.193-63.852-9.572 4.942 1.064 44.098 9.35 63.852 9.572z"/>
    <path d="M405.96 334.866l.036-.31c2.58.3 63.27 7.38 66.314 9.98l-.21.237c-2.965-2.53-65.51-9.833-66.14-9.907z"/>
    <g>
      <path d="M378.79 397.846l-.085-.174c-.04-.098-4.55-10.006-3.54-22.652.6-7.43 2.952-14.346 6.995-20.545 5.057-7.746 12.783-14.395 22.965-19.76l.143-.078.07.14c.047.087 4.34 8.67 3.773 20.27-.524 10.706-5.415 26.25-25.737 39.5-.61.403-4.395 3.16-4.43 3.187l-.154.112zm26.335-62.783c-22.814 12.084-28.713 28.398-29.64 39.97-.94 11.644 2.835 20.946 3.43 22.335.74-.543 3.728-2.717 4.284-3.078 20.216-13.182 25.075-28.625 25.597-39.258.524-10.697-3.115-18.8-3.672-19.97z"/>
      <path d="M378.987 397.135l-.207-.236c20.15-17.028 26.217-32.99 27.752-43.382 1.664-11.244-1.46-18.55-1.49-18.625l.287-.125c.034.074 3.194 7.463 1.513 18.795-1.54 10.446-7.63 26.48-27.856 43.572z"/>
      <path d="M378.73 397.063c-6.52-21.186 1.003-37.02 8.458-46.572 8.078-10.34 17.822-15.743 17.916-15.796l.156.275c-.096.052-9.795 5.43-17.83 15.722-7.406 9.492-14.877 25.225-8.398 46.28l-.3.09z"/>
      <path d="M378.768 397.33l-.037-.29c-.017-.105-1.353-10.6 1.228-23.453 2.38-11.877 8.678-28.26 25.15-38.87l.203-.128.046.24c.014.087 1.314 8.856-1.28 20.862-2.394 11.078-8.685 27.258-25.087 41.445l-.222.194zm26.305-62.212c-16.23 10.553-22.443 26.762-24.803 38.525-2.33 11.61-1.46 21.277-1.264 23.064 16.16-14.078 22.385-30.092 24.756-41.066 2.346-10.842 1.498-19.032 1.31-20.522z"/>
      <path d="M378.748 397.41l-.02-.382c-1.08-18.895 6.145-34.824 12.397-44.863 6.77-10.87 13.89-17.367 13.96-17.43l.253-.22.018.33c.97 15.853-6.248 31.944-12.475 42.65-6.74 11.595-13.804 19.548-13.876 19.626l-.256.29zm26.31-62.214c-1.31 1.238-7.628 7.44-13.67 17.14-6.183 9.93-13.32 25.647-12.364 44.288 1.326-1.533 7.584-8.963 13.592-19.287 6.16-10.592 13.29-26.47 12.443-42.14z"/>
      <path d="M378.95 396.647l.046-.482c.035-.385 3.797-38.578 26.084-61.422l.37-.385-.1.52c-.08.41-8.32 41.18-26.075 61.403l-.324.367zm25.98-61.297c-20.508 21.38-25.053 55.81-25.562 60.346 16.38-19.016 24.54-55.51 25.562-60.346z"/>
      <path d="M379.07 396.72l.263-1.02c.14-.52 13.855-52.35 25.77-60.976l.407-.293-.164.47c-.15.432-14.977 43.57-25.72 60.922l-.557.897zm25.803-61.428c-10.77 8.674-22.938 52.033-24.947 59.424 10.045-16.838 23.297-54.66 24.947-59.424z"/>
      <path d="M378.85 396.608c-.676-3.922 24.604-58.895 25.678-61.232l.283.13c-.257.57-26.308 57.222-25.65 61.054l-.31.048z"/>
    </g>
    <g>
      <path d="M410.73 411.73l-.16-.108c-.13-.086-12.856-8.754-17.802-24.55l.3-.093c4.61 14.726 16.03 23.218 17.52 24.272.347-.842 1.76-4.232 2.038-4.828 12.39-25.924 4.902-43.53-3.57-53.732l.248-.197c5.07 6.11 8.283 13.05 9.553 20.625 1.725 10.332-.273 21.584-5.943 33.44-.312.657-2.092 4.948-2.11 4.993l-.073.178z"/>
      <path d="M410.227 410.926c9.287-27.965 4.36-45.867-1.398-55.963l.274-.152c5.795 10.15 10.742 28.138 1.424 56.214l-.3-.098z"/>
      <path d="M410.27 411.09c-8.207-7.247-13.613-15.774-16.074-25.34l.307-.08c2.445 9.507 7.822 17.985 15.977 25.187l-.21.232z"/>
      <path d="M410.44 411.303l-.188-.23c-.092-.115-9.393-11.713-13.557-27.957l.307-.078c3.818 14.912 11.986 25.89 13.312 27.604 7.023-22.262 2.8-40.48-2-51.86l.293-.122c4.84 11.48 9.102 29.883 1.92 52.365l-.087.278z"/>
      <path d="M410.465 411.378l-.22-.316c-6.05-8.686-10.04-18.758-11.86-29.926l.314-.05c1.788 10.985 5.687 20.9 11.583 29.478.54-3.33 4.174-27.766-2.344-49.406l.3-.092c7 23.238 2.34 49.674 2.295 49.938l-.07.374z"/>
      <path d="M410.23 410.266l-.216-.42c-.066-.125-6.645-12.96-9.928-30.88l.31-.058c2.938 16.035 8.513 27.977 9.677 30.36 1.84-11.24.7-25.185-3.475-42.606l.31-.074c4.24 17.713 5.355 31.85 3.4 43.21l-.077.468z"/>
      <path d="M410.293 410.23l-.31-.964c-5.35-16.824-5.952-20.29-7.048-26.582-.297-1.69-.63-3.605-1.104-6.037l.308-.057c.48 2.434.814 4.35 1.11 6.04 1.07 6.153 1.67 9.6 6.726 25.556-.123-10.94-2.588-25.863-4.744-37.752l.31-.055c2.23 12.28 4.784 27.796 4.757 38.84v1.01z"/>
      <path d="M410.13 410.64c-1.173-1.33-3.382-13.817-6.57-37.108l.317-.04c3.96 28.933 5.713 36.063 6.486 36.944l-.234.205z"/>
    </g>
    <g>
      <path d="M437.293 370.716c-2.22-1.314-4.293-2.783-6.213-4.406-5.904-4.994-10.252-11.303-12.914-18.75l.295-.107c4.456 12.44 15.825 27.895 44.68 30.836.663.065 4.325.624 5.237.765-.146-1.803-1.584-15.855-11.95-27.37l.233-.212c11.12 12.357 12.035 27.607 12.045 27.76l.01.19-.19-.026c-.052-.01-4.685-.725-5.415-.8-10.055-1.022-18.703-3.67-25.815-7.88z"/>
      <path d="M440.514 368.33c-10.658-6.31-16.754-13.634-20.238-19.745l.275-.152c5.753 10.098 18.704 23.527 47.726 30.148l-.066.308c-11.602-2.65-20.647-6.383-27.696-10.557z"/>
      <path d="M468.09 378.76c-2.014-10.625-6.57-19.555-13.535-26.545l.22-.22c7.015 7.034 11.6 16.02 13.624 26.708l-.31.057z"/>
      <path d="M445.783 369.9c-10.246-6.067-17.3-13.503-21.92-19.737l.258-.186c7.368 9.95 20.948 22.95 43.868 28.535-.8-2.014-6.076-14.598-17.01-25.545l.227-.225c11.91 11.932 17.137 25.8 17.19 25.94l.1.274-.294-.072c-8.762-2.104-16.184-5.29-22.417-8.985z"/>
      <path d="M449.98 369.8c-7.75-4.588-16.634-10.86-23.845-18.7l.234-.212c15.366 16.713 38.4 26.295 41.565 27.56-4.373-9.427-10.94-17.856-19.523-25.056l.203-.242c8.727 7.324 15.38 15.912 19.775 25.52l.158.35-.36-.14c-.147-.057-8.227-3.166-18.21-9.08z"/>
      <path d="M457.13 373.157c-7.89-4.67-16.32-11.395-25.522-20.326l.225-.224c13.02 12.637 24.482 20.838 35.03 25.053-1.444-2.222-8.85-13.17-21.216-23.96l.21-.234c13.82 12.055 21.46 24.312 21.534 24.434l.247.398-.44-.17c-3.263-1.274-6.617-2.926-10.068-4.97z"/>
      <path d="M468.014 378.55l-.893-.532c-9.067-5.383-21.058-15.473-31.597-24.633l.21-.234c10.165 8.837 21.683 18.538 30.604 24.03-2.723-2.94-12.555-13.418-23.768-23.414l.212-.23c13.152 11.73 24.422 24.12 24.533 24.242l.7.773z"/>
      <path d="M467.785 378.45c-.365-1.115-5.63-6.29-28.637-24.617l.203-.238c18.52 14.75 28.187 23.078 28.735 24.76l-.3.095z"/>
    </g>
    <g>
      <path d="M429.03 387.944c-3.675-2.178-6.972-4.576-9.843-7.172l.21-.232c4.718 4.262 10.573 7.99 17.41 11.082.6.27 3.995 1.826 4.804 2.197.343-1.353 2.413-10.194.26-20.78l.308-.062c2.346 11.53-.287 21.008-.31 21.105l-.05.174-.172-.076s-4.287-1.966-4.965-2.272c-2.705-1.222-5.258-2.548-7.65-3.964z"/>
      <path d="M441.416 393.798c-9.162-5.592-16.748-11.805-22.545-18.463l.24-.205c5.776 6.64 13.337 12.83 22.472 18.402l-.166.266z"/>
      <path d="M441.344 393.643c1.086-7.55.697-14.746-1.148-21.395l.307-.084c1.857 6.693 2.246 13.934 1.154 21.52l-.313-.04z"/>
      <path d="M441.668 393.954l-.252-.156c-9.45-5.918-17.256-13.293-23.2-21.924l.263-.176c5.866 8.52 13.548 15.807 22.85 21.674-.09-1.832-.753-11.916-5.116-23.352l.293-.11c4.822 12.642 5.15 23.64 5.154 23.755l.01.29z"/>
      <path d="M441.696 394.028l-.297-.244c-.146-.117-14.714-12.17-25.173-29.02l.266-.163c9.605 15.474 22.684 26.886 24.81 28.696-.894-8.52-3.442-16.908-7.58-24.94l.284-.142c4.215 8.188 6.783 16.742 7.65 25.438l.04.376z"/>
      <path d="M441.328 393.522l-.367-.31c-20.688-17.29-35.136-56.532-35.278-56.925l.297-.105c.142.39 14.384 39.074 34.8 56.467-.69-2.54-4.225-14.774-11.56-28.02l.272-.153c8.23 14.854 11.686 28.44 11.72 28.576l.116.47z"/>
      <path d="M441.58 393.712l-.693-.81c-13.314-15.52-34.98-56.187-35.2-56.597l.282-.145c.214.404 21.097 39.605 34.435 55.68-2.55-5.643-15.262-33.277-26.352-47.53l.25-.196c12.35 15.883 26.707 48.3 26.852 48.62l.425.978z"/>
      <path d="M441.157 393.25c.057-3.884-34.496-55.905-34.85-56.43l.264-.173c1.43 2.145 34.958 52.625 34.9 56.607h-.313z"/>
    </g>
  </g>
  <path d="M456.028 456.24c-1.38-6.083-7.49-9.907-13.64-8.544-6.157 1.363-10.028 7.4-8.647 13.482.28 1.238 1.802 3.807 2.49 4.486 3.263 3.215 12.798 12.713 14.85 15.98 0 0 3.16-15.232 4.642-20.3.218-.75.58-3.888.306-5.105zM493.324 426.958c-4.238-4.617-11.46-4.965-16.133-.78-4.67 4.19-5.024 11.327-.786 15.944.863.94 3.47 2.434 4.41 2.688 4.44 1.205 17.48 4.816 20.895 6.658 0 0-4.858-14.79-6.103-19.918-.185-.76-1.437-3.67-2.283-4.592z" fill="#b1b661"/>
  <path d="M464.45 214.81c-11.472-26.763-34.07-48.32-63.136-57.993-4.955-1.648-10.088-2.957-15.385-3.883-10.163-1.775-16.503-1.543-16.503-1.543l47.596 195.4-.01.01L291.138 186l-.584-1.443c-13.307 14.146-22.78 32.115-26.438 52.553-5.838 32.623 4.44 64.37 25.158 87.31 0 .005.01.007.01.01 15.154 16.78 35.885 28.856 60.035 33.075 57.163 9.99 111.706-27.727 121.817-84.22 3.67-20.495.957-40.638-6.688-58.474z" fill="#4b5a72"/>
  <path d="M290.52 184.464c20.06-21.25 48.773-33.842 79.434-33.078l-.285.572 47.354 194.834-.01.01-125.875-160.8-.62-1.536z" fill="#c8e5c8"/>
  <path d="M294.334 185.007c19.168-19.45 45.414-30.47 72.71-30.547l43.51 179.012-116.22-148.465z" fill="none" stroke="#667a36" stroke-miterlimit="10"/>
  <path d="M298.518 185.272c17.71-16.996 41.52-26.973 66.06-27.668l39.5 162.518-105.56-134.85z" fill="none" stroke="#667a36" stroke-miterlimit="10"/>
  <path d="M302.748 185.6c16.205-14.643 37.572-23.564 59.377-24.785L397.6 306.77 302.748 185.6z" fill="none" stroke="#667a36" stroke-miterlimit="10"/>
  <path d="M307.03 186c14.65-12.392 33.563-20.26 52.66-21.897l31.43 129.316L307.03 186z" fill="none" stroke="#667a36" stroke-miterlimit="10"/>
  <path d="M311.38 186.475c13.16-10.393 29.263-17.062 45.896-19.008l27.37 112.602-73.265-93.595z" fill="none" stroke="#667a36" stroke-miterlimit="10"/>
  <path d="M315.793 187.038c11.43-8.367 25.115-14.01 39.088-16.115l23.286 95.795-62.373-79.68z" fill="none" stroke="#667a36" stroke-miterlimit="10"/>
  <path d="M320.28 187.694c9.71-6.56 20.744-11.086 32.234-13.223l19.178 78.896-51.412-65.672z" fill="none" stroke="#667a36" stroke-miterlimit="10"/>
  <path d="M324.85 188.452c7.775-4.8 16.422-8.326 25.32-10.328l15.043 61.893-40.363-51.565z" fill="none" stroke="#667a36" stroke-miterlimit="10"/>
  <path d="M329.51 189.33c5.756-3.206 11.996-5.735 18.344-7.435l10.88 44.77-29.224-37.334z" fill="none" stroke="#667a36" stroke-miterlimit="10"/>
  <path d="M334.272 190.34c3.645-1.81 7.424-3.33 11.297-4.546l6.688 27.52-17.986-22.975z" fill="none" stroke="#667a36" stroke-miterlimit="10"/>
  <path d="M339.157 191.5c1.37-.595 2.76-1.15 4.164-1.66l2.46 10.124-6.623-8.463z" fill="none" stroke="#667a36" stroke-miterlimit="10"/>
  <g fill="#f1666d">
    <path d="M562.9 123.452c.673-.523 4.788-4.078 4.83-4.115l.175-.145.11.195c.048.094 5.017 9.287 5.915 22.057 1.055 15.033-3.45 36.61-30.918 54.084l-.16.102-.094-.16c-.05-.086-5.143-8.72-6.01-21.143-.927-13.233 2.852-32.793 26.15-50.875zm10.667 18.02c-.818-11.65-5.043-20.294-5.77-21.71-.805.7-4.066 3.51-4.676 3.98-23.167 17.985-26.933 37.42-26.013 50.56.8 11.392 5.172 19.57 5.87 20.813 27.166-17.355 31.635-38.737 30.59-53.644z"/>
    <path d="M539.166 181.116c.63 8.965 3.357 14.305 3.393 14.373l.327-.17c-.05-.083-4.297-8.407-3.346-21.75.872-12.317 6.487-31.558 28.245-53.27l-.258-.26c-21.846 21.804-27.477 41.142-28.354 53.532-.19 2.733-.167 5.257-.01 7.544z"/>
    <path d="M542.625 195.253l.195.305c.11-.074 10.885-7.258 19.305-20.086 7.773-11.848 15.076-31.072 5.703-55.365l-.34.133c9.314 24.156 2.06 43.254-5.668 55.033-8.376 12.765-19.09 19.905-19.195 19.98z"/>
    <path d="M544.688 158.81c4.088-14.42 11.77-27.464 22.84-38.77l.24-.24.07.335c.01.03.693 3.426 1.074 8.812.535 7.645.457 19.33-2.965 31.578-4.084 14.588-11.86 26.365-23.127 35.002l-.227.172-.062-.28c-.01-.025-.626-2.77-.948-7.344v-.004c-.47-6.683-.314-17.185 3.102-29.263zm23.857-29.837c-.305-4.38-.818-7.434-1-8.42-24.61 25.29-26.605 53.127-25.598 67.496.262 3.704.717 6.204.88 7.005 25.046-19.377 26.87-49.703 25.718-66.082z"/>
    <path d="M567.514 120.063l.27-.355.055.443c.21 1.595.37 3.214.485 4.82 1.46 20.837-5.545 38.905-11.678 50.394-6.646 12.445-13.734 20.064-13.81 20.14l-.26.284-.054-.38c-.16-1.22-.29-2.478-.377-3.73-2.415-34.392 25.09-71.25 25.368-71.615zm-11.193 55.13c6.116-11.45 13.097-29.446 11.638-50.196-.102-1.443-.244-2.91-.42-4.348-2.86 3.925-27.303 38.577-25.025 71.003.074 1.11.188 2.223.326 3.31 1.338-1.495 7.582-8.724 13.48-19.77z"/>
    <path d="M542.524 195.36c.062-.496 6.256-50.035 24.988-75.297l.34-.46-.01.573c-.01.463-1.26 46.596-24.996 75.322l-.393.48.07-.618zm.45-.588c21.815-26.883 24.257-68.568 24.48-74.016-17.255 23.754-23.7 68.182-24.48 74.016z"/>
    <path d="M542.53 195.335c.134-.518 13.315-51.818 24.206-73.107l.56-1.094-.216 1.213c-.11.615-11.252 62.023-24.256 73.176l-.438.375.145-.563zm.51-.496c11.673-11.097 21.784-62.51 23.444-71.29-10.115 20.595-21.97 65.597-23.443 71.29z"/>
    <path d="M543.09 194.58l.346.128c1.035-2.834 25.424-69.516 24.305-74.057l-.358.09c1.09 4.425-24.036 73.147-24.292 73.84z"/>
    <g>
      <path d="M463.29 189.12c.048-.023 4.905-2.477 5.644-2.895 24.484-14.014 43.275-10.81 54.734-5.654 12.412 5.59 19.12 14.608 19.188 14.7l.11.15-.155.107c-10.933 7.7-21.923 12.17-32.66 13.285-8.595.893-17.048-.35-25.118-3.686-13.738-5.682-21.725-15.633-21.805-15.73l-.137-.177.2-.1zm60.228-8.215c-11.38-5.12-30.053-8.3-54.406 5.64-.664.38-4.504 2.32-5.455 2.8 1.137 1.355 8.875 10.22 21.525 15.447 12.572 5.195 32.7 7.766 57.266-9.45-.93-1.2-7.487-9.283-18.93-14.437z"/>
      <path d="M463.934 189.395l.14.34c28.335-11.828 48.18-9.615 59.84-5.678 12.614 4.262 18.606 11.39 18.667 11.46l.284-.23c-.06-.073-6.123-7.282-18.836-11.573-11.717-3.965-31.65-6.19-60.094 5.68z"/>
      <path d="M463.877 189.698c18.71 18.037 39.186 18.668 53.062 16.027 15.03-2.87 25.778-10.096 25.88-10.168l-.205-.305c-.104.068-10.8 7.262-25.756 10.11-13.792 2.628-34.138 1.997-52.73-15.93l-.253.266z"/>
      <path d="M463.934 189.39c23.404-9.45 43.598-7.358 56.422-3.944 13.896 3.705 22.37 9.723 22.46 9.78l.226.173-.24.144c-19.707 11.428-40.113 9.236-53.764 5.38-14.775-4.17-25.035-11.138-25.14-11.212l-.282-.19.318-.13zm56.31-3.592c-12.703-3.38-32.686-5.455-55.854 3.803 1.766 1.155 11.406 7.204 24.748 10.972 13.52 3.816 33.707 6.004 53.225-5.205-1.458-.987-9.566-6.226-22.12-9.57z"/>
      <path d="M463.957 189.384c.12-.035 12.123-3.12 27.766-3.94 14.44-.753 35.025.33 51.074 9.776l.332.195-.362.14c-.1.04-10.61 3.964-25.514 5.196-13.758 1.136-34.178.15-53.346-11.028l-.385-.227.434-.11zm27.79-3.577c-13.927.732-24.962 3.264-27.26 3.822 18.97 10.91 39.12 11.878 52.726 10.76 13.297-1.106 23.08-4.35 25.062-5.054-15.923-9.214-36.238-10.277-50.527-9.53z"/>
      <path d="M464.975 189.55c30.424-7.643 77.314 5.523 77.783 5.658l.598.172-.594.178c-35.53 10.945-77.39-5.488-77.81-5.656l-.524-.21.547-.142zm.662.216c5.002 1.883 43.338 15.502 76.408 5.623-5.584-1.512-47.97-12.48-76.408-5.624z"/>
      <path d="M465.64 189.43c23.747-1.898 76.56 5.693 77.093 5.768l.574.082-.518.264c-15.25 7.762-76.563-5.61-77.18-5.744l-1.198-.273 1.227-.097zm1.317.278c8.766 1.85 60.42 12.32 75.12 5.77-5.84-.825-52.276-7.22-75.12-5.77z"/>
      <path d="M464.412 189.817c3.744 2.787 74.39 5.846 77.395 5.98l.018-.366c-.734-.034-73.54-3.188-77.195-5.907l-.218.294z"/>
    </g>
    <g>
      <path d="M465.315 148.716l.03.227c.022.18 2.41 17.988 16.315 31.523l.256-.264c-12.963-12.62-15.854-28.98-16.176-31.08 1.06.088 5.34.43 6.11.455 33.56.957 48.026 18.092 54.245 32.307l.334-.156c-3.726-8.506-9.292-15.53-16.536-20.88-9.89-7.288-22.686-11.206-38.035-11.642-.85-.027-6.265-.463-6.32-.47l-.225-.02z"/>
      <path d="M465.89 149.67c34.067 5.26 50.19 19.897 57.714 31.24l.305-.204c-7.563-11.412-23.763-26.115-57.962-31.4l-.057.363z"/>
      <path d="M465.744 149.538c3.27 12.36 9.346 22.51 18.045 30.152l.243-.275c-8.648-7.598-14.684-17.686-17.936-29.975l-.353.098z"/>
      <path d="M465.612 149.247l.143.316c.07.156 7.314 15.973 22.098 28.938l.238-.276c-13.57-11.898-20.757-26.207-21.853-28.498 26.928 4.57 43.742 18.65 53.11 29.684l.282-.238c-9.454-11.13-26.442-25.344-53.683-29.865l-.335-.06z"/>
      <path d="M465.545 149.182l.217.395c5.902 10.895 14.332 20.393 25.04 28.227l.214-.3c-10.53-7.706-18.846-17.022-24.715-27.7 3.763 1.21 31.185 10.45 50.37 28.73l.252-.268c-20.602-19.623-50.65-28.867-50.947-28.96l-.43-.124z"/>
      <path d="M466.582 150.014l.326.45c.096.134 10.057 13.784 27.053 26.73l.222-.29c-15.207-11.586-24.76-23.723-26.64-26.195 12.702 4.075 26.667 12.677 42.68 26.282l.235-.28c-16.275-13.83-30.455-22.51-43.346-26.526l-.528-.172z"/>
      <path d="M466.657 149.97l.844.833c14.77 14.504 18.073 16.973 24.07 21.457 1.608 1.205 3.435 2.574 5.728 4.357l.22-.29c-2.29-1.792-4.118-3.157-5.728-4.362-5.867-4.39-9.15-6.844-23.168-20.578 11.363 5.95 25.654 16.45 36.94 25.016l.224-.295c-11.66-8.848-26.525-19.758-38.076-25.604l-1.053-.533z"/>
      <path d="M466.14 149.92c.778 1.923 12.66 10.862 35.313 26.565l.207-.31c-28.14-19.505-34.668-25.118-35.186-26.39l-.335.136z"/>
    </g>
    <g>
      <path d="M522.06 143.014c.212 3.002.66 5.934 1.35 8.785 2.122 8.78 6.437 16.645 12.82 23.37l.267-.248c-10.664-11.24-20.846-31.252-8.81-62.734.282-.72 1.614-4.816 1.946-5.834 1.805 1.11 15.727 10.082 22.328 26.957l.343-.128c-7.082-18.105-22.53-27.172-22.686-27.264l-.195-.11-.07.212c-.018.057-1.695 5.244-2.002 6.04-4.197 10.966-5.963 21.34-5.29 30.954z"/>
      <path d="M526.237 140.946c1.012 14.406 5.47 24.627 10.025 31.494l.3-.205c-7.53-11.342-14.772-31.918-6.49-65.525l-.353-.094c-3.312 13.435-4.15 24.803-3.483 34.33z"/>
      <path d="M529.785 106.805c10.043 7.744 16.986 17.223 20.637 28.162l.346-.11c-3.674-11.017-10.66-20.55-20.758-28.34l-.225.288z"/>
      <path d="M527.36 134.65c.97 13.85 5.043 25.118 9.133 33.228l.328-.166c-6.53-12.934-12.995-33.934-6.823-60.668 1.682 1.9 12.06 14.07 17.77 31.232l.35-.115c-6.22-18.698-17.97-31.497-18.088-31.626l-.235-.252-.074.342c-2.396 10.207-2.952 19.595-2.36 28.025z"/>
      <path d="M529.66 130.35c.738 10.477 2.633 23.027 7.045 34.676l.344-.13c-9.41-24.83-7.355-53.81-7.013-57.763 7.553 9.55 12.916 20.846 15.938 33.578l.357-.08c-3.074-12.946-8.56-24.417-16.295-34.087l-.277-.35-.047.447c-.017.18-1 10.212-.053 23.71z"/>
      <path d="M529.9 121.155c.747 10.658 3.354 22.98 7.862 37.273l.35-.11c-6.375-20.226-8.938-36.474-7.814-49.65 1.56 2.68 9.12 16.18 13.908 34.745l.354-.092c-5.35-20.74-14.15-35.19-14.238-35.33l-.287-.466-.05.545c-.38 4.06-.412 8.415-.086 13.085z"/>
      <path d="M529.965 106.995l.09 1.21c.873 12.267 5.133 30.07 9.18 45.868l.355-.09c-3.908-15.242-8.004-32.348-9.07-44.52 1.65 4.388 7.438 20.16 12.004 37.104l.354-.096c-5.36-19.882-12.398-38.157-12.47-38.34l-.443-1.135z"/>
      <path d="M529.953 107.286c.973.977 3.623 9.186 10.71 42.79l.356-.08c-5.71-27.05-9.343-41.505-10.812-42.968l-.255.258z"/>
    </g>
    <g>
      <path d="M499.74 142.407c.354 4.973 1.13 9.664 2.336 14.023l.354-.096c-1.98-7.16-2.81-15.213-2.455-23.947.03-.768.182-5.11.22-6.148 1.59.364 11.91 2.925 21.837 10.796l.227-.29c-10.815-8.57-22.093-10.884-22.204-10.913l-.21-.04-.01.218s-.192 5.493-.224 6.358c-.143 3.455-.098 6.81.128 10.04z"/>
      <path d="M500.112 126.452c1.045 12.48 3.56 23.646 7.48 33.2l.34-.142c-3.91-9.518-6.413-20.652-7.452-33.09l-.368.032z"/>
      <path d="M500.237 126.61c8.455 2.89 15.77 7.13 21.742 12.58l.247-.27c-6.014-5.49-13.37-9.75-21.87-12.655l-.12.345z"/>
      <path d="M500.084 126.11l.027.342c1.235 12.95 4.85 24.965 10.75 35.725l.32-.182c-5.825-10.615-9.41-22.46-10.667-35.225 1.867 1.064 12.05 7.127 21.707 17.732l.27-.242c-10.677-11.73-21.995-17.926-22.11-17.988l-.296-.162z"/>
      <path d="M500.02 126.04l.102.438c.045.213 5 21.732 17.123 41.547l.31-.19c-11.126-18.192-16.198-37.827-16.974-40.997 8.43 5.463 15.856 12.572 22.077 21.137l.297-.22c-6.346-8.73-13.934-15.946-22.56-21.472l-.374-.243z"/>
      <path d="M500.356 126.688l.133.55c7.216 30.65 40.636 66.517 40.972 66.872l.27-.252c-.336-.35-33.277-35.71-40.752-66.133 2.293 2.064 13.217 12.244 23.21 26.9l.304-.203c-11.203-16.44-23.584-27.256-23.707-27.363l-.43-.372z"/>
      <path d="M500.29 126.33l.485 1.147c9.23 22.066 40.357 66.172 40.672 66.62l.297-.212c-.31-.44-30.314-42.957-40.115-65.342 4.558 5.646 26.757 33.535 35.84 52.62l.333-.153c-10.12-21.26-36.457-53.398-36.717-53.72l-.797-.96z"/>
      <path d="M500.55 127.016c4.087 2.008 40.32 65.518 40.685 66.162l.316-.18c-1.49-2.623-36.655-64.252-40.84-66.314l-.16.332z"/>
    </g>
  </g>
  <path stroke-miterlimit="10" fill="none" stroke="#fff" d="M461.086 69.83l139.832 202.86M672.344 83.557l146.19 181.295M178.9 354.405L18.01 15.223"/>
  <g fill="#f1666d">
    <path d="M118.754 102.647c.758-.396 5.445-3.154 5.494-3.184l.195-.11.074.212c.03.102 3.27 10.037 1.86 22.762-1.663 14.977-9.966 35.396-40.124 47.654l-.178.073-.062-.174c-.033-.095-3.492-9.503-2.115-21.88 1.462-13.185 8.692-31.75 34.856-45.353zm7.26 19.64c1.287-11.608-1.318-20.868-1.777-22.392-.916.547-4.63 2.723-5.314 3.074-26.02 13.534-33.215 31.98-34.664 45.07-1.26 11.353 1.575 20.18 2.036 21.528 29.84-12.196 38.07-32.43 39.718-47.28z"/>
    <path d="M85.06 155.114c-.99 8.932.735 14.676.757 14.748l.354-.107c-.032-.092-2.718-9.04.61-21.998 3.07-11.96 12.05-29.88 37.348-47.334l-.205-.3c-25.406 17.524-34.416 35.54-37.504 47.57-.68 2.655-1.11 5.142-1.36 7.42z"/>
    <path d="M85.922 169.64l.14.337c.12-.053 12.01-5.188 22.597-16.297 9.77-10.258 20.403-27.86 15.546-53.44l-.36.067c4.83 25.436-5.735 42.922-15.45 53.123-10.534 11.055-22.357 16.157-22.474 16.21z"/>
    <path d="M94.492 134.16c6.61-13.452 16.508-24.903 29.43-34.038l.28-.193.01.34c0 .032.07 3.495-.526 8.862-.846 7.617-3.018 19.098-8.584 30.533-6.635 13.62-16.4 23.81-29.033 30.28l-.257.132-.01-.29c0-.022-.12-2.835.385-7.392l.01-.004c.732-6.66 2.773-16.96 8.3-28.23zm28.827-25.07c.485-4.364.528-7.458.526-8.462-28.752 20.46-35.71 47.49-37.295 61.807-.41 3.69-.407 6.23-.394 7.05 28.118-14.568 35.354-44.076 37.163-60.394z"/>
    <path d="M123.903 100.14l.326-.302-.022.447c-.08 1.605-.21 3.227-.39 4.83-2.3 20.758-12.437 37.275-20.532 47.477-8.77 11.05-17.113 17.273-17.197 17.336l-.31.23.018-.385c.06-1.227.16-2.486.297-3.734 3.796-34.268 37.468-65.592 37.808-65.9zm-20.907 52.226c8.07-10.166 18.168-26.617 20.46-47.29.157-1.44.28-2.91.364-4.355-3.52 3.35-33.785 33.052-37.363 65.358-.125 1.107-.213 2.223-.273 3.316 1.588-1.23 9.027-7.22 16.812-17.028z"/>
    <path d="M85.807 169.73c.148-.48 15.135-48.1 38.094-69.59l.42-.394-.116.564c-.092.453-9.6 45.61-38.105 69.613l-.476.4.183-.594zm.547-.5c26.285-22.53 36.17-63.1 37.365-68.42-21.237 20.273-35.552 62.822-37.366 68.42z"/>
    <path d="M85.815 169.706c.225-.486 22.4-48.586 36.936-67.574l.747-.98-.43 1.157c-.22.585-22.203 58.993-36.996 67.632l-.497.29.242-.526zm.592-.397c13.475-8.82 32.65-57.585 35.857-65.925-13.647 18.446-33.387 60.59-35.857 65.924z"/>
    <path d="M86.502 169.063l.316.188c1.53-2.6 37.488-63.823 37.2-68.49l-.366.024c.278 4.547-36.777 67.642-37.15 68.28z"/>
    <g>
      <path d="M8.975 149.37c.053-.016 5.27-1.557 6.072-1.836 26.604-9.393 44.516-2.867 54.86 4.262 11.208 7.727 16.192 17.8 16.24 17.906l.08.166-.17.078c-12.14 5.61-23.755 8.037-34.52 7.207-8.61-.664-16.706-3.404-24.048-8.135-12.495-8.055-18.565-19.277-18.626-19.385l-.104-.2.215-.063zm60.728 2.726c-10.28-7.078-28.076-13.56-54.54-4.217-.72.255-4.843 1.476-5.866 1.774.875 1.537 6.896 11.648 18.404 19.06 11.435 7.368 30.774 13.51 58.032.98-.7-1.342-5.7-10.473-16.03-17.598z"/>
      <path d="M9.56 149.755l.077.36c30-6.55 49.125-.812 59.887 5.153 11.645 6.457 16.262 14.545 16.31 14.627l.32-.176c-.046-.085-4.718-8.267-16.456-14.77-10.813-6.002-30.026-11.768-60.137-5.195z"/>
      <path d="M9.45 150.042c15.17 21.104 35.2 25.4 49.325 25.293 15.3-.127 27.172-5.305 27.287-5.357l-.148-.336c-.115.047-11.93 5.205-27.152 5.322-14.04.11-33.94-4.162-49.016-25.137l-.297.215z"/>
      <path d="M9.56 149.75c24.724-5.095 44.214.587 56.218 6.25 13.004 6.136 20.264 13.577 20.334 13.65l.195.208-.264.102c-21.438 7.705-41.12 1.887-53.857-4.357C18.4 158.85 9.56 150.153 9.47 150.06l-.243-.238.334-.07zm56.044 6.575c-11.89-5.607-31.178-11.236-55.63-6.285 1.528 1.45 9.927 9.133 22.378 15.232 12.615 6.184 32.08 11.957 53.293 4.434-1.256-1.233-8.293-7.84-20.04-13.38z"/>
      <path d="M9.588 149.75c.123-.015 12.486-.897 28.02 1.106 14.342 1.85 34.398 6.61 48.492 18.785l.29.25-.378.075c-.11.02-11.152 1.994-26.033.533-13.74-1.354-33.65-5.99-50.5-20.428l-.34-.29.448-.03zm27.983 1.468c-13.837-1.78-25.145-1.27-27.507-1.133 16.703 14.14 36.355 18.71 49.94 20.05 13.276 1.298 23.487-.138 25.56-.472-14.01-11.926-33.803-16.617-47.992-18.445z"/>
      <path d="M10.56 150.094c31.3-2.06 75.065 19.31 75.5 19.527l.558.276-.615.068c-36.92 4.39-75.145-19.29-75.527-19.53l-.482-.302.565-.038zm.61.332c4.584 2.75 39.854 23.03 74.16 19.246-5.222-2.488-44.953-20.888-74.16-19.246z"/>
      <path d="M11.23 150.096c23.706 2.395 74.302 19.344 74.812 19.512l.55.182-.558.168c-16.396 4.898-74.31-19.264-74.893-19.504l-1.134-.482 1.225.124zm1.25.51c8.292 3.393 57.23 22.965 72.864 19.16-5.598-1.86-50.13-16.488-72.865-19.16z"/>
      <path d="M9.957 150.257C13.14 153.67 82.09 169.36 85.02 170.03l.083-.357c-.717-.168-71.773-16.336-74.88-19.666l-.266.25z"/>
    </g>
    <g>
      <path d="M18.223 109.983l-.014.23c-.01.18-.856 18.128 10.394 33.938l.297-.21c-10.487-14.744-10.394-31.354-10.333-33.48 1.027.274 5.176 1.38 5.928 1.544 32.848 6.965 44 26.418 47.566 41.518l.358-.094c-2.135-9.035-6.35-16.943-12.52-23.508-8.416-8.945-20.303-15.096-35.326-18.28-.832-.18-6.08-1.58-6.133-1.597l-.217-.06z"/>
      <path d="M18.617 111.026c32.57 11.287 45.803 28.582 51.166 41.092l.338-.146c-5.392-12.584-18.687-29.955-51.384-41.295l-.12.35z"/>
      <path d="M18.498 110.87c.994 12.748 5.15 23.822 12.34 32.9l.29-.225c-7.147-9.025-11.274-20.035-12.267-32.707l-.362.032z"/>
      <path d="M18.418 110.56l.082.335c.043.168 4.328 17.027 16.545 32.434l.287-.228c-11.217-14.143-15.72-29.51-16.387-31.96 25.67 9.33 39.686 26.198 46.922 38.735l.318-.184c-7.3-12.645-21.46-29.678-47.45-39.018l-.317-.116z"/>
      <path d="M18.364 110.485l.143.426c3.852 11.778 10.438 22.634 19.57 32.263l.262-.252c-8.98-9.472-15.483-20.132-19.345-31.688 3.484 1.865 28.803 15.88 44.398 37.305l.295-.217c-16.744-23.002-44.648-37.488-44.926-37.633l-.398-.202z"/>
      <path d="M19.237 111.49l.236.5c.072.15 7.422 15.366 21.816 31.153l.27-.246c-12.882-14.127-20.1-27.78-21.505-30.553 11.764 6.29 23.96 17.26 37.266 33.518l.286-.234c-13.53-16.523-25.922-27.607-37.883-33.873l-.486-.266z"/>
      <path d="M19.315 111.46l.682.97c11.926 16.92 14.73 19.942 19.824 25.43 1.368 1.474 2.92 3.15 4.855 5.315l.27-.246c-1.932-2.175-3.484-3.847-4.852-5.32-4.984-5.37-7.77-8.374-19.098-24.403 10.11 7.895 22.285 20.79 31.852 31.24l.27-.252c-9.882-10.795-22.548-24.197-32.862-32.02l-.94-.715z"/>
      <path d="M18.815 111.317c.422 2.03 10.508 12.957 29.97 32.473l.265-.266c-24.182-24.24-29.596-30.936-29.88-32.28l-.355.073z"/>
    </g>
    <g>
      <path d="M75.07 114.56c-.33 2.99-.42 5.956-.25 8.886.513 9.02 3.34 17.53 8.417 25.29l.305-.194c-8.47-12.97-14.898-34.486 2.6-63.297.4-.656 2.447-4.447 2.957-5.39 1.575 1.415 13.66 12.74 17.126 30.528l.357-.068c-3.715-19.082-17.287-30.773-17.42-30.893l-.174-.145-.108.197c-.025.053-2.61 4.854-3.055 5.582C79.73 95.093 76.13 104.98 75.07 114.56z"/>
      <path d="M79.55 113.276c-1.593 14.354.956 25.21 4.206 32.78l.336-.147c-5.37-12.51-8.803-34.052 5.375-65.628l-.334-.154C83.47 92.75 80.6 103.782 79.55 113.276z"/>
      <path d="M89.166 80.325c8.49 9.424 13.62 19.992 15.248 31.41l.36-.047c-1.638-11.496-6.8-22.13-15.335-31.607l-.274.245z"/>
      <path d="M81.783 107.282c-1.533 13.8.453 25.617 3.023 34.33l.35-.105c-4.104-13.896-6.695-35.715 4.176-60.91 1.312 2.174 9.338 16.008 11.873 33.916l.367-.05c-2.766-19.513-12.025-34.212-12.12-34.36l-.183-.29-.138.323c-4.186 9.61-6.417 18.748-7.35 27.146z"/>
      <path d="M84.82 103.468c-1.155 10.436-1.546 23.125.704 35.375l.363-.064c-4.8-26.116 2.424-54.257 3.47-58.085 5.716 10.75 8.964 22.824 9.65 35.893l.366-.014c-.7-13.29-4.037-25.56-9.91-36.46l-.21-.394-.128.432c-.05.173-2.814 9.866-4.304 23.316z"/>
      <path d="M86.703 94.462c-1.178 10.62-.826 23.21 1.045 38.08l.365-.045c-2.645-21.04-2.246-37.486 1.22-50.248 1.058 2.915 6.07 17.554 7.45 36.677l.363-.025c-1.54-21.367-7.604-37.16-7.666-37.312l-.195-.512-.152.527c-1.102 3.925-1.914 8.204-2.43 12.857z"/>
      <path d="M89.31 80.544l-.13 1.21c-1.344 12.222-.346 30.5.8 46.77l.364-.026c-1.107-15.695-2.068-33.258-.932-45.426.836 4.615 3.7 21.168 5.15 38.658l.365-.03c-1.707-20.522-5.35-39.765-5.385-39.958l-.23-1.198z"/>
      <path d="M89.244 80.83c.783 1.134 1.916 9.685 2.86 44.02l.362-.017c-.76-27.637-1.742-42.508-2.924-44.21l-.298.206z"/>
    </g>
    <g>
      <path d="M53.22 109.958c-.546 4.953-.622 9.71-.218 14.215l.36-.033c-.657-7.396-.028-15.47 1.886-23.998.168-.75 1.098-4.994 1.32-6.01 1.5.645 11.19 5.016 19.545 14.543l.273-.246c-9.098-10.372-19.777-14.673-19.88-14.722l-.204-.076-.05.213s-1.17 5.37-1.358 6.213c-.76 3.374-1.316 6.683-1.673 9.9z"/>
      <path d="M56.448 94.33c-1.21 12.462-.742 23.897 1.398 34l.36-.077c-2.138-10.066-2.603-21.47-1.39-33.89l-.368-.034z"/>
      <path d="M56.545 94.507c7.797 4.36 14.23 9.844 19.13 16.277l.294-.223c-4.935-6.48-11.407-11.987-19.247-16.374l-.178.32z"/>
      <path d="M56.483 93.985l-.035.344c-1.11 12.958.29 25.427 4.164 37.07l.35-.12c-3.826-11.488-5.23-23.783-4.172-36.566 1.645 1.38 10.572 9.172 18.168 21.34l.31-.19c-8.397-13.454-18.417-21.583-18.52-21.663l-.265-.215z"/>
      <path d="M56.432 93.905l.02.45c.01.218 1.02 22.276 9.392 43.944l.336-.134c-7.68-19.893-9.146-40.12-9.338-43.377 7.31 6.886 13.34 15.214 17.922 24.755l.334-.162c-4.676-9.727-10.846-18.188-18.342-25.174l-.324-.305z"/>
      <path d="M56.65 94.604l.028.562c1.6 31.45 28.037 72.732 28.305 73.143l.31-.2c-.265-.406-26.327-41.104-28.22-72.373 1.885 2.44 10.807 14.416 18.008 30.627l.335-.145c-8.07-18.183-18.31-31.046-18.41-31.175l-.356-.44z"/>
      <path d="M56.647 94.24l.27 1.216c5.122 23.365 27.823 72.34 28.054 72.838l.333-.156c-.227-.488-22.11-47.7-27.738-71.48 3.475 6.375 20.307 37.795 25.814 58.2l.354-.093c-6.14-22.73-26.28-59.074-26.48-59.436l-.607-1.09z"/>
      <path d="M56.778 94.962c3.662 2.71 27.906 71.69 28.148 72.39l.346-.12c-.996-2.848-24.527-69.787-28.275-72.566l-.22.296z"/>
    </g>
  </g>
  <g stroke-miterlimit="10">
    <path fill="#c8e5c8" stroke="#6aa181" d="M92.338 354.405L.808 163.132h182.206z"/>
    <path fill="none" stroke="#667a36" d="M5.377 166.012H178.46L92.325 347.708z"/>
    <path fill="none" stroke="#667a36" d="M9.948 168.89h163.96L92.315 341.01z"/>
    <path fill="none" stroke="#667a36" d="M14.52 171.772h154.836L92.3 334.312z"/>
    <path fill="none" stroke="#667a36" d="M19.09 174.65h145.713L92.29 327.617z"/>
    <path fill="none" stroke="#667a36" d="M23.662 177.532h136.59L92.278 320.92z"/>
    <path fill="none" stroke="#667a36" d="M28.235 180.41H155.7L92.265 314.22z"/>
    <path fill="none" stroke="#667a36" d="M32.805 183.292h118.342L92.254 307.524z"/>
    <path fill="none" stroke="#667a36" d="M37.377 186.17h109.217L92.24 300.828z"/>
    <path fill="none" stroke="#667a36" d="M41.948 189.05H142.04L92.23 294.13z"/>
    <path fill="none" stroke="#667a36" d="M46.52 191.93h90.97l-45.273 95.502z"/>
    <path fill="none" stroke="#667a36" d="M51.09 194.81h81.846l-40.73 85.923z"/>
    <path fill="none" stroke="#667a36" d="M55.66 197.69h72.72l-36.188 76.346z"/>
    <path fill="none" stroke="#667a36" d="M60.233 200.57h63.595L92.18 267.338z"/>
    <path fill="none" stroke="#667a36" d="M64.803 203.45h54.473l-27.108 57.19z"/>
    <path fill="none" stroke="#667a36" d="M69.373 206.33h45.35l-22.566 47.61z"/>
    <path fill="none" stroke="#667a36" d="M73.944 209.21h36.226l-18.027 38.033z"/>
    <path fill="none" stroke="#667a36" d="M78.516 212.09h27.1l-13.485 28.454z"/>
    <path fill="none" stroke="#667a36" d="M83.086 214.97h17.98l-8.947 18.876z"/>
    <path fill="none" stroke="#667a36" d="M87.657 217.85h8.857l-4.406 9.297z"/>
  </g>
  <path fill="#4b5a72" d="M178.9 354.405L87.37 163.132h182.21"/>
  <path d="M9.846 24.093c2.408 5.275 8.623 7.584 13.877 5.16 5.252-2.426 7.557-8.668 5.15-13.943-.492-1.072-2.35-3.12-3.098-3.607C22.23 9.403 11.853 2.583 9.38 0c0 0 .107 14.484-.242 19.383-.052.725.227 3.655.708 4.71z" fill="#b1b661"/>
  <g>
    <path d="M600.545 272.675l74.58-80.658c-14.053-17.006-35.262-27.805-58.926-27.805h-90.23l74.578 108.457v.005z" fill="#4b5a72"/>
    <path d="M663.48 301.264c17.974-14.037 29.257-35.61 29.257-60.17 0-18.697-6.62-35.785-17.61-49.078L525.97 353.326h165.15l-27.643-52.062z" fill="#4b5a72"/>
    <path d="M600.545 272.675v-.006L525.967 164.21v189.113l74.574-80.65z" fill="#c8e5c8" stroke="#6aa181" stroke-miterlimit="10"/>
    <path fill="none" stroke="#667a36" stroke-miterlimit="10" d="M528.852 173.49l68.012 98.913-68.012 73.557z"/>
    <path fill="none" stroke="#667a36" stroke-miterlimit="10" d="M531.73 182.768l61.452 89.37-61.45 66.456z"/>
    <path fill="none" stroke="#667a36" stroke-miterlimit="10" d="M534.612 192.048l54.884 79.822-54.884 59.36z"/>
    <path fill="none" stroke="#667a36" stroke-miterlimit="10" d="M537.49 201.327l48.325 70.275-48.326 52.262z"/>
    <path fill="none" stroke="#667a36" stroke-miterlimit="10" d="M540.37 210.606l41.76 60.73-41.76 45.163z"/>
    <path fill="none" stroke="#667a36" stroke-miterlimit="10" d="M543.248 219.884l35.2 51.185-35.2 38.064z"/>
    <path fill="none" stroke="#667a36" stroke-miterlimit="10" d="M546.13 229.163l28.632 41.64-28.633 30.965z"/>
    <path fill="none" stroke="#667a36" stroke-miterlimit="10" d="M549.01 238.442l22.07 32.094-22.07 23.867z"/>
    <path fill="none" stroke="#667a36" stroke-miterlimit="10" d="M551.89 247.72l15.505 22.548-15.504 16.77z"/>
    <path fill="none" stroke="#667a36" stroke-miterlimit="10" d="M554.768 257l8.94 13.003-8.94 9.668z"/>
    <path fill="none" stroke="#667a36" stroke-miterlimit="10" d="M557.65 266.278l2.378 3.457-2.377 2.572z"/>
  </g>
  <path d="M448.108 68.42c2.97 4.983 9.395 6.606 14.354 3.628 4.96-2.98 6.576-9.434 3.61-14.418-.6-1.014-2.673-2.848-3.468-3.25-3.775-1.906-14.828-7.56-17.562-9.86 0 0 1.672 14.386 1.854 19.294.026.728.622 3.61 1.212 4.605zM659.776 83.087c2.967 4.984 9.393 6.607 14.354 3.627 4.96-2.98 6.576-9.434 3.61-14.418-.603-1.012-2.673-2.848-3.47-3.25-3.773-1.904-14.826-7.56-17.562-9.86 0 0 1.672 14.388 1.855 19.296.027.726.62 3.61 1.213 4.605z" fill="#b1b661"/>
</svg>
